<svg xmlns="http://www.w3.org/2000/svg" viewBox="0 0 273 273"><defs><style>.cls-1{fill:#eec31b;}</style></defs><title>horn</title><g id="instruments"><path class="cls-1" d="M219.25,10.1C215.76,28.93,202.8,51,202.8,51,197,65.8,146.6,115.4,104.73,155.09l-2.58-2.84-2.73,2.48L93,148.17l1.82-2a1.17,1.17,0,0,0-.07-1.66l-.09-.09a1.19,1.19,0,0,0-1.67.07l-5.73,6.25a1.18,1.18,0,0,0,.07,1.66l.1.09a1.18,1.18,0,0,0,1.66-.08L91.32,150l6.27,6.4-2.23,2,2.7,3-2.58,2.44-2.75-3-2.93,2.66L83.41,157l-.89.87,2.66-2.89a1.18,1.18,0,0,0-.07-1.67l-.1-.08a1.17,1.17,0,0,0-1.66.07l-5.73,6.24a1.17,1.17,0,0,0,.07,1.66l.1.09a1.17,1.17,0,0,0,1.66-.07l2.24-2.44L88,165.15l-2,1.85,2.85,3.13-2.6,2.43-2.88-3.17-2.78,2.53L74,165.26l-.69.67L76,163a1.17,1.17,0,0,0-.07-1.66l-.09-.09a1.17,1.17,0,0,0-1.66.07l-5.74,6.24a1.17,1.17,0,0,0,.08,1.66l.09.09a1.17,1.17,0,0,0,1.66-.07l2-2.19,6.4,6.54-2.18,2,3,3.26c-17.37,16.21-30.06,27.83-32,29.73-6.69,6.67-11.65,13.89-9.54,24.53.05.29.12.59.2.88L9.43,259.82l7.71,7,25.38-23.72C48.1,251.28,57.7,258.47,67,256.37c13.09-3,17.61-9.93,17.61-9.93v0c4.68,1.7,9.42-3.31,9.42-3.31l23.19-22.85-9-9.58s-18.95,18.67-22.85,22.58c-3.2,3.21-6.14,7.13-4.18,10.42h0s-.86,2-9.59,5.91-15.15-.7-19.25-4.11a21.65,21.65,0,0,1-5-6.83C61.12,225.73,78,210,94.12,194.92l31.44,34.55,6.79-6.18-31.51-34.64,2.59-2.42L135,220.9l6.79-6.18L110.15,180l2.6-2.43,31.64,34.79,6.79-6.18-6.07-6.68,36.39-32.4c18.27-16.13,7.92-27.94,7.92-27.94-14.76-25.81-36.49-8.35-36.49-8.35l-38.68,34.78-3-3.29c21.32-18.24,48.79-41.7,54.9-46.78,10.29-8.55,24.15-22.63,49.65-37.79a119.54,119.54,0,0,1,50.95-16.13Zm-175,218.42c-.05-.39-.08-.79-.1-1.18-.34-6.72,5.69-11.88,5.69-11.88L84.92,184.8h0l3.57,3.93Zm51.08-45.93-3.42-3.76,2.7-2.31L98,180.21Zm56.42-41.24c8.68-7.74,18.94-13.57,27.76-5.14s1.55,17.69,1.55,17.69l-42.24,38.65-19.35-21.27C136.3,155.6,149.16,143.64,151.74,141.35ZM107.43,171.7l-2.64,2.37-3.21-3.52,2.7-2.31Z"/></g></svg>