<svg xmlns="http://www.w3.org/2000/svg" viewBox="0 0 273 273"><defs><style>.cls-1{fill:#eec31b;}.cls-2{fill:none;stroke:#eec31b;stroke-miterlimit:10;stroke-width:5px;}</style></defs><title>mic</title><g id="instruments"><path class="cls-1" d="M170.38,110.32l-45.26,11.14a3.89,3.89,0,0,1-4.7-2.84l-1.16-4.69a3.89,3.89,0,0,1,2.85-4.7l45.05-11.09c-.55-2.23-1.21-5-2-8.26L120.08,101a3.89,3.89,0,0,1-4.7-2.84l-1.16-4.69a3.89,3.89,0,0,1,2.85-4.7L162.4,77.6c-.61-2.69-1.23-5.47-1.86-8.29L115,80.52a3.89,3.89,0,0,1-4.7-2.85L109.18,73A3.9,3.9,0,0,1,112,68.28L157.82,57,156,48.72,110,60.05a3.89,3.89,0,0,1-4.7-2.85l-1.16-4.68A3.9,3.9,0,0,1,107,47.81l46.32-11.4c-1.82-8.36-3-14-3-14S145.66,1.87,116.4,2.25l3.52,14.27a5.06,5.06,0,0,1-9.82,2.42L106.22,3.19c-1.51.23-3.29.53-5.27.9l4,16.13a5.06,5.06,0,0,1-9.82,2.41l-4-16.34A91.23,91.23,0,0,0,80.35,9.77s-35.9,16.38-30.87,44.1c.42,2.26.9,4.78,1.43,7.49l19-4.67a3.9,3.9,0,0,1,4.71,2.85l1.15,4.68a3.9,3.9,0,0,1-2.84,4.71L53.42,73.72c.56,2.7,1.15,5.48,1.76,8.31l19.74-4.87A3.9,3.9,0,0,1,79.63,80l1.15,4.69a3.89,3.89,0,0,1-2.84,4.7l-20.1,4.95c.6,2.77,1.21,5.54,1.82,8.29l20.3-5a3.89,3.89,0,0,1,4.71,2.84l1.15,4.69a3.89,3.89,0,0,1-2.84,4.7L62.4,114.94c.64,2.87,1.26,5.64,1.86,8.28L85,118.11A3.9,3.9,0,0,1,89.71,121l1.15,4.69a3.89,3.89,0,0,1-2.84,4.7l-21,5.16c1.58,6.93,2.59,11.28,2.59,11.28s3.91,12.68,20.74,15.29a49.18,49.18,0,0,0,5,16.59c4.06,8.08,9.72,14.39,15.58,18.05v71.08h31.07V184.44h-6.22c.62-6.93-1-15.32-5.14-23.48a51.63,51.63,0,0,0-3.94-6.62l-1.63-6.62a5.06,5.06,0,1,1,9.82-2.41l2.9,11.76q2.58-.7,5.12-1.53L140.14,144a5.06,5.06,0,0,1,9.82-2.42l2.54,10.32c1.67-.72,3.32-1.49,4.93-2.3l-2.29-9.29a5.06,5.06,0,1,1,9.82-2.42l1.47,6C175.5,135.29,173.48,122.38,170.38,110.32Z"/><path class="cls-2" d="M138.86,153c8.37,16.7,7.68,34-1.56,38.62s-23.5-5.15-31.88-21.85"/></g></svg>