<svg xmlns="http://www.w3.org/2000/svg" viewBox="0 0 273 273"><defs><style>.cls-1{fill:#eec31b;}</style></defs><title>bass</title><g id="instruments"><path class="cls-1" d="M200.84,157c-12.1,7.79-18.75,2.05-26.36-7.81s-.07-21.93-.07-21.93C156.73,101.59,131.55,97,119,95.67s-18.26-8.25-18.26-8.25l-2,1.45L59.78,38.1c.52-.49,1.12-1.25.82-1.66l-2.94-3.61.35-.25a1.25,1.25,0,1,0-1.47-2l-.47.34-1-1.28.54-.39a1.26,1.26,0,1,0-1.48-2l-.65.47-1-1.27.73-.53a1.25,1.25,0,0,0-1.47-2l-.84.61-1.54-1.89c-2.28.79-4.22.7-5-.4s-.28-3,1.17-4.9L44.2,15.54c-.38-.53-6-1.42-6.5-1l-2.32,1.17c-.53.38-.92,6.12-.54,6.65l1.33,1.83c2.16-.69,4-.57,4.74.49s.32,2.83-1,4.67l1.34,2.07-.59.42a1.27,1.27,0,0,0-.28,1.76,1.25,1.25,0,0,0,1.75.27l.48-.34.89,1.38-.4.29a1.25,1.25,0,1,0,1.47,2l.29-.21.89,1.38-.22.16a1.26,1.26,0,0,0,1.48,2l.1-.08,2.47,3.83c.3.41,1.22.14,1.87-.18L88.12,97.31l-1.59,1.52c4.7,14.41-1.75,32.66-1.75,32.66-4.76,26.85,16.09,47.45,16.09,47.45,2.94-4.16,12.94-10.27,23.07,6.29s-4.57,29.08-4.57,29.08c5.44,51.21,46.42,57.92,61.3,52.74a118.82,118.82,0,0,0,20.53-9.46L215.68,269s4.35,2.4,2.6-2.31c-1.37-3.67-6-11.78-7.95-15.15,12-8.9,23.26-21.71,26.92-39.55C244.25,177.92,200.84,157,200.84,157ZM133.6,180.3s-2.14.72-2.52,2,1.38,4.32,3,6.43,4.72,5.24,7.64,11.29,2.46,9.9,2,11.43-.76,5-5.78,6.56-7.25-1.9-8.38-3.5.46-7.29,4.43-5.34.86,4.59.86,4.59c2.4-.3,3.32-1.74,4.49-3.18s.81-4,.13-7.1-7.4-10.67-9-13.53-2.95-7.94-1.25-10.49a5.45,5.45,0,0,1,5.63-2.42c1.13.33,4.6,3.37,1.55,5S133.6,180.3,133.6,180.3Zm44.89,21.64s8.23,13.44,8.89,18.61,21.39,26.8,21.39,26.8-6.82,7.54-11.06,8.52c0,0-12.23-22.14-20.17-27.69s-11.36-8.74-14.91-14.78l6.14-4.43-14.26-20.58-10.81,7.07-3.28-5,10.67-7L54.62,44.16l1.84-1.28L153,182.23l2.33-1.53L58.55,41l1.84-1.28,96.79,139.75,8.78-5.75,3.28,5-8.64,5.65,14.05,20.3Zm14.34-19.67c-3.63,3.78-6.91,2.48-8.46,2.16s-5.2-1.64-9.26-7-5.42-9.58-6.58-12-3-5.29-4.37-5.55-2.95,1.31-2.95,1.31,3.13,1.3.3,3.28-4-2.5-3.74-3.65a5.43,5.43,0,0,1,4.72-3.91c3-.36,6.94,3.15,8.76,5.88S176.75,175,179.2,177s4.57,3.48,6.38,3.1,3.52-.54,4.88-2.54c0,0-3.77,1.57-3.7-2.85s5.86-3.25,6.77-1.51S196.46,178.49,192.83,182.27Z"/><polygon class="cls-1" points="170.59 207.66 172.84 206.03 158.72 185.64 156.39 187.16 170.59 207.66"/></g></svg>