<svg id="Layer_1" enable-background="new 0 0 512 512" height="512" viewBox="0 0 512 512" width="512" xmlns="http://www.w3.org/2000/svg"><g><path d="m482 56h-452c-16.542 0-30 13.458-30 30v340c0 16.542 13.458 30 30 30h452c16.542 0 30-13.458 30-29.999v-340.001c0-16.542-13.458-30-30-30zm10 370c0 5.514-4.486 9.999-10 9.999h-452c-5.514 0-10-4.485-10-9.999v-340c0-5.514 4.486-10 10-10h452c5.514 0 10 4.485 10 9.999z"/><path d="m200.002 96c-88.225 0-160 71.775-160 160s71.775 160 160 160c88.224 0 159.999-71.775 159.999-160s-71.775-160-159.999-160zm0 300c-77.196 0-140-62.804-140-140s62.804-140 140-140c77.195 0 139.999 62.804 139.999 140s-62.804 140-139.999 140z"/><path d="m200.002 356c-5.522 0-10 4.478-10 10s4.478 10 10 10c66.168 0 120-53.832 120-120 0-5.522-4.478-10-10-10s-10 4.478-10 10c0 55.14-44.859 100-100 100z"/><path d="m421.999 96c-27.57 0-50 22.43-50 50 0 24.146 17.205 44.349 40 48.995v144.827l-39.106 39.106c-3.905 3.905-3.905 10.237 0 14.143 1.953 1.952 4.512 2.929 7.071 2.929s5.118-.977 7.071-2.929l42.035-42.035c1.875-1.876 2.929-4.419 2.929-7.071v-148.97c22.795-4.646 40-24.848 40-48.995 0-27.571-22.43-50-50-50zm10 78.28v-28.28c0-5.522-4.478-10-10-10s-10 4.478-10 10v28.28c-11.639-4.128-20-15.244-20-28.281 0-16.542 13.458-30 30-30s30 13.458 30 30c0 13.038-8.361 24.153-20 28.281z"/><path d="m270.002 256c0-38.66-31.34-70-70-70s-70 31.34-70 70 31.34 70 70 70 70-31.341 70-70zm-100 0c0-16.569 13.431-30 30-30 16.568 0 30 13.431 30 30 0 16.568-13.431 30-30 30s-30-13.432-30-30z"/><path d="m210.002 146c0-5.522-4.478-10-10-10-66.168 0-120 53.832-120 120 0 5.522 4.478 10 10 10s10-4.478 10-10c0-55.141 44.859-100 100-100 5.522 0 10-4.478 10-10z"/></g></svg>