<svg id="Capa_1" enable-background="new 0 0 510.639 510.639" height="512" viewBox="0 0 510.639 510.639" width="512" xmlns="http://www.w3.org/2000/svg"><g><path d="m499.14 175.21h-3.834v-6.762c0-15.09-12.277-27.367-27.367-27.367h-159.24c-15.09 0-27.367 12.277-27.367 27.367v6.762h-3.834c-6.34 0-11.498 5.158-11.498 11.498v15.51c0 6.34 5.158 11.499 11.498 11.499h2.425c-1.698 10.889-2.705 21.838-3.034 32.784h-43.142c-.329-10.945-1.335-21.893-3.034-32.784h2.426c6.34 0 11.498-5.158 11.498-11.499v-15.51c0-6.34-5.158-11.498-11.498-11.498h-3.834v-6.762c0-15.09-12.277-27.367-27.367-27.367h-74.22c-4.142 0-7.5 3.358-7.5 7.5s3.358 7.5 7.5 7.5h74.22c6.819 0 12.367 5.548 12.367 12.367v6.762h-183.973v-6.762c0-6.819 5.548-12.367 12.367-12.367h55.02c4.142 0 7.5-3.358 7.5-7.5s-3.358-7.5-7.5-7.5h-55.02c-15.09 0-27.367 12.277-27.367 27.367v6.762h-3.834c-6.34 0-11.498 5.158-11.498 11.498v15.51c0 6.34 5.158 11.499 11.498 11.499h2.425c-7.249 46.486-1.96 94.061 15.369 137.858l2.906 7.344c2.557 6.462 8.7 10.638 15.649 10.638h148.943c6.949 0 13.092-4.175 15.65-10.638l2.906-7.344c4.158-10.509 7.614-21.234 10.379-32.106h59.191c2.765 10.874 6.22 21.6 10.377 32.106l2.906 7.344c2.557 6.462 8.7 10.638 15.649 10.638h148.943c6.949 0 13.092-4.175 15.65-10.638l2.906-7.344c17.337-43.816 22.619-91.367 15.368-137.858h2.426c6.34 0 11.498-5.158 11.498-11.499v-15.51c0-6.34-5.159-11.498-11.499-11.498zm-218.14 15h79.684c4.142 0 7.5-3.358 7.5-7.5s-3.358-7.5-7.5-7.5h-64.352v-6.762c0-6.819 5.548-12.367 12.367-12.367h159.24c6.819 0 12.367 5.548 12.367 12.367v6.762h-89.622c-4.142 0-7.5 3.358-7.5 7.5s3.358 7.5 7.5 7.5h104.955v8.507h-214.639zm140.362 164.347h-61.173l-10.193-26.445c-9.2-23.867-13.865-48.863-13.865-74.293v-6.873c3.83-1.825 6.84-5.053 8.329-9.206l8.611-24.023h75.41l8.611 24.023c1.489 4.153 4.499 7.381 8.329 9.206v6.873c0 25.43-4.665 50.426-13.865 74.293zm-91.023-121.879c-.303.845-1.296.937-1.709.937s-1.406-.091-1.709-.937l-6.797-18.961h17.011zm124.29 0c-.303.845-1.296.937-1.709.937s-1.406-.091-1.709-.937l-6.797-18.961h17.011zm-439.629-42.468h214.639v8.507h-214.639zm140.362 164.347h-61.173l-10.193-26.445c-9.2-23.867-13.865-48.863-13.865-74.293v-6.873c3.83-1.825 6.84-5.053 8.329-9.206l8.611-24.023h75.41l8.611 24.023c1.489 4.153 4.499 7.381 8.329 9.206v6.873c0 25.43-4.665 50.426-13.865 74.293zm-91.023-121.879c-.303.845-1.296.937-1.709.937s-1.406-.091-1.709-.937l-6.797-18.961h17.011zm124.29 0c-.303.845-1.296.937-1.709.937s-1.406-.091-1.709-.937l-6.796-18.961h17.011zm-142.482 120.723-2.906-7.344c-16.633-42.036-21.501-87.761-14.12-132.339h9.069l8.611 24.023c1.489 4.153 4.499 7.381 8.329 9.206v6.873c0 27.282 5.003 54.093 14.869 79.688l8.114 21.05h-30.265c-.756-.001-1.424-.455-1.701-1.157zm155.251-7.344-2.905 7.343c-.278.703-.946 1.157-1.702 1.157h-25.353l8.114-21.05c9.866-25.596 14.869-52.407 14.869-79.688v-6.873c3.83-1.825 6.84-5.053 8.329-9.206l8.611-24.023h4.156c7.383 44.584 2.521 90.286-14.119 132.34zm27.683-41.588c2.738-14.173 4.305-28.543 4.691-42.968h43.097c.387 14.426 1.952 28.796 4.688 42.968zm83.066 48.932-2.906-7.344c-16.633-42.036-21.501-87.761-14.12-132.339h9.069l8.611 24.023c1.489 4.153 4.499 7.381 8.329 9.206v6.873c0 27.282 5.003 54.093 14.869 79.688l8.114 21.05h-30.266c-.755-.001-1.423-.455-1.7-1.157zm155.251-7.344-2.905 7.343c-.278.703-.946 1.157-1.702 1.157h-25.353l8.114-21.05c9.866-25.596 14.869-52.407 14.869-79.688v-6.873c3.83-1.825 6.84-5.053 8.329-9.206l8.611-24.023h4.156c7.383 44.584 2.521 90.286-14.119 132.34z"/></g></svg>