<svg id="Capa_1" enable-background="new 0 0 512.009 512.009" height="512" viewBox="0 0 512.009 512.009" width="512" xmlns="http://www.w3.org/2000/svg"><g><path d="m505.44 473.717-17.172-17.172c-2.932-2.931-7.685-2.931-10.617 0-2.932 2.933-2.932 7.685 0 10.618l17.172 17.172c6.727 6.727-3.966 16.999-10.487 10.479-.782-.782-140.482-140.481-140.482-140.481l10.483-10.484 98.597 98.598c2.932 2.931 7.685 2.931 10.617 0 2.932-2.933 2.932-7.685 0-10.618l-11.894-11.894c11.823-14.065 22.154-29.376 30.694-45.655 21.464-40.918 31.254-87.582 28.595-133.706-.673-11.674-2.142-23.301-4.401-34.774-8.166-41.486-25.894-79.7-52.606-112.319-16.957-20.708-37.377-38.344-59.827-52.861-14.096-9.114-29.095-16.826-44.715-22.974-15.641-6.156-31.896-10.739-48.445-13.68-1.003-.178-2.008-.351-3.013-.517-19.563-3.233-39.507-4.183-59.284-2.883-61.884 4.045-119.509 30.064-163.765 74.32-.075.075-.15.15-.224.225-15.919 15.957-29.762 33.974-40.988 53.523-11.076 19.288-19.583 40.033-25.241 61.543-5.618 21.358-8.437 43.517-8.437 65.51 0 65.194 24.25 126.653 68.458 174.11 2.667 2.863 5.431 5.7 8.221 8.437 17.535 17.198 37.529 31.936 59.233 43.478.218.116.436.231.654.347 19.774 10.441 40.929 18.229 62.749 23.118 9.906 2.22 19.946 3.844 30.045 4.872 5.097.518 10.21.885 15.329 1.1 6.171.26 12.352.299 18.528.118 22.694-.665 45.313-4.3 67.035-10.885 21.281-6.452 41.688-15.727 60.549-27.507 10.201-6.372 19.929-13.486 29.13-21.229l53.79 53.79c4.236 4.237 9.868 6.57 15.859 6.57s11.623-2.333 15.859-6.569 6.569-9.868 6.569-15.859c.001-5.993-2.332-11.625-6.568-15.861zm-148.683-153.523-36.557 36.558c-4.639 4.637-12.185 4.639-16.824 0l-45.357-45.358c-2.247-2.246-3.484-5.234-3.484-8.411 0-3.178 1.237-6.165 3.484-8.412l36.558-36.558c2.247-2.247 5.235-3.485 8.412-3.485s6.165 1.238 8.412 3.485l45.358 45.358c2.246 2.246 3.484 5.234 3.484 8.411-.002 3.179-1.239 6.166-3.486 8.412zm-34.74-72.797c-5.083-5.083-11.841-7.883-19.029-7.883s-13.946 2.8-19.029 7.882l-36.558 36.559c-5.083 5.082-7.882 11.841-7.882 19.029s2.799 13.945 7.882 19.029l2.743 2.742c-35.631-2.838-63.762-32.72-63.762-69.068 0-38.218 31.092-69.31 69.31-69.31 36.349 0 66.23 28.131 69.068 63.763zm118.968 161.866-21.851-21.852c5.225-6.467 10.103-13.226 14.543-20.292l26.657 15.383c-5.789 9.302-12.256 18.235-19.349 26.761zm54.963-139.479c-2.001 34.56-11.667 69.033-28.141 99.696l-26.532-15.311c5.307-9.986 9.821-20.553 13.437-31.265 5.162-15.29 8.533-31.081 10.069-47.099.081-.846.738-12.61.839-12.61h30.619c-.066-.001-.266 6.168-.291 6.589zm.292-21.605h-30.638c-1.157-32.76-9.848-63.631-24.395-90.935l26.664-15.387c17.456 32.437 27.222 68.637 28.369 106.322zm-35.951-119.282-26.532 15.311c-16.871-26.902-39.686-49.716-66.587-66.588l15.311-26.531c31.536 19.582 58.225 46.272 77.808 77.808zm-197.09-113.759c37.686 1.147 73.885 10.913 106.322 28.37l-15.387 26.664c-27.304-14.547-58.175-23.238-90.935-24.395zm-96.46 16.887c8.574-3.401 17.345-6.306 26.252-8.702 17.991-4.839 36.574-7.626 55.193-8.185v30.62c0 .12-3.556.169-4.098.199-11.564.641-23.262 2.272-34.561 4.806-6.145 1.379-12.229 3.033-18.226 4.957-2.924.938-34.61 13.481-34.09 14.382 0 0-15.308-26.527-15.311-26.531-.234-.407 22.723-10.706 24.841-11.546zm-151.562 215.217c.066-1.886.148-3.771.258-5.653.015-.268.033-.536.049-.804 2.144-34.631 11.727-68.43 28.091-98.891l26.532 15.311c-11.661 21.943-22.997 53.872-24.345 90.974h-30.62c.01-.312.024-.624.035-.937zm-.034 15.952h30.637c1.157 32.76 9.848 63.631 24.395 90.935l-26.663 15.387c-17.456-32.437-27.222-68.636-28.369-106.322zm113.758 197.091c-31.536-19.582-58.225-46.272-77.807-77.808l26.531-15.311c16.871 26.902 39.685 49.716 66.587 66.588zm119.283 35.951c-37.686-1.147-73.885-10.913-106.322-28.37l15.387-26.664c27.304 14.547 58.175 23.238 90.934 24.395v30.639zm-47.661-53.448c-26.516-7.832-51.24-21.398-72.161-39.466-20.788-17.953-37.742-40.266-49.399-65.141-12.067-25.749-18.316-54.062-18.316-82.494 0-.209.111-19.49 2.986-33.941 5.884-33.234 20.328-64.637 42.096-90.78 2.653-3.186 2.22-7.92-.966-10.573-3.186-2.652-7.919-2.22-10.573.966-6.049 7.264-11.566 14.909-16.542 22.864l-26.599-15.35c9.674-15.545 21.189-30.099 34.458-43.368s27.823-24.784 43.368-34.458l15.352 26.602c-8.454 5.291-16.563 11.19-24.239 17.693-3.164 2.68-3.556 7.418-.876 10.581s7.417 3.555 10.581.876c26.097-22.108 57.501-36.831 90.83-42.945 4.857-.891 9.773-1.6 14.644-2.116 2.217-.235 4.418-.431 6.642-.589 16.528-1.177 33.275-.259 49.596 2.773 13.817 2.567 27.348 6.645 40.283 12.138 12.706 5.396 24.831 12.152 36.113 20.105 11.206 7.898 21.579 16.974 30.9 27.028 9.335 10.068 17.612 21.115 24.643 32.907 7.105 11.915 12.934 24.589 17.343 37.743 4.512 13.46 7.531 27.415 8.999 41.535 1.118 10.752 1.332 21.229.686 32.06-.968 16.224-4 32.421-8.949 47.817-1.088 3.383-2.268 6.737-3.541 10.055-7.107 18.536-17.092 35.908-29.415 51.438l-43.512-43.512 2.42-2.42c5.083-5.083 7.882-11.842 7.882-19.03s-2.8-13.946-7.882-19.029l-27.869-27.869c.331-3.022.511-6.089.511-9.198 0-46.497-37.828-84.325-84.325-84.325s-84.325 37.828-84.325 84.325 37.828 84.325 84.325 84.325c3.109 0 6.176-.178 9.196-.513l27.871 27.871c5.246 5.246 12.138 7.869 19.029 7.869 6.892 0 13.783-2.623 19.029-7.869l2.42-2.42 43.518 43.518c-1.531 1.216-3.075 2.417-4.644 3.585-26.906 20.034-58.937 33.015-92.081 37.156-6.182.772-12.401 1.253-18.628 1.433-20.545.59-41.16-2.033-60.879-7.857zm135.343 39.86c-5.218 1.84-10.5 3.498-15.833 4.973-15.922 4.404-32.676 7.646-49.153 8.512-2.558.134-5.122.17-7.682.056.012-2.445 0-4.894 0-7.342v-23.231c.528-.019 1.054-.056 1.582-.079 9.834-.424 20.052-1.589 29.712-3.398 13.033-2.441 25.986-6.184 38.32-11.037 1.822-.717 21.551-9.502 21.361-9.831.004.006 15.293 26.5 15.311 26.531.448.776-30.737 13.83-33.618 14.846zm46.642-22.319-15.383-26.657c7.067-4.44 13.843-9.298 20.309-14.526l21.835 21.834c-8.527 7.093-17.46 13.561-26.761 19.349z"/></g></svg>