<?xml version="1.0" encoding="iso-8859-1"?>
<!-- Generator: Adobe Illustrator 19.0.0, SVG Export Plug-In . SVG Version: 6.00 Build 0)  -->
<svg version="1.1" id="Layer_1" xmlns="http://www.w3.org/2000/svg" xmlns:xlink="http://www.w3.org/1999/xlink" x="0px" y="0px"
	 viewBox="0 0 512 512" style="enable-background:new 0 0 512 512;" xml:space="preserve">
<g>
	<g>
		<path d="M423.739,157.333c-34.652-10.691-81.793-17.735-133.092-19.913c-0.209-0.328-0.41-0.65-0.603-0.967
			c-6.065-9.978-15.667-16.666-26.549-18.786V7.809c0-4.104-3.162-7.683-7.264-7.806c-4.244-0.128-7.726,3.276-7.726,7.492v110.171
			c-10.882,2.119-20.484,8.808-26.55,18.786c-0.193,0.317-0.394,0.64-0.603,0.966c-51.3,2.179-98.44,9.223-133.092,19.913
			c-39.753,12.264-59.91,27.897-59.91,46.463c0,16.959,17.587,31.863,51.115,43.575c0.203,0.071,0.409,0.141,0.613,0.211
			c1.12,0.388,2.257,0.772,3.412,1.153c0.241,0.08,0.472,0.162,0.714,0.241c21.611,7.555,78.152,27.353,110.907,38.825
			c14.128,5.32,22.368,11.683,26.796,16.091c1.737,1.729,3.327,3.844,4.862,6.467c2.343,4.001,5.34,7.399,8.804,10.085v43.049
			c0,4.104,3.162,7.683,7.264,7.806c4.244,0.128,7.726-3.276,7.726-7.492v-36.372h10.877v164.58c0,2.759-2.238,4.997-4.997,4.997
			h-0.883c-2.759,0-4.997-2.238-4.997-4.997v-80.55c0-4.104-3.162-7.683-7.264-7.806c-4.244-0.128-7.726,3.276-7.726,7.492v95.855
			c0,2.759,2.238,4.997,4.997,4.997h30.864c2.759,0,4.997-2.238,4.997-4.997V320.442c3.464-2.686,6.461-6.084,8.804-10.085
			c1.535-2.622,3.125-4.738,4.862-6.467c4.427-4.407,12.667-10.771,26.796-16.091c32.755-11.472,89.295-31.269,110.906-38.824
			c0.242-0.079,0.473-0.162,0.714-0.241c1.16-0.382,2.3-0.768,3.426-1.157c0.198-0.069,0.398-0.136,0.595-0.205
			c33.532-11.712,51.121-26.617,51.121-43.577C483.649,185.229,463.492,169.597,423.739,157.333z M311.853,273.68
			c-0.053,0.019-0.106,0.038-0.158,0.058c-16.671,6.262-26.7,14.076-32.177,19.529c-2.665,2.652-5.028,5.766-7.224,9.518
			c-3.541,6.048-9.633,9.66-16.295,9.66s-12.755-3.611-16.295-9.659c-2.196-3.752-4.559-6.866-7.224-9.518
			c-5.477-5.452-15.506-13.266-32.177-19.529c-0.052-0.02-0.105-0.039-0.158-0.058l-17.369-6.081
			c9.567,0.896,19.404,1.606,29.437,2.143c0.033,0.002,0.067,0.003,0.1,0.005c3.011,0.161,6.039,0.305,9.085,0.432
			c1.271,0.054,2.544,0.104,3.82,0.151c1.331,0.049,2.662,0.099,3.999,0.142c2.14,0.069,4.287,0.129,6.441,0.181
			c0.834,0.02,1.668,0.041,2.505,0.058c2.557,0.055,5.122,0.098,7.695,0.13c0.554,0.007,1.108,0.011,1.663,0.016
			c2.818,0.029,5.643,0.047,8.478,0.047c2.835,0,5.659-0.019,8.479-0.047c0.555-0.006,1.109-0.01,1.663-0.016
			c2.573-0.031,5.138-0.075,7.695-0.13c0.836-0.018,1.671-0.038,2.505-0.058c2.153-0.053,4.3-0.112,6.44-0.181
			c1.338-0.043,2.668-0.092,3.999-0.142c1.276-0.048,2.55-0.098,3.821-0.151c3.046-0.127,6.075-0.271,9.085-0.432
			c0.033-0.002,0.067-0.003,0.1-0.005c10.032-0.537,19.87-1.246,29.437-2.143L311.853,273.68z M431.659,231.767
			c-0.106,0.033-0.209,0.056-0.315,0.093l-8.055,2.812c-38.317,12.523-94.803,20.229-155.108,21.148
			c-0.035,0-0.069,0.001-0.104,0.002c-1.77,0.027-3.545,0.046-5.321,0.061c-0.288,0.002-0.575,0.006-0.863,0.009
			c-1.962,0.014-3.927,0.022-5.895,0.022c-1.968,0-3.933-0.008-5.895-0.022c-0.288-0.002-0.576-0.006-0.863-0.009
			c-1.776-0.015-3.551-0.034-5.321-0.061c-0.035,0-0.069-0.001-0.104-0.002c-60.305-0.919-116.791-8.626-155.108-21.148
			l-8.055-2.812c-0.106-0.037-0.21-0.06-0.315-0.093c-26.864-9.995-37-20.56-37-27.972c0-8.179,12.962-20.915,49.339-32.139
			c34.291-10.579,81.536-17.472,133.034-19.409c2.323-0.087,4.473-1.247,5.822-3.14c1.237-1.736,2.294-3.329,3.23-4.869
			c3.28-5.396,8.157-9.261,13.74-11.099v2.063c0,4.139,3.356,7.495,7.495,7.495s7.495-3.356,7.495-7.495v-2.063
			c5.583,1.838,10.46,5.703,13.74,11.098c0.936,1.54,1.993,3.133,3.23,4.869c1.349,1.893,3.499,3.052,5.822,3.14
			c51.497,1.937,98.743,8.83,133.033,19.409c36.377,11.223,49.339,23.96,49.339,32.138
			C468.658,211.207,458.522,221.771,431.659,231.767z"/>
	</g>
</g>
<g>
	<g>
		<path d="M299.16,169.626c-1.553-3.838-5.924-5.686-9.76-4.132c-21.389,8.664-45.316,9.623-67.37,2.697
			c-3.95-1.241-8.157,0.955-9.396,4.905c-1.24,3.949,0.956,8.157,4.905,9.396c11.196,3.517,22.809,5.266,34.409,5.266
			c14.679,0,29.336-2.802,43.08-8.371C298.864,177.833,300.714,173.463,299.16,169.626z"/>
	</g>
</g>
<g>
	<g>
		<circle cx="138.829" cy="221.836" r="8.579"/>
	</g>
</g>
<g>
	<g>
		<circle cx="179.253" cy="213.252" r="8.579"/>
	</g>
</g>
<g>
	<g>
		<circle cx="147.403" cy="185.54" r="8.579"/>
	</g>
</g>
<g>
	<g>
		<circle cx="372.607" cy="185.54" r="8.579"/>
	</g>
</g>
<g>
</g>
<g>
</g>
<g>
</g>
<g>
</g>
<g>
</g>
<g>
</g>
<g>
</g>
<g>
</g>
<g>
</g>
<g>
</g>
<g>
</g>
<g>
</g>
<g>
</g>
<g>
</g>
<g>
</g>
</svg>
