<?xml version="1.0" encoding="iso-8859-1"?>
<!-- Generator: Adobe Illustrator 19.0.0, SVG Export Plug-In . SVG Version: 6.00 Build 0)  -->
<svg version="1.1" id="Capa_1" xmlns="http://www.w3.org/2000/svg" xmlns:xlink="http://www.w3.org/1999/xlink" x="0px" y="0px"
	 viewBox="0 0 470 470" style="enable-background:new 0 0 470 470;" xml:space="preserve">
<g>
	<path d="M358.458,0H111.542C98.755,0,88.353,10.402,88.353,23.189v15.689c0,52.479,8.146,103.279,23.559,146.911
		c14.541,41.164,34.786,73.973,58.71,95.219l-18.481,109.338c-0.008,0.041-0.014,0.082-0.021,0.123l-8.958,52.999
		c-0.517,3.059,0.902,6.119,3.57,7.701C148.028,451.938,179.126,470,235,470c55.874,0,86.972-18.062,88.268-18.83
		c2.668-1.582,4.087-4.644,3.57-7.701l-8.951-52.956c-0.01-0.061-0.019-0.123-0.031-0.184L299.377,281.01
		c23.924-21.247,44.17-54.056,58.711-95.22c15.412-43.632,23.559-94.433,23.559-146.911V23.189C381.647,10.402,371.245,0,358.458,0z
		 M311.126,440.525C301.203,445.095,275.06,455,235,455c-39.819,0-66.143-9.936-76.124-14.494l6.298-37.258l28.57,15.116
		c2.195,1.162,4.82,1.162,7.016,0l34.237-18.114l34.242,18.115c1.097,0.58,2.302,0.87,3.507,0.87s2.41-0.29,3.507-0.87
		l28.574-15.116L311.126,440.525z M111.542,15h246.915c4.516,0,8.189,3.674,8.189,8.189v8.189H103.353v-8.189
		C103.353,18.674,107.027,15,111.542,15z M181.139,46.379c0.477,93.679,9.853,178.93,24.458,224.206h-24.111
		c-46.346-40.322-76.58-127.329-78.069-224.206H181.139z M272.745,403.25l-34.242-18.115c-2.193-1.16-4.819-1.161-7.015,0.001
		L197.25,403.25l-29.445-15.579l17.255-102.086h31.155c0.068,0,37.499,0,37.499,0c0.068,0,31.222,0,31.222,0l17.255,102.086
		L272.745,403.25z M288.513,270.585h-24.098c7.877-24.291,14.27-59.972,18.63-104.257c0.406-4.123-2.606-7.793-6.729-8.199
		c-4.111-0.392-7.793,2.606-8.199,6.729c-4.495,45.645-11.387,82.839-19.545,105.728h-27.147
		c-15.045-42.063-24.801-128.382-25.287-224.206h77.713c-0.153,30.624-1.23,60.457-3.233,88.768
		c-0.292,4.132,2.82,7.719,6.952,8.011c0.181,0.013,0.359,0.019,0.537,0.019c3.901,0,7.194-3.02,7.474-6.971
		c2.027-28.659,3.116-58.848,3.27-89.826h77.732C365.095,143.258,334.859,230.265,288.513,270.585z"/>
</g>
<g>
</g>
<g>
</g>
<g>
</g>
<g>
</g>
<g>
</g>
<g>
</g>
<g>
</g>
<g>
</g>
<g>
</g>
<g>
</g>
<g>
</g>
<g>
</g>
<g>
</g>
<g>
</g>
<g>
</g>
</svg>
