<svg width="710" height="710" viewBox="0 0 710 710" fill="none" xmlns="http://www.w3.org/2000/svg">
<circle cx="355" cy="355" r="350" stroke="white" stroke-width="10"/>
<path d="M263.303 400.349C261.325 397.712 260.831 394.581 262.479 392.933C264.028 391.9 265.362 391.892 266.479 392.199C267.696 392.533 268.645 393.455 269.408 394.459L282.711 411.964C283.496 412.997 284.228 414.269 283.765 415.48C282.699 418.264 277.933 418.593 276.901 417.243C273.329 412.574 265.281 402.987 263.303 400.349Z" fill="#FF7675"/>
<path d="M167.708 394.993C161.39 402.135 150.978 421.941 159.879 444.027C162.076 448.971 169.273 462.157 180.481 475.342C194.491 491.824 215.093 523.552 238.58 520.668C262.067 517.783 279.373 507.07 300.799 463.805C301.761 460.234 304.59 452.927 308.216 452.268C312.749 451.443 317.281 448.971 308.216 448.147C310.414 444.576 317.858 437.269 330.055 436.61C342.554 433.863 366.81 423.507 363.843 404.058C363.019 401.448 359.64 396.888 352.718 399.525C344.064 402.822 331.703 409.002 324.698 397.465C317.693 385.928 332.115 377.275 337.472 373.154C338.021 372.742 339.037 371.424 338.708 369.446C331.81 374.619 318.793 384.468 313.573 388.702C317.858 415.644 338.158 413.461 347.773 409.002C351.207 406.942 358.074 403.728 358.074 407.354C358.074 411.887 344.477 426.721 324.698 429.193C308.876 431.171 298.052 446.224 294.619 453.504C277.725 489.764 268.248 497.181 262.479 496.357C257.864 495.698 258.084 489.764 258.77 486.88C264.127 448.971 236.932 446.499 224.982 420.54C215.423 399.773 236.932 387.713 248.881 384.28C285.142 375.627 288.438 360.381 296.267 352.964C302.53 347.03 305.469 355.801 306.156 360.928L321.402 349.255C314.122 349.667 300.799 346.701 305.744 331.537C311.925 312.583 324.286 319.176 319.342 306.402C314.397 293.629 293.795 300.634 282.669 312.995C271.544 325.357 260.007 344.311 259.182 346.783C258.358 349.255 247.645 368.622 210.149 373.154C201.084 374.665 179.904 381.148 167.708 394.993Z" fill="#FF7675"/>
<path d="M242.288 412.299C240.64 409.002 244.074 407.354 245.997 406.942C247.722 406.283 249.463 408.041 250.117 409.002L258.358 424.248C260.281 426.721 263.385 432.16 260.419 434.137C257.452 436.115 254.787 434.962 253.826 434.137C250.667 428.231 243.937 415.595 242.288 412.299Z" fill="#FF7675"/>
<path d="M283.905 374.802C282.257 376.451 282.752 379.582 284.729 382.219C286.707 384.856 294.756 394.443 298.327 399.113C299.31 400.399 303.679 400.161 305.014 397.732C305.772 396.352 304.836 394.752 303.883 393.499L291.082 376.655C290.156 375.436 289.011 374.264 287.508 373.975C286.475 373.777 285.275 373.89 283.905 374.802Z" fill="#FF7675"/>
<path d="M338.708 369.446C339.037 371.424 338.021 372.742 337.472 373.154C332.115 377.275 317.693 385.928 324.698 397.465C331.703 409.002 344.064 402.822 352.718 399.525C359.64 396.888 363.019 401.448 363.843 404.058C366.81 423.507 342.554 433.863 330.055 436.61C317.858 437.269 310.414 444.576 308.216 448.147C317.281 448.971 312.749 451.443 308.216 452.268C304.59 452.927 301.761 460.234 300.799 463.805C279.373 507.07 262.067 517.783 238.58 520.668C215.093 523.552 194.491 491.824 180.481 475.342C169.273 462.157 162.076 448.971 159.879 444.027C150.978 421.941 161.39 402.135 167.708 394.993C179.904 381.148 201.084 374.665 210.149 373.154C247.645 368.622 258.358 349.255 259.182 346.783C260.007 344.311 271.544 325.357 282.669 312.995C293.795 300.634 314.397 293.629 319.342 306.402C324.286 319.176 311.925 312.583 305.744 331.537C300.799 346.701 314.122 349.667 321.402 349.255M338.708 369.446C338.378 367.468 392.686 322.747 419.881 300.634L477.98 252.836C483.886 247.891 498.912 239.65 511.768 246.243C512.592 245.969 514.653 244.842 516.301 242.535C518.361 239.65 538.964 202.566 545.968 216.988C549.539 214.653 556.022 207.346 553.385 196.797C551.737 194.325 546.298 190.122 537.727 193.089C537.865 191.303 537.151 187.897 533.195 188.556C528.25 189.381 529.486 193.913 531.135 194.737C532.453 195.396 528.937 196.66 527.426 197.209C526.739 194.874 526.602 191.853 522.07 193.913C519.597 195.561 519.432 198.363 522.07 199.682L515.889 202.978C516.026 200.781 515.23 196.715 510.944 198.034C505.588 199.682 508.884 205.038 510.944 205.038L504.763 208.335C505.038 205.862 504.516 201.495 500.231 203.802C495.946 206.11 498.445 209.159 500.231 210.395L493.638 212.867C493.776 211.219 493.061 208.17 489.106 209.159C485.15 210.148 487.457 213.417 489.106 214.928L483.749 217.4C483.062 215.752 481.029 212.785 478.392 214.103C475.096 215.752 477.156 219.872 477.568 219.872C477.898 219.872 476.057 221.246 475.096 221.932C475.233 225.091 474.602 231.904 470.975 233.882C467.349 235.86 369.749 311.622 321.402 349.255M338.708 369.446C331.81 374.619 318.793 384.468 313.573 388.702M321.402 349.255L306.156 360.928M306.156 360.928L295.031 369.446C293.932 370.407 292.641 373.484 296.267 378.099C299.893 382.714 304.508 387.439 306.156 389.636C307.255 390.46 309.535 392.438 311.513 390.46C311.835 390.138 312.556 389.526 313.573 388.702M306.156 360.928C305.469 355.801 302.53 347.03 296.267 352.964C288.438 360.381 285.142 375.627 248.881 384.28C236.932 387.713 215.423 399.773 224.982 420.54C236.932 446.499 264.127 448.971 258.77 486.88C258.084 489.764 257.864 495.698 262.479 496.357C268.248 497.181 277.725 489.764 294.619 453.504C298.052 446.224 308.876 431.171 324.698 429.193C344.477 426.721 358.074 411.887 358.074 407.354C358.074 403.728 351.207 406.942 347.773 409.002C338.158 413.461 317.858 415.644 313.573 388.702M283.905 374.802C282.257 376.451 282.752 379.582 284.729 382.219C286.707 384.856 294.756 394.443 298.327 399.113C299.31 400.399 303.679 400.161 305.014 397.732C305.772 396.352 304.836 394.752 303.883 393.499L291.082 376.655C290.156 375.436 289.011 374.264 287.508 373.975C286.475 373.777 285.275 373.89 283.905 374.802ZM262.479 392.933C260.831 394.581 261.325 397.712 263.303 400.349C265.281 402.987 273.329 412.574 276.901 417.243C277.933 418.593 282.699 418.264 283.765 415.48C284.228 414.269 283.496 412.997 282.711 411.964L269.408 394.459C268.645 393.455 267.696 392.533 266.479 392.199C265.362 391.892 264.028 391.9 262.479 392.933ZM245.997 406.942C244.074 407.354 240.64 409.002 242.288 412.299C243.937 415.595 250.667 428.231 253.826 434.137C254.787 434.962 257.452 436.115 260.419 434.137C263.385 432.16 260.281 426.721 258.358 424.248L250.117 409.002C249.463 408.041 247.722 406.283 245.997 406.942Z" stroke="black" stroke-width="2"/>
<path fill-rule="evenodd" clip-rule="evenodd" d="M296.267 378.099C292.641 373.484 293.932 370.407 295.031 369.446L306.156 360.928C305.469 355.801 302.53 347.03 296.267 352.964C288.438 360.381 285.142 375.627 248.881 384.28C236.932 387.713 215.423 399.773 224.982 420.54C236.932 446.499 264.127 448.971 258.77 486.88C258.084 489.764 257.864 495.698 262.479 496.357C268.248 497.181 277.725 489.764 294.619 453.504C298.052 446.224 308.876 431.171 324.698 429.193C344.477 426.721 358.074 411.887 358.074 407.354C358.074 403.728 351.207 406.942 347.773 409.002C338.158 413.461 317.858 415.644 313.573 388.702C312.556 389.526 311.835 390.138 311.513 390.46C309.535 392.438 307.255 390.46 306.156 389.636C304.508 387.439 299.893 382.714 296.267 378.099ZM284.729 382.219C282.752 379.582 282.257 376.451 283.905 374.802C285.275 373.89 286.475 373.777 287.508 373.975C289.011 374.264 290.156 375.436 291.082 376.655L303.883 393.499C304.836 394.752 305.772 396.352 305.014 397.732C303.679 400.161 299.31 400.399 298.327 399.113C294.756 394.443 286.707 384.856 284.729 382.219ZM263.303 400.349C261.325 397.712 260.831 394.581 262.479 392.933C264.028 391.9 265.362 391.892 266.479 392.199C267.696 392.533 268.645 393.455 269.408 394.459L282.711 411.964C283.496 412.997 284.228 414.269 283.765 415.48C282.699 418.264 277.933 418.593 276.901 417.243C273.329 412.574 265.281 402.987 263.303 400.349ZM242.288 412.299C240.64 409.002 244.074 407.354 245.997 406.942C247.722 406.283 249.463 408.041 250.117 409.002L258.358 424.248C260.281 426.721 263.385 432.16 260.419 434.137C257.452 436.115 254.787 434.962 253.826 434.137C250.667 428.231 243.937 415.595 242.288 412.299Z" fill="#81ECEC"/>
<path d="M338.708 369.446C339.037 371.424 338.021 372.742 337.472 373.154C332.115 377.275 317.693 385.928 324.698 397.465C331.703 409.002 344.064 402.822 352.718 399.525C359.64 396.888 363.019 401.448 363.843 404.058C366.81 423.507 342.554 433.863 330.055 436.61C317.858 437.269 310.414 444.576 308.216 448.147C317.281 448.971 312.749 451.443 308.216 452.268C304.59 452.927 301.761 460.234 300.799 463.805C279.373 507.07 262.067 517.783 238.58 520.668C215.093 523.552 194.491 491.824 180.481 475.342C169.273 462.157 162.076 448.971 159.879 444.027C150.978 421.941 161.39 402.135 167.708 394.993C179.904 381.148 201.084 374.665 210.149 373.154C247.645 368.622 258.358 349.255 259.182 346.783C260.007 344.311 271.544 325.357 282.669 312.995C293.795 300.634 314.397 293.629 319.342 306.402C324.286 319.176 311.925 312.583 305.744 331.537C300.799 346.701 314.122 349.667 321.402 349.255M338.708 369.446C338.378 367.468 392.686 322.747 419.881 300.634L477.98 252.836C483.886 247.891 498.912 239.65 511.768 246.243C512.592 245.969 514.653 244.842 516.301 242.535C518.361 239.65 538.964 202.566 545.968 216.988C549.539 214.653 556.022 207.346 553.385 196.797C551.737 194.325 546.298 190.122 537.727 193.089C537.865 191.303 537.151 187.897 533.195 188.556C528.25 189.381 529.486 193.913 531.135 194.737C532.453 195.396 528.937 196.66 527.426 197.209C526.739 194.874 526.602 191.853 522.07 193.913C519.597 195.561 519.432 198.363 522.07 199.682L515.889 202.978C516.026 200.781 515.23 196.715 510.944 198.034C505.588 199.682 508.884 205.038 510.944 205.038L504.763 208.335C505.038 205.862 504.516 201.495 500.231 203.802C495.946 206.11 498.445 209.159 500.231 210.395L493.638 212.867C493.776 211.219 493.061 208.17 489.106 209.159C485.15 210.148 487.457 213.417 489.106 214.928L483.749 217.4C483.062 215.752 481.029 212.785 478.392 214.103C475.096 215.752 477.156 219.872 477.568 219.872C477.898 219.872 476.057 221.246 475.096 221.932C475.233 225.091 474.602 231.904 470.975 233.882C467.349 235.86 369.749 311.622 321.402 349.255M338.708 369.446C331.81 374.619 318.793 384.468 313.573 388.702M321.402 349.255L306.156 360.928M306.156 360.928L295.031 369.446C293.932 370.407 292.641 373.484 296.267 378.099C299.893 382.714 304.508 387.439 306.156 389.636C307.255 390.46 309.535 392.438 311.513 390.46C311.835 390.138 312.556 389.526 313.573 388.702M306.156 360.928C305.469 355.801 302.53 347.03 296.267 352.964C288.438 360.381 285.142 375.627 248.881 384.28C236.932 387.713 215.423 399.773 224.982 420.54C236.932 446.499 264.127 448.971 258.77 486.88C258.084 489.764 257.864 495.698 262.479 496.357C268.248 497.181 277.725 489.764 294.619 453.504C298.052 446.224 308.876 431.171 324.698 429.193C344.477 426.721 358.074 411.887 358.074 407.354C358.074 403.728 351.207 406.942 347.773 409.002C338.158 413.461 317.858 415.644 313.573 388.702M283.905 374.802C282.257 376.451 282.752 379.582 284.729 382.219C286.707 384.856 294.756 394.443 298.327 399.113C299.31 400.399 303.679 400.161 305.014 397.732C305.772 396.352 304.836 394.752 303.883 393.499L291.082 376.655C290.156 375.436 289.011 374.264 287.508 373.975C286.475 373.777 285.275 373.89 283.905 374.802ZM262.479 392.933C260.831 394.581 261.325 397.712 263.303 400.349C265.281 402.987 273.329 412.574 276.901 417.243C277.933 418.593 282.699 418.264 283.765 415.48C284.228 414.269 283.496 412.997 282.711 411.964L269.408 394.459C268.645 393.455 267.696 392.533 266.479 392.199C265.362 391.892 264.028 391.9 262.479 392.933ZM245.997 406.942C244.074 407.354 240.64 409.002 242.288 412.299C243.937 415.595 250.667 428.231 253.826 434.137C254.787 434.962 257.452 436.115 260.419 434.137C263.385 432.16 260.281 426.721 258.358 424.248L250.117 409.002C249.463 408.041 247.722 406.283 245.997 406.942Z" stroke="black" stroke-width="2"/>
<path d="M338.708 369.446C338.378 367.468 392.686 322.747 419.881 300.634L477.98 252.836C483.886 247.891 498.912 239.65 511.768 246.243C512.592 245.969 514.653 244.842 516.301 242.535C518.361 239.65 538.964 202.566 545.968 216.988C549.539 214.653 556.022 207.346 553.385 196.797C551.737 194.325 546.298 190.122 537.727 193.089C537.865 191.303 537.151 187.897 533.195 188.556C528.25 189.381 529.486 193.913 531.135 194.737C532.437 195.388 529.025 196.628 527.484 197.188L527.426 197.209C526.739 194.874 526.602 191.853 522.07 193.913C519.597 195.561 519.432 198.363 522.07 199.682L515.889 202.978C516.026 200.781 515.23 196.715 510.944 198.034C505.588 199.682 508.884 205.038 510.944 205.038L504.763 208.335C505.038 205.862 504.516 201.495 500.231 203.802C495.946 206.11 498.445 209.159 500.231 210.395L493.638 212.867C493.776 211.219 493.061 208.17 489.106 209.159C485.15 210.148 487.457 213.417 489.106 214.928L483.749 217.4C483.062 215.752 481.029 212.785 478.392 214.103C475.096 215.752 477.156 219.872 477.568 219.872C477.898 219.872 476.057 221.246 475.096 221.932C475.233 225.091 474.602 231.904 470.975 233.882C467.349 235.86 369.749 311.622 321.402 349.255L306.156 360.928L295.031 369.446C293.932 370.407 292.641 373.484 296.267 378.099C299.893 382.714 304.508 387.439 306.156 389.636C307.255 390.46 309.535 392.438 311.513 390.46C311.835 390.138 312.556 389.526 313.573 388.702C318.793 384.468 331.81 374.619 338.708 369.446Z" fill="#FFD4AC"/>
<path d="M338.708 369.446C339.037 371.424 338.021 372.742 337.472 373.154C332.115 377.275 317.693 385.928 324.698 397.465C331.703 409.002 344.064 402.822 352.718 399.525C359.64 396.888 363.019 401.448 363.843 404.058C366.81 423.507 342.554 433.863 330.055 436.61C317.858 437.269 310.414 444.576 308.216 448.147C317.281 448.971 312.749 451.443 308.216 452.268C304.59 452.927 301.761 460.234 300.799 463.805C279.373 507.07 262.067 517.783 238.58 520.668C215.093 523.552 194.491 491.824 180.481 475.342C169.273 462.157 162.076 448.971 159.879 444.027C150.978 421.941 161.39 402.135 167.708 394.993C179.904 381.148 201.084 374.665 210.149 373.154C247.645 368.622 258.358 349.255 259.182 346.783C260.007 344.311 271.544 325.357 282.669 312.995C293.795 300.634 314.397 293.629 319.342 306.402C324.286 319.176 311.925 312.583 305.744 331.537C300.799 346.701 314.122 349.667 321.402 349.255M338.708 369.446C338.378 367.468 392.686 322.747 419.881 300.634L477.98 252.836C483.886 247.891 498.912 239.65 511.768 246.243C512.592 245.969 514.653 244.842 516.301 242.535C518.361 239.65 538.964 202.566 545.968 216.988C549.539 214.653 556.022 207.346 553.385 196.797C551.737 194.325 546.298 190.122 537.727 193.089C537.865 191.303 537.151 187.897 533.195 188.556C528.25 189.381 529.486 193.913 531.135 194.737C532.437 195.388 529.025 196.628 527.484 197.188M338.708 369.446C331.81 374.619 318.793 384.468 313.573 388.702M527.426 197.209C526.739 194.874 526.602 191.853 522.07 193.913C519.597 195.561 519.432 198.363 522.07 199.682L515.889 202.978C516.026 200.781 515.23 196.715 510.944 198.034C505.588 199.682 508.884 205.038 510.944 205.038L504.763 208.335C505.038 205.862 504.516 201.495 500.231 203.802C495.946 206.11 498.445 209.159 500.231 210.395L493.638 212.867C493.776 211.219 493.061 208.17 489.106 209.159C485.15 210.148 487.457 213.417 489.106 214.928L483.749 217.4C483.062 215.752 481.029 212.785 478.392 214.103C475.096 215.752 477.156 219.872 477.568 219.872C477.898 219.872 476.057 221.246 475.096 221.932C475.233 225.091 474.602 231.904 470.975 233.882C467.349 235.86 369.749 311.622 321.402 349.255M527.426 197.209L527.484 197.188M527.426 197.209C527.445 197.203 527.465 197.195 527.484 197.188M321.402 349.255L306.156 360.928M306.156 360.928L295.031 369.446C293.932 370.407 292.641 373.484 296.267 378.099C299.893 382.714 304.508 387.439 306.156 389.636C307.255 390.46 309.535 392.438 311.513 390.46C311.835 390.138 312.556 389.526 313.573 388.702M306.156 360.928C305.469 355.801 302.53 347.03 296.267 352.964C288.438 360.381 285.142 375.627 248.881 384.28C236.932 387.713 215.423 399.773 224.982 420.54C236.932 446.499 264.127 448.971 258.77 486.88C258.084 489.764 257.864 495.698 262.479 496.357C268.248 497.181 277.725 489.764 294.619 453.504C298.052 446.224 308.876 431.171 324.698 429.193C344.477 426.721 358.074 411.887 358.074 407.354C358.074 403.728 351.207 406.942 347.773 409.002C338.158 413.461 317.858 415.644 313.573 388.702M283.905 374.802C282.257 376.451 282.752 379.582 284.729 382.219C286.707 384.856 294.756 394.443 298.327 399.113C299.31 400.399 303.679 400.161 305.014 397.732C305.772 396.352 304.836 394.752 303.883 393.499L291.082 376.655C290.156 375.436 289.011 374.264 287.508 373.975C286.475 373.777 285.275 373.89 283.905 374.802ZM262.479 392.933C260.831 394.581 261.325 397.712 263.303 400.349C265.281 402.987 273.329 412.574 276.901 417.243C277.933 418.593 282.699 418.264 283.765 415.48C284.228 414.269 283.496 412.997 282.711 411.964L269.408 394.459C268.645 393.455 267.696 392.533 266.479 392.199C265.362 391.892 264.028 391.9 262.479 392.933ZM245.997 406.942C244.074 407.354 240.64 409.002 242.288 412.299C243.937 415.595 250.667 428.231 253.826 434.137C254.787 434.962 257.452 436.115 260.419 434.137C263.385 432.16 260.281 426.721 258.358 424.248L250.117 409.002C249.463 408.041 247.722 406.283 245.997 406.942Z" stroke="black" stroke-width="2"/>
<path d="M217.978 426.72L230.339 416.831C236.52 424.386 249.211 439.824 250.529 441.142C251.848 442.461 251.079 443.889 250.529 444.439L247.233 447.323C248.222 447.653 248.744 449.383 248.881 450.207C258.358 451.031 298.327 451.031 298.327 450.207C298.327 449.548 304.92 448.559 308.216 448.147C317.281 448.971 311.513 451.855 306.98 452.68C305.991 453.009 300.799 452.817 298.327 452.68C294.701 454.328 261.929 453.366 245.997 452.68C245.447 453.229 243.937 454.657 242.288 455.976C240.64 457.294 238.855 456.525 238.168 455.976C231.85 448.147 218.966 432.077 217.978 430.429C216.989 428.781 217.566 427.27 217.978 426.72Z" fill="#FFD4AC" stroke="black" stroke-width="2"/>
<path d="M231.88 422.173L483.23 228.922L482.62 228.129L231.27 421.38L231.88 422.173ZM234.355 426.703L493.946 223.975L493.33 223.187L233.74 425.915L234.355 426.703ZM238.479 429.997L504.662 219.028L504.041 218.244L237.857 429.213L238.479 429.997ZM241.365 433.704L515.377 214.082L514.752 213.301L240.74 432.923L241.365 433.704ZM244.664 437.41L526.093 209.135L525.463 208.359L244.034 436.634L244.664 437.41ZM247.55 440.705L535.572 204.189L534.938 203.416L246.916 439.932L247.55 440.705ZM484.897 226.053C484.897 227.142 484.014 228.025 482.925 228.025V229.025C484.566 229.025 485.897 227.695 485.897 226.053H484.897ZM482.925 228.025C481.836 228.025 480.953 227.142 480.953 226.053H479.953C479.953 227.695 481.283 229.025 482.925 229.025V228.025ZM480.953 226.053C480.953 224.964 481.836 224.081 482.925 224.081V223.081C481.283 223.081 479.953 224.411 479.953 226.053H480.953ZM482.925 224.081C484.014 224.081 484.897 224.964 484.897 226.053H485.897C485.897 224.411 484.566 223.081 482.925 223.081V224.081ZM495.61 221.108C495.61 222.198 494.727 223.081 493.638 223.081V224.081C495.28 224.081 496.61 222.75 496.61 221.108H495.61ZM493.638 223.081C492.549 223.081 491.666 222.198 491.666 221.108H490.666C490.666 222.75 491.997 224.081 493.638 224.081V223.081ZM491.666 221.108C491.666 220.019 492.549 219.136 493.638 219.136V218.136C491.997 218.136 490.666 219.467 490.666 221.108H491.666ZM493.638 219.136C494.727 219.136 495.61 220.019 495.61 221.108H496.61C496.61 219.467 495.28 218.136 493.638 218.136V219.136ZM506.324 216.164C506.324 217.253 505.441 218.136 504.351 218.136V219.136C505.993 219.136 507.324 217.805 507.324 216.164H506.324ZM504.351 218.136C503.262 218.136 502.379 217.253 502.379 216.164H501.379C501.379 217.805 502.71 219.136 504.351 219.136V218.136ZM502.379 216.164C502.379 215.075 503.262 214.192 504.351 214.192V213.192C502.71 213.192 501.379 214.522 501.379 216.164H502.379ZM504.351 214.192C505.441 214.192 506.324 215.075 506.324 216.164H507.324C507.324 214.522 505.993 213.192 504.351 213.192V214.192ZM517.037 211.219C517.037 212.309 516.154 213.192 515.065 213.192V214.192C516.706 214.192 518.037 212.861 518.037 211.219H517.037ZM515.065 213.192C513.975 213.192 513.092 212.309 513.092 211.219H512.092C512.092 212.861 513.423 214.192 515.065 214.192V213.192ZM513.092 211.219C513.092 210.13 513.975 209.247 515.065 209.247V208.247C513.423 208.247 512.092 209.578 512.092 211.219H513.092ZM515.065 209.247C516.154 209.247 517.037 210.13 517.037 211.219H518.037C518.037 209.578 516.706 208.247 515.065 208.247V209.247ZM527.75 206.275C527.75 207.364 526.867 208.247 525.778 208.247V209.247C527.42 209.247 528.75 207.916 528.75 206.275H527.75ZM525.778 208.247C524.689 208.247 523.806 207.364 523.806 206.275H522.806C522.806 207.916 524.136 209.247 525.778 209.247V208.247ZM523.806 206.275C523.806 205.185 524.689 204.302 525.778 204.302V203.302C524.136 203.302 522.806 204.633 522.806 206.275H523.806ZM525.778 204.302C526.867 204.302 527.75 205.185 527.75 206.275H528.75C528.75 204.633 527.42 203.302 525.778 203.302V204.302ZM537.8 201.925C537.518 202.977 536.437 203.601 535.385 203.319L535.126 204.285C536.711 204.71 538.341 203.769 538.766 202.184L537.8 201.925ZM535.385 203.319C534.332 203.037 533.708 201.956 533.99 200.904L533.024 200.645C532.599 202.231 533.54 203.86 535.126 204.285L535.385 203.319ZM533.99 200.904C534.272 199.852 535.353 199.227 536.405 199.509L536.664 198.543C535.079 198.118 533.449 199.059 533.024 200.645L533.99 200.904ZM536.405 199.509C537.458 199.791 538.082 200.873 537.8 201.925L538.766 202.184C539.191 200.598 538.25 198.968 536.664 198.543L536.405 199.509Z" fill="black"/>
</svg>
