<svg width="710" height="710" viewBox="0 0 710 710" fill="none" xmlns="http://www.w3.org/2000/svg">
<circle cx="355" cy="355" r="350" stroke="white" stroke-width="10"/>
<mask id="path-2-inside-1" fill="white">
<path d="M257.149 433.861C250.798 438.847 237.246 453.229 233.844 470.864C229.593 492.909 241.717 515.583 262.975 530.384C284.232 545.186 338.87 573.686 373.827 540.777C380.912 535.003 393.856 513.788 388.943 475.116C387.841 468.292 386.298 453.229 388.943 447.56C391.588 441.892 403.272 428.717 408.783 422.839C414.766 413.811 423.742 391.536 411.775 374.656C409.098 370.51 400.973 360.831 389.888 355.288L368.158 402.999L367.33 402.603C367.969 404.508 368.316 406.547 368.316 408.667C368.316 419.19 359.785 427.72 349.263 427.72C338.74 427.72 330.21 419.19 330.21 408.667C330.21 400.469 335.388 393.481 342.651 390.793L342.492 390.717L365.009 343.479C358.396 340.802 341.547 336.614 327.061 341.274C308.953 347.1 298.561 366.468 298.088 386.308C297.71 402.18 290.163 410.242 286.436 412.289C278.143 418.165 260.676 430.706 257.149 433.861Z"/>
<path fill-rule="evenodd" clip-rule="evenodd" d="M233.844 470.864C237.246 453.229 250.798 438.847 257.149 433.861C260.676 430.706 278.143 418.165 286.436 412.289C290.163 410.242 297.71 402.18 298.088 386.308C298.561 366.468 308.953 347.1 327.061 341.274C341.547 336.614 358.396 340.802 365.009 343.479L342.492 390.717L342.651 390.793C335.388 393.481 330.21 400.469 330.21 408.667C330.21 419.19 338.74 427.72 349.263 427.72C359.785 427.72 368.316 419.19 368.316 408.667C368.316 406.547 367.969 404.508 367.33 402.603L368.158 402.999L389.888 355.288C400.973 360.831 409.098 370.51 411.775 374.656C423.742 391.536 414.766 413.811 408.783 422.839C403.272 428.717 391.588 441.892 388.943 447.56C386.298 453.229 387.841 468.292 388.943 475.116C393.856 513.788 380.912 535.003 373.827 540.777C338.87 573.686 284.232 545.186 262.975 530.384C241.717 515.583 229.593 492.909 233.844 470.864ZM447.991 223.809L449.408 220.187C450.825 219.19 453.754 217.007 454.132 216.251C454.509 215.495 455.129 215.621 455.391 215.778C455.864 215.044 456.903 213.668 457.281 214.046C457.753 214.519 459.8 214.204 460.745 212.787C461.501 211.653 461.165 210.845 460.902 210.582C461.69 209.742 462.666 207.842 460.272 206.961L460.141 206.912L463.264 201.135C463.789 201.607 465.059 202.205 465.941 200.82C466.308 200.242 466.588 199.822 466.798 199.507C467.218 198.878 467.358 198.668 467.358 198.458C467.358 198.397 467.416 198.267 467.495 198.092C467.824 197.354 468.509 195.817 466.728 195.309C464.965 194.805 466.413 193.104 467.358 192.317C468.198 192.684 470.067 193.041 470.822 191.529C471.578 190.018 473.237 186.806 473.972 185.389C473.919 184.444 473.594 182.428 472.712 181.924C473.184 181.242 474.066 179.531 473.814 178.145L477.278 170.272C477.488 169.328 477.467 167.155 475.704 166.021C474.641 165.338 474.201 163.705 473.765 162.09C473.296 160.353 472.833 158.637 471.61 158.148C470.684 157.778 470.29 156.924 469.879 156.032C469.241 154.647 468.56 153.171 465.784 153.267L465.725 153.307C464.722 153.994 463.079 155.12 461.69 153.267C461.329 152.786 460.984 153.016 460.288 153.479C459.047 154.305 456.69 155.875 451.14 155.471C449.093 155.786 447.046 158.904 445.786 163.816L443.897 165.863L442.794 168.225C442.112 167.91 440.684 167.375 440.432 167.753C440.118 168.225 439.33 169.642 439.488 170.115C439.528 170.237 439.412 170.494 439.257 170.837C438.812 171.823 438.05 173.513 439.803 174.681C439.383 176.361 438.322 179.877 437.441 180.507C436.896 180.896 436.312 180.593 435.824 180.339C435.324 180.079 434.923 179.87 434.764 180.507C434.65 180.963 434.495 181.358 434.358 181.705C434.117 182.316 433.933 182.782 434.134 183.184C434.248 183.411 433.972 183.823 433.647 184.308C433.071 185.168 432.34 186.259 433.347 186.963C433.559 187.112 433.752 187.243 433.924 187.361C435.029 188.116 435.309 188.308 434.764 188.853C434.26 189.357 432.559 192.212 431.772 193.576C431.09 193.314 429.599 193.104 429.095 194.364C428.805 195.09 428.715 195.515 428.657 195.793C428.588 196.117 428.562 196.241 428.308 196.411C427.836 196.726 427.206 199.402 428.623 200.19C429.377 200.609 429.15 201.117 428.915 201.643C428.709 202.106 428.496 202.582 428.938 203.024C429.439 203.526 429.142 204.116 428.776 204.842C428.453 205.484 428.077 206.232 428.151 207.118C428.308 209.008 428.308 213.259 427.678 214.046C432.927 216.093 444.337 220.912 447.991 223.809ZM466.728 174.681C465.521 174.524 462.666 175.185 460.902 179.09C459.139 182.995 449.775 200.767 445.314 209.165C444.894 210.687 444.558 213.983 446.573 214.991C448.589 215.999 450.877 213.521 451.77 212.157L467.358 181.924C468.618 180.245 470.255 176.445 466.728 174.681ZM444.526 176.413C447.802 167.973 450.72 167.123 451.77 167.753C455.045 168.131 453.764 172.529 452.714 174.681C450.195 180.717 444.495 194.458 441.85 201.135C439.204 207.811 436.758 209.27 435.866 209.165C431.709 209.543 432.454 204.914 433.347 202.552C435.709 197.356 441.251 184.853 444.526 176.413Z"/>
</mask>
<path d="M257.149 433.861C250.798 438.847 237.246 453.229 233.844 470.864C229.593 492.909 241.717 515.583 262.975 530.384C284.232 545.186 338.87 573.686 373.827 540.777C380.912 535.003 393.856 513.788 388.943 475.116C387.841 468.292 386.298 453.229 388.943 447.56C391.588 441.892 403.272 428.717 408.783 422.839C414.766 413.811 423.742 391.536 411.775 374.656C409.098 370.51 400.973 360.831 389.888 355.288L368.158 402.999L367.33 402.603C367.969 404.508 368.316 406.547 368.316 408.667C368.316 419.19 359.785 427.72 349.263 427.72C338.74 427.72 330.21 419.19 330.21 408.667C330.21 400.469 335.388 393.481 342.651 390.793L342.492 390.717L365.009 343.479C358.396 340.802 341.547 336.614 327.061 341.274C308.953 347.1 298.561 366.468 298.088 386.308C297.71 402.18 290.163 410.242 286.436 412.289C278.143 418.165 260.676 430.706 257.149 433.861Z" fill="#FF7675"/>
<path fill-rule="evenodd" clip-rule="evenodd" d="M233.844 470.864C237.246 453.229 250.798 438.847 257.149 433.861C260.676 430.706 278.143 418.165 286.436 412.289C290.163 410.242 297.71 402.18 298.088 386.308C298.561 366.468 308.953 347.1 327.061 341.274C341.547 336.614 358.396 340.802 365.009 343.479L342.492 390.717L342.651 390.793C335.388 393.481 330.21 400.469 330.21 408.667C330.21 419.19 338.74 427.72 349.263 427.72C359.785 427.72 368.316 419.19 368.316 408.667C368.316 406.547 367.969 404.508 367.33 402.603L368.158 402.999L389.888 355.288C400.973 360.831 409.098 370.51 411.775 374.656C423.742 391.536 414.766 413.811 408.783 422.839C403.272 428.717 391.588 441.892 388.943 447.56C386.298 453.229 387.841 468.292 388.943 475.116C393.856 513.788 380.912 535.003 373.827 540.777C338.87 573.686 284.232 545.186 262.975 530.384C241.717 515.583 229.593 492.909 233.844 470.864ZM447.991 223.809L449.408 220.187C450.825 219.19 453.754 217.007 454.132 216.251C454.509 215.495 455.129 215.621 455.391 215.778C455.864 215.044 456.903 213.668 457.281 214.046C457.753 214.519 459.8 214.204 460.745 212.787C461.501 211.653 461.165 210.845 460.902 210.582C461.69 209.742 462.666 207.842 460.272 206.961L460.141 206.912L463.264 201.135C463.789 201.607 465.059 202.205 465.941 200.82C466.308 200.242 466.588 199.822 466.798 199.507C467.218 198.878 467.358 198.668 467.358 198.458C467.358 198.397 467.416 198.267 467.495 198.092C467.824 197.354 468.509 195.817 466.728 195.309C464.965 194.805 466.413 193.104 467.358 192.317C468.198 192.684 470.067 193.041 470.822 191.529C471.578 190.018 473.237 186.806 473.972 185.389C473.919 184.444 473.594 182.428 472.712 181.924C473.184 181.242 474.066 179.531 473.814 178.145L477.278 170.272C477.488 169.328 477.467 167.155 475.704 166.021C474.641 165.338 474.201 163.705 473.765 162.09C473.296 160.353 472.833 158.637 471.61 158.148C470.684 157.778 470.29 156.924 469.879 156.032C469.241 154.647 468.56 153.171 465.784 153.267L465.725 153.307C464.722 153.994 463.079 155.12 461.69 153.267C461.329 152.786 460.984 153.016 460.288 153.479C459.047 154.305 456.69 155.875 451.14 155.471C449.093 155.786 447.046 158.904 445.786 163.816L443.897 165.863L442.794 168.225C442.112 167.91 440.684 167.375 440.432 167.753C440.118 168.225 439.33 169.642 439.488 170.115C439.528 170.237 439.412 170.494 439.257 170.837C438.812 171.823 438.05 173.513 439.803 174.681C439.383 176.361 438.322 179.877 437.441 180.507C436.896 180.896 436.312 180.593 435.824 180.339C435.324 180.079 434.923 179.87 434.764 180.507C434.65 180.963 434.495 181.358 434.358 181.705C434.117 182.316 433.933 182.782 434.134 183.184C434.248 183.411 433.972 183.823 433.647 184.308C433.071 185.168 432.34 186.259 433.347 186.963C433.559 187.112 433.752 187.243 433.924 187.361C435.029 188.116 435.309 188.308 434.764 188.853C434.26 189.357 432.559 192.212 431.772 193.576C431.09 193.314 429.599 193.104 429.095 194.364C428.805 195.09 428.715 195.515 428.657 195.793C428.588 196.117 428.562 196.241 428.308 196.411C427.836 196.726 427.206 199.402 428.623 200.19C429.377 200.609 429.15 201.117 428.915 201.643C428.709 202.106 428.496 202.582 428.938 203.024C429.439 203.526 429.142 204.116 428.776 204.842C428.453 205.484 428.077 206.232 428.151 207.118C428.308 209.008 428.308 213.259 427.678 214.046C432.927 216.093 444.337 220.912 447.991 223.809ZM466.728 174.681C465.521 174.524 462.666 175.185 460.902 179.09C459.139 182.995 449.775 200.767 445.314 209.165C444.894 210.687 444.558 213.983 446.573 214.991C448.589 215.999 450.877 213.521 451.77 212.157L467.358 181.924C468.618 180.245 470.255 176.445 466.728 174.681ZM444.526 176.413C447.802 167.973 450.72 167.123 451.77 167.753C455.045 168.131 453.764 172.529 452.714 174.681C450.195 180.717 444.495 194.458 441.85 201.135C439.204 207.811 436.758 209.27 435.866 209.165C431.709 209.543 432.454 204.914 433.347 202.552C435.709 197.356 441.251 184.853 444.526 176.413Z" fill="#FF7675"/>
<path d="M257.149 433.861L257.457 434.254L257.47 434.244L257.482 434.234L257.149 433.861ZM233.844 470.864L234.335 470.959L234.335 470.959L233.844 470.864ZM373.827 540.777L373.511 540.389L373.497 540.4L373.484 540.413L373.827 540.777ZM388.943 475.116L389.439 475.053L389.438 475.044L389.437 475.036L388.943 475.116ZM408.783 422.839L409.148 423.181L409.176 423.15L409.2 423.115L408.783 422.839ZM411.775 374.656L411.355 374.927L411.36 374.936L411.367 374.945L411.775 374.656ZM368.158 402.999L367.942 403.45L368.402 403.67L368.613 403.206L368.158 402.999ZM342.492 390.717L342.041 390.502L341.826 390.952L342.276 391.168L342.492 390.717ZM327.061 341.274L326.908 340.798L326.908 340.798L327.061 341.274ZM298.088 386.308L297.588 386.296L297.588 386.296L298.088 386.308ZM286.436 412.289L286.195 411.851L286.17 411.865L286.147 411.881L286.436 412.289ZM256.84 433.468C250.44 438.493 236.786 452.969 233.353 470.77L234.335 470.959C237.705 453.488 251.155 439.202 257.457 434.254L256.84 433.468ZM233.353 470.77C229.053 493.066 241.324 515.919 262.689 530.795L263.26 529.974C242.111 515.248 230.133 492.751 234.335 470.959L233.353 470.77ZM262.689 530.795C273.347 538.216 292.38 549.078 313.149 553.959C333.921 558.84 356.52 557.756 374.169 541.141L373.484 540.413C356.177 556.706 333.979 557.827 313.378 552.985C292.774 548.143 273.859 537.354 263.26 529.974L262.689 530.795ZM374.143 541.164C381.4 535.251 394.367 513.842 389.439 475.053L388.447 475.179C393.345 513.734 380.425 534.755 373.511 540.389L374.143 541.164ZM389.437 475.036C388.888 471.64 388.229 466.19 388.037 460.887C387.941 458.235 387.962 455.631 388.17 453.343C388.378 451.045 388.772 449.11 389.396 447.772L388.49 447.349C387.792 448.845 387.386 450.918 387.174 453.252C386.961 455.597 386.941 458.247 387.038 460.923C387.232 466.275 387.896 471.768 388.449 475.195L389.437 475.036ZM389.396 447.772C390.687 445.006 394.224 440.345 398.173 435.598C402.105 430.87 406.397 426.115 409.148 423.181L408.418 422.497C405.657 425.442 401.352 430.212 397.404 434.958C393.472 439.685 389.845 444.446 388.49 447.349L389.396 447.772ZM409.2 423.115C412.224 418.552 415.994 410.661 417.503 401.776C419.013 392.886 418.267 382.949 412.183 374.367L411.367 374.945C417.249 383.243 417.999 392.883 416.517 401.608C415.035 410.337 411.325 418.098 408.366 422.563L409.2 423.115ZM412.195 374.385C409.485 370.187 401.299 360.435 390.111 354.841L389.664 355.736C400.647 361.227 408.711 370.832 411.355 374.927L412.195 374.385ZM389.433 355.081L367.703 402.792L368.613 403.206L390.343 355.496L389.433 355.081ZM342.943 390.932L365.46 343.694L364.558 343.264L342.041 390.502L342.943 390.932ZM365.197 343.015C361.848 341.66 355.939 339.933 349.045 339.128C342.153 338.324 334.242 338.439 326.908 340.798L327.214 341.75C334.367 339.449 342.123 339.328 348.929 340.122C355.735 340.916 361.557 342.621 364.821 343.942L365.197 343.015ZM326.908 340.798C308.53 346.711 298.064 366.324 297.588 386.296L298.588 386.32C299.057 366.612 309.376 347.489 327.214 341.75L326.908 340.798ZM297.588 386.296C297.214 402.016 289.744 409.901 286.195 411.851L286.677 412.727C290.581 410.583 298.207 402.344 298.588 386.32L297.588 386.296ZM286.147 411.881C281.999 414.82 275.557 419.426 269.71 423.691C263.876 427.948 258.602 431.89 256.815 433.488L257.482 434.234C259.222 432.677 264.445 428.771 270.3 424.499C276.142 420.237 282.58 415.634 286.725 412.697L286.147 411.881ZM390.345 355.49L448.448 224.011L447.533 223.607L389.43 355.086L390.345 355.49ZM460.445 206.491C460.4 206.475 460.356 206.459 460.314 206.443L459.969 207.382C460.011 207.397 460.055 207.413 460.1 207.43L460.445 206.491ZM427.288 213.734C427.257 213.772 427.234 213.813 427.227 213.825C427.214 213.846 427.2 213.872 427.185 213.9C427.155 213.955 427.116 214.03 427.068 214.122C426.973 214.308 426.84 214.572 426.671 214.909C426.334 215.585 425.852 216.563 425.24 217.81C424.017 220.304 422.274 223.88 420.132 228.287C415.848 237.101 409.969 249.241 403.459 262.7C390.44 289.62 374.898 321.821 364.559 343.262L365.459 343.696C375.799 322.255 391.34 290.055 404.36 263.136C410.869 249.676 416.748 237.537 421.031 228.724C423.173 224.317 424.915 220.743 426.138 218.25C426.749 217.004 427.23 216.029 427.566 215.356C427.734 215.019 427.865 214.76 427.957 214.58C428.004 214.49 428.039 214.422 428.064 214.376C428.077 214.353 428.086 214.337 428.091 214.329C428.102 214.309 428.091 214.331 428.069 214.359L427.288 213.734ZM367.816 408.667C367.816 418.914 359.509 427.22 349.263 427.22V428.22C360.062 428.22 368.816 419.466 368.816 408.667H367.816ZM349.263 427.22C339.016 427.22 330.71 418.914 330.71 408.667H329.71C329.71 419.466 338.464 428.22 349.263 428.22V427.22ZM366.856 402.762C367.478 404.616 367.816 406.602 367.816 408.667H368.816C368.816 406.492 368.46 404.399 367.804 402.444L366.856 402.762ZM368.374 402.548L367.546 402.152L367.114 403.054L367.942 403.45L368.374 402.548ZM367.546 402.152L342.867 390.342L342.435 391.244L367.114 403.054L367.546 402.152ZM342.867 390.342L342.708 390.266L342.276 391.168L342.435 391.244L342.867 390.342ZM330.71 408.667C330.71 400.685 335.751 393.88 342.825 391.262L342.478 390.324C335.024 393.082 329.71 400.254 329.71 408.667H330.71ZM447.991 223.809L447.369 224.592L448.429 225.433L448.922 224.173L447.991 223.809ZM449.408 220.187L448.832 219.369L448.586 219.543L448.476 219.823L449.408 220.187ZM455.391 215.778L454.877 216.636L455.708 217.135L456.232 216.319L455.391 215.778ZM457.281 214.046L457.988 213.339L457.988 213.339L457.281 214.046ZM460.745 212.787L459.913 212.232L459.913 212.232L460.745 212.787ZM460.902 210.582L460.173 209.898L459.511 210.605L460.195 211.289L460.902 210.582ZM460.272 206.961L460.618 206.022L460.618 206.022L460.272 206.961ZM460.141 206.912L459.261 206.437L458.713 207.452L459.796 207.851L460.141 206.912ZM463.264 201.135L463.933 200.391L462.989 199.541L462.385 200.659L463.264 201.135ZM465.941 200.82L465.097 200.283L465.097 200.283L465.941 200.82ZM466.728 195.309L466.454 196.27L466.454 196.27L466.728 195.309ZM467.358 192.317L467.759 191.401L467.193 191.153L466.718 191.549L467.358 192.317ZM473.972 185.389L474.859 185.849L474.985 185.606L474.97 185.333L473.972 185.389ZM472.712 181.924L471.89 181.355L471.269 182.252L472.216 182.793L472.712 181.924ZM473.814 178.145L472.899 177.743L472.775 178.023L472.83 178.324L473.814 178.145ZM477.278 170.272L478.194 170.675L478.233 170.585L478.254 170.489L477.278 170.272ZM475.704 166.021L476.244 165.18L476.244 165.18L475.704 166.021ZM471.61 158.148L471.238 159.076L471.238 159.076L471.61 158.148ZM465.784 153.267L465.749 152.267L465.458 152.277L465.219 152.442L465.784 153.267ZM465.725 153.307L465.16 152.481L465.16 152.482L465.725 153.307ZM461.69 153.267L460.89 153.867L460.89 153.867L461.69 153.267ZM451.14 155.471L451.212 154.474L451.1 154.465L450.988 154.483L451.14 155.471ZM445.786 163.816L446.521 164.495L446.692 164.309L446.755 164.065L445.786 163.816ZM443.897 165.863L443.162 165.185L443.056 165.299L442.99 165.441L443.897 165.863ZM442.794 168.225L442.375 169.133L443.279 169.551L443.701 168.648L442.794 168.225ZM440.432 167.753L441.265 168.308L441.265 168.308L440.432 167.753ZM439.488 170.115L438.539 170.431L438.539 170.431L439.488 170.115ZM439.803 174.681L440.773 174.924L440.944 174.24L440.357 173.849L439.803 174.681ZM437.441 180.507L436.859 179.694L436.859 179.694L437.441 180.507ZM434.764 180.507L435.734 180.75L435.734 180.75L434.764 180.507ZM434.134 183.184L433.24 183.631L433.24 183.631L434.134 183.184ZM433.347 186.963L433.92 186.144L433.92 186.144L433.347 186.963ZM434.764 188.853L434.057 188.146L434.057 188.146L434.764 188.853ZM431.772 193.576L431.413 194.51L432.211 194.817L432.638 194.076L431.772 193.576ZM429.095 194.364L430.024 194.735L430.024 194.735L429.095 194.364ZM428.308 196.411L428.863 197.243L428.863 197.243L428.308 196.411ZM428.623 200.19L429.109 199.316L429.109 199.316L428.623 200.19ZM428.938 203.024L429.645 202.317L429.645 202.317L428.938 203.024ZM428.151 207.118L429.147 207.035L429.147 207.035L428.151 207.118ZM427.678 214.046L426.897 213.422L426.048 214.484L427.315 214.978L427.678 214.046ZM451.77 167.753L451.255 168.61L451.44 168.722L451.655 168.746L451.77 167.753ZM444.526 176.413L443.594 176.051L443.594 176.051L444.526 176.413ZM433.347 202.552L432.436 202.138L432.423 202.168L432.411 202.198L433.347 202.552ZM435.866 209.165L435.983 208.172L435.879 208.16L435.776 208.169L435.866 209.165ZM452.714 174.681L451.816 174.243L451.803 174.269L451.792 174.296L452.714 174.681ZM466.728 174.681L467.176 173.787L467.025 173.711L466.858 173.69L466.728 174.681ZM445.314 209.165L444.431 208.696L444.379 208.793L444.35 208.899L445.314 209.165ZM451.77 212.157L452.607 212.704L452.635 212.661L452.658 212.615L451.77 212.157ZM467.358 181.924L466.558 181.324L466.508 181.392L466.469 181.466L467.358 181.924ZM466.798 199.507L467.63 200.062L467.63 200.062L466.798 199.507ZM467.495 198.092L466.581 197.684L466.581 197.684L467.495 198.092ZM473.765 162.09L472.799 162.35L472.799 162.35L473.765 162.09ZM469.879 156.032L468.971 156.45L468.971 156.45L469.879 156.032ZM460.288 153.479L460.843 154.311L460.843 154.311L460.288 153.479ZM439.257 170.837L440.169 171.248L440.169 171.248L439.257 170.837ZM435.824 180.339L436.285 179.452L436.285 179.452L435.824 180.339ZM434.358 181.705L433.427 181.338L433.427 181.338L434.358 181.705ZM433.647 184.308L434.478 184.865L434.478 184.865L433.647 184.308ZM433.924 187.361L434.488 186.536L434.488 186.536L433.924 187.361ZM428.657 195.793L427.678 195.587L427.678 195.587L428.657 195.793ZM428.915 201.643L428.002 201.235L428.002 201.235L428.915 201.643ZM428.776 204.842L429.67 205.292L429.67 205.292L428.776 204.842ZM448.922 224.173L450.339 220.552L448.476 219.823L447.059 223.444L448.922 224.173ZM449.983 221.005C450.703 220.498 451.807 219.691 452.784 218.909C453.271 218.52 453.739 218.127 454.116 217.775C454.304 217.6 454.479 217.426 454.626 217.26C454.762 217.107 454.919 216.912 455.026 216.698L453.237 215.804C453.249 215.779 453.233 215.817 453.131 215.932C453.04 216.034 452.913 216.162 452.751 216.313C452.428 216.615 452.004 216.972 451.535 217.348C450.599 218.096 449.529 218.879 448.832 219.369L449.983 221.005ZM455.026 216.698C455.066 216.617 455.09 216.605 455.075 216.618C455.057 216.632 455.024 216.648 454.986 216.656C454.953 216.662 454.931 216.658 454.922 216.656C454.917 216.655 454.903 216.652 454.877 216.636L455.906 214.921C455.613 214.745 455.147 214.592 454.623 214.689C454.039 214.796 453.547 215.184 453.237 215.804L455.026 216.698ZM456.232 216.319C456.451 215.978 456.792 215.507 457.099 215.181C457.173 215.102 457.238 215.04 457.292 214.994C457.318 214.972 457.339 214.955 457.355 214.944C457.371 214.932 457.378 214.928 457.376 214.93C457.375 214.93 457.357 214.94 457.324 214.951C457.292 214.962 457.234 214.978 457.154 214.981C456.965 214.989 456.742 214.922 456.574 214.753L457.988 213.339C457.725 213.076 457.386 212.969 457.067 212.983C456.787 212.995 456.558 213.097 456.409 213.179C456.112 213.343 455.846 213.594 455.644 213.809C455.219 214.26 454.803 214.844 454.55 215.238L456.232 216.319ZM456.574 214.753C456.955 215.135 457.48 215.227 457.834 215.247C458.237 215.268 458.679 215.21 459.11 215.087C459.966 214.842 460.941 214.295 461.577 213.341L459.913 212.232C459.604 212.696 459.083 213.014 458.561 213.164C458.304 213.237 458.086 213.257 457.942 213.25C457.75 213.239 457.842 213.194 457.988 213.339L456.574 214.753ZM461.577 213.341C462.558 211.869 462.256 210.522 461.609 209.875L460.195 211.289C460.074 211.168 460.443 211.437 459.913 212.232L461.577 213.341ZM461.632 211.266C462.097 210.769 462.714 209.873 462.778 208.85C462.813 208.302 462.686 207.715 462.296 207.186C461.915 206.67 461.341 206.289 460.618 206.022L459.927 207.899C460.4 208.073 460.602 208.26 460.687 208.374C460.762 208.476 460.791 208.582 460.782 208.725C460.76 209.081 460.494 209.555 460.173 209.898L461.632 211.266ZM461.021 207.388L464.144 201.61L462.385 200.659L459.261 206.437L461.021 207.388ZM462.595 201.878C462.965 202.21 463.615 202.615 464.397 202.671C465.281 202.735 466.16 202.339 466.785 201.357L465.097 200.283C464.954 200.508 464.832 200.597 464.761 200.634C464.693 200.669 464.624 200.682 464.54 200.676C464.336 200.662 464.089 200.531 463.933 200.391L462.595 201.878ZM467.003 194.347C466.725 194.268 466.817 194.214 466.878 194.367C466.926 194.486 466.861 194.507 466.942 194.324C467.107 193.951 467.562 193.448 467.998 193.085L466.718 191.549C466.209 191.972 465.468 192.714 465.113 193.514C464.935 193.917 464.779 194.508 465.022 195.112C465.278 195.749 465.85 196.097 466.454 196.27L467.003 194.347ZM466.957 193.233C467.484 193.463 468.329 193.695 469.202 193.625C470.118 193.551 471.142 193.126 471.717 191.977L469.928 191.082C469.746 191.445 469.459 191.597 469.041 191.631C468.582 191.668 468.072 191.538 467.759 191.401L466.957 193.233ZM471.717 191.977C472.469 190.473 474.124 187.267 474.859 185.849L473.084 184.928C472.35 186.344 470.688 189.563 469.928 191.082L471.717 191.977ZM474.97 185.333C474.941 184.804 474.837 183.987 474.613 183.213C474.501 182.826 474.35 182.418 474.144 182.053C473.943 181.698 473.646 181.307 473.208 181.056L472.216 182.793C472.213 182.791 472.233 182.802 472.269 182.843C472.306 182.884 472.352 182.947 472.403 183.038C472.507 183.222 472.606 183.471 472.692 183.769C472.865 184.366 472.95 185.028 472.973 185.444L474.97 185.333ZM473.534 182.494C473.815 182.087 474.195 181.412 474.475 180.638C474.749 179.88 474.97 178.91 474.798 177.966L472.83 178.324C472.911 178.766 472.816 179.344 472.594 179.959C472.378 180.558 472.081 181.079 471.89 181.355L473.534 182.494ZM474.729 178.548L478.194 170.675L476.363 169.87L472.899 177.743L474.729 178.548ZM478.254 170.489C478.389 169.883 478.442 168.946 478.201 167.976C477.956 166.989 477.39 165.916 476.244 165.18L475.163 166.862C475.781 167.259 476.107 167.84 476.26 168.458C476.419 169.095 476.377 169.717 476.302 170.055L478.254 170.489ZM465.219 152.442L465.16 152.481L466.29 154.132L466.349 154.092L465.219 152.442ZM465.16 152.482C464.623 152.849 464.134 153.168 463.665 153.257C463.46 153.296 463.29 153.284 463.133 153.221C462.973 153.158 462.75 153.014 462.49 152.667L460.89 153.867C461.324 154.446 461.827 154.856 462.398 155.081C462.971 155.308 463.535 155.318 464.04 155.222C464.991 155.04 465.824 154.451 466.291 154.131L465.16 152.482ZM450.988 154.483C449.536 154.706 448.304 155.865 447.328 157.377C446.326 158.928 445.464 161.045 444.817 163.568L446.755 164.065C447.368 161.675 448.159 159.777 449.008 158.462C449.882 157.108 450.697 156.551 451.292 156.459L450.988 154.483ZM445.051 163.138L443.162 165.185L444.631 166.542L446.521 164.495L445.051 163.138ZM442.99 165.441L441.888 167.802L443.701 168.648L444.803 166.286L442.99 165.441ZM443.213 167.317C442.841 167.146 442.257 166.909 441.709 166.763C441.442 166.692 441.125 166.626 440.823 166.623C440.606 166.621 439.972 166.64 439.6 167.198L441.265 168.308C441.136 168.5 440.968 168.577 440.887 168.603C440.812 168.627 440.773 168.623 440.801 168.623C440.858 168.624 440.989 168.641 441.195 168.696C441.594 168.802 442.065 168.99 442.375 169.133L443.213 167.317ZM439.6 167.198C439.415 167.477 439.113 167.995 438.874 168.517C438.755 168.778 438.637 169.069 438.56 169.349C438.499 169.571 438.397 170.006 438.539 170.431L440.436 169.799C440.458 169.862 440.464 169.912 440.466 169.939C440.467 169.953 440.467 169.964 440.467 169.97C440.467 169.977 440.467 169.98 440.467 169.98C440.467 169.98 440.467 169.978 440.468 169.973C440.468 169.968 440.469 169.961 440.471 169.952C440.475 169.933 440.481 169.908 440.489 169.877C440.526 169.744 440.595 169.562 440.692 169.351C440.886 168.928 441.135 168.501 441.265 168.308L439.6 167.198ZM438.832 174.439C438.629 175.254 438.268 176.518 437.856 177.644C437.649 178.208 437.437 178.716 437.235 179.108C437.133 179.304 437.042 179.455 436.965 179.563C436.881 179.68 436.843 179.705 436.859 179.694L438.022 181.321C438.455 181.012 438.778 180.477 439.011 180.027C439.268 179.53 439.513 178.935 439.734 178.332C440.177 177.122 440.557 175.788 440.773 174.924L438.832 174.439ZM434.057 188.146C433.851 188.351 433.599 188.706 433.365 189.052C433.112 189.428 432.82 189.887 432.524 190.365C431.931 191.324 431.303 192.388 430.906 193.077L432.638 194.076C433.028 193.4 433.645 192.354 434.225 191.418C434.515 190.949 434.791 190.515 435.024 190.17C435.14 189.998 435.241 189.854 435.324 189.742C435.366 189.687 435.4 189.643 435.428 189.61C435.441 189.593 435.452 189.581 435.46 189.572C435.468 189.563 435.472 189.559 435.471 189.56L434.057 188.146ZM432.131 192.643C431.681 192.47 430.963 192.307 430.23 192.409C429.446 192.517 428.584 192.95 428.167 193.992L430.024 194.735C430.079 194.597 430.144 194.533 430.2 194.494C430.264 194.45 430.361 194.41 430.504 194.39C430.812 194.347 431.181 194.42 431.413 194.51L432.131 192.643ZM427.753 195.579C427.499 195.748 427.344 195.987 427.259 196.137C427.159 196.312 427.077 196.508 427.011 196.705C426.878 197.1 426.782 197.579 426.758 198.074C426.714 198.98 426.906 200.38 428.137 201.064L429.109 199.316C428.923 199.213 428.721 198.88 428.756 198.172C428.771 197.86 428.833 197.562 428.907 197.342C428.944 197.231 428.977 197.16 428.997 197.126C429.031 197.066 428.999 197.152 428.863 197.243L427.753 195.579ZM427.154 207.201C427.229 208.101 427.268 209.595 427.21 210.953C427.182 211.633 427.13 212.255 427.052 212.74C427.014 212.983 426.971 213.171 426.93 213.307C426.882 213.461 426.858 213.471 426.897 213.422L428.459 214.671C428.656 214.425 428.769 214.13 428.842 213.894C428.92 213.638 428.98 213.351 429.027 213.055C429.122 212.463 429.178 211.755 429.209 211.038C429.269 209.602 429.23 208.024 429.147 207.035L427.154 207.201ZM427.315 214.978C429.925 215.996 434.071 217.705 438.015 219.517C441.998 221.348 445.652 223.231 447.369 224.592L448.612 223.025C446.676 221.49 442.798 219.515 438.85 217.7C434.864 215.868 430.68 214.144 428.042 213.115L427.315 214.978ZM452.284 166.895C451.185 166.236 449.697 166.644 448.299 167.952C446.871 169.289 445.255 171.772 443.594 176.051L445.459 176.775C447.073 172.615 448.554 170.453 449.666 169.412C450.218 168.896 450.641 168.691 450.908 168.621C451.039 168.587 451.129 168.586 451.182 168.592C451.209 168.595 451.227 168.6 451.238 168.603C451.25 168.607 451.255 168.61 451.255 168.61L452.284 166.895ZM443.594 176.051C440.33 184.464 434.797 196.944 432.436 202.138L434.257 202.966C436.62 197.767 442.173 185.243 445.459 176.775L443.594 176.051ZM432.411 202.198C431.941 203.443 431.464 205.385 431.725 207.042C431.859 207.889 432.204 208.766 432.953 209.391C433.714 210.026 434.737 210.272 435.957 210.161L435.776 208.169C434.917 208.247 434.474 208.056 434.234 207.855C433.981 207.645 433.789 207.288 433.701 206.73C433.519 205.576 433.86 204.022 434.282 202.905L432.411 202.198ZM435.749 210.158C436.266 210.219 436.807 210.044 437.302 209.762C437.815 209.468 438.369 209.009 438.948 208.357C440.105 207.054 441.431 204.906 442.779 201.503L440.92 200.766C439.623 204.039 438.403 205.959 437.453 207.029C436.978 207.563 436.588 207.866 436.309 208.025C436.012 208.195 435.912 208.164 435.983 208.172L435.749 210.158ZM442.779 201.503C445.421 194.836 451.117 181.104 453.637 175.066L451.792 174.296C449.273 180.331 443.569 194.08 440.92 200.766L442.779 201.503ZM453.613 175.12C454.167 173.984 454.815 172.199 454.863 170.581C454.887 169.77 454.764 168.885 454.285 168.148C453.777 167.364 452.956 166.883 451.884 166.76L451.655 168.746C452.22 168.812 452.468 169.022 452.608 169.237C452.777 169.498 452.882 169.918 452.864 170.522C452.828 171.736 452.312 173.226 451.816 174.243L453.613 175.12ZM466.858 173.69C465.181 173.471 461.922 174.403 459.991 178.679L461.814 179.502C463.41 175.967 465.861 175.577 466.599 175.673L466.858 173.69ZM459.991 178.679C458.245 182.546 448.903 200.277 444.431 208.696L446.197 209.634C450.647 201.257 460.033 183.445 461.814 179.502L459.991 178.679ZM444.35 208.899C444.117 209.745 443.904 211.077 444.035 212.372C444.164 213.639 444.66 215.152 446.126 215.886L447.021 214.097C446.472 213.822 446.128 213.183 446.025 212.17C445.925 211.185 446.091 210.108 446.278 209.431L444.35 208.899ZM446.126 215.886C447.634 216.639 449.13 216.018 450.171 215.279C451.238 214.522 452.114 213.457 452.607 212.704L450.933 211.61C450.533 212.222 449.819 213.077 449.014 213.648C448.184 214.237 447.528 214.351 447.021 214.097L446.126 215.886ZM452.658 212.615L468.247 182.383L466.469 181.466L450.881 211.698L452.658 212.615ZM468.158 182.524C468.853 181.598 469.686 180.054 469.834 178.425C469.91 177.594 469.81 176.702 469.382 175.865C468.949 175.02 468.221 174.31 467.176 173.787L466.281 175.576C466.999 175.935 467.389 176.361 467.602 176.776C467.819 177.201 467.893 177.694 467.842 178.243C467.739 179.375 467.123 180.571 466.558 181.324L468.158 182.524ZM460.618 206.022L460.487 205.974L459.796 207.851L459.927 207.899L460.618 206.022ZM466.785 201.357C467.146 200.789 467.421 200.376 467.63 200.062L465.966 198.953C465.756 199.269 465.471 199.696 465.097 200.283L466.785 201.357ZM467.63 200.062C467.829 199.764 467.998 199.513 468.11 199.311C468.228 199.098 468.358 198.814 468.358 198.458H466.358C466.358 198.311 466.418 198.238 466.362 198.339C466.299 198.452 466.188 198.621 465.966 198.953L467.63 200.062ZM468.358 198.458C468.358 198.493 468.356 198.524 468.354 198.548C468.351 198.572 468.348 198.593 468.345 198.609C468.34 198.64 468.333 198.662 468.33 198.673C468.327 198.685 468.325 198.691 468.325 198.692C468.324 198.692 468.325 198.689 468.328 198.683C468.334 198.668 468.343 198.646 468.357 198.613C468.371 198.58 468.388 198.544 468.408 198.499L466.581 197.684C466.546 197.764 466.501 197.865 466.466 197.953C466.448 197.998 466.426 198.059 466.407 198.126C466.391 198.181 466.358 198.305 466.358 198.458H468.358ZM468.408 198.499C468.554 198.172 468.918 197.397 468.903 196.596C468.894 196.158 468.775 195.667 468.428 195.231C468.084 194.8 467.591 194.515 467.003 194.347L466.454 196.27C466.756 196.357 466.845 196.455 466.864 196.478C466.878 196.496 466.901 196.53 466.903 196.633C466.905 196.749 466.878 196.908 466.813 197.109C466.749 197.307 466.665 197.496 466.581 197.684L468.408 198.499ZM476.244 165.18C475.961 164.998 475.686 164.636 475.419 164.012C475.154 163.393 474.953 162.653 474.73 161.829L472.799 162.35C473.013 163.141 473.249 164.025 473.58 164.798C473.908 165.565 474.384 166.361 475.163 166.862L476.244 165.18ZM474.73 161.829C474.502 160.983 474.248 160.031 473.878 159.231C473.509 158.434 472.944 157.604 471.981 157.219L471.238 159.076C471.5 159.181 471.777 159.454 472.063 160.071C472.347 160.686 472.559 161.459 472.799 162.35L474.73 161.829ZM471.981 157.219C471.485 157.021 471.232 156.578 470.787 155.613L468.971 156.45C469.349 157.269 469.883 158.534 471.238 159.076L471.981 157.219ZM470.787 155.613C470.483 154.953 470.076 154.038 469.297 153.346C468.468 152.609 467.334 152.213 465.749 152.267L465.818 154.266C467.01 154.225 467.605 154.518 467.969 154.842C468.385 155.211 468.637 155.726 468.971 156.45L470.787 155.613ZM462.49 152.667C462.336 152.462 462.115 152.238 461.798 152.108C461.463 151.969 461.137 151.981 460.869 152.049C460.624 152.111 460.409 152.224 460.246 152.319C460.079 152.416 459.9 152.536 459.734 152.646L460.843 154.311C461.024 154.19 461.149 154.108 461.254 154.047C461.362 153.983 461.387 153.981 461.36 153.988C461.34 153.993 461.296 154.002 461.234 154C461.169 153.997 461.1 153.983 461.034 153.956C460.906 153.903 460.863 153.831 460.89 153.867L462.49 152.667ZM459.734 152.646C459.134 153.046 458.331 153.579 457.034 153.981C455.732 154.384 453.881 154.668 451.212 154.474L451.067 156.468C453.949 156.678 456.052 156.379 457.626 155.892C459.205 155.403 460.202 154.738 460.843 154.311L459.734 152.646ZM438.539 170.431C438.505 170.33 438.497 170.243 438.496 170.187C438.495 170.131 438.5 170.09 438.504 170.07C438.505 170.059 438.507 170.05 438.508 170.045C438.509 170.04 438.51 170.038 438.51 170.038C438.51 170.038 438.51 170.039 438.509 170.043C438.507 170.047 438.505 170.052 438.503 170.06C438.492 170.09 438.474 170.135 438.446 170.201C438.418 170.266 438.385 170.338 438.346 170.426L440.169 171.248C440.24 171.091 440.328 170.898 440.388 170.727C440.419 170.639 440.456 170.522 440.477 170.392C440.497 170.275 440.52 170.051 440.436 169.799L438.539 170.431ZM438.346 170.426C438.136 170.891 437.742 171.734 437.706 172.652C437.688 173.133 437.764 173.657 438.02 174.171C438.276 174.687 438.685 175.138 439.248 175.513L440.357 173.849C440.043 173.64 439.89 173.441 439.811 173.281C439.73 173.12 439.697 172.94 439.705 172.73C439.723 172.264 439.933 171.77 440.169 171.248L438.346 170.426ZM436.859 179.694C436.848 179.702 436.853 179.696 436.868 179.694C436.878 179.692 436.866 179.696 436.821 179.687C436.773 179.676 436.705 179.654 436.609 179.612C436.512 179.569 436.412 179.518 436.285 179.452L435.362 181.226C435.582 181.34 435.971 181.55 436.401 181.642C436.884 181.745 437.47 181.715 438.022 181.321L436.859 179.694ZM436.285 179.452C436.17 179.392 436.012 179.309 435.856 179.243C435.706 179.181 435.469 179.095 435.193 179.087C434.876 179.078 434.519 179.177 434.229 179.459C433.974 179.707 433.856 180.016 433.794 180.265L435.734 180.75C435.752 180.68 435.743 180.776 435.624 180.892C435.558 180.956 435.473 181.012 435.374 181.047C435.278 181.081 435.195 181.088 435.139 181.086C435.046 181.084 435.012 181.058 435.084 181.088C435.148 181.115 435.228 181.156 435.362 181.226L436.285 179.452ZM433.794 180.265C433.698 180.649 433.566 180.987 433.427 181.338L435.288 182.071C435.424 181.728 435.602 181.277 435.734 180.75L433.794 180.265ZM433.427 181.338C433.317 181.619 433.173 181.975 433.101 182.318C433.024 182.688 433.003 183.157 433.24 183.631L435.028 182.737C435.065 182.809 435.035 182.844 435.059 182.728C435.089 182.585 435.158 182.402 435.288 182.071L433.427 181.338ZM433.24 183.631C433.136 183.425 433.16 183.25 433.169 183.199C433.179 183.151 433.188 183.147 433.159 183.204C433.134 183.256 433.093 183.328 433.031 183.425C432.969 183.523 432.899 183.628 432.816 183.752L434.478 184.865C434.627 184.641 434.82 184.357 434.95 184.094C435.017 183.96 435.095 183.78 435.134 183.575C435.173 183.369 435.188 183.057 435.028 182.737L433.24 183.631ZM432.816 183.752C432.554 184.143 432.12 184.772 431.939 185.429C431.843 185.78 431.796 186.209 431.93 186.658C432.068 187.121 432.367 187.498 432.773 187.782L433.92 186.144C433.823 186.076 433.836 186.052 433.846 186.086C433.852 186.105 433.835 186.076 433.868 185.959C433.945 185.679 434.164 185.334 434.478 184.865L432.816 183.752ZM432.773 187.782C432.991 187.935 433.188 188.069 433.36 188.187L434.488 186.536C434.316 186.418 434.128 186.289 433.92 186.144L432.773 187.782ZM433.36 188.187C433.644 188.381 433.843 188.518 433.99 188.63C434.061 188.684 434.104 188.722 434.131 188.747C434.158 188.773 434.15 188.77 434.13 188.74C434.108 188.707 434.065 188.631 434.045 188.518C434.023 188.399 434.036 188.287 434.063 188.199C434.076 188.158 434.09 188.128 434.1 188.109C434.11 188.09 434.117 188.08 434.118 188.079C434.118 188.078 434.115 188.083 434.104 188.095C434.094 188.107 434.078 188.124 434.057 188.146L435.471 189.56C435.632 189.399 435.864 189.142 435.973 188.793C436.11 188.351 436.002 187.942 435.795 187.632C435.627 187.38 435.391 187.185 435.206 187.043C435.007 186.89 434.756 186.719 434.488 186.536L433.36 188.187ZM428.167 193.992C427.847 194.791 427.744 195.277 427.678 195.587L429.635 195.999C429.687 195.754 429.762 195.39 430.024 194.735L428.167 193.992ZM427.678 195.587C427.669 195.629 427.663 195.66 427.656 195.688C427.65 195.716 427.646 195.733 427.643 195.744C427.637 195.767 427.641 195.747 427.66 195.709C427.67 195.689 427.682 195.667 427.698 195.646C427.713 195.624 427.729 195.606 427.742 195.592C427.767 195.566 427.779 195.562 427.753 195.579L428.863 197.243C429.078 197.099 429.295 196.908 429.445 196.611C429.563 196.376 429.61 196.117 429.635 195.999L427.678 195.587ZM428.137 201.064C428.237 201.119 428.233 201.139 428.203 201.097C428.187 201.075 428.171 201.043 428.158 201.005C428.146 200.967 428.141 200.934 428.141 200.91C428.139 200.868 428.149 200.869 428.126 200.938C428.115 200.97 428.1 201.01 428.078 201.061C428.057 201.113 428.032 201.168 428.002 201.235L429.828 202.051C429.917 201.851 430.157 201.365 430.139 200.843C430.129 200.538 430.037 200.227 429.836 199.943C429.645 199.671 429.386 199.47 429.109 199.316L428.137 201.064ZM428.002 201.235C427.915 201.431 427.732 201.818 427.689 202.24C427.636 202.752 427.784 203.285 428.231 203.731L429.645 202.317C429.629 202.301 429.649 202.317 429.665 202.363C429.672 202.384 429.676 202.404 429.677 202.42C429.679 202.436 429.678 202.444 429.678 202.443C429.679 202.437 429.683 202.405 429.71 202.331C429.737 202.255 429.774 202.173 429.828 202.051L428.002 201.235ZM428.231 203.731C428.247 203.747 428.224 203.728 428.21 203.678C428.198 203.634 428.208 203.619 428.2 203.662C428.191 203.71 428.166 203.792 428.109 203.925C428.051 204.059 427.978 204.205 427.883 204.392L429.67 205.292C429.831 204.971 430.076 204.504 430.165 204.036C430.214 203.778 430.227 203.476 430.141 203.158C430.054 202.833 429.88 202.552 429.645 202.317L428.231 203.731ZM427.883 204.392C427.575 205.004 427.053 205.994 427.154 207.201L429.147 207.035C429.1 206.469 429.331 205.964 429.67 205.292L427.883 204.392Z" fill="black" mask="url(#path-2-inside-1)"/>
<mask id="path-4-inside-2" fill="white">
<path d="M451.77 167.753C450.72 167.123 447.802 167.973 444.526 176.413C441.251 184.853 435.709 197.356 433.347 202.552C432.454 204.914 431.709 209.543 435.866 209.165C436.758 209.27 439.204 207.811 441.85 201.135C444.495 194.458 450.195 180.717 452.714 174.681C453.764 172.529 455.045 168.131 451.77 167.753Z"/>
<path d="M466.728 174.681C465.521 174.524 462.666 175.185 460.902 179.09C459.139 182.995 449.775 200.767 445.314 209.165C444.894 210.687 444.558 213.983 446.573 214.991C448.589 215.999 450.877 213.521 451.77 212.157L467.358 181.924C468.618 180.245 470.255 176.445 466.728 174.681Z"/>
<path d="M349.263 427.72C359.785 427.72 368.316 419.19 368.316 408.667C368.316 406.547 367.969 404.508 367.33 402.603L342.651 390.793C335.388 393.481 330.21 400.469 330.21 408.667C330.21 419.19 338.74 427.72 349.263 427.72Z"/>
</mask>
<path d="M451.77 167.753C450.72 167.123 447.802 167.973 444.526 176.413C441.251 184.853 435.709 197.356 433.347 202.552C432.454 204.914 431.709 209.543 435.866 209.165C436.758 209.27 439.204 207.811 441.85 201.135C444.495 194.458 450.195 180.717 452.714 174.681C453.764 172.529 455.045 168.131 451.77 167.753Z" fill="#81ECEC"/>
<path d="M466.728 174.681C465.521 174.524 462.666 175.185 460.902 179.09C459.139 182.995 449.775 200.767 445.314 209.165C444.894 210.687 444.558 213.983 446.573 214.991C448.589 215.999 450.877 213.521 451.77 212.157L467.358 181.924C468.618 180.245 470.255 176.445 466.728 174.681Z" fill="#81ECEC"/>
<path d="M349.263 427.72C359.785 427.72 368.316 419.19 368.316 408.667C368.316 406.547 367.969 404.508 367.33 402.603L342.651 390.793C335.388 393.481 330.21 400.469 330.21 408.667C330.21 419.19 338.74 427.72 349.263 427.72Z" fill="#81ECEC"/>
<path d="M257.149 433.861L257.457 434.254L257.47 434.244L257.482 434.234L257.149 433.861ZM233.844 470.864L234.335 470.959L234.335 470.959L233.844 470.864ZM373.827 540.777L373.511 540.389L373.497 540.4L373.484 540.413L373.827 540.777ZM388.943 475.116L389.439 475.053L389.438 475.044L389.437 475.036L388.943 475.116ZM408.783 422.839L409.148 423.181L409.176 423.15L409.2 423.115L408.783 422.839ZM411.775 374.656L411.355 374.927L411.36 374.936L411.367 374.945L411.775 374.656ZM368.158 402.999L367.942 403.45L368.402 403.67L368.613 403.206L368.158 402.999ZM342.492 390.717L342.041 390.502L341.826 390.952L342.276 391.168L342.492 390.717ZM327.061 341.274L326.908 340.798L326.908 340.798L327.061 341.274ZM298.088 386.308L297.588 386.296L297.588 386.296L298.088 386.308ZM286.436 412.289L286.195 411.851L286.17 411.865L286.147 411.881L286.436 412.289ZM447.991 223.809L448.448 224.011L448.452 224.001L448.456 223.991L447.991 223.809ZM449.408 220.187L449.12 219.778L448.997 219.865L448.942 220.005L449.408 220.187ZM455.391 215.778L455.134 216.207L455.55 216.457L455.812 216.049L455.391 215.778ZM457.281 214.046L457.634 213.693L457.634 213.693L457.281 214.046ZM460.745 212.787L460.329 212.509L460.329 212.509L460.745 212.787ZM460.902 210.582L460.538 210.24L460.206 210.593L460.549 210.936L460.902 210.582ZM460.141 206.912L459.701 206.675L459.427 207.182L459.968 207.381L460.141 206.912ZM463.264 201.135L463.599 200.763L463.126 200.338L462.824 200.897L463.264 201.135ZM465.941 200.82L465.519 200.551L465.519 200.551L465.941 200.82ZM466.728 195.309L466.591 195.789L466.591 195.789L466.728 195.309ZM467.358 192.317L467.559 191.859L467.276 191.735L467.038 191.933L467.358 192.317ZM473.972 185.389L474.415 185.619L474.478 185.497L474.471 185.361L473.972 185.389ZM472.712 181.924L472.301 181.64L471.99 182.088L472.464 182.359L472.712 181.924ZM473.814 178.145L473.356 177.944L473.295 178.084L473.322 178.235L473.814 178.145ZM477.278 170.272L477.736 170.474L477.756 170.429L477.766 170.381L477.278 170.272ZM475.704 166.021L475.974 165.6L475.974 165.6L475.704 166.021ZM471.61 158.148L471.424 158.612L471.424 158.612L471.61 158.148ZM465.784 153.267L465.766 152.767L465.621 152.772L465.501 152.854L465.784 153.267ZM465.725 153.307L465.443 152.894L465.443 152.894L465.725 153.307ZM461.69 153.267L461.29 153.567L461.29 153.567L461.69 153.267ZM451.14 155.471L451.176 154.972L451.12 154.968L451.064 154.977L451.14 155.471ZM445.786 163.816L446.154 164.156L446.239 164.063L446.27 163.941L445.786 163.816ZM443.897 165.863L443.529 165.524L443.476 165.581L443.443 165.652L443.897 165.863ZM442.794 168.225L442.585 168.679L443.037 168.888L443.247 168.437L442.794 168.225ZM440.432 167.753L440.848 168.03L440.848 168.03L440.432 167.753ZM439.488 170.115L439.013 170.273L439.013 170.273L439.488 170.115ZM439.803 174.681L440.288 174.802L440.373 174.461L440.08 174.265L439.803 174.681ZM437.441 180.507L437.15 180.1L437.15 180.1L437.441 180.507ZM434.764 180.507L435.249 180.629L435.249 180.628L434.764 180.507ZM434.134 183.184L433.687 183.408L433.687 183.408L434.134 183.184ZM433.347 186.963L433.633 186.554L433.633 186.554L433.347 186.963ZM434.764 188.853L434.41 188.499L434.41 188.499L434.764 188.853ZM431.772 193.576L431.593 194.043L431.992 194.197L432.205 193.826L431.772 193.576ZM429.095 194.364L429.56 194.549L429.56 194.549L429.095 194.364ZM428.308 196.411L428.585 196.827L428.585 196.827L428.308 196.411ZM428.623 200.19L428.866 199.753L428.866 199.753L428.623 200.19ZM428.938 203.024L429.291 202.671L429.291 202.671L428.938 203.024ZM428.151 207.118L428.649 207.077L428.649 207.077L428.151 207.118ZM427.678 214.046L427.288 213.734L427.288 213.734L427.678 214.046ZM466.798 199.507L467.214 199.785L467.214 199.785L466.798 199.507ZM467.495 198.092L467.038 197.888L467.038 197.888L467.495 198.092ZM473.765 162.09L473.282 162.22L473.282 162.22L473.765 162.09ZM469.879 156.032L469.425 156.241L469.425 156.241L469.879 156.032ZM460.288 153.479L460.565 153.895L460.565 153.895L460.288 153.479ZM439.257 170.837L439.713 171.043L439.713 171.043L439.257 170.837ZM435.824 180.339L436.055 179.895L436.054 179.895L435.824 180.339ZM434.358 181.705L433.893 181.521L433.893 181.521L434.358 181.705ZM433.647 184.308L434.062 184.587L434.062 184.587L433.647 184.308ZM433.924 187.361L434.206 186.949L434.206 186.949L433.924 187.361ZM428.657 195.793L428.167 195.69L428.167 195.69L428.657 195.793ZM428.915 201.643L428.459 201.439L428.459 201.439L428.915 201.643ZM428.776 204.842L429.223 205.067L429.223 205.067L428.776 204.842ZM256.84 433.468C250.44 438.493 236.786 452.969 233.353 470.77L234.335 470.959C237.705 453.488 251.155 439.202 257.457 434.254L256.84 433.468ZM233.353 470.77C229.053 493.066 241.324 515.919 262.689 530.795L263.26 529.974C242.111 515.248 230.133 492.751 234.335 470.959L233.353 470.77ZM262.689 530.795C273.347 538.216 292.38 549.078 313.149 553.959C333.921 558.84 356.52 557.756 374.169 541.141L373.484 540.413C356.177 556.706 333.979 557.827 313.378 552.985C292.774 548.143 273.859 537.354 263.26 529.974L262.689 530.795ZM374.143 541.164C381.4 535.251 394.367 513.842 389.439 475.053L388.447 475.179C393.345 513.734 380.425 534.755 373.511 540.389L374.143 541.164ZM389.437 475.036C388.888 471.64 388.229 466.19 388.037 460.887C387.941 458.235 387.962 455.631 388.17 453.343C388.378 451.045 388.772 449.11 389.396 447.772L388.49 447.349C387.792 448.845 387.386 450.918 387.174 453.252C386.961 455.597 386.941 458.247 387.038 460.923C387.232 466.275 387.896 471.768 388.449 475.195L389.437 475.036ZM389.396 447.772C390.687 445.006 394.224 440.345 398.173 435.598C402.105 430.87 406.397 426.115 409.148 423.181L408.418 422.497C405.657 425.442 401.352 430.212 397.404 434.958C393.472 439.685 389.845 444.446 388.49 447.349L389.396 447.772ZM409.2 423.115C412.224 418.552 415.994 410.661 417.503 401.776C419.013 392.886 418.267 382.949 412.183 374.367L411.367 374.945C417.249 383.243 417.999 392.883 416.517 401.608C415.035 410.337 411.325 418.098 408.366 422.563L409.2 423.115ZM412.195 374.385C409.485 370.187 401.299 360.435 390.111 354.841L389.664 355.736C400.647 361.227 408.711 370.832 411.355 374.927L412.195 374.385ZM389.433 355.081L367.703 402.792L368.613 403.206L390.343 355.496L389.433 355.081ZM342.943 390.932L365.46 343.694L364.558 343.264L342.041 390.502L342.943 390.932ZM365.197 343.015C361.848 341.66 355.939 339.933 349.045 339.128C342.153 338.324 334.242 338.439 326.908 340.798L327.214 341.75C334.367 339.449 342.123 339.328 348.929 340.122C355.735 340.916 361.557 342.621 364.821 343.942L365.197 343.015ZM326.908 340.798C308.53 346.711 298.064 366.324 297.588 386.296L298.588 386.32C299.057 366.612 309.376 347.489 327.214 341.75L326.908 340.798ZM297.588 386.296C297.214 402.016 289.744 409.901 286.195 411.851L286.677 412.727C290.581 410.583 298.207 402.344 298.588 386.32L297.588 386.296ZM286.147 411.881C281.999 414.82 275.557 419.426 269.71 423.691C263.876 427.948 258.602 431.89 256.815 433.488L257.482 434.234C259.222 432.677 264.445 428.771 270.3 424.499C276.142 420.237 282.58 415.634 286.725 412.697L286.147 411.881ZM390.345 355.49L448.448 224.011L447.533 223.607L389.43 355.086L390.345 355.49ZM448.456 223.991L449.873 220.369L448.942 220.005L447.525 223.627L448.456 223.991ZM449.695 220.596C450.41 220.094 451.505 219.292 452.472 218.519C452.954 218.133 453.411 217.749 453.774 217.41C453.956 217.241 454.119 217.078 454.252 216.928C454.38 216.784 454.502 216.628 454.579 216.474L453.684 216.027C453.667 216.062 453.615 216.14 453.504 216.264C453.399 216.382 453.261 216.522 453.092 216.679C452.756 216.993 452.321 217.359 451.847 217.738C450.901 218.495 449.823 219.284 449.12 219.778L449.695 220.596ZM454.579 216.474C454.707 216.217 454.835 216.175 454.895 216.164C454.986 216.147 455.083 216.177 455.134 216.207L455.648 215.35C455.437 215.222 455.093 215.11 454.714 215.18C454.304 215.256 453.934 215.529 453.684 216.027L454.579 216.474ZM455.812 216.049C456.039 215.695 456.398 215.195 456.735 214.838C456.908 214.654 457.046 214.541 457.134 214.492C457.178 214.468 457.174 214.48 457.132 214.482C457.071 214.484 456.988 214.461 456.927 214.4L457.634 213.693C457.479 213.538 457.281 213.474 457.089 213.483C456.916 213.49 456.765 213.554 456.651 213.617C456.423 213.742 456.2 213.948 456.008 214.152C455.612 214.572 455.215 215.127 454.971 215.508L455.812 216.049ZM456.927 214.4C457.177 214.65 457.548 214.73 457.861 214.747C458.199 214.766 458.585 214.717 458.973 214.606C459.745 214.385 460.607 213.895 461.161 213.064L460.329 212.509C459.938 213.095 459.304 213.471 458.698 213.644C458.398 213.73 458.124 213.76 457.915 213.749C457.683 213.736 457.621 213.679 457.634 213.693L456.927 214.4ZM461.161 213.064C462.03 211.761 461.71 210.683 461.256 210.229L460.549 210.936C460.619 211.006 460.972 211.545 460.329 212.509L461.161 213.064ZM461.267 210.924C461.697 210.466 462.225 209.675 462.279 208.818C462.307 208.372 462.205 207.906 461.894 207.483C461.587 207.068 461.106 206.735 460.445 206.491L460.1 207.43C460.636 207.627 460.93 207.862 461.089 208.077C461.243 208.286 461.296 208.512 461.281 208.756C461.248 209.279 460.895 209.859 460.538 210.24L461.267 210.924ZM460.445 206.491C460.4 206.475 460.356 206.459 460.314 206.443L459.969 207.382C460.011 207.397 460.055 207.413 460.1 207.43L460.445 206.491ZM460.581 207.15L463.704 201.372L462.824 200.897L459.701 206.675L460.581 207.15ZM462.93 201.506C463.246 201.791 463.795 202.127 464.433 202.173C465.122 202.222 465.83 201.926 466.363 201.088L465.519 200.551C465.17 201.099 464.803 201.197 464.505 201.175C464.156 201.15 463.808 200.951 463.599 200.763L462.93 201.506ZM466.866 194.828C466.506 194.725 466.432 194.598 466.414 194.553C466.389 194.491 466.379 194.36 466.485 194.121C466.697 193.641 467.224 193.079 467.678 192.701L467.038 191.933C466.548 192.341 465.878 193.023 465.571 193.716C465.416 194.065 465.316 194.502 465.486 194.926C465.663 195.366 466.069 195.64 466.591 195.789L466.866 194.828ZM467.158 192.775C467.631 192.982 468.392 193.188 469.162 193.126C469.953 193.062 470.793 192.705 471.27 191.753L470.375 191.306C470.095 191.865 469.623 192.086 469.082 192.129C468.518 192.175 467.925 192.019 467.559 191.859L467.158 192.775ZM471.27 191.753C472.023 190.245 473.68 187.036 474.415 185.619L473.528 185.158C472.793 186.575 471.133 189.79 470.375 191.306L471.27 191.753ZM474.471 185.361C474.443 184.86 474.344 184.081 474.133 183.352C474.027 182.987 473.889 182.619 473.708 182.299C473.53 181.984 473.289 181.678 472.96 181.49L472.464 182.359C472.575 182.422 472.706 182.557 472.838 182.792C472.968 183.021 473.08 183.31 473.172 183.63C473.358 184.271 473.448 184.972 473.472 185.416L474.471 185.361ZM473.123 182.209C473.382 181.835 473.741 181.199 474.005 180.469C474.266 179.746 474.455 178.874 474.306 178.056L473.322 178.235C473.425 178.802 473.299 179.478 473.064 180.129C472.832 180.771 472.514 181.331 472.301 181.64L473.123 182.209ZM474.272 178.347L477.736 170.474L476.821 170.071L473.356 177.944L474.272 178.347ZM477.766 170.381C477.886 169.841 477.936 168.983 477.716 168.097C477.494 167.202 476.988 166.252 475.974 165.6L475.433 166.441C476.183 166.924 476.569 167.627 476.746 168.338C476.925 169.058 476.88 169.758 476.79 170.164L477.766 170.381ZM465.501 152.854L465.443 152.894L466.008 153.719L466.066 153.679L465.501 152.854ZM465.443 152.894C464.923 153.25 464.348 153.636 463.758 153.748C463.479 153.802 463.21 153.79 462.949 153.686C462.687 153.583 462.394 153.372 462.09 152.967L461.29 153.567C461.681 154.088 462.114 154.431 462.582 154.616C463.051 154.802 463.516 154.813 463.946 154.73C464.776 154.572 465.524 154.051 466.008 153.719L465.443 152.894ZM451.064 154.977C449.826 155.167 448.698 156.176 447.748 157.648C446.784 159.14 445.94 161.203 445.302 163.692L446.27 163.941C446.892 161.518 447.701 159.565 448.588 158.191C449.487 156.797 450.407 156.09 451.216 155.965L451.064 154.977ZM445.419 163.477L443.529 165.524L444.264 166.203L446.154 164.156L445.419 163.477ZM443.443 165.652L442.341 168.014L443.247 168.437L444.35 166.075L443.443 165.652ZM443.004 167.771C442.647 167.607 442.091 167.382 441.581 167.246C441.328 167.179 441.058 167.126 440.817 167.123C440.619 167.121 440.234 167.149 440.016 167.476L440.848 168.03C440.757 168.167 440.645 168.121 440.806 168.123C440.925 168.124 441.102 168.154 441.324 168.213C441.76 168.329 442.259 168.529 442.585 168.679L443.004 167.771ZM440.016 167.476C439.845 167.733 439.556 168.228 439.328 168.726C439.215 168.974 439.109 169.238 439.042 169.481C438.984 169.695 438.923 170.002 439.013 170.273L439.962 169.957C439.974 169.992 439.952 169.944 440.007 169.745C440.053 169.575 440.135 169.366 440.237 169.142C440.443 168.695 440.705 168.245 440.848 168.03L440.016 167.476ZM439.318 174.56C439.111 175.388 438.745 176.669 438.325 177.816C438.115 178.39 437.895 178.919 437.679 179.338C437.45 179.779 437.264 180.019 437.15 180.1L437.731 180.914C438.058 180.681 438.335 180.244 438.567 179.797C438.81 179.326 439.047 178.753 439.264 178.16C439.7 176.971 440.075 175.654 440.288 174.802L439.318 174.56ZM434.41 188.499C434.245 188.665 434.018 188.979 433.78 189.332C433.532 189.699 433.244 190.152 432.949 190.629C432.359 191.582 431.734 192.641 431.339 193.327L432.205 193.826C432.597 193.147 433.216 192.097 433.799 191.155C434.091 190.684 434.372 190.243 434.609 189.891C434.856 189.524 435.031 189.292 435.117 189.206L434.41 188.499ZM431.952 193.11C431.556 192.958 430.926 192.817 430.298 192.904C429.646 192.994 428.965 193.342 428.631 194.178L429.56 194.549C429.729 194.126 430.046 193.949 430.435 193.895C430.85 193.837 431.306 193.933 431.593 194.043L431.952 193.11ZM428.031 195.995C427.874 196.099 427.766 196.257 427.693 196.384C427.614 196.524 427.544 196.689 427.485 196.864C427.367 197.215 427.279 197.649 427.257 198.099C427.216 198.955 427.41 200.088 428.38 200.627L428.866 199.753C428.419 199.504 428.219 198.905 428.256 198.147C428.274 197.79 428.344 197.446 428.433 197.183C428.477 197.051 428.523 196.948 428.562 196.878C428.609 196.796 428.624 196.801 428.585 196.827L428.031 195.995ZM427.652 207.16C427.729 208.082 427.768 209.596 427.71 210.974C427.681 211.664 427.628 212.307 427.546 212.818C427.505 213.075 427.459 213.288 427.408 213.453C427.354 213.628 427.308 213.709 427.288 213.734L428.069 214.359C428.206 214.187 428.297 213.963 428.364 213.747C428.433 213.522 428.488 213.259 428.534 212.976C428.624 212.411 428.679 211.725 428.709 211.017C428.769 209.6 428.729 208.044 428.649 207.077L427.652 207.16ZM427.288 213.734C427.257 213.772 427.234 213.813 427.227 213.825C427.214 213.846 427.2 213.872 427.185 213.9C427.155 213.955 427.116 214.03 427.068 214.122C426.973 214.308 426.84 214.572 426.671 214.909C426.334 215.585 425.852 216.563 425.24 217.81C424.017 220.304 422.274 223.88 420.132 228.287C415.848 237.101 409.969 249.241 403.459 262.7C390.44 289.62 374.898 321.821 364.559 343.262L365.459 343.696C375.799 322.255 391.34 290.055 404.36 263.136C410.869 249.676 416.748 237.537 421.031 228.724C423.173 224.317 424.915 220.743 426.138 218.25C426.749 217.004 427.23 216.029 427.566 215.356C427.734 215.019 427.865 214.76 427.957 214.58C428.004 214.49 428.039 214.422 428.064 214.376C428.077 214.353 428.086 214.337 428.091 214.329C428.102 214.309 428.091 214.331 428.069 214.359L427.288 213.734ZM427.496 214.512C430.114 215.533 434.269 217.245 438.224 219.063C442.198 220.89 445.908 222.795 447.68 224.201L448.301 223.417C446.42 221.925 442.598 219.973 438.642 218.154C434.665 216.327 430.491 214.607 427.86 213.58L427.496 214.512ZM368.374 402.548L367.546 402.152L367.114 403.054L367.942 403.45L368.374 402.548ZM342.867 390.342L342.708 390.266L342.276 391.168L342.435 391.244L342.867 390.342ZM460.445 206.491L460.314 206.443L459.968 207.381L460.1 207.43L460.445 206.491ZM466.363 201.088C466.727 200.515 467.005 200.099 467.214 199.785L466.382 199.23C466.172 199.546 465.89 199.969 465.519 200.551L466.363 201.088ZM467.214 199.785C467.419 199.478 467.573 199.248 467.673 199.068C467.776 198.883 467.858 198.688 467.858 198.458H466.858C466.858 198.437 466.871 198.453 466.799 198.582C466.724 198.718 466.598 198.907 466.382 199.23L467.214 199.785ZM467.951 198.295C468.107 197.947 468.415 197.275 468.403 196.605C468.396 196.251 468.301 195.874 468.037 195.543C467.774 195.213 467.382 194.975 466.866 194.828L466.591 195.789C466.965 195.896 467.155 196.041 467.255 196.166C467.352 196.289 467.399 196.437 467.403 196.624C467.41 197.033 467.212 197.498 467.038 197.888L467.951 198.295ZM475.974 165.6C475.567 165.339 475.241 164.868 474.959 164.208C474.678 163.551 474.468 162.775 474.248 161.959L473.282 162.22C473.498 163.019 473.726 163.867 474.04 164.601C474.352 165.333 474.778 166.02 475.433 166.441L475.974 165.6ZM474.248 161.959C474.016 161.102 473.773 160.195 473.424 159.441C473.076 158.689 472.583 157.998 471.795 157.684L471.424 158.612C471.861 158.787 472.21 159.199 472.517 159.861C472.823 160.522 473.045 161.34 473.282 162.22L474.248 161.959ZM471.795 157.684C471.084 157.399 470.761 156.751 470.333 155.822L469.425 156.241C469.82 157.096 470.284 158.156 471.424 158.612L471.795 157.684ZM470.333 155.822C470.022 155.146 469.653 154.331 468.965 153.72C468.252 153.087 467.253 152.716 465.766 152.767L465.801 153.766C467.091 153.722 467.821 154.041 468.301 154.468C468.808 154.917 469.099 155.533 469.425 156.241L470.333 155.822ZM462.09 152.967C461.968 152.804 461.813 152.655 461.607 152.57C461.393 152.481 461.18 152.486 460.992 152.534C460.815 152.579 460.647 152.664 460.498 152.751C460.347 152.839 460.181 152.949 460.011 153.063L460.565 153.895C460.743 153.777 460.882 153.685 461.002 153.615C461.124 153.543 461.196 153.514 461.237 153.503C461.267 153.496 461.252 153.505 461.225 153.494C461.208 153.487 461.231 153.489 461.29 153.567L462.09 152.967ZM460.011 153.063C459.401 153.469 458.55 154.035 457.182 154.459C455.812 154.883 453.898 155.17 451.176 154.972L451.104 155.97C453.932 156.175 455.972 155.88 457.478 155.414C458.987 154.947 459.935 154.315 460.565 153.895L460.011 153.063ZM439.013 170.273C438.987 170.193 438.999 170.139 438.997 170.15C438.996 170.155 438.991 170.178 438.974 170.226C438.94 170.325 438.882 170.453 438.802 170.631L439.713 171.043C439.787 170.879 439.865 170.707 439.917 170.56C439.943 170.486 439.97 170.4 439.984 170.311C439.997 170.23 440.009 170.098 439.962 169.957L439.013 170.273ZM438.802 170.631C438.585 171.11 438.238 171.867 438.206 172.671C438.19 173.085 438.256 173.522 438.468 173.949C438.68 174.376 439.025 174.764 439.525 175.097L440.08 174.265C439.704 174.014 439.487 173.753 439.363 173.504C439.239 173.254 439.194 172.988 439.205 172.71C439.228 172.132 439.484 171.55 439.713 171.043L438.802 170.631ZM437.15 180.1C437.018 180.195 436.887 180.212 436.716 180.175C436.519 180.133 436.311 180.029 436.055 179.895L435.593 180.782C435.825 180.903 436.154 181.078 436.506 181.153C436.885 181.234 437.319 181.209 437.731 180.914L437.15 180.1ZM436.054 179.895C435.934 179.833 435.796 179.76 435.663 179.705C435.533 179.65 435.363 179.592 435.18 179.587C434.975 179.581 434.757 179.643 434.578 179.817C434.416 179.975 434.33 180.182 434.279 180.386L435.249 180.628C435.278 180.514 435.301 180.509 435.275 180.534C435.259 180.549 435.235 180.566 435.206 180.576C435.178 180.586 435.158 180.587 435.152 180.586C435.152 180.586 435.186 180.589 435.277 180.627C435.364 180.664 435.463 180.715 435.593 180.782L436.054 179.895ZM434.279 180.386C434.174 180.806 434.03 181.172 433.893 181.521L434.823 181.888C434.959 181.543 435.126 181.12 435.249 180.629L434.279 180.386ZM433.893 181.521C433.777 181.815 433.652 182.127 433.591 182.421C433.527 182.727 433.518 183.07 433.687 183.408L434.581 182.96C434.549 182.896 434.532 182.805 434.57 182.626C434.61 182.433 434.698 182.206 434.823 181.888L433.893 181.521ZM433.687 183.408C433.649 183.333 433.663 183.28 433.66 183.293C433.658 183.308 433.645 183.35 433.607 183.427C433.529 183.584 433.4 183.778 433.231 184.03L434.062 184.587C434.218 184.353 434.39 184.099 434.503 183.872C434.56 183.757 434.616 183.623 434.643 183.481C434.67 183.339 434.675 183.149 434.581 182.96L433.687 183.408ZM433.231 184.03C432.956 184.44 432.576 184.999 432.421 185.561C432.341 185.854 432.31 186.183 432.409 186.515C432.51 186.854 432.731 187.142 433.06 187.373L433.633 186.554C433.459 186.431 433.394 186.319 433.367 186.229C433.338 186.131 433.337 186.002 433.385 185.827C433.488 185.452 433.761 185.036 434.062 184.587L433.231 184.03ZM433.06 187.373C433.275 187.523 433.47 187.656 433.642 187.774L434.206 186.949C434.034 186.831 433.843 186.7 433.633 186.554L433.06 187.373ZM433.642 187.774C433.922 187.966 434.134 188.111 434.294 188.233C434.461 188.361 434.525 188.431 434.546 188.463C434.548 188.465 434.521 188.409 434.54 188.347C434.545 188.332 434.534 188.375 434.41 188.499L435.117 189.206C435.266 189.058 435.424 188.872 435.495 188.645C435.581 188.37 435.517 188.117 435.379 187.909C435.26 187.73 435.081 187.577 434.902 187.439C434.716 187.297 434.478 187.134 434.206 186.949L433.642 187.774ZM428.631 194.178C428.326 194.941 428.229 195.396 428.167 195.69L429.146 195.896C429.201 195.635 429.283 195.24 429.56 194.549L428.631 194.178ZM428.167 195.69C428.15 195.775 428.138 195.829 428.126 195.873C428.115 195.915 428.108 195.93 428.106 195.934C428.105 195.935 428.106 195.936 428.101 195.94C428.094 195.948 428.075 195.965 428.031 195.995L428.585 196.827C428.757 196.713 428.9 196.58 428.998 196.385C429.081 196.222 429.117 196.036 429.146 195.896L428.167 195.69ZM428.38 200.627C428.524 200.707 428.586 200.772 428.611 200.808C428.633 200.838 428.639 200.862 428.64 200.893C428.642 200.934 428.633 200.997 428.6 201.096C428.567 201.196 428.52 201.303 428.459 201.439L429.372 201.847C429.475 201.616 429.652 201.243 429.64 200.86C429.633 200.646 429.569 200.431 429.428 200.231C429.292 200.038 429.099 199.882 428.866 199.753L428.38 200.627ZM428.459 201.439C428.363 201.652 428.219 201.963 428.186 202.29C428.148 202.663 428.251 203.044 428.584 203.378L429.291 202.671C429.183 202.562 429.171 202.484 429.181 202.392C429.195 202.255 429.26 202.096 429.372 201.847L428.459 201.439ZM428.584 203.378C428.655 203.448 428.681 203.504 428.693 203.548C428.705 203.594 428.71 203.659 428.691 203.755C428.65 203.973 428.523 204.233 428.33 204.617L429.223 205.067C429.395 204.725 429.6 204.327 429.674 203.942C429.712 203.738 429.72 203.515 429.658 203.288C429.596 203.057 429.472 202.851 429.291 202.671L428.584 203.378ZM428.33 204.617C428.014 205.244 427.565 206.113 427.652 207.16L428.649 207.077C428.588 206.35 428.892 205.724 429.223 205.067L428.33 204.617ZM467.038 197.888C467.001 197.972 466.961 198.06 466.932 198.135C466.917 198.173 466.901 198.218 466.888 198.263C466.877 198.302 466.858 198.373 466.858 198.458H467.858C467.858 198.488 467.855 198.511 467.853 198.52C467.852 198.526 467.851 198.53 467.85 198.533C467.85 198.535 467.849 198.536 467.849 198.537C467.849 198.537 467.85 198.536 467.85 198.534C467.851 198.532 467.852 198.53 467.853 198.527C467.855 198.52 467.858 198.511 467.863 198.5C467.882 198.451 467.91 198.387 467.951 198.295L467.038 197.888ZM451.77 167.753L451.255 168.61L451.44 168.722L451.655 168.746L451.77 167.753ZM444.526 176.413L443.594 176.051L443.594 176.051L444.526 176.413ZM433.347 202.552L432.436 202.138L432.423 202.168L432.411 202.198L433.347 202.552ZM435.866 209.165L435.983 208.172L435.879 208.16L435.776 208.169L435.866 209.165ZM452.714 174.681L451.816 174.243L451.803 174.269L451.792 174.296L452.714 174.681ZM466.728 174.681L467.176 173.787L467.025 173.711L466.858 173.69L466.728 174.681ZM445.314 209.165L444.431 208.696L444.379 208.793L444.35 208.899L445.314 209.165ZM451.77 212.157L452.607 212.704L452.635 212.661L452.658 212.615L451.77 212.157ZM467.358 181.924L466.558 181.324L466.508 181.392L466.469 181.466L467.358 181.924ZM367.33 402.603L368.278 402.284L368.143 401.883L367.762 401.701L367.33 402.603ZM342.651 390.793L343.083 389.891L342.701 389.708L342.304 389.855L342.651 390.793ZM452.284 166.895C451.185 166.236 449.697 166.644 448.299 167.952C446.871 169.289 445.255 171.772 443.594 176.051L445.459 176.775C447.073 172.615 448.554 170.453 449.666 169.412C450.218 168.896 450.641 168.691 450.908 168.621C451.039 168.587 451.129 168.586 451.182 168.592C451.209 168.595 451.227 168.6 451.238 168.603C451.25 168.607 451.255 168.61 451.255 168.61L452.284 166.895ZM443.594 176.051C440.33 184.464 434.797 196.944 432.436 202.138L434.257 202.966C436.62 197.767 442.173 185.243 445.459 176.775L443.594 176.051ZM432.411 202.198C431.941 203.443 431.464 205.385 431.725 207.042C431.859 207.889 432.204 208.766 432.953 209.391C433.714 210.026 434.737 210.272 435.957 210.161L435.776 208.169C434.917 208.247 434.474 208.056 434.234 207.855C433.981 207.645 433.789 207.288 433.701 206.73C433.519 205.576 433.86 204.022 434.282 202.905L432.411 202.198ZM435.749 210.158C436.266 210.219 436.807 210.044 437.302 209.762C437.815 209.468 438.369 209.009 438.948 208.357C440.105 207.054 441.431 204.906 442.779 201.503L440.92 200.766C439.623 204.039 438.403 205.959 437.453 207.029C436.978 207.563 436.588 207.866 436.309 208.025C436.012 208.195 435.912 208.164 435.983 208.172L435.749 210.158ZM442.779 201.503C445.421 194.836 451.117 181.104 453.637 175.066L451.792 174.296C449.273 180.331 443.569 194.08 440.92 200.766L442.779 201.503ZM453.613 175.12C454.167 173.984 454.815 172.199 454.863 170.581C454.887 169.77 454.764 168.885 454.285 168.148C453.777 167.364 452.956 166.883 451.884 166.76L451.655 168.746C452.22 168.812 452.468 169.022 452.608 169.237C452.777 169.498 452.882 169.918 452.864 170.522C452.828 171.736 452.312 173.226 451.816 174.243L453.613 175.12ZM466.858 173.69C465.181 173.471 461.922 174.403 459.991 178.679L461.814 179.502C463.41 175.967 465.861 175.577 466.599 175.673L466.858 173.69ZM459.991 178.679C458.245 182.546 448.903 200.277 444.431 208.696L446.197 209.634C450.647 201.257 460.033 183.445 461.814 179.502L459.991 178.679ZM444.35 208.899C444.117 209.745 443.904 211.077 444.035 212.372C444.164 213.639 444.66 215.152 446.126 215.886L447.021 214.097C446.472 213.822 446.128 213.183 446.025 212.17C445.925 211.185 446.091 210.108 446.278 209.431L444.35 208.899ZM446.126 215.886C447.634 216.639 449.13 216.018 450.171 215.279C451.238 214.522 452.114 213.457 452.607 212.704L450.933 211.61C450.533 212.222 449.819 213.077 449.014 213.648C448.184 214.237 447.528 214.351 447.021 214.097L446.126 215.886ZM452.658 212.615L468.247 182.383L466.469 181.466L450.881 211.698L452.658 212.615ZM468.158 182.524C468.853 181.598 469.686 180.054 469.834 178.425C469.91 177.594 469.81 176.702 469.382 175.865C468.949 175.02 468.221 174.31 467.176 173.787L466.281 175.576C466.999 175.935 467.389 176.361 467.602 176.776C467.819 177.201 467.893 177.694 467.842 178.243C467.739 179.375 467.123 180.571 466.558 181.324L468.158 182.524ZM367.316 408.667C367.316 418.638 359.233 426.72 349.263 426.72V428.72C360.338 428.72 369.316 419.742 369.316 408.667H367.316ZM349.263 426.72C339.293 426.72 331.21 418.638 331.21 408.667H329.21C329.21 419.742 338.188 428.72 349.263 428.72V426.72ZM366.382 402.921C366.987 404.725 367.316 406.657 367.316 408.667H369.316C369.316 406.438 368.951 404.291 368.278 402.284L366.382 402.921ZM367.762 401.701L343.083 389.891L342.22 391.695L366.898 403.505L367.762 401.701ZM331.21 408.667C331.21 400.901 336.114 394.278 342.998 391.731L342.304 389.855C334.661 392.683 329.21 400.038 329.21 408.667H331.21Z" fill="black" mask="url(#path-4-inside-2)"/>
<mask id="path-6-inside-3" fill="white">
<path d="M368.158 402.999L389.888 355.288L447.991 223.809C444.337 220.912 432.927 216.093 427.678 214.046C427.174 214.676 385.689 300.597 365.009 343.479L342.492 390.717L342.651 390.793L367.33 402.603L368.158 402.999Z"/>
</mask>
<path d="M368.158 402.999L389.888 355.288L447.991 223.809C444.337 220.912 432.927 216.093 427.678 214.046C427.174 214.676 385.689 300.597 365.009 343.479L342.492 390.717L342.651 390.793L367.33 402.603L368.158 402.999Z" fill="#FFD4AC"/>
<path d="M257.149 433.861L257.457 434.254L257.47 434.244L257.482 434.234L257.149 433.861ZM233.844 470.864L234.335 470.959L234.335 470.959L233.844 470.864ZM373.827 540.777L373.511 540.389L373.497 540.4L373.484 540.413L373.827 540.777ZM388.943 475.116L389.439 475.053L389.438 475.044L389.437 475.036L388.943 475.116ZM408.783 422.839L409.148 423.181L409.176 423.15L409.2 423.115L408.783 422.839ZM411.775 374.656L411.355 374.927L411.36 374.936L411.367 374.945L411.775 374.656ZM327.061 341.274L326.908 340.798L326.908 340.798L327.061 341.274ZM298.088 386.308L297.588 386.296L297.588 386.296L298.088 386.308ZM286.436 412.289L286.195 411.851L286.17 411.865L286.147 411.881L286.436 412.289ZM449.408 220.187L449.12 219.778L448.997 219.865L448.942 220.005L449.408 220.187ZM455.391 215.778L455.134 216.207L455.55 216.457L455.812 216.049L455.391 215.778ZM457.281 214.046L457.634 213.693L457.634 213.693L457.281 214.046ZM460.745 212.787L460.329 212.509L460.329 212.509L460.745 212.787ZM460.902 210.582L460.538 210.24L460.206 210.593L460.549 210.936L460.902 210.582ZM460.141 206.912L459.701 206.675L459.427 207.182L459.968 207.381L460.141 206.912ZM463.264 201.135L463.599 200.763L463.126 200.338L462.824 200.897L463.264 201.135ZM465.941 200.82L465.519 200.551L465.519 200.551L465.941 200.82ZM466.728 195.309L466.591 195.789L466.591 195.789L466.728 195.309ZM467.358 192.317L467.559 191.859L467.276 191.735L467.038 191.933L467.358 192.317ZM473.972 185.389L474.415 185.619L474.478 185.497L474.471 185.361L473.972 185.389ZM472.712 181.924L472.301 181.64L471.99 182.088L472.464 182.359L472.712 181.924ZM473.814 178.145L473.356 177.944L473.295 178.084L473.322 178.235L473.814 178.145ZM477.278 170.272L477.736 170.474L477.756 170.429L477.766 170.381L477.278 170.272ZM475.704 166.021L475.974 165.6L475.974 165.6L475.704 166.021ZM471.61 158.148L471.424 158.612L471.424 158.612L471.61 158.148ZM465.784 153.267L465.766 152.767L465.621 152.772L465.501 152.854L465.784 153.267ZM465.725 153.307L465.443 152.894L465.443 152.894L465.725 153.307ZM461.69 153.267L461.29 153.567L461.29 153.567L461.69 153.267ZM451.14 155.471L451.176 154.972L451.12 154.968L451.064 154.977L451.14 155.471ZM445.786 163.816L446.154 164.156L446.239 164.063L446.27 163.941L445.786 163.816ZM443.897 165.863L443.529 165.524L443.476 165.581L443.443 165.652L443.897 165.863ZM442.794 168.225L442.585 168.679L443.037 168.888L443.247 168.437L442.794 168.225ZM440.432 167.753L440.848 168.03L440.848 168.03L440.432 167.753ZM439.488 170.115L439.013 170.273L439.013 170.273L439.488 170.115ZM439.803 174.681L440.288 174.802L440.373 174.461L440.08 174.265L439.803 174.681ZM437.441 180.507L437.15 180.1L437.15 180.1L437.441 180.507ZM434.764 180.507L435.249 180.629L435.249 180.628L434.764 180.507ZM434.134 183.184L433.687 183.408L433.687 183.408L434.134 183.184ZM433.347 186.963L433.633 186.554L433.633 186.554L433.347 186.963ZM434.764 188.853L434.41 188.499L434.41 188.499L434.764 188.853ZM431.772 193.576L431.593 194.043L431.992 194.197L432.205 193.826L431.772 193.576ZM429.095 194.364L429.56 194.549L429.56 194.549L429.095 194.364ZM428.308 196.411L428.585 196.827L428.585 196.827L428.308 196.411ZM428.623 200.19L428.866 199.753L428.866 199.753L428.623 200.19ZM428.938 203.024L429.291 202.671L429.291 202.671L428.938 203.024ZM428.151 207.118L428.649 207.077L428.649 207.077L428.151 207.118ZM451.77 167.753L451.512 168.182L451.605 168.237L451.712 168.25L451.77 167.753ZM444.526 176.413L444.06 176.232L444.06 176.232L444.526 176.413ZM433.347 202.552L432.892 202.345L432.885 202.36L432.879 202.375L433.347 202.552ZM435.866 209.165L435.925 208.668L435.873 208.662L435.821 208.667L435.866 209.165ZM452.714 174.681L452.265 174.462L452.259 174.475L452.253 174.489L452.714 174.681ZM466.728 174.681L466.952 174.234L466.877 174.196L466.793 174.185L466.728 174.681ZM445.314 209.165L444.872 208.93L444.846 208.979L444.832 209.032L445.314 209.165ZM451.77 212.157L452.188 212.43L452.202 212.409L452.214 212.386L451.77 212.157ZM467.358 181.924L466.958 181.624L466.933 181.658L466.914 181.695L467.358 181.924ZM466.798 199.507L467.214 199.785L467.214 199.785L466.798 199.507ZM467.495 198.092L467.038 197.888L467.038 197.888L467.495 198.092ZM473.765 162.09L473.282 162.22L473.282 162.22L473.765 162.09ZM469.879 156.032L469.425 156.241L469.425 156.241L469.879 156.032ZM460.288 153.479L460.565 153.895L460.565 153.895L460.288 153.479ZM439.257 170.837L439.713 171.043L439.713 171.043L439.257 170.837ZM435.824 180.339L436.055 179.895L436.054 179.895L435.824 180.339ZM434.358 181.705L433.893 181.521L433.893 181.521L434.358 181.705ZM433.647 184.308L434.062 184.587L434.062 184.587L433.647 184.308ZM433.924 187.361L434.206 186.949L434.206 186.949L433.924 187.361ZM428.657 195.793L428.167 195.69L428.167 195.69L428.657 195.793ZM428.915 201.643L428.459 201.439L428.459 201.439L428.915 201.643ZM428.776 204.842L429.223 205.067L429.223 205.067L428.776 204.842ZM256.84 433.468C250.44 438.493 236.786 452.969 233.353 470.77L234.335 470.959C237.705 453.488 251.155 439.202 257.457 434.254L256.84 433.468ZM233.353 470.77C229.053 493.066 241.324 515.919 262.689 530.795L263.26 529.974C242.111 515.248 230.133 492.751 234.335 470.959L233.353 470.77ZM262.689 530.795C273.347 538.216 292.38 549.078 313.149 553.959C333.921 558.84 356.52 557.756 374.169 541.141L373.484 540.413C356.177 556.706 333.979 557.827 313.378 552.985C292.774 548.143 273.859 537.354 263.26 529.974L262.689 530.795ZM374.143 541.164C381.4 535.251 394.367 513.842 389.439 475.053L388.447 475.179C393.345 513.734 380.425 534.755 373.511 540.389L374.143 541.164ZM389.437 475.036C388.888 471.64 388.229 466.19 388.037 460.887C387.941 458.235 387.962 455.631 388.17 453.343C388.378 451.045 388.772 449.11 389.396 447.772L388.49 447.349C387.792 448.845 387.386 450.918 387.174 453.252C386.961 455.597 386.941 458.247 387.038 460.923C387.232 466.275 387.896 471.768 388.449 475.195L389.437 475.036ZM389.396 447.772C390.687 445.006 394.224 440.345 398.173 435.598C402.105 430.87 406.397 426.115 409.148 423.181L408.418 422.497C405.657 425.442 401.352 430.212 397.404 434.958C393.472 439.685 389.845 444.446 388.49 447.349L389.396 447.772ZM409.2 423.115C412.224 418.552 415.994 410.661 417.503 401.776C419.013 392.886 418.267 382.949 412.183 374.367L411.367 374.945C417.249 383.243 417.999 392.883 416.517 401.608C415.035 410.337 411.325 418.098 408.366 422.563L409.2 423.115ZM412.195 374.385C409.485 370.187 401.299 360.435 390.111 354.841L389.664 355.736C400.647 361.227 408.711 370.832 411.355 374.927L412.195 374.385ZM365.197 343.015C361.848 341.66 355.939 339.933 349.045 339.128C342.153 338.324 334.242 338.439 326.908 340.798L327.214 341.75C334.367 339.449 342.123 339.328 348.929 340.122C355.735 340.916 361.557 342.621 364.821 343.942L365.197 343.015ZM326.908 340.798C308.53 346.711 298.064 366.324 297.588 386.296L298.588 386.32C299.057 366.612 309.376 347.489 327.214 341.75L326.908 340.798ZM297.588 386.296C297.214 402.016 289.744 409.901 286.195 411.851L286.677 412.727C290.581 410.583 298.207 402.344 298.588 386.32L297.588 386.296ZM286.147 411.881C281.999 414.82 275.557 419.426 269.71 423.691C263.876 427.948 258.602 431.89 256.815 433.488L257.482 434.234C259.222 432.677 264.445 428.771 270.3 424.499C276.142 420.237 282.58 415.634 286.725 412.697L286.147 411.881ZM448.456 223.991L449.873 220.369L448.942 220.005L447.525 223.627L448.456 223.991ZM449.695 220.596C450.41 220.094 451.505 219.292 452.472 218.519C452.954 218.133 453.411 217.749 453.774 217.41C453.956 217.241 454.119 217.078 454.252 216.928C454.38 216.784 454.502 216.628 454.579 216.474L453.684 216.027C453.667 216.062 453.615 216.14 453.504 216.264C453.399 216.382 453.261 216.522 453.092 216.679C452.756 216.993 452.321 217.359 451.847 217.738C450.901 218.495 449.823 219.284 449.12 219.778L449.695 220.596ZM454.579 216.474C454.707 216.217 454.835 216.175 454.895 216.164C454.986 216.147 455.083 216.177 455.134 216.207L455.648 215.35C455.437 215.222 455.093 215.11 454.714 215.18C454.304 215.256 453.934 215.529 453.684 216.027L454.579 216.474ZM455.812 216.049C456.039 215.695 456.398 215.195 456.735 214.838C456.908 214.654 457.046 214.541 457.134 214.492C457.178 214.468 457.174 214.48 457.132 214.482C457.071 214.484 456.988 214.461 456.927 214.4L457.634 213.693C457.479 213.538 457.281 213.474 457.089 213.483C456.916 213.49 456.765 213.554 456.651 213.617C456.423 213.742 456.2 213.948 456.008 214.152C455.612 214.572 455.215 215.127 454.971 215.508L455.812 216.049ZM456.927 214.4C457.177 214.65 457.548 214.73 457.861 214.747C458.199 214.766 458.585 214.717 458.973 214.606C459.745 214.385 460.607 213.895 461.161 213.064L460.329 212.509C459.938 213.095 459.304 213.471 458.698 213.644C458.398 213.73 458.124 213.76 457.915 213.749C457.683 213.736 457.621 213.679 457.634 213.693L456.927 214.4ZM461.161 213.064C462.03 211.761 461.71 210.683 461.256 210.229L460.549 210.936C460.619 211.006 460.972 211.545 460.329 212.509L461.161 213.064ZM461.267 210.924C461.697 210.466 462.225 209.675 462.279 208.818C462.307 208.372 462.205 207.906 461.894 207.483C461.587 207.068 461.106 206.735 460.445 206.491L460.1 207.43C460.636 207.627 460.93 207.862 461.089 208.077C461.243 208.286 461.296 208.512 461.281 208.756C461.248 209.279 460.895 209.859 460.538 210.24L461.267 210.924ZM460.445 206.491C460.4 206.475 460.356 206.459 460.314 206.443L459.969 207.382C460.011 207.397 460.055 207.413 460.1 207.43L460.445 206.491ZM460.581 207.15L463.704 201.372L462.824 200.897L459.701 206.675L460.581 207.15ZM462.93 201.506C463.246 201.791 463.795 202.127 464.433 202.173C465.122 202.222 465.83 201.926 466.363 201.088L465.519 200.551C465.17 201.099 464.803 201.197 464.505 201.175C464.156 201.15 463.808 200.951 463.599 200.763L462.93 201.506ZM466.866 194.828C466.506 194.725 466.432 194.598 466.414 194.553C466.389 194.491 466.379 194.36 466.485 194.121C466.697 193.641 467.224 193.079 467.678 192.701L467.038 191.933C466.548 192.341 465.878 193.023 465.571 193.716C465.416 194.065 465.316 194.502 465.486 194.926C465.663 195.366 466.069 195.64 466.591 195.789L466.866 194.828ZM467.158 192.775C467.631 192.982 468.392 193.188 469.162 193.126C469.953 193.062 470.793 192.705 471.27 191.753L470.375 191.306C470.095 191.865 469.623 192.086 469.082 192.129C468.518 192.175 467.925 192.019 467.559 191.859L467.158 192.775ZM471.27 191.753C472.023 190.245 473.68 187.036 474.415 185.619L473.528 185.158C472.793 186.575 471.133 189.79 470.375 191.306L471.27 191.753ZM474.471 185.361C474.443 184.86 474.344 184.081 474.133 183.352C474.027 182.987 473.889 182.619 473.708 182.299C473.53 181.984 473.289 181.678 472.96 181.49L472.464 182.359C472.575 182.422 472.706 182.557 472.838 182.792C472.968 183.021 473.08 183.31 473.172 183.63C473.358 184.271 473.448 184.972 473.472 185.416L474.471 185.361ZM473.123 182.209C473.382 181.835 473.741 181.199 474.005 180.469C474.266 179.746 474.455 178.874 474.306 178.056L473.322 178.235C473.425 178.802 473.299 179.478 473.064 180.129C472.832 180.771 472.514 181.331 472.301 181.64L473.123 182.209ZM474.272 178.347L477.736 170.474L476.821 170.071L473.356 177.944L474.272 178.347ZM477.766 170.381C477.886 169.841 477.936 168.983 477.716 168.097C477.494 167.202 476.988 166.252 475.974 165.6L475.433 166.441C476.183 166.924 476.569 167.627 476.746 168.338C476.925 169.058 476.88 169.758 476.79 170.164L477.766 170.381ZM465.501 152.854L465.443 152.894L466.008 153.719L466.066 153.679L465.501 152.854ZM465.443 152.894C464.923 153.25 464.348 153.636 463.758 153.748C463.479 153.802 463.21 153.79 462.949 153.686C462.687 153.583 462.394 153.372 462.09 152.967L461.29 153.567C461.681 154.088 462.114 154.431 462.582 154.616C463.051 154.802 463.516 154.813 463.946 154.73C464.776 154.572 465.524 154.051 466.008 153.719L465.443 152.894ZM451.064 154.977C449.826 155.167 448.698 156.176 447.748 157.648C446.784 159.14 445.94 161.203 445.302 163.692L446.27 163.941C446.892 161.518 447.701 159.565 448.588 158.191C449.487 156.797 450.407 156.09 451.216 155.965L451.064 154.977ZM445.419 163.477L443.529 165.524L444.264 166.203L446.154 164.156L445.419 163.477ZM443.443 165.652L442.341 168.014L443.247 168.437L444.35 166.075L443.443 165.652ZM443.004 167.771C442.647 167.607 442.091 167.382 441.581 167.246C441.328 167.179 441.058 167.126 440.817 167.123C440.619 167.121 440.234 167.149 440.016 167.476L440.848 168.03C440.757 168.167 440.645 168.121 440.806 168.123C440.925 168.124 441.102 168.154 441.324 168.213C441.76 168.329 442.259 168.529 442.585 168.679L443.004 167.771ZM440.016 167.476C439.845 167.733 439.556 168.228 439.328 168.726C439.215 168.974 439.109 169.238 439.042 169.481C438.984 169.695 438.923 170.002 439.013 170.273L439.962 169.957C439.974 169.992 439.952 169.944 440.007 169.745C440.053 169.575 440.135 169.366 440.237 169.142C440.443 168.695 440.705 168.245 440.848 168.03L440.016 167.476ZM439.318 174.56C439.111 175.388 438.745 176.669 438.325 177.816C438.115 178.39 437.895 178.919 437.679 179.338C437.45 179.779 437.264 180.019 437.15 180.1L437.731 180.914C438.058 180.681 438.335 180.244 438.567 179.797C438.81 179.326 439.047 178.753 439.264 178.16C439.7 176.971 440.075 175.654 440.288 174.802L439.318 174.56ZM434.41 188.499C434.245 188.665 434.018 188.979 433.78 189.332C433.532 189.699 433.244 190.152 432.949 190.629C432.359 191.582 431.734 192.641 431.339 193.327L432.205 193.826C432.597 193.147 433.216 192.097 433.799 191.155C434.091 190.684 434.372 190.243 434.609 189.891C434.856 189.524 435.031 189.292 435.117 189.206L434.41 188.499ZM431.952 193.11C431.556 192.958 430.926 192.817 430.298 192.904C429.646 192.994 428.965 193.342 428.631 194.178L429.56 194.549C429.729 194.126 430.046 193.949 430.435 193.895C430.85 193.837 431.306 193.933 431.593 194.043L431.952 193.11ZM428.031 195.995C427.874 196.099 427.766 196.257 427.693 196.384C427.614 196.524 427.544 196.689 427.485 196.864C427.367 197.215 427.279 197.649 427.257 198.099C427.216 198.955 427.41 200.088 428.38 200.627L428.866 199.753C428.419 199.504 428.219 198.905 428.256 198.147C428.274 197.79 428.344 197.446 428.433 197.183C428.477 197.051 428.523 196.948 428.562 196.878C428.609 196.796 428.624 196.801 428.585 196.827L428.031 195.995ZM427.652 207.16C427.729 208.082 427.768 209.596 427.71 210.974C427.681 211.664 427.628 212.307 427.546 212.818C427.505 213.075 427.459 213.288 427.408 213.453C427.354 213.628 427.308 213.709 427.288 213.734L428.069 214.359C428.206 214.187 428.297 213.963 428.364 213.747C428.433 213.522 428.488 213.259 428.534 212.976C428.624 212.411 428.679 211.725 428.709 211.017C428.769 209.6 428.729 208.044 428.649 207.077L427.652 207.16ZM452.027 167.324C451.215 166.837 449.975 167.068 448.641 168.317C447.291 169.58 445.71 171.983 444.06 176.232L444.993 176.594C446.619 172.404 448.133 170.162 449.324 169.047C450.531 167.918 451.275 168.039 451.512 168.182L452.027 167.324ZM444.06 176.232C440.791 184.658 435.253 197.15 432.892 202.345L433.802 202.759C436.164 197.561 441.712 185.048 444.993 176.594L444.06 176.232ZM432.879 202.375C432.421 203.588 431.977 205.433 432.219 206.964C432.341 207.739 432.648 208.486 433.273 209.007C433.904 209.534 434.782 209.766 435.911 209.663L435.821 208.667C434.872 208.753 434.284 208.549 433.914 208.239C433.537 207.925 433.306 207.438 433.207 206.808C433.005 205.528 433.38 203.877 433.814 202.728L432.879 202.375ZM435.808 209.662C436.178 209.705 436.608 209.582 437.054 209.328C437.508 209.068 438.021 208.647 438.574 208.025C439.68 206.78 440.979 204.689 442.314 201.319L441.385 200.95C440.075 204.256 438.829 206.233 437.827 207.361C437.326 207.925 436.895 208.267 436.557 208.459C436.211 208.657 436.001 208.677 435.925 208.668L435.808 209.662ZM442.314 201.319C444.958 194.647 450.656 180.911 453.176 174.874L452.253 174.489C449.734 180.524 444.032 194.269 441.385 200.95L442.314 201.319ZM453.164 174.9C453.703 173.795 454.319 172.084 454.364 170.567C454.386 169.807 454.267 169.038 453.866 168.42C453.45 167.779 452.772 167.365 451.827 167.256L451.712 168.25C452.404 168.33 452.795 168.608 453.027 168.965C453.274 169.344 453.384 169.881 453.364 170.537C453.325 171.852 452.775 173.416 452.265 174.462L453.164 174.9ZM466.793 174.185C465.351 173.997 462.294 174.794 460.447 178.884L461.358 179.296C463.038 175.576 465.691 175.05 466.664 175.177L466.793 174.185ZM460.447 178.884C458.692 182.77 449.339 200.522 444.872 208.93L445.755 209.4C450.211 201.012 459.586 183.22 461.358 179.296L460.447 178.884ZM444.832 209.032C444.61 209.835 444.41 211.104 444.533 212.321C444.655 213.525 445.113 214.82 446.35 215.438L446.797 214.544C446.019 214.155 445.637 213.297 445.528 212.221C445.42 211.158 445.597 210.017 445.796 209.298L444.832 209.032ZM446.35 215.438C447.608 216.067 448.893 215.573 449.882 214.871C450.883 214.161 451.719 213.148 452.188 212.43L451.351 211.883C450.928 212.53 450.173 213.438 449.303 214.056C448.421 214.682 447.555 214.923 446.797 214.544L446.35 215.438ZM452.214 212.386L467.803 182.154L466.914 181.695L451.325 211.928L452.214 212.386ZM467.758 182.224C468.421 181.341 469.199 179.884 469.336 178.38C469.406 177.619 469.313 176.827 468.937 176.093C468.559 175.355 467.916 174.716 466.952 174.234L466.505 175.128C467.305 175.528 467.779 176.025 468.047 176.549C468.317 177.076 468.397 177.669 468.34 178.289C468.226 179.545 467.556 180.828 466.958 181.624L467.758 182.224ZM367.816 408.667C367.816 418.914 359.509 427.22 349.263 427.22V428.22C360.062 428.22 368.816 419.466 368.816 408.667H367.816ZM349.263 427.22C339.016 427.22 330.71 418.914 330.71 408.667H329.71C329.71 419.466 338.464 428.22 349.263 428.22V427.22ZM366.856 402.762C367.478 404.616 367.816 406.602 367.816 408.667H368.816C368.816 406.492 368.46 404.399 367.804 402.444L366.856 402.762ZM330.71 408.667C330.71 400.685 335.751 393.88 342.825 391.262L342.478 390.324C335.024 393.082 329.71 400.254 329.71 408.667H330.71ZM460.445 206.491L460.314 206.443L459.968 207.381L460.1 207.43L460.445 206.491ZM466.363 201.088C466.727 200.515 467.005 200.099 467.214 199.785L466.382 199.23C466.172 199.546 465.89 199.969 465.519 200.551L466.363 201.088ZM467.214 199.785C467.419 199.478 467.573 199.248 467.673 199.068C467.776 198.883 467.858 198.688 467.858 198.458H466.858C466.858 198.437 466.871 198.453 466.799 198.582C466.724 198.718 466.598 198.907 466.382 199.23L467.214 199.785ZM467.951 198.295C468.107 197.947 468.415 197.275 468.403 196.605C468.396 196.251 468.301 195.874 468.037 195.543C467.774 195.213 467.382 194.975 466.866 194.828L466.591 195.789C466.965 195.896 467.155 196.041 467.255 196.166C467.352 196.289 467.399 196.437 467.403 196.624C467.41 197.033 467.212 197.498 467.038 197.888L467.951 198.295ZM475.974 165.6C475.567 165.339 475.241 164.868 474.959 164.208C474.678 163.551 474.468 162.775 474.248 161.959L473.282 162.22C473.498 163.019 473.726 163.867 474.04 164.601C474.352 165.333 474.778 166.02 475.433 166.441L475.974 165.6ZM474.248 161.959C474.016 161.102 473.773 160.195 473.424 159.441C473.076 158.689 472.583 157.998 471.795 157.684L471.424 158.612C471.861 158.787 472.21 159.199 472.517 159.861C472.823 160.522 473.045 161.34 473.282 162.22L474.248 161.959ZM471.795 157.684C471.084 157.399 470.761 156.751 470.333 155.822L469.425 156.241C469.82 157.096 470.284 158.156 471.424 158.612L471.795 157.684ZM470.333 155.822C470.022 155.146 469.653 154.331 468.965 153.72C468.252 153.087 467.253 152.716 465.766 152.767L465.801 153.766C467.091 153.722 467.821 154.041 468.301 154.468C468.808 154.917 469.099 155.533 469.425 156.241L470.333 155.822ZM462.09 152.967C461.968 152.804 461.813 152.655 461.607 152.57C461.393 152.481 461.18 152.486 460.992 152.534C460.815 152.579 460.647 152.664 460.498 152.751C460.347 152.839 460.181 152.949 460.011 153.063L460.565 153.895C460.743 153.777 460.882 153.685 461.002 153.615C461.124 153.543 461.196 153.514 461.237 153.503C461.267 153.496 461.252 153.505 461.225 153.494C461.208 153.487 461.231 153.489 461.29 153.567L462.09 152.967ZM460.011 153.063C459.401 153.469 458.55 154.035 457.182 154.459C455.812 154.883 453.898 155.17 451.176 154.972L451.104 155.97C453.932 156.175 455.972 155.88 457.478 155.414C458.987 154.947 459.935 154.315 460.565 153.895L460.011 153.063ZM439.013 170.273C438.987 170.193 438.999 170.139 438.997 170.15C438.996 170.155 438.991 170.178 438.974 170.226C438.94 170.325 438.882 170.453 438.802 170.631L439.713 171.043C439.787 170.879 439.865 170.707 439.917 170.56C439.943 170.486 439.97 170.4 439.984 170.311C439.997 170.23 440.009 170.098 439.962 169.957L439.013 170.273ZM438.802 170.631C438.585 171.11 438.238 171.867 438.206 172.671C438.19 173.085 438.256 173.522 438.468 173.949C438.68 174.376 439.025 174.764 439.525 175.097L440.08 174.265C439.704 174.014 439.487 173.753 439.363 173.504C439.239 173.254 439.194 172.988 439.205 172.71C439.228 172.132 439.484 171.55 439.713 171.043L438.802 170.631ZM437.15 180.1C437.018 180.195 436.887 180.212 436.716 180.175C436.519 180.133 436.311 180.029 436.055 179.895L435.593 180.782C435.825 180.903 436.154 181.078 436.506 181.153C436.885 181.234 437.319 181.209 437.731 180.914L437.15 180.1ZM436.054 179.895C435.934 179.833 435.796 179.76 435.663 179.705C435.533 179.65 435.363 179.592 435.18 179.587C434.975 179.581 434.757 179.643 434.578 179.817C434.416 179.975 434.33 180.182 434.279 180.386L435.249 180.628C435.278 180.514 435.301 180.509 435.275 180.534C435.259 180.549 435.235 180.566 435.206 180.576C435.178 180.586 435.158 180.587 435.152 180.586C435.152 180.586 435.186 180.589 435.277 180.627C435.364 180.664 435.463 180.715 435.593 180.782L436.054 179.895ZM434.279 180.386C434.174 180.806 434.03 181.172 433.893 181.521L434.823 181.888C434.959 181.543 435.126 181.12 435.249 180.629L434.279 180.386ZM433.893 181.521C433.777 181.815 433.652 182.127 433.591 182.421C433.527 182.727 433.518 183.07 433.687 183.408L434.581 182.96C434.549 182.896 434.532 182.805 434.57 182.626C434.61 182.433 434.698 182.206 434.823 181.888L433.893 181.521ZM433.687 183.408C433.649 183.333 433.663 183.28 433.66 183.293C433.658 183.308 433.645 183.35 433.607 183.427C433.529 183.584 433.4 183.778 433.231 184.03L434.062 184.587C434.218 184.353 434.39 184.099 434.503 183.872C434.56 183.757 434.616 183.623 434.643 183.481C434.67 183.339 434.675 183.149 434.581 182.96L433.687 183.408ZM433.231 184.03C432.956 184.44 432.576 184.999 432.421 185.561C432.341 185.854 432.31 186.183 432.409 186.515C432.51 186.854 432.731 187.142 433.06 187.373L433.633 186.554C433.459 186.431 433.394 186.319 433.367 186.229C433.338 186.131 433.337 186.002 433.385 185.827C433.488 185.452 433.761 185.036 434.062 184.587L433.231 184.03ZM433.06 187.373C433.275 187.523 433.47 187.656 433.642 187.774L434.206 186.949C434.034 186.831 433.843 186.7 433.633 186.554L433.06 187.373ZM433.642 187.774C433.922 187.966 434.134 188.111 434.294 188.233C434.461 188.361 434.525 188.431 434.546 188.463C434.548 188.465 434.521 188.409 434.54 188.347C434.545 188.332 434.534 188.375 434.41 188.499L435.117 189.206C435.266 189.058 435.424 188.872 435.495 188.645C435.581 188.37 435.517 188.117 435.379 187.909C435.26 187.73 435.081 187.577 434.902 187.439C434.716 187.297 434.478 187.134 434.206 186.949L433.642 187.774ZM428.631 194.178C428.326 194.941 428.229 195.396 428.167 195.69L429.146 195.896C429.201 195.635 429.283 195.24 429.56 194.549L428.631 194.178ZM428.167 195.69C428.15 195.775 428.138 195.829 428.126 195.873C428.115 195.915 428.108 195.93 428.106 195.934C428.105 195.935 428.106 195.936 428.101 195.94C428.094 195.948 428.075 195.965 428.031 195.995L428.585 196.827C428.757 196.713 428.9 196.58 428.998 196.385C429.081 196.222 429.117 196.036 429.146 195.896L428.167 195.69ZM428.38 200.627C428.524 200.707 428.586 200.772 428.611 200.808C428.633 200.838 428.639 200.862 428.64 200.893C428.642 200.934 428.633 200.997 428.6 201.096C428.567 201.196 428.52 201.303 428.459 201.439L429.372 201.847C429.475 201.616 429.652 201.243 429.64 200.86C429.633 200.646 429.569 200.431 429.428 200.231C429.292 200.038 429.099 199.882 428.866 199.753L428.38 200.627ZM428.459 201.439C428.363 201.652 428.219 201.963 428.186 202.29C428.148 202.663 428.251 203.044 428.584 203.378L429.291 202.671C429.183 202.562 429.171 202.484 429.181 202.392C429.195 202.255 429.26 202.096 429.372 201.847L428.459 201.439ZM428.584 203.378C428.655 203.448 428.681 203.504 428.693 203.548C428.705 203.594 428.71 203.659 428.691 203.755C428.65 203.973 428.523 204.233 428.33 204.617L429.223 205.067C429.395 204.725 429.6 204.327 429.674 203.942C429.712 203.738 429.72 203.515 429.658 203.288C429.596 203.057 429.472 202.851 429.291 202.671L428.584 203.378ZM428.33 204.617C428.014 205.244 427.565 206.113 427.652 207.16L428.649 207.077C428.588 206.35 428.892 205.724 429.223 205.067L428.33 204.617ZM467.038 197.888C467.001 197.972 466.961 198.06 466.932 198.135C466.917 198.173 466.901 198.218 466.888 198.263C466.877 198.302 466.858 198.373 466.858 198.458H467.858C467.858 198.488 467.855 198.511 467.853 198.52C467.852 198.526 467.851 198.53 467.85 198.533C467.85 198.535 467.849 198.536 467.849 198.537C467.849 198.537 467.85 198.536 467.85 198.534C467.851 198.532 467.852 198.53 467.853 198.527C467.855 198.52 467.858 198.511 467.863 198.5C467.882 198.451 467.91 198.387 467.951 198.295L467.038 197.888ZM389.888 355.288L390.798 355.703L390.802 355.693L389.888 355.288ZM368.158 402.999L367.726 403.901L368.646 404.341L369.068 403.413L368.158 402.999ZM342.492 390.717L341.589 390.287L341.16 391.188L342.06 391.619L342.492 390.717ZM365.009 343.479L364.108 343.044L364.106 343.049L365.009 343.479ZM447.991 223.809L448.905 224.213L449.218 223.506L448.612 223.025L447.991 223.809ZM427.678 214.046L428.042 213.115L427.357 212.848L426.897 213.422L427.678 214.046ZM367.33 402.603L366.898 403.505L366.898 403.505L367.33 402.603ZM342.651 390.793L342.22 391.695L342.22 391.695L342.651 390.793ZM388.978 354.874L367.248 402.584L369.068 403.413L390.798 355.703L388.978 354.874ZM343.395 391.147L365.912 343.909L364.106 343.049L341.589 390.287L343.395 391.147ZM390.802 355.693L448.905 224.213L447.076 223.405L388.973 354.884L390.802 355.693ZM426.897 213.422C426.841 213.493 426.799 213.565 426.795 213.573C426.779 213.601 426.762 213.632 426.746 213.661C426.713 213.721 426.672 213.8 426.624 213.894C426.527 214.082 426.393 214.348 426.224 214.686C425.886 215.364 425.403 216.342 424.791 217.59C423.567 220.085 421.824 223.661 419.682 228.069C415.399 236.883 409.519 249.023 403.009 262.483C389.99 289.402 374.448 321.603 364.108 343.044L365.91 343.913C376.249 322.473 391.791 290.272 404.81 263.354C411.319 249.894 417.198 237.756 421.481 228.943C423.623 224.536 425.365 220.962 426.587 218.47C427.198 217.224 427.678 216.25 428.013 215.579C428.181 215.243 428.311 214.986 428.402 214.809C428.448 214.72 428.481 214.656 428.504 214.614C428.515 214.593 428.521 214.583 428.523 214.581C428.536 214.557 428.508 214.61 428.459 214.671L426.897 213.422ZM427.315 214.978C429.925 215.996 434.071 217.705 438.015 219.517C441.998 221.348 445.652 223.231 447.369 224.592L448.612 223.025C446.676 221.49 442.798 219.515 438.85 217.7C434.864 215.868 430.68 214.144 428.042 213.115L427.315 214.978ZM368.59 402.097L367.762 401.701L366.898 403.505L367.726 403.901L368.59 402.097ZM367.762 401.701L343.083 389.891L342.22 391.695L366.898 403.505L367.762 401.701ZM343.083 389.891L342.924 389.815L342.06 391.619L342.22 391.695L343.083 389.891Z" fill="black" mask="url(#path-6-inside-3)"/>
<path d="M279.98 461.417C280.232 460.787 281.24 461.154 281.712 461.417L301.237 470.414L331.942 484.563C332.523 484.833 333.157 485.127 333.832 485.44C340.893 488.711 352.364 493.981 353.514 494.326C354.774 494.704 354.354 495.743 353.987 496.215C352.569 499.207 349.641 505.411 349.263 506.293C348.885 507.175 348.161 507.185 347.846 507.08L328.95 498.105L328.006 497.672C318.988 493.544 305.797 487.502 294.92 482.516C284.43 477.708 276.093 473.881 275.729 473.699C274.973 473.321 274.994 472.491 275.099 472.124C276.621 468.817 279.728 462.046 279.98 461.417Z" fill="#033F25"/>
<path d="M294.92 482.516C284.43 477.708 276.093 473.881 275.729 473.699C274.973 473.321 274.994 472.491 275.099 472.124C276.621 468.817 279.728 462.046 279.98 461.417C280.232 460.787 281.24 461.154 281.712 461.417L301.237 470.414M294.92 482.516L301.237 470.414M294.92 482.516C305.797 487.502 318.988 493.544 328.006 497.672M301.237 470.414L331.942 484.563C332.523 484.833 333.157 485.127 333.832 485.44M333.832 485.44C340.893 488.711 352.364 493.981 353.514 494.326C354.774 494.704 354.354 495.743 353.987 496.215C352.569 499.207 349.641 505.411 349.263 506.293C348.885 507.175 348.161 507.185 347.846 507.08L328.95 498.105C328.641 497.963 328.326 497.819 328.006 497.672M333.832 485.44L328.006 497.672" stroke="#033F25"/>
<path d="M301.71 481.257L429.568 214.833M306.119 483.461L432.874 216.251M311.157 485.823L435.866 217.668M315.881 488.027L439.33 219.085M319.975 489.917L442.637 220.817M324.384 491.806L445.629 222.392" stroke="black"/>
</svg>
