<svg width="710" height="710" viewBox="0 0 710 710" fill="none" xmlns="http://www.w3.org/2000/svg">
<circle cx="355" cy="355" r="350" stroke="white" stroke-width="10"/>
<path d="M172.726 410.964C148.566 366.434 164.06 323.011 176.2 304.597C177.085 303.255 178.599 302.393 180.109 301.846C183.127 300.752 188.037 298.386 191.645 295.5C194.976 292.835 205.704 292.066 213.145 291.979C215.485 291.952 217.514 290.151 219.454 288.843C220.738 287.978 222.225 287.592 223.145 287.5C224.345 279.9 227.312 278 228.645 278H243.145C250.345 278 252.145 284.667 252.145 288C252.781 288 253.338 288.141 253.819 288.366C255.767 289.279 257.597 291 259.749 291H274.799C275.68 291 276.547 291.233 277.309 291.676L291.095 299.68C291.455 299.89 291.864 300 292.281 300H293.145C293.973 300 294.645 299.328 294.645 298.5C294.645 296.291 296.436 294.5 298.645 294.5H411.645C414.406 294.5 416.645 296.739 416.645 299.5H418.272C419.171 299.5 420.053 299.258 420.825 298.799L434.465 290.701C435.237 290.242 436.119 290 437.017 290H452.689C453.64 290 454.571 289.729 455.373 289.218L459.645 286.5C460.445 279.7 462.978 278 464.145 278H482.145C485.745 278 487.645 284.333 488.145 287.5C489.062 287.5 491.398 289.251 493.194 290.746C494.143 291.537 495.326 292 496.562 292H509.145C515.321 292 524.166 297.5 528.858 301.007C529.701 301.637 530.719 302 531.772 302C532.973 302 534.138 302.448 534.9 303.377C540.021 309.614 548.541 327.096 549.645 358C550.762 389.267 541.573 406.217 535.86 411.912C535.109 412.661 534.068 413 533.007 413C531.52 413 530.153 413.737 529.033 414.716C521.505 421.291 502.734 423 493.645 423L492.841 427.822C492.439 430.233 490.353 432 487.909 432H434.471C432.996 432 431.597 431.349 430.647 430.221L425.408 424C424.598 423.038 423.451 422.432 422.199 422.318C410.615 421.265 384.295 419.377 357.145 419C329.498 418.616 301.176 421.887 289.074 423.772C288.133 423.918 287.268 424.337 286.559 424.972L285.41 426L279.569 431.226C278.652 432.046 277.465 432.5 276.235 432.5H227.244C224.089 432.5 220.796 429.554 219.302 426.775C218.718 425.688 218.107 424.694 217.645 424C198.145 424.5 184.145 418.5 182.645 416C181.834 414.648 179.302 413.982 177.026 413.692C175.252 413.466 173.579 412.535 172.726 410.964Z" fill="#FF7675"/>
<path d="M217.645 424C198.145 424.5 184.145 418.5 182.645 416C181.834 414.648 179.302 413.982 177.026 413.692C175.252 413.466 173.579 412.535 172.726 410.964C148.566 366.434 164.06 323.011 176.2 304.597C177.085 303.255 178.599 302.393 180.109 301.846C183.127 300.752 188.037 298.386 191.645 295.5C194.976 292.835 205.704 292.066 213.145 291.979C215.485 291.952 217.514 290.151 219.454 288.843C220.738 287.978 222.225 287.592 223.145 287.5M217.645 424C218.107 424.694 218.718 425.688 219.302 426.775C220.796 429.554 224.089 432.5 227.244 432.5H276.235C277.465 432.5 278.652 432.046 279.569 431.226L285.41 426M217.645 424L218.646 422.799C219.596 421.659 221.003 421 222.487 421H278.149C279.43 421 280.663 421.492 281.592 422.374L285.41 426M493.645 423L492.841 427.822C492.439 430.233 490.353 432 487.909 432H434.471C432.996 432 431.597 431.349 430.647 430.221L425.408 424M493.645 423C502.734 423 521.505 421.291 529.033 414.716C530.153 413.737 531.52 413 533.007 413V413C534.068 413 535.109 412.661 535.86 411.912C541.573 406.217 550.762 389.267 549.645 358C548.541 327.096 540.021 309.614 534.9 303.377C534.138 302.448 532.973 302 531.772 302V302C530.719 302 529.701 301.637 528.858 301.007C524.166 297.5 515.321 292 509.145 292C503.897 292 499.304 292 496.562 292C495.326 292 494.143 291.537 493.194 290.746C491.398 289.251 489.062 287.5 488.145 287.5M493.645 423L492.66 421.819C491.701 420.667 490.276 420.007 488.778 420.02L432.527 420.488C431.623 420.496 430.737 420.749 429.965 421.22L425.408 424M488.145 287.5C487.645 284.333 485.745 278 482.145 278C478.545 278 468.645 278 464.145 278C462.978 278 460.445 279.7 459.645 286.5M488.145 287.5L459.645 286.5M459.645 286.5L455.373 289.218C454.571 289.729 453.64 290 452.689 290H437.017C436.119 290 435.237 290.242 434.465 290.701L420.825 298.799C420.053 299.258 419.171 299.5 418.272 299.5H416.645M416.645 299.5V299.5C416.645 296.739 414.406 294.5 411.645 294.5H298.645C296.436 294.5 294.645 296.291 294.645 298.5V298.5M416.645 299.5C415.501 305.603 407.295 309.463 402.778 310.82C402.357 310.946 401.938 311 401.499 311C375.09 311 321.27 311 312.145 311C303.38 311 297.55 304.646 295.433 301.019C295.233 300.676 295.096 300.306 295 299.921L294.645 298.5M252.145 288C252.781 288 253.338 288.141 253.819 288.366C255.767 289.279 257.597 291 259.749 291H274.799C275.68 291 276.547 291.233 277.309 291.676L291.095 299.68C291.455 299.89 291.864 300 292.281 300H293.145C293.973 300 294.645 299.328 294.645 298.5V298.5M252.145 288C252.145 284.667 250.345 278 243.145 278C235.945 278 230.478 278 228.645 278C227.312 278 224.345 279.9 223.145 287.5M252.145 288L223.145 287.5M285.41 426L286.559 424.972C287.268 424.337 288.133 423.918 289.074 423.772C301.176 421.887 329.498 418.616 357.145 419C384.295 419.377 410.615 421.265 422.199 422.318C423.451 422.432 424.598 423.038 425.408 424V424M331.645 338.5H318.024C316.812 338.5 315.643 338.94 314.731 339.737L313.852 340.506C312.767 341.455 312.145 342.827 312.145 344.269V381.374C312.145 382.431 312.48 383.46 313.101 384.315L314.647 386.441C315.588 387.735 317.091 388.5 318.691 388.5H391.776C393.275 388.5 394.696 387.827 395.645 386.666L397.515 384.381C398.246 383.488 398.645 382.369 398.645 381.215V344.445C398.645 342.902 397.933 341.446 396.715 340.499L395.499 339.553C394.621 338.871 393.541 338.5 392.429 338.5H331.645ZM355.645 296.5H329.956C329.419 296.5 328.882 296.578 328.384 296.782C326.143 297.698 323.93 299.409 328.511 300.819C328.927 300.947 329.365 301 329.8 301H381.189C382.14 301 383.095 300.756 383.816 300.136C385.245 298.908 386.129 297.317 382.645 297C378.245 296.6 362.812 296.5 355.645 296.5ZM392.049 343.204L392.399 343.503C393.507 344.453 394.145 345.84 394.145 347.3V378.7C394.145 380.16 393.507 381.547 392.399 382.497L392.049 382.796C391.143 383.573 389.989 384 388.795 384H320.847C319.452 384 318.128 383.38 317.235 382.308V382.308C316.531 381.463 316.145 380.398 316.145 379.297V347.676C316.145 346.004 316.98 344.443 318.371 343.516L319.385 342.84C320.207 342.292 321.172 342 322.159 342H388.795C389.989 342 391.143 342.427 392.049 343.204Z" stroke="black"/>
<path d="M252.145 288C252.145 284.667 250.345 278 243.145 278H228.645C227.312 278 224.345 279.9 223.145 287.5L252.145 288Z" fill="#FFD4AC"/>
<path d="M488.145 287.5C487.645 284.333 485.745 278 482.145 278H464.145C462.978 278 460.445 279.7 459.645 286.5L488.145 287.5Z" fill="#FFD4AC"/>
<path fill-rule="evenodd" clip-rule="evenodd" d="M331.645 338.5H318.024C316.812 338.5 315.643 338.94 314.731 339.737L313.852 340.506C312.767 341.455 312.145 342.827 312.145 344.269V381.374C312.145 382.431 312.48 383.46 313.101 384.315L314.647 386.441C315.588 387.735 317.091 388.5 318.691 388.5H391.776C393.275 388.5 394.696 387.827 395.645 386.666L397.515 384.381C398.246 383.488 398.645 382.369 398.645 381.215V344.445C398.645 342.902 397.933 341.446 396.715 340.499L395.499 339.553C394.621 338.871 393.541 338.5 392.429 338.5H331.645ZM316.145 347.676C316.145 346.004 316.98 344.443 318.371 343.516L319.385 342.84C320.207 342.292 321.172 342 322.159 342H388.795C389.989 342 391.143 342.427 392.049 343.204L392.399 343.503C393.507 344.453 394.145 345.84 394.145 347.3V378.7C394.145 380.16 393.507 381.547 392.399 382.497L392.049 382.796C391.143 383.573 389.989 384 388.795 384H320.847C319.452 384 318.128 383.38 317.235 382.308V382.308C316.531 381.463 316.145 380.398 316.145 379.297V347.676Z" fill="#FFD4AC"/>
<path d="M355.645 296.5H329.956C329.419 296.5 328.882 296.578 328.384 296.782C326.143 297.698 323.93 299.409 328.511 300.819C328.927 300.947 329.365 301 329.8 301H381.189C382.14 301 383.095 300.756 383.816 300.136C385.245 298.908 386.129 297.317 382.645 297C378.245 296.6 362.812 296.5 355.645 296.5Z" fill="#FFD4AC"/>
<path d="M217.645 424C198.145 424.5 184.145 418.5 182.645 416C181.834 414.648 179.302 413.982 177.026 413.692M217.645 424L218.646 422.799C219.596 421.659 221.003 421 222.487 421H278.149C279.43 421 280.663 421.492 281.592 422.374L285.41 426M217.645 424C218.107 424.694 218.718 425.688 219.302 426.775M493.645 423L492.66 421.819C491.701 420.667 490.276 420.007 488.778 420.02L432.527 420.488C431.623 420.496 430.737 420.749 429.965 421.22L425.408 424M493.645 423C502.734 423 521.505 421.291 529.033 414.716M493.645 423L492.841 427.822M509.145 292H496.562M509.145 292C515.321 292 524.166 297.5 528.858 301.007L528.861 301.009M509.145 292C503.897 292 499.304 292 496.562 292M494.645 292C494.251 291.646 493.748 291.208 493.194 290.746M494.645 292H496.562M494.645 292C495.101 292 495.751 292 496.562 292M488.145 287.5C487.645 284.333 485.745 278 482.145 278M488.145 287.5L459.645 286.5M488.145 287.5C489.062 287.5 491.398 289.251 493.194 290.746M482.145 278C478.545 278 468.645 278 464.145 278M482.145 278H464.145M464.145 278C462.978 278 460.445 279.7 459.645 286.5M459.645 286.5L455.373 289.218M416.645 299.5V299.5C416.645 296.739 414.406 294.5 411.645 294.5V294.5M416.645 299.5C415.501 305.603 407.295 309.463 402.778 310.82C402.357 310.946 401.938 311 401.499 311C375.09 311 321.27 311 312.145 311C303.248 311 297.375 304.454 295.34 300.857C295.206 300.621 295.102 300.371 295.017 300.113L294.482 298.5M416.645 299.5C416.645 296.739 414.406 294.5 411.645 294.5M416.645 299.5H418.272M252.145 288C252.145 284.667 250.345 278 243.145 278M252.145 288L223.145 287.5M252.145 288C252.781 288 253.338 288.141 253.819 288.366M243.145 278C235.945 278 230.478 278 228.645 278M243.145 278H228.645M228.645 278C227.312 278 224.345 279.9 223.145 287.5M223.145 287.5C222.225 287.592 220.738 287.978 219.454 288.843L219.451 288.846M285.41 426L286.559 424.972M285.41 426L279.569 431.226M425.408 424V424C424.601 423.042 423.447 422.431 422.199 422.318V422.318M425.408 424L430.647 430.221M425.408 424C424.598 423.038 423.451 422.432 422.199 422.318M172.726 410.964C148.566 366.434 164.06 323.011 176.2 304.597L176.202 304.594M172.726 410.964C173.578 412.534 175.248 413.463 177.019 413.691M172.726 410.964V410.964C173.577 412.532 175.25 413.466 177.019 413.691V413.691M180.109 301.846C183.127 300.752 188.037 298.386 191.645 295.5C194.976 292.835 205.704 292.066 213.145 291.979M180.109 301.846C178.599 302.393 177.087 303.254 176.202 304.594M180.109 301.846V301.846C178.608 302.39 177.081 303.261 176.202 304.594V304.594M213.145 291.979V291.979C215.483 291.952 217.513 290.154 219.451 288.846V288.846M213.145 291.979C215.07 291.957 216.785 290.734 218.413 289.572C218.763 289.323 219.108 289.077 219.451 288.846M253.819 288.366V288.366C255.767 289.279 257.597 291 259.749 291V291M253.819 288.366C254.432 288.653 255.033 289.021 255.636 289.389C256.951 290.192 258.274 291 259.749 291M259.749 291H274.799M274.799 291C275.68 291 276.547 291.233 277.309 291.676M274.799 291V291C275.68 291 276.547 291.233 277.309 291.676V291.676M277.309 291.676L291.095 299.68M291.095 299.68C291.455 299.89 291.864 300 292.281 300M291.095 299.68V299.68C291.455 299.89 291.864 300 292.281 300V300M292.281 300V300C293.587 300 294.645 298.942 294.645 297.636V297.636M292.281 300C293.282 300 294.137 299.378 294.482 298.5M294.645 297.636V297.25M294.645 297.636C294.645 297.941 294.587 298.233 294.482 298.5M294.645 297.25C294.645 295.731 295.876 294.5 297.395 294.5M294.645 297.25V297.25C294.645 295.731 295.876 294.5 297.395 294.5V294.5M297.395 294.5H411.645M418.272 299.5C419.169 299.5 420.049 299.259 420.82 298.802M418.272 299.5V299.5C419.167 299.5 420.051 299.259 420.82 298.802V298.802M434.465 290.701L420.825 298.799L420.82 298.802M434.465 290.701C435.237 290.242 436.119 290 437.017 290M434.465 290.701V290.701C435.237 290.242 436.119 290 437.017 290V290M437.017 290H452.689M452.689 290C453.64 290 454.571 289.729 455.373 289.218M452.689 290V290C453.64 290 454.571 289.729 455.373 289.218V289.218M493.194 290.746C494.143 291.537 495.326 292 496.562 292M531.772 302C532.973 302 534.138 302.448 534.9 303.377M531.772 302V302C530.722 302 529.702 301.638 528.861 301.009V301.009M531.772 302C530.72 302 529.704 301.638 528.861 301.009M531.772 302V302C532.967 302 534.141 302.453 534.9 303.377V303.377M534.9 303.377C540.021 309.614 548.541 327.096 549.645 358C550.762 389.267 541.573 406.217 535.86 411.912M535.86 411.912C535.858 411.914 535.857 411.915 535.855 411.917M535.86 411.912L535.855 411.917M533.007 413V413C531.528 413 530.153 413.736 529.039 414.71V414.71M533.007 413C531.523 413 530.158 413.734 529.039 414.71M533.007 413C534.066 413 535.104 412.662 535.855 411.917M533.007 413V413C534.06 413 535.109 412.66 535.855 411.917V411.917M529.033 414.716C529.035 414.714 529.037 414.712 529.039 414.71M529.033 414.716L529.039 414.71M492.841 427.822C492.439 430.233 490.353 432 487.909 432M492.841 427.822V427.822C492.439 430.233 490.353 432 487.909 432V432M487.909 432H434.471M434.471 432C432.996 432 431.597 431.349 430.647 430.221M434.471 432V432C432.996 432 431.597 431.349 430.647 430.221V430.221M422.199 422.318C410.615 421.265 384.295 419.377 357.145 419C329.498 418.616 301.176 421.887 289.074 423.772M289.074 423.772C288.133 423.918 287.268 424.337 286.559 424.972M289.074 423.772V423.772C288.14 423.917 287.263 424.342 286.559 424.972V424.972M279.569 431.226C278.652 432.046 277.465 432.5 276.235 432.5M279.569 431.226V431.226C278.652 432.046 277.465 432.5 276.235 432.5V432.5M276.235 432.5H227.244M227.244 432.5C224.089 432.5 220.796 429.554 219.302 426.775M227.244 432.5V432.5C224.089 432.5 220.796 429.554 219.302 426.775V426.775M177.026 413.692C177.024 413.691 177.021 413.691 177.019 413.691M177.026 413.692L177.019 413.691M331.645 338.5H318.024C316.812 338.5 315.643 338.94 314.731 339.737L313.852 340.506C312.767 341.455 312.145 342.827 312.145 344.269V381.374C312.145 382.431 312.48 383.46 313.101 384.315L314.647 386.441C315.588 387.735 317.091 388.5 318.691 388.5H391.776C393.275 388.5 394.696 387.827 395.645 386.666L397.515 384.381C398.246 383.488 398.645 382.369 398.645 381.215V344.445C398.645 342.902 397.933 341.446 396.715 340.499L395.499 339.553C394.621 338.871 393.541 338.5 392.429 338.5H331.645ZM355.645 296.5H329.956C329.419 296.5 328.882 296.578 328.384 296.782C326.143 297.698 323.93 299.409 328.511 300.819C328.927 300.947 329.365 301 329.8 301H381.189C382.14 301 383.095 300.756 383.816 300.136C385.245 298.908 386.129 297.317 382.645 297C378.245 296.6 362.812 296.5 355.645 296.5ZM392.049 343.204L392.399 343.503C393.507 344.453 394.145 345.84 394.145 347.3V378.7C394.145 380.16 393.507 381.547 392.399 382.497L392.049 382.796C391.143 383.573 389.989 384 388.795 384H320.847C319.452 384 318.128 383.38 317.235 382.308V382.308C316.531 381.463 316.145 380.398 316.145 379.297V347.676C316.145 346.004 316.98 344.443 318.371 343.516L319.385 342.84C320.207 342.292 321.172 342 322.159 342H388.795C389.989 342 391.143 342.427 392.049 343.204Z" stroke="black"/>
<path d="M303.145 360C303.145 391.733 276.082 417.5 242.645 417.5C209.208 417.5 182.145 391.733 182.145 360C182.145 328.267 209.208 302.5 242.645 302.5C276.082 302.5 303.145 328.267 303.145 360Z" fill="#81ECEC" stroke="black"/>
<path d="M528.145 360C528.145 391.733 501.082 417.5 467.645 417.5C434.208 417.5 407.145 391.733 407.145 360C407.145 328.267 434.208 302.5 467.645 302.5C501.082 302.5 528.145 328.267 528.145 360Z" fill="#81ECEC" stroke="black"/>
<circle cx="246.645" cy="361" r="29.5" fill="black" stroke="black"/>
<circle cx="464.645" cy="361" r="29.5" fill="black" stroke="black"/>
</svg>
