<svg width="710" height="710" viewBox="0 0 710 710" fill="none" xmlns="http://www.w3.org/2000/svg">
<circle cx="355" cy="355" r="350" stroke="white" stroke-width="10"/>
<path d="M318.063 538.281L338.056 546C351.671 540.092 379.3 527.246 380.899 523.129C382.899 517.983 375.758 433.36 366.333 419.351C366.237 418.303 366.275 416.149 367.189 415.92C368.332 415.634 375.758 408.773 373.187 398.481L385.469 369.034C385.66 368.177 387.925 366.061 389.753 365.604C351.594 373.151 327.393 366.843 320.062 362.745L316.349 383.901C314.254 386.664 310.408 394.078 311.779 401.626C313.15 409.173 320.919 413.728 324.632 415.063V423.925H318.063V428.499L340.055 436.79C346.054 436.504 358.05 436.79 358.05 440.221C358.05 443.652 359.192 488.727 359.763 510.836L341.198 530.848C340.436 531.515 337.599 532.163 332.344 529.418C327.088 526.674 319.681 524.082 316.635 523.129V537.709L318.063 538.281Z" fill="#FF7675"/>
<path d="M318.063 428.499C317.015 428.976 314.692 429.872 313.778 429.643V432.216C315.111 432.788 317.72 434.503 317.491 436.79L341.198 443.366L340.055 521.699V523.129L316.635 513.695L314.064 517.983C313.683 519.126 313.664 521.757 316.635 523.129C319.681 524.082 327.088 526.674 332.344 529.418C337.599 532.163 340.436 531.515 341.198 530.848L359.763 510.836C359.192 488.727 358.05 443.652 358.05 440.221C358.05 436.79 346.054 436.504 340.055 436.79L318.063 428.499Z" fill="#FF7675"/>
<path d="M317.491 436.79C317.263 439.077 316.825 460.614 316.635 471.097L324.632 468.238L331.201 470.525V488.536L325.203 486.535L316.635 485.963C317.32 486.649 316.92 504.737 316.635 513.695L340.055 523.129V521.699L341.198 443.366L317.491 436.79Z" fill="#FF7675"/>
<path d="M316.635 471.097C315.682 472.05 313.778 474.814 313.778 478.244C313.778 482.533 315.778 485.106 316.635 485.963L325.203 486.535L331.201 488.536V470.525L324.632 468.238L316.635 471.097Z" fill="#FF7675"/>
<path d="M389.753 365.604C392.038 365.032 410.604 361.601 413.746 336.443C412.317 335.871 409.518 334.385 409.747 333.012C391.658 328.629 353.365 319.976 350.623 319.29C347.881 318.603 336.342 316.907 330.916 316.145L283.217 307.282C281.884 306.71 279.047 306.253 278.361 308.998C277.504 312.428 273.506 325.579 278.361 333.298C283.217 341.017 296.927 354.74 320.062 362.745C327.393 366.843 351.594 373.151 389.753 365.604Z" fill="#FF7675"/>
<path d="M416.602 325.579C417.287 322.835 414.602 321.195 413.174 320.719C385.948 308.14 317.667 296.99 286.93 292.988C286.073 294.417 282.074 291.272 280.932 296.132C280.572 297.663 281.034 298.542 281.72 299.277C320.206 304.598 399.979 317.878 411.175 328.438C411.83 328.52 412.799 328.51 413.746 328.254C414.998 327.915 416.211 327.143 416.602 325.579Z" fill="#FF7675"/>
<path d="M414.602 315.001C416.126 314.715 419.229 313.743 419.458 312.142C419.686 310.541 417.649 308.807 416.602 308.14C399.475 300.813 374.608 291.98 357.173 288.128C347.588 286.009 317.222 280.357 289.501 278.121C287.596 278.026 283.674 278.407 283.217 280.694C282.646 283.553 284.359 284.697 286.073 284.983C308.766 284.983 342.825 292 354.887 294.763C367.364 297.622 411.746 311.571 414.602 315.001Z" fill="#FF7675"/>
<path d="M422.6 298.134C422.6 296.418 422.314 293.845 419.458 293.56C406.891 283.839 369.463 274.491 354.887 272.118C336.913 269.192 310.446 265.549 292.071 263.827C290.262 263.732 286.53 264.113 286.073 266.4C285.639 268.572 286.359 270.249 288.358 271.556C288.99 271.97 289.751 271.774 290.643 272.118C302.353 271.832 335.445 276.12 354.051 279.265C376.185 283.006 418.03 294.703 418.03 300.993C418.572 300.755 419.307 301.247 420.029 300.813C421.336 300.028 422.6 299.018 422.6 298.134Z" fill="#FF7675"/>
<path d="M420.886 288.128C422.6 287.27 426.027 286.698 425.742 282.696C425.361 281.647 424.085 279.494 422.029 279.265C419.058 276.52 391.186 263.747 358.031 258.109C340.604 255.146 319.904 251.795 294.864 250.461C293.15 249.985 289.148 250.461 288.358 253.249C287.221 257.265 291.119 258.204 292.928 258.109C308.012 256.68 342.483 261.555 355.744 263.827C372.036 266.618 419.744 278.121 420.886 288.128Z" fill="#FF7675"/>
<path d="M422.6 274.119C424.409 274.214 428.141 273.433 428.598 269.545C428.693 268.401 428.141 265.943 425.17 265.256C423.171 262.112 399.349 251.617 374.608 244.745C354.022 239.027 315.587 235.714 296.927 235.238C295.023 235.333 291.214 236.496 291.214 240.384C291.214 242.137 292.329 242.997 293.499 243.676C300.925 242.007 323.839 242.297 358.031 247.603C397.168 253.677 424.314 268.973 422.6 274.119Z" fill="#FF7675"/>
<path d="M430.883 256.68C431.168 253.535 429.199 251.033 427.199 250.461C426.057 247.717 389.185 232.454 368.892 228.453C345.732 223.886 321.585 220.848 300.925 220.658C298.736 220.276 294.185 220.658 293.499 225.232C293.194 227.267 295.41 227.483 296.927 228.453C300.449 225.99 323.415 225.422 359.746 232.74C405.159 241.889 426.056 252.922 426.056 259.036C427.771 258.834 430.711 258.577 430.883 256.68Z" fill="#FF7675"/>
<path d="M428.598 243.676C430.312 243.771 432.459 246.06 432.916 242.172C433.373 238.284 430.692 237.335 429.169 236.953C421.197 227.519 382.042 215.226 363.762 211.509C337.489 206.168 311.547 205.275 299.534 206.774C299.169 206.848 298.777 206.902 298.355 206.935C296.927 208.269 295.152 210.445 298.58 213.876C303.245 211.113 328.503 209.818 354.051 214.734C378.896 219.514 427.937 233.02 428.598 243.676Z" fill="#FF7675"/>
<path d="M434.881 227.519C435.167 220.086 433.739 204.934 429.169 197.501L429.148 197.466C424.57 190.02 415.099 174.614 366.904 164.909C353.099 162.146 322.575 160.278 310.922 174.915C308.256 178.06 302.525 187.209 300.925 198.644C312.826 196.357 337.166 195.298 368.892 203.587C384.802 206.921 420.111 217.42 434.059 232.74C434.329 232.213 434.871 230.43 434.881 227.519Z" fill="#FF7675"/>
<path d="M389.753 365.604C387.925 366.061 385.66 368.177 385.469 369.034L373.187 398.481C375.758 408.773 368.332 415.634 367.189 415.92C366.275 416.149 366.237 418.303 366.333 419.351C375.758 433.36 382.899 517.983 380.899 523.129C379.3 527.246 351.671 540.092 338.056 546L318.063 538.281L316.635 537.709V523.129M389.753 365.604C392.038 365.032 410.604 361.601 413.746 336.443C412.317 335.871 409.518 334.385 409.747 333.012M389.753 365.604C351.594 373.151 327.393 366.843 320.062 362.745M409.747 333.012C409.975 331.64 410.794 329.391 411.175 328.438M409.747 333.012C391.658 328.629 353.365 319.976 350.623 319.29C347.881 318.603 336.342 316.907 330.916 316.145L283.217 307.282M411.175 328.438C411.83 328.52 412.799 328.51 413.746 328.254C414.998 327.915 416.211 327.143 416.602 325.579C417.287 322.835 414.602 321.195 413.174 320.719M411.175 328.438C399.979 317.878 320.206 304.598 281.72 299.277M413.174 320.719L414.602 315.001M413.174 320.719C385.948 308.14 317.667 296.99 286.93 292.988M414.602 315.001C416.126 314.715 419.229 313.743 419.458 312.142C419.686 310.541 417.649 308.807 416.602 308.14M414.602 315.001C411.746 311.571 367.364 297.622 354.887 294.763C342.825 292 308.766 284.983 286.073 284.983M416.602 308.14L418.03 300.993M416.602 308.14C399.475 300.813 374.608 291.98 357.173 288.128C347.588 286.009 317.222 280.357 289.501 278.121M418.03 300.993C418.572 300.755 419.307 301.247 420.029 300.813C421.336 300.028 422.6 299.018 422.6 298.134C422.6 296.418 422.314 293.845 419.458 293.56M418.03 300.993C418.03 294.703 376.185 283.006 354.051 279.265C335.445 276.12 302.353 271.832 290.643 272.118M419.458 293.56C419.363 292.035 419.515 288.814 420.886 288.128M419.458 293.56C406.891 283.839 369.463 274.491 354.887 272.118C336.913 269.192 310.446 265.549 292.071 263.827M420.886 288.128C422.6 287.27 426.027 286.698 425.742 282.696C425.361 281.647 424.085 279.494 422.029 279.265M420.886 288.128C419.744 278.121 372.036 266.618 355.744 263.827C342.483 261.555 308.012 256.68 292.928 258.109M422.029 279.265L422.6 274.119M422.029 279.265C419.058 276.52 391.186 263.747 358.031 258.109C340.604 255.146 319.904 251.795 294.864 250.461M422.6 274.119C424.409 274.214 428.141 273.433 428.598 269.545C428.693 268.401 428.141 265.943 425.17 265.256M422.6 274.119C424.314 268.973 397.168 253.677 358.031 247.603C323.839 242.297 300.925 242.007 293.499 243.676M425.17 265.256L426.056 259.036M425.17 265.256C423.171 262.112 399.349 251.617 374.608 244.745C354.022 239.027 315.587 235.714 296.927 235.238M426.056 259.036C426.454 258.989 425.526 259.192 426.056 259.036ZM426.056 259.036C427.771 258.834 430.711 258.577 430.883 256.68C431.168 253.535 429.199 251.033 427.199 250.461M426.056 259.036C426.056 252.922 405.159 241.889 359.746 232.74C323.415 225.422 300.449 225.99 296.927 228.453M427.199 250.461L428.598 243.676M427.199 250.461C426.057 247.717 389.185 232.454 368.892 228.453C345.732 223.886 321.585 220.848 300.925 220.658M428.598 243.676C430.312 243.771 432.459 246.06 432.916 242.172C433.373 238.284 430.692 237.335 429.169 236.953M428.598 243.676C427.937 233.02 378.896 219.514 354.051 214.734C328.503 209.818 303.245 211.113 298.58 213.876M429.169 236.953C421.197 227.519 382.042 215.226 363.762 211.509C337.489 206.168 311.547 205.275 299.534 206.774M429.169 236.953C428.567 236.022 429.105 233.884 429.772 233.884C430.915 233.884 432.831 233.217 434.059 232.74M429.169 197.501C433.739 204.934 435.167 220.086 434.881 227.519C434.871 230.43 434.329 232.213 434.059 232.74M429.169 197.501L429.148 197.466M429.169 197.501C429.162 197.489 429.155 197.478 429.148 197.466M300.925 198.644C302.525 187.209 308.256 178.06 310.922 174.915C322.575 160.278 353.099 162.146 366.904 164.909C415.099 174.614 424.57 190.02 429.148 197.466M300.925 198.644C301.973 199.311 304.01 201.046 303.782 202.647C303.528 204.42 302.378 206.194 299.534 206.774M300.925 198.644C312.826 196.357 337.166 195.298 368.892 203.587C384.802 206.921 420.111 217.42 434.059 232.74M298.355 206.935C296.927 208.269 295.152 210.445 298.58 213.876M298.355 206.935C298.777 206.902 299.169 206.848 299.534 206.774M298.355 206.935C298.731 206.878 299.124 206.825 299.534 206.774M298.58 213.876C300.865 214.162 304.353 216.998 300.925 220.658M300.925 220.658C298.736 220.276 294.185 220.658 293.499 225.232C293.194 227.267 295.41 227.483 296.927 228.453M296.927 235.238C295.023 235.333 291.214 236.496 291.214 240.384C291.214 242.137 292.329 242.997 293.499 243.676M296.927 235.238C302.078 232.107 299.672 230.209 296.927 228.453M294.864 250.461C293.15 249.985 289.148 250.461 288.358 253.249C287.221 257.265 291.119 258.204 292.928 258.109M294.864 250.461C298.334 246.44 295.574 244.879 293.499 243.676M292.928 258.109L292.071 263.827M292.071 263.827C290.262 263.732 286.53 264.113 286.073 266.4C285.639 268.572 286.359 270.249 288.358 271.556C288.99 271.97 289.751 271.774 290.643 272.118M290.643 272.118L289.501 278.121M289.501 278.121C287.596 278.026 283.674 278.407 283.217 280.694C282.646 283.553 284.359 284.697 286.073 284.983M286.073 284.983C287.787 285.269 287.787 291.558 286.93 292.988M286.93 292.988C286.073 294.417 282.074 291.272 280.932 296.132C280.572 297.663 281.034 298.542 281.72 299.277M283.217 307.282C281.884 306.71 279.047 306.253 278.361 308.998C277.504 312.428 273.506 325.579 278.361 333.298C283.217 341.017 296.927 354.74 320.062 362.745M283.217 307.282C285.76 301.799 283.211 300.876 281.72 299.277M320.062 362.745L316.349 383.901C314.254 386.664 310.408 394.078 311.779 401.626C313.15 409.173 320.919 413.728 324.632 415.063V423.925H318.063V428.499M318.063 428.499C317.015 428.976 314.692 429.872 313.778 429.643V432.216C315.111 432.788 317.72 434.503 317.491 436.79M318.063 428.499L340.055 436.79C346.054 436.504 358.05 436.79 358.05 440.221C358.05 443.652 359.192 488.727 359.763 510.836L341.198 530.848C340.436 531.515 337.599 532.163 332.344 529.418C327.088 526.674 319.681 524.082 316.635 523.129M317.491 436.79C317.263 439.077 316.825 460.614 316.635 471.097M317.491 436.79L341.198 443.366L340.055 521.699V523.129L316.635 513.695M316.635 471.097C315.682 472.05 313.778 474.814 313.778 478.244C313.778 482.533 315.778 485.106 316.635 485.963M316.635 471.097L324.632 468.238L331.201 470.525V488.536L325.203 486.535L316.635 485.963M316.635 485.963C317.32 486.649 316.92 504.737 316.635 513.695M316.635 513.695L314.064 517.983C313.683 519.126 313.664 521.757 316.635 523.129" stroke="black"/>
<path d="M316.635 471.097C315.682 472.05 313.778 474.814 313.778 478.244C313.778 482.533 315.778 485.106 316.635 485.963L325.203 486.535L331.201 488.536V470.525L324.632 468.238L316.635 471.097Z" fill="#FFD4AC"/>
<path d="M409.747 333.012C409.975 331.64 410.794 329.391 411.175 328.438C399.979 317.878 320.206 304.598 281.72 299.277C283.211 300.876 285.76 301.799 283.217 307.282L330.916 316.145C336.342 316.907 347.881 318.603 350.623 319.29C353.365 319.976 391.658 328.629 409.747 333.012Z" fill="#FFD4AC"/>
<path d="M413.174 320.719L414.602 315.001C411.746 311.571 367.364 297.622 354.887 294.763C342.825 292 308.766 284.983 286.073 284.983C287.787 285.269 287.787 291.558 286.93 292.988C317.667 296.99 385.948 308.14 413.174 320.719Z" fill="#FFD4AC"/>
<path d="M290.643 272.118L289.501 278.121C317.222 280.357 347.588 286.009 357.173 288.128C374.608 291.98 399.475 300.813 416.602 308.14L418.03 300.993C418.03 294.703 376.185 283.006 354.051 279.265C335.445 276.12 302.353 271.832 290.643 272.118Z" fill="#FFD4AC"/>
<path d="M419.458 293.56C419.363 292.035 419.515 288.814 420.886 288.128C419.744 278.121 372.036 266.618 355.744 263.827C342.483 261.555 308.012 256.68 292.928 258.109L292.071 263.827C310.446 265.549 336.913 269.192 354.887 272.118C369.463 274.491 406.891 283.839 419.458 293.56Z" fill="#FFD4AC"/>
<path d="M422.029 279.265L422.6 274.119C424.314 268.973 397.168 253.677 358.031 247.603C323.839 242.297 300.925 242.007 293.499 243.676L293.539 243.699C295.609 244.899 298.312 246.466 294.864 250.461C319.904 251.795 340.604 255.146 358.031 258.109C391.186 263.747 419.058 276.52 422.029 279.265Z" fill="#FFD4AC"/>
<path d="M425.17 265.256L426.056 259.036C426.056 252.922 405.159 241.889 359.746 232.74C323.415 225.422 300.449 225.99 296.927 228.453C299.672 230.209 302.078 232.107 296.927 235.238C315.587 235.714 354.022 239.027 374.608 244.745C399.349 251.617 423.171 262.112 425.17 265.256Z" fill="#FFD4AC"/>
<path d="M427.199 250.461L428.598 243.676C427.937 233.02 378.896 219.514 354.051 214.734C328.503 209.818 303.245 211.113 298.58 213.876C300.865 214.162 304.353 216.998 300.925 220.658C321.585 220.848 345.732 223.886 368.892 228.453C389.185 232.454 426.057 247.717 427.199 250.461Z" fill="#FFD4AC"/>
<path d="M300.925 198.644C301.973 199.311 304.01 201.046 303.782 202.647C303.528 204.42 302.378 206.194 299.534 206.774C311.547 205.275 337.489 206.168 363.762 211.509C382.042 215.226 421.197 227.519 429.169 236.953C428.567 236.022 429.105 233.884 429.772 233.884C430.915 233.884 432.831 233.217 434.059 232.74C420.111 217.42 384.802 206.921 368.892 203.587C337.166 195.298 312.826 196.357 300.925 198.644Z" fill="#FFD4AC"/>
<path d="M389.753 365.604C387.925 366.061 385.66 368.177 385.469 369.034L373.187 398.481C375.758 408.773 368.332 415.634 367.189 415.92C366.275 416.149 366.237 418.303 366.333 419.351C375.758 433.36 382.899 517.983 380.899 523.129C379.3 527.246 351.671 540.092 338.056 546L318.063 538.281L316.635 537.709V523.129M389.753 365.604C392.038 365.032 410.604 361.601 413.746 336.443C412.317 335.871 409.518 334.385 409.747 333.012M389.753 365.604C351.594 373.151 327.393 366.843 320.062 362.745M409.747 333.012C409.975 331.64 410.794 329.391 411.175 328.438M409.747 333.012C391.658 328.629 353.365 319.976 350.623 319.29C347.881 318.603 336.342 316.907 330.916 316.145L283.217 307.282M411.175 328.438C411.83 328.52 412.799 328.51 413.746 328.254C414.998 327.915 416.211 327.143 416.602 325.579C417.287 322.835 414.602 321.195 413.174 320.719M411.175 328.438C399.979 317.878 320.206 304.598 281.72 299.277M413.174 320.719L414.602 315.001M413.174 320.719C385.948 308.14 317.667 296.99 286.93 292.988M414.602 315.001C416.126 314.715 419.229 313.743 419.458 312.142C419.686 310.541 417.649 308.807 416.602 308.14M414.602 315.001C411.746 311.571 367.364 297.622 354.887 294.763C342.825 292 308.766 284.983 286.073 284.983M416.602 308.14L418.03 300.993M416.602 308.14C399.475 300.813 374.608 291.98 357.173 288.128C347.588 286.009 317.222 280.357 289.501 278.121M418.03 300.993C418.572 300.755 419.307 301.247 420.029 300.813C421.336 300.028 422.6 299.018 422.6 298.134C422.6 296.418 422.314 293.845 419.458 293.56M418.03 300.993C418.03 294.703 376.185 283.006 354.051 279.265C335.445 276.12 302.353 271.832 290.643 272.118M419.458 293.56C419.363 292.035 419.515 288.814 420.886 288.128M419.458 293.56C406.891 283.839 369.463 274.491 354.887 272.118C336.913 269.192 310.446 265.549 292.071 263.827M420.886 288.128C422.6 287.27 426.027 286.698 425.742 282.696C425.361 281.647 424.085 279.494 422.029 279.265M420.886 288.128C419.744 278.121 372.036 266.618 355.744 263.827C342.483 261.555 308.012 256.68 292.928 258.109M422.029 279.265L422.6 274.119M422.029 279.265C419.058 276.52 391.186 263.747 358.031 258.109C340.604 255.146 319.904 251.795 294.864 250.461M422.6 274.119C424.409 274.214 428.141 273.433 428.598 269.545C428.693 268.401 428.141 265.943 425.17 265.256M422.6 274.119C424.314 268.973 397.168 253.677 358.031 247.603C323.839 242.297 300.925 242.007 293.499 243.676M425.17 265.256L426.056 259.036M425.17 265.256C423.171 262.112 399.349 251.617 374.608 244.745C354.022 239.027 315.587 235.714 296.927 235.238M426.056 259.036C426.454 258.989 425.526 259.192 426.056 259.036ZM426.056 259.036C427.771 258.834 430.711 258.577 430.883 256.68C431.168 253.535 429.199 251.033 427.199 250.461M426.056 259.036C426.056 252.922 405.159 241.889 359.746 232.74C323.415 225.422 300.449 225.99 296.927 228.453M427.199 250.461L428.598 243.676M427.199 250.461C426.057 247.717 389.185 232.454 368.892 228.453C345.732 223.886 321.585 220.848 300.925 220.658M428.598 243.676C430.312 243.771 432.459 246.06 432.916 242.172C433.373 238.284 430.692 237.335 429.169 236.953M428.598 243.676C427.937 233.02 378.896 219.514 354.051 214.734C328.503 209.818 303.245 211.113 298.58 213.876M429.169 236.953C421.197 227.519 382.042 215.226 363.762 211.509C337.489 206.168 311.547 205.275 299.534 206.774M429.169 236.953C428.567 236.022 429.105 233.884 429.772 233.884C430.915 233.884 432.831 233.217 434.059 232.74M429.169 197.501C433.739 204.934 435.167 220.086 434.881 227.519C434.871 230.43 434.329 232.213 434.059 232.74M429.169 197.501L429.148 197.466M429.169 197.501C429.162 197.489 429.155 197.478 429.148 197.466M300.925 198.644C302.525 187.209 308.256 178.06 310.922 174.915C322.575 160.278 353.099 162.146 366.904 164.909C415.099 174.614 424.57 190.02 429.148 197.466M300.925 198.644C301.973 199.311 304.01 201.046 303.782 202.647C303.528 204.42 302.378 206.194 299.534 206.774M300.925 198.644C312.826 196.357 337.166 195.298 368.892 203.587C384.802 206.921 420.111 217.42 434.059 232.74M298.355 206.935C296.927 208.269 295.152 210.445 298.58 213.876M298.355 206.935C298.777 206.902 299.169 206.848 299.534 206.774M298.355 206.935C298.731 206.878 299.124 206.825 299.534 206.774M298.58 213.876C300.865 214.162 304.353 216.998 300.925 220.658M300.925 220.658C298.736 220.276 294.185 220.658 293.499 225.232C293.194 227.267 295.41 227.483 296.927 228.453M296.927 235.238C295.023 235.333 291.214 236.496 291.214 240.384C291.214 242.137 292.329 242.997 293.499 243.676M296.927 235.238C302.078 232.107 299.672 230.209 296.927 228.453M294.864 250.461C293.15 249.985 289.148 250.461 288.358 253.249C287.221 257.265 291.119 258.204 292.928 258.109M294.864 250.461C298.312 246.466 295.609 244.899 293.539 243.699M292.928 258.109L292.071 263.827M292.071 263.827C290.262 263.732 286.53 264.113 286.073 266.4C285.639 268.572 286.359 270.249 288.358 271.556C288.99 271.97 289.751 271.774 290.643 272.118M290.643 272.118L289.501 278.121M289.501 278.121C287.596 278.026 283.674 278.407 283.217 280.694C282.646 283.553 284.359 284.697 286.073 284.983M286.073 284.983C287.787 285.269 287.787 291.558 286.93 292.988M286.93 292.988C286.073 294.417 282.074 291.272 280.932 296.132C280.572 297.663 281.034 298.542 281.72 299.277M283.217 307.282C281.884 306.71 279.047 306.253 278.361 308.998C277.504 312.428 273.506 325.579 278.361 333.298C283.217 341.017 296.927 354.74 320.062 362.745M283.217 307.282C285.76 301.799 283.211 300.876 281.72 299.277M320.062 362.745L316.349 383.901C314.254 386.664 310.408 394.078 311.779 401.626C313.15 409.173 320.919 413.728 324.632 415.063V423.925H318.063V428.499M318.063 428.499C317.015 428.976 314.692 429.872 313.778 429.643V432.216C315.111 432.788 317.72 434.503 317.491 436.79M318.063 428.499L340.055 436.79C346.054 436.504 358.05 436.79 358.05 440.221C358.05 443.652 359.192 488.727 359.763 510.836L341.198 530.848C340.436 531.515 337.599 532.163 332.344 529.418C327.088 526.674 319.681 524.082 316.635 523.129M317.491 436.79C317.263 439.077 316.825 460.614 316.635 471.097M317.491 436.79L341.198 443.366L340.055 521.699V523.129L316.635 513.695M316.635 471.097C315.682 472.05 313.778 474.814 313.778 478.244C313.778 482.533 315.778 485.106 316.635 485.963M316.635 471.097L324.632 468.238L331.201 470.525V488.536L325.203 486.535L316.635 485.963M316.635 485.963C317.32 486.649 316.92 504.737 316.635 513.695M316.635 513.695L314.064 517.983C313.683 519.126 313.664 521.757 316.635 523.129M293.499 243.676L293.539 243.699M293.499 243.676C293.512 243.683 293.526 243.691 293.539 243.699" stroke="black"/>
<path d="M318.063 428.499C317.015 428.976 314.692 429.872 313.778 429.643V432.216C315.111 432.788 317.72 434.503 317.491 436.79L341.198 443.366L340.055 521.699V523.129L316.635 513.695L314.064 517.983C313.683 519.126 313.664 521.757 316.635 523.129C319.681 524.082 327.088 526.674 332.344 529.418C337.599 532.163 340.436 531.515 341.198 530.848L359.763 510.836C359.192 488.727 358.05 443.652 358.05 440.221C358.05 436.79 346.054 436.504 340.055 436.79L318.063 428.499Z" fill="#81ECEC"/>
<path d="M389.753 365.604C387.925 366.061 385.66 368.177 385.469 369.034L373.187 398.481C375.758 408.773 368.332 415.634 367.189 415.92C366.275 416.149 366.237 418.303 366.333 419.351C375.758 433.36 382.899 517.983 380.899 523.129C379.3 527.246 351.671 540.092 338.056 546L318.063 538.281L316.635 537.709V523.129M389.753 365.604C392.038 365.032 410.604 361.601 413.746 336.443C412.317 335.871 409.518 334.385 409.747 333.012M389.753 365.604C351.594 373.151 327.393 366.843 320.062 362.745M409.747 333.012C409.975 331.64 410.794 329.391 411.175 328.438M409.747 333.012C391.658 328.629 353.365 319.976 350.623 319.29C347.881 318.603 336.342 316.907 330.916 316.145L283.217 307.282M411.175 328.438C411.83 328.52 412.799 328.51 413.746 328.254C414.998 327.915 416.211 327.143 416.602 325.579C417.287 322.835 414.602 321.195 413.174 320.719M411.175 328.438C399.979 317.878 320.206 304.598 281.72 299.277M413.174 320.719L414.602 315.001M413.174 320.719C385.948 308.14 317.667 296.99 286.93 292.988M414.602 315.001C416.126 314.715 419.229 313.743 419.458 312.142C419.686 310.541 417.649 308.807 416.602 308.14M414.602 315.001C411.746 311.571 367.364 297.622 354.887 294.763C342.825 292 308.766 284.983 286.073 284.983M416.602 308.14L418.03 300.993M416.602 308.14C399.475 300.813 374.608 291.98 357.173 288.128C347.588 286.009 317.222 280.357 289.501 278.121M418.03 300.993C418.572 300.755 419.307 301.247 420.029 300.813C421.336 300.028 422.6 299.018 422.6 298.134C422.6 296.418 422.314 293.845 419.458 293.56M418.03 300.993C418.03 294.703 376.185 283.006 354.051 279.265C335.445 276.12 302.353 271.832 290.643 272.118M419.458 293.56C419.363 292.035 419.515 288.814 420.886 288.128M419.458 293.56C406.891 283.839 369.463 274.491 354.887 272.118C336.913 269.192 310.446 265.549 292.071 263.827M420.886 288.128C422.6 287.27 426.027 286.698 425.742 282.696C425.361 281.647 424.085 279.494 422.029 279.265M420.886 288.128C419.744 278.121 372.036 266.618 355.744 263.827C342.483 261.555 308.012 256.68 292.928 258.109M422.029 279.265L422.6 274.119M422.029 279.265C419.058 276.52 391.186 263.747 358.031 258.109C340.604 255.146 319.904 251.795 294.864 250.461M422.6 274.119C424.409 274.214 428.141 273.433 428.598 269.545C428.693 268.401 428.141 265.943 425.17 265.256M422.6 274.119C424.314 268.973 397.168 253.677 358.031 247.603C323.839 242.297 300.925 242.007 293.499 243.676M425.17 265.256L426.056 259.036M425.17 265.256C423.171 262.112 399.349 251.617 374.608 244.745C354.022 239.027 315.587 235.714 296.927 235.238M426.056 259.036C426.454 258.989 425.526 259.192 426.056 259.036ZM426.056 259.036C427.771 258.834 430.711 258.577 430.883 256.68C431.168 253.535 429.199 251.033 427.199 250.461M426.056 259.036C426.056 252.922 405.159 241.889 359.746 232.74C323.415 225.422 300.449 225.99 296.927 228.453M427.199 250.461L428.598 243.676M427.199 250.461C426.057 247.717 389.185 232.454 368.892 228.453C345.732 223.886 321.585 220.848 300.925 220.658M428.598 243.676C430.312 243.771 432.459 246.06 432.916 242.172C433.373 238.284 430.692 237.335 429.169 236.953M428.598 243.676C427.937 233.02 378.896 219.514 354.051 214.734C328.503 209.818 303.245 211.113 298.58 213.876M429.169 236.953C421.197 227.519 382.042 215.226 363.762 211.509C337.489 206.168 311.547 205.275 299.534 206.774M429.169 236.953C428.567 236.022 429.105 233.884 429.772 233.884C430.915 233.884 432.831 233.217 434.059 232.74M429.169 197.501C433.739 204.934 435.167 220.086 434.881 227.519C434.871 230.43 434.329 232.213 434.059 232.74M429.169 197.501L429.148 197.466M429.169 197.501C429.162 197.489 429.155 197.478 429.148 197.466M300.925 198.644C302.525 187.209 308.256 178.06 310.922 174.915C322.575 160.278 353.099 162.146 366.904 164.909C415.099 174.614 424.57 190.02 429.148 197.466M300.925 198.644C301.973 199.311 304.01 201.046 303.782 202.647C303.528 204.42 302.378 206.194 299.534 206.774M300.925 198.644C312.826 196.357 337.166 195.298 368.892 203.587C384.802 206.921 420.111 217.42 434.059 232.74M298.355 206.935C296.927 208.269 295.152 210.445 298.58 213.876M298.355 206.935C298.777 206.902 299.169 206.848 299.534 206.774M298.355 206.935C298.731 206.878 299.124 206.825 299.534 206.774M298.58 213.876C300.865 214.162 304.353 216.998 300.925 220.658M300.925 220.658C298.736 220.276 294.185 220.658 293.499 225.232C293.194 227.267 295.41 227.483 296.927 228.453M296.927 235.238C295.023 235.333 291.214 236.496 291.214 240.384C291.214 242.137 292.329 242.997 293.499 243.676M296.927 235.238C302.078 232.107 299.672 230.209 296.927 228.453M294.864 250.461C293.15 249.985 289.148 250.461 288.358 253.249C287.221 257.265 291.119 258.204 292.928 258.109M294.864 250.461C298.312 246.466 295.609 244.899 293.539 243.699M292.928 258.109L292.071 263.827M292.071 263.827C290.262 263.732 286.53 264.113 286.073 266.4C285.639 268.572 286.359 270.249 288.358 271.556C288.99 271.97 289.751 271.774 290.643 272.118M290.643 272.118L289.501 278.121M289.501 278.121C287.596 278.026 283.674 278.407 283.217 280.694C282.646 283.553 284.359 284.697 286.073 284.983M286.073 284.983C287.787 285.269 287.787 291.558 286.93 292.988M286.93 292.988C286.073 294.417 282.074 291.272 280.932 296.132C280.572 297.663 281.034 298.542 281.72 299.277M283.217 307.282C281.884 306.71 279.047 306.253 278.361 308.998C277.504 312.428 273.506 325.579 278.361 333.298C283.217 341.017 296.927 354.74 320.062 362.745M283.217 307.282C285.76 301.799 283.211 300.876 281.72 299.277M320.062 362.745L316.349 383.901C314.254 386.664 310.408 394.078 311.779 401.626C313.15 409.173 320.919 413.728 324.632 415.063V423.925H318.063V428.499M318.063 428.499C317.015 428.976 314.692 429.872 313.778 429.643V432.216C315.111 432.788 317.72 434.503 317.491 436.79M318.063 428.499L340.055 436.79C346.054 436.504 358.05 436.79 358.05 440.221C358.05 443.652 359.192 488.727 359.763 510.836L341.198 530.848C340.436 531.515 337.599 532.163 332.344 529.418C327.088 526.674 319.681 524.082 316.635 523.129M317.491 436.79C317.263 439.077 316.825 460.614 316.635 471.097M317.491 436.79L341.198 443.366L340.055 521.699V523.129L316.635 513.695M316.635 471.097C315.682 472.05 313.778 474.814 313.778 478.244C313.778 482.533 315.778 485.106 316.635 485.963M316.635 471.097L324.632 468.238L331.201 470.525V488.536L325.203 486.535L316.635 485.963M316.635 485.963C317.32 486.649 316.92 504.737 316.635 513.695M316.635 513.695L314.064 517.983C313.683 519.126 313.664 521.757 316.635 523.129M293.499 243.676L293.539 243.699M293.499 243.676C293.512 243.683 293.526 243.691 293.539 243.699" stroke="black"/>
</svg>
