<?xml version="1.0" encoding="UTF-8"?>
<svg id="Layer_1" data-name="Layer 1" xmlns="http://www.w3.org/2000/svg" viewBox="0 0 792 612">
  <defs>
    <style>
      .cls-1 {
        fill: #68cbdf;
        stroke: #262525;
        stroke-miterlimit: 10;
      }
    </style>
  </defs>
  <path class="cls-1" d="M342.15,293.3c0,2.32-1.88,4.21-4.2,4.21s-4.2-1.88-4.2-4.21,1.88-4.21,4.2-4.21,4.2,1.88,4.2,4.21Zm21.99,5.97v-28.74c0-2.01-1.63-3.65-3.65-3.65h-1.88c-2.01,0-3.65,1.63-3.65,3.65v28.74c0,2.01,1.63,3.65,3.65,3.65h1.88c2.01,0,3.65-1.63,3.65-3.65Zm20.85,1.9v-36.3c0-2.1-1.71-3.81-3.81-3.81h-.6c-2.1,0-3.81,1.71-3.81,3.81v36.3c0,2.1,1.71,3.81,3.81,3.81h.6c2.1,0,3.81-1.71,3.81-3.81Zm-10.08-5.64v-22.25c0-1.8-1.46-3.26-3.26-3.26h-2.66c-1.8,0-3.26,1.46-3.26,3.26v22.25c0,1.8,1.46,3.26,3.26,3.26h2.66c1.8,0,3.26-1.46,3.26-3.26Zm74.24-6.18c-2.32,0-4.2,1.88-4.2,4.21s1.88,4.21,4.2,4.21,4.2-1.88,4.2-4.21-1.88-4.21-4.2-4.21Zm-121.19-.21c-2.32,0-4.2,1.88-4.2,4.21s1.88,4.21,4.2,4.21,4.2-1.88,4.2-4.21-1.88-4.21-4.2-4.21Zm-9.87-.08c-2.32,0-4.2,1.88-4.2,4.21s1.88,4.21,4.2,4.21,4.2-1.88,4.2-4.21-1.88-4.21-4.2-4.21Zm34.22,7.57v-17.08c0-1.38-1.12-2.5-2.5-2.5h-2.04c-1.38,0-2.5,1.12-2.5,2.5v17.08c0,1.38,1.12,2.5,2.5,2.5h2.04c1.38,0,2.5-1.12,2.5-2.5Zm44.51,7.89v-48.84c0-2.65-2.15-4.79-4.79-4.79h-.19c-2.65,0-4.79,2.15-4.79,4.79v48.84c0,2.65,2.15,4.79,4.79,4.79h.19c2.65,0,4.79-2.15,4.79-4.79Zm10.54-2.77v-36.3c0-2.1-1.71-3.81-3.81-3.81h-.6c-2.1,0-3.81,1.71-3.81,3.81v36.3c0,2.1,1.71,3.81,3.81,3.81h.6c2.1,0,3.81-1.71,3.81-3.81Zm11.71-5.72v-22.25c0-1.8-1.46-3.26-3.26-3.26h-2.66c-1.8,0-3.26,1.46-3.26,3.26v22.25c0,1.8,1.46,3.26,3.26,3.26h2.66c1.8,0,3.26-1.46,3.26-3.26Zm12.1,3.24v-28.74c0-2.01-1.63-3.65-3.65-3.65h-1.88c-2.01,0-3.65,1.63-3.65,3.65v28.74c0,2.01,1.63,3.65,3.65,3.65h1.88c2.01,0,3.65-1.63,3.65-3.65Zm10.17-2.36v-17.08c0-1.38-1.12-2.5-2.5-2.5h-2.04c-1.38,0-2.5,1.12-2.5,2.5v17.08c0,1.38,1.12,2.5,2.5,2.5h2.04c1.38,0,2.5-1.12,2.5-2.5Zm17.46-7.69c-2.32,0-4.2,1.88-4.2,4.21s1.88,4.21,4.2,4.21,4.2-1.88,4.2-4.21-1.88-4.21-4.2-4.21Zm9.98,.05c-2.32,0-4.2,1.88-4.2,4.21s1.88,4.21,4.2,4.21,4.2-1.88,4.2-4.21-1.88-4.21-4.2-4.21Z"/>
</svg>