<?xml version="1.0" encoding="utf-8"?>
<!-- Generator: Adobe Illustrator 26.3.1, SVG Export Plug-In . SVG Version: 6.00 Build 0)  -->
<svg version="1.1" id="Layer_1" xmlns="http://www.w3.org/2000/svg" xmlns:xlink="http://www.w3.org/1999/xlink" x="0px" y="0px"
	 viewBox="0 0 500 150" style="enable-background:new 0 0 500 150;" xml:space="preserve">
<style type="text/css">
	.st0{fill:#211436;}
	.st1{fill:#B2E63F;}
	.st2{fill:none;}
</style>
<rect class="st0" width="500" height="150"/>
<g>
	<rect x="65.02" y="36.65" class="st1" width="76.61" height="81.21"/>
	<path d="M120.34,57.01l0.47,0.01c0.61,0.01,1.12-0.49,1.13-1.1l0.03-2.31c0.01-0.61-0.49-1.12-1.1-1.13l-0.47-0.01
		c-0.61-0.01-1.12,0.49-1.13,1.1l0,0.36l-2.28-0.03l0.09-7.62c0.01-1.04-0.98-1.81-1.98-1.53c-0.92,0.26-1.85,0.58-2.77,0.64
		c-0.24,0.02-0.48-0.03-0.7-0.13c-1.84-0.78-4.67-2.48-8.19-2.48c-3.13,0.01-5.72,1.52-7.48,2.25c-0.28,0.11-0.58,0.14-0.87,0.09
		l-3.91-0.71c-0.96-0.17-1.84,0.55-1.85,1.53l-0.09,7.6l-2.17-0.03l0-0.36c0.01-0.61-0.49-1.12-1.1-1.13l-0.47-0.01
		c-0.61-0.01-1.12,0.49-1.13,1.1l-0.03,2.31c-0.01,0.61,0.49,1.12,1.1,1.13l0.47,0.01c0.61,0.01,1.12-0.49,1.13-1.1l0-0.11
		l2.17,0.03l-0.09,7.69l-2.17-0.03l0-0.36c0.01-0.61-0.49-1.12-1.1-1.13l-0.47-0.01c-0.61-0.01-1.12,0.49-1.13,1.1l-0.03,2.31
		c-0.01,0.61,0.49,1.12,1.1,1.13l0.47,0.01c0.61,0.01,1.12-0.49,1.13-1.1l0-0.11l2.17,0.03L89,72.63l-2.17-0.03l0-0.36
		c0.01-0.61-0.49-1.12-1.1-1.13l-0.47-0.01c-0.61-0.01-1.12,0.49-1.13,1.1l-0.03,2.31c-0.01,0.61,0.49,1.12,1.1,1.13l0.47,0.01
		c0.61,0.01,1.12-0.49,1.13-1.1l0-0.11l2.17,0.03l-0.1,8.52c-0.01,0.86,0.69,1.57,1.55,1.57l0,0c3.52,0,6.37,2.88,6.32,6.4
		l-0.08,7.07l0.01,12.24c0,0.12,0.1,0.22,0.22,0.22h1.19c0.12,0,0.22-0.1,0.22-0.22V98.05l3.4,0.04v16.26c0,0.12,0.1,0.22,0.22,0.22
		h1.19c0.12,0,0.22-0.1,0.22-0.22V98.11l3.52,0.04v12.12c0,0.12,0.1,0.22,0.22,0.22h1.19c0.12,0,0.22-0.1,0.22-0.22l0-12.1
		l0.08-6.92c0.04-3.55,2.93-6.4,6.47-6.4h0.02c0.86,0,1.56-0.69,1.57-1.55l0.1-8.48l2.28,0.03l0,0.11c-0.01,0.61,0.49,1.12,1.1,1.13
		l0.47,0.01c0.61,0.01,1.12-0.49,1.13-1.1l0.03-2.31c0.01-0.61-0.49-1.12-1.1-1.13l-0.47-0.01c-0.61-0.01-1.12,0.49-1.13,1.1l0,0.36
		l-2.28-0.03l0.09-7.69l2.28,0.03l0,0.11c-0.01,0.61,0.49,1.12,1.1,1.13l0.47,0.01c0.61,0.01,1.12-0.49,1.13-1.1l0.03-2.31
		c0.01-0.61-0.49-1.12-1.1-1.13L120.28,62c-0.61-0.01-1.12,0.49-1.13,1.1l0,0.36l-2.28-0.03l0.09-7.69l2.28,0.03l0,0.11
		C119.23,56.49,119.73,57,120.34,57.01z M94.08,75.38c-1.14-0.01-2.05-0.95-2.03-2.08c0.01-1.14,0.95-2.05,2.08-2.03
		c1.14,0.01,2.05,0.95,2.03,2.08C96.15,74.48,95.22,75.39,94.08,75.38z M94.19,66.01c-1.14-0.01-2.05-0.95-2.03-2.08
		c0.01-1.14,0.95-2.05,2.08-2.03c1.14,0.01,2.05,0.95,2.03,2.08C96.26,65.12,95.33,66.03,94.19,66.01z M94.3,56.65
		c-1.14-0.01-2.05-0.95-2.03-2.08c0.01-1.14,0.95-2.05,2.08-2.03c1.14,0.01,2.05,0.95,2.03,2.08C96.37,55.75,95.44,56.66,94.3,56.65
		z M111.75,75.59c-1.14-0.01-2.05-0.95-2.03-2.08c0.01-1.14,0.95-2.05,2.08-2.03c1.14,0.01,2.05,0.95,2.03,2.08
		C113.82,74.69,112.89,75.6,111.75,75.59z M111.86,66.22c-1.14-0.01-2.05-0.95-2.03-2.08c0.01-1.14,0.95-2.05,2.08-2.03
		c1.14,0.01,2.05,0.95,2.03,2.08C113.93,65.33,113,66.24,111.86,66.22z M111.97,56.86c-1.14-0.01-2.05-0.95-2.03-2.08
		c0.01-1.14,0.95-2.05,2.08-2.03c1.14,0.01,2.05,0.95,2.03,2.08C114.04,55.96,113.11,56.87,111.97,56.86z"/>
</g>
<g>
	<rect x="161.85" y="36.65" class="st1" width="76.61" height="81.21"/>
	<g>
		<g>
			<path d="M227.01,68.37l-1.63,0.08c0.76,2.6,1.33,5.79,1.33,8.52c0,3.85-0.75,7.59-2.24,11.11c-1.44,3.4-3.5,6.45-6.12,9.07
				c-2.62,2.62-5.67,4.68-9.07,6.12c-3.52,1.49-7.26,2.24-11.11,2.24c-3.85,0-7.59-0.75-11.11-2.24c-3.4-1.44-6.45-3.5-9.07-6.12
				c-2.62-2.62-4.68-5.67-6.12-9.07c-1.49-3.52-2.24-7.26-2.24-11.11s0.75-7.59,2.24-11.11c1.44-3.4,3.5-6.45,6.12-9.07
				c2.62-2.62,5.67-4.68,9.07-6.12c3.52-1.49,7.26-2.24,11.11-2.24c5.87,0,11.51,1.77,16.3,5.11c4.38,3.05,7.78,7.21,9.88,12.06
				h-1.55h-0.02h-2.8h-6.13h-1.05v1.54h1.05h6.88h2.05h0.02h3.82l-0.41-1.05c-2.17-5.59-5.93-10.37-10.87-13.81
				c-5.06-3.52-11-5.39-17.18-5.39c-4.06,0-8,0.8-11.71,2.36c-3.58,1.51-6.8,3.68-9.56,6.45c-2.76,2.76-4.93,5.98-6.45,9.56
				c-1.57,3.71-2.36,7.65-2.36,11.71c0,4.06,0.8,8,2.36,11.71c1.52,3.58,3.68,6.8,6.45,9.56c2.76,2.76,5.98,4.93,9.56,6.45
				c3.71,1.57,7.65,2.36,11.71,2.36c4.06,0,8-0.8,11.71-2.36c3.58-1.51,6.8-3.68,9.56-6.45c2.76-2.76,4.93-5.98,6.45-9.56
				c1.57-3.71,2.36-7.65,2.36-11.71C228.26,74.09,227.81,71.11,227.01,68.37z"/>
			<path d="M212.81,64.86v2.83c0,0.02,0,0.05-0.01,0.07c-0.01,0.04-0.03,0.09-0.05,0.12c-0.07,0.12-0.19,0.19-0.34,0.19h-5.35
				c-0.22,0-0.39-0.18-0.39-0.39v-2.83c0-0.22,0.18-0.39,0.39-0.39h5.35c0.2,0,0.37,0.16,0.39,0.36
				C212.8,64.84,212.81,64.85,212.81,64.86z"/>
		</g>
		<g>
			<path class="st2" d="M186.44,91.44c-3.1-2.48-5.05-6.03-5.48-9.98l-1.86,0.21c0.49,4.45,2.68,8.44,6.17,11.23
				c3.49,2.8,7.86,4.07,12.31,3.58l-0.21-1.86C193.42,95.06,189.54,93.93,186.44,91.44z"/>
			<path class="st2" d="M186.22,80.31l-2.24,0.25c0.76,6.86,6.95,11.82,13.81,11.07l-0.25-2.24
				C191.91,90.01,186.84,85.95,186.22,80.31z"/>
			<path class="st2" d="M194.1,70.37c-2,1.1-3.4,3.07-3.77,5.32c-1.13,6.79,5.76,11.68,11.8,8.37c2-1.1,3.4-3.07,3.77-5.32
				C207.02,71.95,200.13,67.06,194.1,70.37z"/>
			<path d="M221.13,68.07h-7.27v0.33c0,0.21-0.17,0.38-0.38,0.38h-7.35c-0.21,0-0.38-0.17-0.38-0.38v-4.36
				c0-0.21,0.17-0.38,0.38-0.38h7.35c0.21,0,0.38,0.17,0.38,0.38v0.5h5.53c-5.91-9.91-18.4-15.02-30.48-10.34
				c-8.18,3.17-15.21,12.99-15.56,21.76c-0.74,18.75,18.16,31.62,35.54,23.61c7.44-3.43,12.65-10.44,13.75-18.57
				C223.27,76.29,222.65,71.92,221.13,68.07z M185.27,92.91c-3.49-2.8-5.68-6.79-6.17-11.23l1.86-0.21
				c0.44,3.95,2.38,7.49,5.48,9.98c3.1,2.48,6.98,3.61,10.93,3.18l0.21,1.86C193.13,96.98,188.76,95.7,185.27,92.91z M183.98,80.56
				l2.24-0.25c0.62,5.63,5.69,9.7,11.32,9.08l0.25,2.24C190.93,92.38,184.73,87.42,183.98,80.56z M205.89,78.74
				c-0.38,2.25-1.77,4.22-3.77,5.32c-6.03,3.31-12.93-1.58-11.8-8.37c0.38-2.25,1.77-4.22,3.77-5.32
				C200.13,67.06,207.02,71.95,205.89,78.74z"/>
		</g>
	</g>
</g>
<g>
	<rect x="258.68" y="36.65" class="st1" width="76.61" height="81.21"/>
	<g>
		<circle cx="304.29" cy="70.07" r="2.16"/>
		<circle cx="304.29" cy="77.2" r="2.16"/>
		<circle cx="304.29" cy="84.01" r="2.16"/>
		<path d="M319.34,44.44l-1.21-1.97c-0.12-0.22-0.4-0.29-0.62-0.16c-6.08,3.68-9.83,10.32-9.83,17.44v31.36
			c0,1.28-0.2,2.52-0.57,3.68c-0.73,2.31-2.48,4.17-4.79,4.89c-0.6,0.19-1.27,0.31-1.99,0.33c-0.07,0-0.14,0-0.22,0
			c-3.47,0-6.26-2.87-6.26-6.34V77.19c0-0.25-0.2-0.45-0.45-0.45h-16.82c-0.25,0-0.45,0.2-0.45,0.45v13.92
			c0,5.12,1.97,10.07,5.57,13.72c3.66,3.71,8.55,5.76,13.76,5.76c5.21,0,10.1-2.05,13.76-5.76c3.6-3.65,5.57-8.6,5.57-13.72
			l-2.88-30.78C311.72,53.24,314.28,47.74,319.34,44.44z M290.83,100.25l-2.62-0.14c-3.66,0-6.64-3.18-6.64-7.11V81.33
			c0-0.22,0.18-0.4,0.4-0.4h5.84c0.22,0,0.4,0.18,0.4,0.4v11.44c0,1.97,0.65,3.88,1.85,5.43l1.11,1.4
			C291.39,99.87,291.18,100.27,290.83,100.25z"/>
	</g>
</g>
<g>
	<rect x="355.51" y="36.65" class="st1" width="76.61" height="81.21"/>
	<g>
		<g>
			<g>
				<path d="M422.86,51.74h-10.04h-35.45h-10.04c-0.74,0-1.33,0.6-1.33,1.33v48.97c0,0.74,0.6,1.33,1.33,1.33h44.16
					c0.74,0,1.33-0.6,1.33-1.33V84.73c0-0.74,0.6-1.33,1.33-1.33h8.7c0.74,0,1.33-0.6,1.33-1.33V53.07
					C424.19,52.34,423.59,51.74,422.86,51.74z M408.9,96.08c0,0.74-0.6,1.33-1.33,1.33h-35.71c-0.74,0-1.33-0.6-1.33-1.33v-9.14
					c0-0.74,0.6-1.33,1.33-1.33h35.71c0.74,0,1.33,0.6,1.33,1.33V96.08z M408.9,81.22c0,0.74-0.6,1.33-1.33,1.33h-35.71
					c-0.74,0-1.33-0.6-1.33-1.33v-9.14c0-0.74,0.6-1.33,1.33-1.33h35.71c0.74,0,1.33,0.6,1.33,1.33V81.22z M408.9,66.37
					c0,0.74-0.6,1.33-1.33,1.33h-35.71c-0.74,0-1.33-0.6-1.33-1.33v-9.14c0-0.74,0.6-1.33,1.33-1.33h35.71
					c0.74,0,1.33,0.6,1.33,1.33V66.37z"/>
			</g>
			<path d="M408.9,73.04h-18.24c-1.62,0-2.93-1.31-2.93-2.93v-1.82c0-1.62,1.31-2.93,2.93-2.93h18.24V73.04z"/>
			<path d="M408.9,88.31h-18.24c-1.62,0-2.93-1.31-2.93-2.93v-1.82c0-1.62,1.31-2.93,2.93-2.93h18.24V88.31z"/>
		</g>
		<path d="M420.54,93.77c-0.93,0-1.83,0.82-1.79,1.79c0.04,0.97,0.79,1.79,1.79,1.79c0.93,0,1.83-0.82,1.79-1.79
			C422.29,94.58,421.55,93.77,420.54,93.77z"/>
	</g>
</g>
</svg>
