<?xml version="1.0" encoding="utf-8"?>
<!-- Generator: Adobe Illustrator 26.4.1, SVG Export Plug-In . SVG Version: 6.00 Build 0)  -->
<svg version="1.1" id="Layer_1" xmlns="http://www.w3.org/2000/svg" xmlns:xlink="http://www.w3.org/1999/xlink" x="0px" y="0px"
	 viewBox="0 0 76.6 81.2" style="enable-background:new 0 0 76.6 81.2;" xml:space="preserve">
<style type="text/css">
	.st0{fill:#B2E63F;}
</style>
<g>
	<g>
		<rect x="0" class="st0" width="76.6" height="81.2"/>
	</g>
	<path d="M72.6,42.6l1-1c1-1,0.6-3-0.9-4.4L46.6,11.8c-1.1-1.1-2.5-1.3-3.2-0.6v0c-0.7,0.7-0.5,2.1,0.5,3.2l24.3,27.1
		C69.6,43.1,71.6,43.6,72.6,42.6z"/>
	<path d="M63.9,59.3l1.3-0.6c1.2-0.6,1.4-2.7,0.5-4.5L48.4,22.1c-0.7-1.3-2-2-2.9-1.6l0,0c-0.9,0.4-1.1,1.8-0.5,3.2L60,56.9
		C60.9,58.8,62.6,59.9,63.9,59.3z"/>
	<circle cx="32.2" cy="47.7" r="18.8"/>
</g>
</svg>
