<?xml version="1.0" encoding="utf-8"?>
<!-- Generator: Adobe Illustrator 26.4.1, SVG Export Plug-In . SVG Version: 6.00 Build 0)  -->
<svg version="1.1" id="Layer_1" xmlns="http://www.w3.org/2000/svg" xmlns:xlink="http://www.w3.org/1999/xlink" x="0px" y="0px"
	 viewBox="0 0 76.6 81.2" style="enable-background:new 0 0 76.6 81.2;" xml:space="preserve">
<style type="text/css">
	.st0{fill:#B2E63F;}
</style>
<g>
	<rect class="st0" width="76.6" height="81.2"/>
	<path d="M55.3,20.4l0.5,0c0.6,0,1.1-0.5,1.1-1.1l0-2.3c0-0.6-0.5-1.1-1.1-1.1l-0.5,0c-0.6,0-1.1,0.5-1.1,1.1l0,0.4l-2.3,0l0.1-7.6
		c0-1-1-1.8-2-1.5c-0.9,0.3-1.8,0.6-2.8,0.6c-0.2,0-0.5,0-0.7-0.1c-1.8-0.8-4.7-2.5-8.2-2.5c-3.1,0-5.7,1.5-7.5,2.2
		c-0.3,0.1-0.6,0.1-0.9,0.1l-3.9-0.7c-1-0.2-1.8,0.6-1.8,1.5l-0.1,7.6l-2.2,0l0-0.4c0-0.6-0.5-1.1-1.1-1.1l-0.5,0
		c-0.6,0-1.1,0.5-1.1,1.1l0,2.3c0,0.6,0.5,1.1,1.1,1.1l0.5,0c0.6,0,1.1-0.5,1.1-1.1l0-0.1l2.2,0l-0.1,7.7l-2.2,0l0-0.4
		c0-0.6-0.5-1.1-1.1-1.1l-0.5,0c-0.6,0-1.1,0.5-1.1,1.1l0,2.3c0,0.6,0.5,1.1,1.1,1.1l0.5,0c0.6,0,1.1-0.5,1.1-1.1l0-0.1l2.2,0L24,36
		l-2.2,0l0-0.4c0-0.6-0.5-1.1-1.1-1.1l-0.5,0c-0.6,0-1.1,0.5-1.1,1.1l0,2.3c0,0.6,0.5,1.1,1.1,1.1l0.5,0c0.6,0,1.1-0.5,1.1-1.1
		l0-0.1l2.2,0l-0.1,8.5c0,0.9,0.7,1.6,1.6,1.6l0,0c3.5,0,6.4,2.9,6.3,6.4l-0.1,7.1l0,12.2c0,0.1,0.1,0.2,0.2,0.2h1.2
		c0.1,0,0.2-0.1,0.2-0.2V61.4l3.4,0v16.3c0,0.1,0.1,0.2,0.2,0.2h1.2c0.1,0,0.2-0.1,0.2-0.2V61.5l3.5,0v12.1c0,0.1,0.1,0.2,0.2,0.2
		h1.2c0.1,0,0.2-0.1,0.2-0.2l0-12.1l0.1-6.9c0-3.5,2.9-6.4,6.5-6.4h0c0.9,0,1.6-0.7,1.6-1.6l0.1-8.5l2.3,0l0,0.1
		c0,0.6,0.5,1.1,1.1,1.1l0.5,0c0.6,0,1.1-0.5,1.1-1.1l0-2.3c0-0.6-0.5-1.1-1.1-1.1l-0.5,0c-0.6,0-1.1,0.5-1.1,1.1l0,0.4l-2.3,0
		l0.1-7.7l2.3,0l0,0.1c0,0.6,0.5,1.1,1.1,1.1l0.5,0c0.6,0,1.1-0.5,1.1-1.1l0-2.3c0-0.6-0.5-1.1-1.1-1.1l-0.5,0
		c-0.6,0-1.1,0.5-1.1,1.1l0,0.4l-2.3,0l0.1-7.7l2.3,0l0,0.1C54.2,19.8,54.7,20.4,55.3,20.4z M29.1,38.7c-1.1,0-2-0.9-2-2.1
		c0-1.1,0.9-2,2.1-2c1.1,0,2,0.9,2,2.1C31.1,37.8,30.2,38.7,29.1,38.7z M29.2,29.4c-1.1,0-2-0.9-2-2.1c0-1.1,0.9-2,2.1-2
		c1.1,0,2,0.9,2,2.1C31.2,28.5,30.3,29.4,29.2,29.4z M29.3,20c-1.1,0-2-0.9-2-2.1c0-1.1,0.9-2,2.1-2c1.1,0,2,0.9,2,2.1
		C31.4,19.1,30.4,20,29.3,20z M46.7,38.9c-1.1,0-2-0.9-2-2.1c0-1.1,0.9-2,2.1-2c1.1,0,2,0.9,2,2.1C48.8,38,47.9,39,46.7,38.9z
		 M46.8,29.6c-1.1,0-2-0.9-2-2.1c0-1.1,0.9-2,2.1-2c1.1,0,2,0.9,2,2.1C48.9,28.7,48,29.6,46.8,29.6z M47,20.2c-1.1,0-2-0.9-2-2.1
		c0-1.1,0.9-2,2.1-2c1.1,0,2,0.9,2,2.1C49,19.3,48.1,20.2,47,20.2z"/>
</g>
</svg>
