<?xml version="1.0" encoding="utf-8"?>
<!-- Generator: Adobe Illustrator 26.4.1, SVG Export Plug-In . SVG Version: 6.00 Build 0)  -->
<svg version="1.1" id="Layer_1" xmlns="http://www.w3.org/2000/svg" xmlns:xlink="http://www.w3.org/1999/xlink" x="0px" y="0px"
	 viewBox="0 0 76.6 81.2" style="enable-background:new 0 0 76.6 81.2;" xml:space="preserve">
<style type="text/css">
	.st0{fill:#B2E63F;}
</style>
<g>
	<g>
		<rect x="0" class="st0" width="76.6" height="81.2"/>
	</g>
	<g>
		<path d="M55.1,50.8L55.1,50.8c-1.5,0-2.8-1.2-2.8-2.8V36.4c0-1.5,1.2-2.8,2.8-2.8l0,0c1.5,0,2.8,1.2,2.8,2.8V48
			C57.9,49.6,56.7,50.8,55.1,50.8z"/>
		<path d="M22.7,55.8L22.7,55.8c1.5,0,2.8-1.2,2.8-2.8V31.5c0-1.5-1.2-2.8-2.8-2.8l0,0c-1.5,0-2.8,1.2-2.8,2.8V53
			C19.9,54.5,21.1,55.8,22.7,55.8z"/>
		<path d="M11,48L11,48c1.5,0,2.8-1.2,2.8-2.8v-6c0-1.5-1.2-2.8-2.8-2.8h0c-1.5,0-2.8,1.2-2.8,2.8v6C8.3,46.8,9.5,48,11,48z"/>
		<g>
			<path d="M44,19.2h-0.9c-1.3,0-2.3,1-2.3,2.3V26c0,1.2-1,2.2-2.2,2.2l0,0c-1.2,0-2.2-1-2.2-2.2V12.6c0-1.5-1.2-2.8-2.7-2.8
				c-1.6,0-2.8,1.2-2.8,2.8v59.2c0,1.5,1.2,2.8,2.7,2.8c1.6,0,2.8-1.2,2.8-2.8V58.4c0-1.2,1-2.2,2.2-2.2h0c1.2,0,2.2,1,2.2,2.2v4.5
				c0,1.3,1,2.3,2.3,2.3H44c1.3,0,2.3-1,2.3-2.3V21.5C46.4,20.2,45.3,19.2,44,19.2z M41.2,49.6c0,1.1-0.9,1.9-1.9,1.9l0,0
				c-1.1,0-1.9-0.9-1.9-1.9V34.2c0-1.1,0.9-1.9,1.9-1.9l0,0c1.1,0,1.9,0.9,1.9,1.9V49.6z"/>
		</g>
		<ellipse transform="matrix(0.9155 -0.4024 0.4024 0.9155 -11.5219 29.6165)" cx="64.7" cy="42.2" rx="2.6" ry="2.6"/>
	</g>
</g>
</svg>
