<?xml version="1.0" encoding="utf-8"?>
<!-- Generator: Adobe Illustrator 26.4.1, SVG Export Plug-In . SVG Version: 6.00 Build 0)  -->
<svg version="1.1" id="Layer_1" xmlns="http://www.w3.org/2000/svg" xmlns:xlink="http://www.w3.org/1999/xlink" x="0px" y="0px"
	 viewBox="0 0 76.6 81.2" style="enable-background:new 0 0 76.6 81.2;" xml:space="preserve">
<style type="text/css">
	.st0{fill:#B2E63F;}
</style>
<g>
	<rect class="st0" width="76.6" height="81.2"/>
	<g>
		<path d="M36.7,75.8C18,75.8,2.8,60.6,2.8,41.9C2.8,23.3,18,8.1,36.7,8.1s33.9,15.2,33.9,33.9C70.6,60.6,55.4,75.8,36.7,75.8z
			 M36.7,16.1c-14.3,0-25.9,11.6-25.9,25.9c0,14.3,11.6,25.9,25.9,25.9s25.9-11.6,25.9-25.9C62.6,27.7,51,16.1,36.7,16.1z"/>
	</g>
	<path d="M15.2,74.4L14,73.8c-1.2-0.6-1.4-2.7-0.5-4.5l17.2-32.1c0.7-1.3,2-2,2.9-1.6l0,0c0.9,0.4,1.1,1.8,0.5,3.2L19.1,72.1
		C18.2,74,16.5,75.1,15.2,74.4z"/>
	<path d="M59.4,74.4l1.3-0.6c1.2-0.6,1.4-2.7,0.5-4.5L43.9,37.2c-0.7-1.3-2-2-2.9-1.6l0,0c-0.9,0.4-1.1,1.8-0.5,3.2l14.9,33.2
		C56.3,74,58.1,75.1,59.4,74.4z"/>
</g>
</svg>
