<?xml version="1.0" encoding="utf-8"?>
<!-- Generator: Adobe Illustrator 26.4.1, SVG Export Plug-In . SVG Version: 6.00 Build 0)  -->
<svg version="1.1" id="Layer_1" xmlns="http://www.w3.org/2000/svg" xmlns:xlink="http://www.w3.org/1999/xlink" x="0px" y="0px"
	 viewBox="0 0 76.6 81.2" style="enable-background:new 0 0 76.6 81.2;" xml:space="preserve">
<style type="text/css">
	.st0{fill:#B2E63F;}
	.st1{fill:none;}
</style>
<g>
	<rect x="0" class="st0" width="76.6" height="81.2"/>
	<g>
		<g>
			<path d="M65.2,31.7l-1.6,0.1c0.8,2.6,1.3,5.8,1.3,8.5c0,3.9-0.8,7.6-2.2,11.1c-1.4,3.4-3.5,6.5-6.1,9.1c-2.6,2.6-5.7,4.7-9.1,6.1
				c-3.5,1.5-7.3,2.2-11.1,2.2c-3.9,0-7.6-0.8-11.1-2.2c-3.4-1.4-6.5-3.5-9.1-6.1c-2.6-2.6-4.7-5.7-6.1-9.1
				c-1.5-3.5-2.2-7.3-2.2-11.1s0.8-7.6,2.2-11.1c1.4-3.4,3.5-6.5,6.1-9.1c2.6-2.6,5.7-4.7,9.1-6.1c3.5-1.5,7.3-2.2,11.1-2.2
				c5.9,0,11.5,1.8,16.3,5.1c4.4,3.1,7.8,7.2,9.9,12.1H61h0h-2.8H52H51v1.5H52h6.9h2.1h0h3.8l-0.4-1c-2.2-5.6-5.9-10.4-10.9-13.8
				c-5.1-3.5-11-5.4-17.2-5.4c-4.1,0-8,0.8-11.7,2.4c-3.6,1.5-6.8,3.7-9.6,6.4c-2.8,2.8-4.9,6-6.4,9.6C7,32.3,6.3,36.3,6.3,40.3
				S7,48.3,8.6,52c1.5,3.6,3.7,6.8,6.4,9.6c2.8,2.8,6,4.9,9.6,6.4c3.7,1.6,7.6,2.4,11.7,2.4c4.1,0,8-0.8,11.7-2.4
				c3.6-1.5,6.8-3.7,9.6-6.4c2.8-2.8,4.9-6,6.4-9.6c1.6-3.7,2.4-7.6,2.4-11.7C66.4,37.4,66,34.5,65.2,31.7z"/>
			<path d="M51,28.2V31c0,0,0,0,0,0.1c0,0,0,0.1,0,0.1c-0.1,0.1-0.2,0.2-0.3,0.2h-5.3c-0.2,0-0.4-0.2-0.4-0.4v-2.8
				c0-0.2,0.2-0.4,0.4-0.4h5.3C50.8,27.8,50.9,28,51,28.2C51,28.2,51,28.2,51,28.2z"/>
		</g>
		<g>
			<path class="st1" d="M24.6,54.8c-3.1-2.5-5-6-5.5-10L17.2,45c0.5,4.4,2.7,8.4,6.2,11.2c3.5,2.8,7.9,4.1,12.3,3.6L35.5,58
				C31.6,58.4,27.7,57.3,24.6,54.8z"/>
			<path class="st1" d="M24.4,43.7l-2.2,0.2c0.8,6.9,6.9,11.8,13.8,11.1l-0.2-2.2C30.1,53.4,25,49.3,24.4,43.7z"/>
			<path class="st1" d="M32.2,33.7c-2,1.1-3.4,3.1-3.8,5.3c-1.1,6.8,5.8,11.7,11.8,8.4c2-1.1,3.4-3.1,3.8-5.3
				C45.2,35.3,38.3,30.4,32.2,33.7z"/>
			<path d="M59.3,31.4H52v0.3c0,0.2-0.2,0.4-0.4,0.4h-7.3c-0.2,0-0.4-0.2-0.4-0.4v-4.4c0-0.2,0.2-0.4,0.4-0.4h7.3
				c0.2,0,0.4,0.2,0.4,0.4v0.5h5.5c-5.9-9.9-18.4-15-30.5-10.3c-8.2,3.2-15.2,13-15.6,21.8C10.8,58,29.7,70.9,47,62.9
				c7.4-3.4,12.6-10.4,13.7-18.6C61.4,39.6,60.8,35.3,59.3,31.4z M23.4,56.3c-3.5-2.8-5.7-6.8-6.2-11.2l1.9-0.2
				c0.4,3.9,2.4,7.5,5.5,10c3.1,2.5,7,3.6,10.9,3.2l0.2,1.9C31.3,60.3,26.9,59.1,23.4,56.3z M22.1,43.9l2.2-0.2
				c0.6,5.6,5.7,9.7,11.3,9.1l0.2,2.2C29.1,55.7,22.9,50.8,22.1,43.9z M44,42.1c-0.4,2.3-1.8,4.2-3.8,5.3c-6,3.3-12.9-1.6-11.8-8.4
				c0.4-2.3,1.8-4.2,3.8-5.3C38.3,30.4,45.2,35.3,44,42.1z"/>
		</g>
	</g>
</g>
</svg>
