<?xml version="1.0" encoding="utf-8"?>
<!-- Generator: Adobe Illustrator 26.4.1, SVG Export Plug-In . SVG Version: 6.00 Build 0)  -->
<svg version="1.1" id="Layer_1" xmlns="http://www.w3.org/2000/svg" xmlns:xlink="http://www.w3.org/1999/xlink" x="0px" y="0px"
	 viewBox="0 0 1000 440" style="enable-background:new 0 0 1000 440;" xml:space="preserve">
<style type="text/css">
	.st0{fill:url(#SVGID_1_);}
	.st1{opacity:0.3;fill:#FFFFFF;enable-background:new    ;}
	.st2{fill:#211436;}
	.st3{fill:#7964B1;}
	.st4{fill:#9E86DF;}
	.st5{fill:#FFFFFF;}
	.st6{fill:#3D352E;}
	.st7{fill:#F9AE3B;}
	.st8{fill:#EB1C42;}
	.st9{fill:#CEBDFD;}
	.st10{opacity:0.3;fill:#685698;enable-background:new    ;}
	.st11{fill:#FFAA97;}
	.st12{fill:#2B3D6E;}
	.st13{opacity:0.25;enable-background:new    ;}
	.st14{fill:url(#SVGID_00000103254343271038836890000000207680652946127268_);}
	.st15{opacity:0.5;fill:#C59785;enable-background:new    ;}
	.st16{fill:#5F3813;}
	.st17{opacity:0.3;fill:#841025;enable-background:new    ;}
	.st18{fill:#3D3D59;}
	.st19{enable-background:new    ;}
	.st20{fill:#DC9221;}
	.st21{fill:#EB4967;}
	.st22{fill:#B81634;}
	.st23{fill:#4D4D4D;}
	.st24{fill:#C5B097;}
	.st25{fill:#333333;}
	.st26{opacity:0.2;fill:#FFFFFF;enable-background:new    ;}
	.st27{fill:#666666;}
	.st28{fill:#808080;}
	.st29{fill:#565656;}
	.st30{fill:#1A1A1A;}
	.st31{opacity:0.5;fill:url(#SVGID_00000164486139277072392070000003281913008091173800_);enable-background:new    ;}
	.st32{fill:#B2E63F;}
	.st33{fill:#B00BE6;}
	.st34{fill:#00ADE3;}
	.st35{fill:url(#SVGID_00000150104820298115434750000011940405978805015740_);}
	.st36{fill:url(#SVGID_00000043446350964043833860000016473121651553488280_);}
	.st37{fill:#0F2261;}
</style>
<linearGradient id="SVGID_1_" gradientUnits="userSpaceOnUse" x1="1831.3115" y1="748.5496" x2="831.3115" y2="748.5496" gradientTransform="matrix(-1 0 0 1 1831.3115 -528.5496)">
	<stop  offset="0" style="stop-color:#008BD6"/>
	<stop  offset="1.480000e-02" style="stop-color:#0184CF"/>
	<stop  offset="9.630000e-02" style="stop-color:#0565AB"/>
	<stop  offset="0.1857" style="stop-color:#09498D"/>
	<stop  offset="0.2834" style="stop-color:#0D3374"/>
	<stop  offset="0.3927" style="stop-color:#0F2261"/>
	<stop  offset="0.5201" style="stop-color:#111654"/>
	<stop  offset="0.6821" style="stop-color:#120F4C"/>
	<stop  offset="0.996" style="stop-color:#120D4A"/>
</linearGradient>
<polygon class="st0" points="0,0 1000,0 1000,440 0,440 "/>
<ellipse class="st1" cx="333.3" cy="308.4" rx="262" ry="119.3"/>
<g>
	<g>
		<polygon class="st2" points="447.3,241.5 398.8,213.4 398.8,120.1 447.3,148.2 		"/>
		<polygon class="st3" points="532.6,192.3 447.3,241.5 447.3,148.2 532.6,98.9 		"/>
		<polygon class="st2" points="451.1,165 528.9,120.1 528.9,190.1 451.1,235.1 		"/>
		<polygon class="st4" points="484,70.9 532.6,98.9 447.3,148.2 398.8,120.1 		"/>
		<g>
			<ellipse transform="matrix(0.5 -0.866 0.866 0.5 91.1782 513.1163)" class="st5" cx="490" cy="177.6" rx="34.9" ry="20.2"/>
			<ellipse transform="matrix(0.5 -0.866 0.866 0.5 91.1787 513.1147)" class="st6" cx="490" cy="177.6" rx="24.8" ry="14.3"/>
			<path class="st7" d="M491.6,172.1c0-3.6-2.5-5-5.6-3.2c-3.1,1.8-5.6,6.1-5.6,9.6s2.5,5,5.6,3.2
				C489.1,180,491.6,175.6,491.6,172.1z"/>
		</g>
		<g>
			<ellipse transform="matrix(0.5 -0.866 0.866 0.5 139.7054 518.6439)" class="st4" cx="519" cy="138.3" rx="10.3" ry="5.9"/>
			<path class="st2" d="M524.2,135.3c0-3.3-2.3-4.6-5.2-3s-5.2,5.6-5.2,8.9c0,3.3,2.3,4.6,5.2,3S524.2,138.6,524.2,135.3z"/>
			<path class="st7" d="M519.5,136.7c0-1.1-0.7-1.5-1.6-0.9c-0.9,0.5-1.6,1.8-1.6,2.8s0.7,1.5,1.6,0.9
				C518.8,139,519.5,137.8,519.5,136.7z"/>
		</g>
		<g>
			<path class="st5" d="M473.3,145.9c-1.3,0.8-2.4,0.1-2.4-1.4c0-1.5,1.1-3.4,2.4-4.1c1.3-0.8,2.4-0.1,2.4,1.4
				C475.7,143.2,474.6,145.1,473.3,145.9z"/>
			<path class="st2" d="M472.3,145.9l4.7,1.4l1.9-3.2l-3.6-3.3c-0.4-0.4-1-0.4-1.7,0c-1.2,0.7-2.1,2.3-2.1,3.7
				C471.4,145.3,471.8,145.8,472.3,145.9z"/>
			<path class="st5" d="M477.8,147.2c-0.7,0.4-1.3,0.1-1.3-0.8s0.6-1.9,1.3-2.3c0.7-0.4,1.3-0.1,1.3,0.8S478.5,146.8,477.8,147.2z"
				/>
		</g>
		<g>
			<path class="st5" d="M464.1,151.1c-1.3,0.8-2.4,0.1-2.4-1.4c0-1.5,1.1-3.4,2.4-4.1c1.3-0.8,2.4-0.1,2.4,1.4
				C466.5,148.5,465.4,150.4,464.1,151.1z"/>
			<path class="st2" d="M463.1,151.2l4.7,1.4l1.9-3.2l-3.6-3.3c-0.4-0.4-1-0.4-1.7,0c-1.2,0.7-2.1,2.3-2.1,3.7
				C462.3,150.6,462.6,151.1,463.1,151.2z"/>
			<path class="st5" d="M468.6,152.5c-0.7,0.4-1.3,0.1-1.3-0.8s0.6-1.9,1.3-2.3c0.7-0.4,1.3-0.1,1.3,0.8
				C469.9,151.1,469.3,152.1,468.6,152.5z"/>
		</g>
		<g>
			<path class="st5" d="M455,156.4c-1.3,0.8-2.4,0.1-2.4-1.4c0-1.5,1.1-3.4,2.4-4.1c1.3-0.8,2.4-0.1,2.4,1.4
				C457.3,153.8,456.3,155.7,455,156.4z"/>
			<path class="st2" d="M453.9,156.5l4.7,1.4l1.9-3.2l-3.6-3.3c-0.4-0.4-1-0.4-1.7,0c-1.2,0.7-2.1,2.3-2.1,3.7
				C453.1,155.9,453.4,156.4,453.9,156.5z"/>
			<path class="st5" d="M459.4,157.8c-0.7,0.4-1.3,0.1-1.3-0.8s0.6-1.9,1.3-2.3c0.7-0.4,1.3-0.1,1.3,0.8
				C460.8,156.4,460.2,157.4,459.4,157.8z"/>
		</g>
		<g>
			<polygon class="st7" points="510.5,120 507.2,121.9 507.2,127.8 510.5,125.9 			"/>
			<polygon class="st5" points="520.2,114.3 516.9,116.2 516.9,122.2 520.2,120.3 			"/>
			<polygon class="st5" points="524.4,111.9 521.1,113.8 521.1,119.8 524.4,117.8 			"/>
			<polygon class="st8" points="528.5,109.5 525.2,111.4 525.2,117.3 528.5,115.4 			"/>
		</g>
	</g>
	<g>
		<g>
			<polygon class="st2" points="477.7,114.2 445.8,95.7 445.8,34.4 477.7,52.8 			"/>
			<polygon class="st3" points="509.6,95.7 477.7,114.2 477.7,52.8 509.6,34.4 			"/>
			<polygon class="st2" points="480.2,54.2 507.2,38.6 507.2,94.3 480.2,109.9 			"/>
			<polygon class="st9" points="477.7,16 509.6,34.4 477.7,52.8 445.8,34.4 			"/>
			<g>
				<ellipse transform="matrix(0.5 -0.866 0.866 0.5 175.8703 469.4606)" class="st5" cx="494.5" cy="82.4" rx="15.6" ry="9"/>
				<ellipse transform="matrix(0.5 -0.866 0.866 0.5 175.87 469.462)" class="st6" cx="494.5" cy="82.4" rx="11.1" ry="6.4"/>
				<path class="st7" d="M495.2,80c0-1.6-1.1-2.2-2.5-1.4c-1.4,0.8-2.5,2.7-2.5,4.3s1.1,2.2,2.5,1.4C494.1,83.5,495.2,81.5,495.2,80
					z"/>
			</g>
			<g>
				<path class="st5" d="M501.2,55.1c0-4.3-3-6-6.7-3.9c-3.7,2.1-6.7,7.3-6.7,11.6s3,6,6.7,3.9C498.2,64.6,501.2,59.4,501.2,55.1z"
					/>
				<path class="st6" d="M499.2,56.2c0-3-2.1-4.2-4.7-2.7s-4.7,5.2-4.7,8.2c0,3,2.1,4.2,4.7,2.7C497.1,62.9,499.2,59.3,499.2,56.2z"
					/>
				<path class="st7" d="M495,57.5c0-1-0.7-1.3-1.5-0.9c-0.8,0.5-1.5,1.7-1.5,2.6s0.7,1.3,1.5,0.9C494.3,59.6,495,58.5,495,57.5z"/>
			</g>
		</g>
		<g>
			<polygon class="st2" points="441.1,135.2 409.2,116.8 409.2,55.5 441.1,73.9 			"/>
			<polygon class="st3" points="473,116.8 441.1,135.2 441.1,73.9 473,55.5 			"/>
			<polygon class="st2" points="443.6,75.3 470.6,59.7 470.6,115.4 443.6,131 			"/>
			<polygon class="st9" points="441.1,37.1 473,55.5 441.1,73.9 409.2,55.5 			"/>
			<g>
				<path class="st5" d="M468.9,97.1c0-7.1-5-9.9-11-6.4c-6.1,3.5-11,12.1-11,19.1s5,9.9,11,6.4C464,112.8,468.9,104.2,468.9,97.1z"
					/>
				<ellipse transform="matrix(0.5 -0.866 0.866 0.5 139.2804 448.294)" class="st6" cx="457.9" cy="103.5" rx="11.1" ry="6.4"/>
				<path class="st7" d="M458.6,101.1c0-1.6-1.1-2.2-2.5-1.4c-1.4,0.8-2.5,2.7-2.5,4.3s1.1,2.2,2.5,1.4
					C457.5,104.6,458.6,102.6,458.6,101.1z"/>
			</g>
			<g>
				<path class="st5" d="M464.6,76.2c0-4.3-3-6-6.7-3.9c-3.7,2.1-6.7,7.3-6.7,11.6s3,6,6.7,3.9C461.6,85.7,464.6,80.5,464.6,76.2z"
					/>
				<path class="st6" d="M462.6,77.3c0-3-2.1-4.2-4.7-2.7s-4.7,5.2-4.7,8.2s2.1,4.2,4.7,2.7C460.5,84,462.6,80.4,462.6,77.3z"/>
				<path class="st7" d="M458.3,78.6c0-1-0.7-1.3-1.5-0.9c-0.8,0.5-1.5,1.7-1.5,2.6s0.7,1.3,1.5,0.9
					C457.6,80.7,458.3,79.6,458.3,78.6z"/>
			</g>
		</g>
	</g>
</g>
<path class="st10" d="M469.1,285.5l-46.8-27c-1.2-0.7-2.4-0.8-3.3-0.8c-0.9,0-2.1,0.1-3.3,0.8l-11.8,6.8c3-5.7,2-12.1-3.8-17.5
	c-1.6-1.5-3.5-2.9-5.6-4.1c-11.9-6.9-30.8-8.5-45.9-3.2l-105.2,36.8c-17.7,6.2-23.3,19.5-12.5,29.8c1.6,1.5,3.5,2.9,5.6,4.1
	c11.9,6.9,30.8,8.5,45.8,3.2l28.9-10.1l11,8.2l-32.9,19c-1.4,0.8-2.2,2.1-2.2,3.5s0.8,2.7,2.2,3.5l46.8,27c1.2,0.7,2.4,0.8,3.3,0.8
	c0.9,0,2.1-0.1,3.3-0.8l37.6-21.7c0,0,88.6-51.2,88.6-51.2c1.4-0.8,2.2-2.1,2.2-3.5C471.2,287.5,470.4,286.2,469.1,285.5z
	 M331.6,306.9l-7.9-7.1l51.6-18.1L331.6,306.9z"/>
<g>
	<path d="M333.6,249.9l2.3,112c0,0.6,0.4,1.2,1.2,1.7c1.6,0.9,4.2,0.9,5.9,0c0.8-0.5,1.2-1.1,1.2-1.7l-2.3-112H333.6z"/>
	<path d="M293.6,222.1l-5.8,112c0,0.6,0.4,1.2,1.2,1.7c1.6,0.9,4.2,0.9,5.9,0c0.8-0.5,1.2-1.1,1.2-1.7l5.8-112H293.6z"/>
	<path d="M458.5,175.2l4.6,112c0,0.6,0.4,1.2,1.2,1.7c1.6,0.9,4.2,0.9,5.9,0c0.8-0.5,1.2-1.1,1.2-1.7l-4.6-112L458.5,175.2
		L458.5,175.2z"/>
	<path d="M415,147.4v112c0,0.6,0.4,1.2,1.2,1.7c1.6,0.9,4.2,0.9,5.9,0c0.8-0.5,1.2-1.1,1.2-1.7v-112H415z"/>
	<path class="st11" d="M376.6,69.6c-6-6.4-12-11.5-18.1-12.7l-3.4,34c3.7-4,8.7-4.1,13.5-1.4c4.2,6.1,7.9,8.4,14.7,12.7l11.3-14.8
		L376.6,69.6z"/>
	<g>
		<g>
			<g>
				<path d="M361.7,234.3c-1.9,4.9-6.2,10.5-3.5,15c0,0,5.4,2.6,7.2,6.6c2.9,6.4,9,11.1,11.3,12.8c9.4,6.9,22-2.4,20.1-6.1
					c-4.6-9.3-17.5-14.1-19.9-24.5l-1.2-9.4l-14.1-1.3L361.7,234.3z"/>
				<path class="st12" d="M377.1,205.6l-0.2,32.5c-1.6,0.9-11.9,6.1-17.3,5.6c-1.4-0.1-2.4-0.7-2.9-1.7c-0.3-11.9-7.7-34.8-6.5-49
					c-14.1-13.1-19-21.3-31-36.7l-2.6,1.8c-0.3-0.4-0.6-0.8-1-1.2c-2.9-3.6-5.7-7.2-8.5-10.9l30.9-25.5l1.2-1c0.4,0.4,0.7,0.9,1,1.4
					c1.9,2.5,3.8,5,5.5,7.5c10.9,15.3,20.2,32.1,28.3,53.6C378.4,193.7,377.8,199.9,377.1,205.6z"/>
				<path d="M235.1,280.5c-1.6,5-1.9,6.4-1.2,10.1c0.7,1.9,1.5,2.8,2.3,5.5c0.9,3.3,0.8,8.9,5.7,12.2c5.9,4.6,17.3,4.9,20.8-0.1
					c0-2.4-1.6-7.8-4.6-12.1l-5.8-10.7l0.4-10.1l-16.6-3.6L235.1,280.5z"/>
				<path class="st12" d="M339.3,119.4c-0.1,0.4-0.3,0.8-0.5,1.1c-3.6,9.1,1,21.5-22.2,37.5c-1.1,0.8-2.3,1.6-3.6,2.4
					c-1.3,0.8-2.7,1.6-4.1,2.5c-7.6,23.2-15.7,44.7-24.7,61.8l-7.1,12.5l-25,48.5c-11,3.2-18.8-1.1-18.5-12.1
					c1.5-3.8,2.9-7.8,4.3-11.7c6.7-18.8,12.6-37.1,20.8-40.3l11.4-70.6c1.7-12.3,4-23.6,8.5-31.2c21.1,11.3,43.9,11.4,59.3,0.5
					C338.4,120.1,338.9,119.8,339.3,119.4z"/>
				<path class="st13" d="M359.6,243.7c-1.4-0.1-2.4-0.7-2.9-1.7c-0.3-11.9-7.7-34.8-6.5-49c-14.1-13.1-19-21.3-31-36.7l-2.6,1.8
					c-1.1,0.8-2.3,1.6-3.6,2.4l-17.2-13.6c-20.9,12.2-23.7,39.5-27.6,71.1l-30.4,44.4l0-0.3c6.7-18.8,12.6-37.1,20.8-40.3l11.4-70.6
					c1.7-12.3,4-23.6,8.5-31.2c21.1,11.3,43.9,11.4,59.3,0.5l0.1,0l0.8,0.1l1.5,0.2c1.9,2.5,3.8,5,5.5,7.5
					c-3.5,4.7-8.2,10.1-10.9,13.6c-1.1,19.5,5.5,37.1,21.2,52.4C358.7,208.9,362.3,229.6,359.6,243.7z"/>
				
					<linearGradient id="SVGID_00000016034294810063522340000016656145231223030402_" gradientUnits="userSpaceOnUse" x1="277.09" y1="347.1656" x2="369.7001" y2="347.1656" gradientTransform="matrix(1 0 0 -1 0 439.8898)">
					<stop  offset="0" style="stop-color:#00ADE3"/>
					<stop  offset="1" style="stop-color:#B00BE6"/>
				</linearGradient>
				<path style="fill:url(#SVGID_00000016034294810063522340000016656145231223030402_);" d="M368.6,79.7
					c-3.2,19.5-22.1,31.8-25.5,41.5c-0.3,0.9-0.5,1.7-0.5,2.5c-22.8,14.7-45.7,14.2-65.5-1.5c5.9-17.2,9.2-34.5,18.1-45.6
					c4.9-6.2,11.6-10.4,21.3-11.6c13.5-12,28.9-19,50.1-9.6C366.6,55.4,371.9,60.2,368.6,79.7z"/>
				<path class="st11" d="M337.7,59.2l-7.3,7c-5.2,10.2,2.4,17.7,12.8,21.5c5.9-0.8,9-5.4,12-10.2L337.7,59.2z"/>
				<path class="st15" d="M340.1,71.7c0,0-5,17.3,6.8,19.3c6.6,1.1,17.4-15.2,17.4-15.2L340.1,71.7z"/>
				<path class="st11" d="M340.1,71.7l0.4,3.5c0.3,2.6,1.7,5,3.8,6.5c3.7,2.7,11,10.1,17.4,3.4c2.6-2.8,6.1-14,6.1-14l2.1-5.1
					c0.6-8,0-15.1-4.5-19.5c-6.5-9.2-14.5-10.1-23.3-7c-4.1,2.8-6.2,6.7-7.2,11.2v12.5L340.1,71.7z"/>
				<path class="st16" d="M334.8,63.1l6.4,5.9l2.9-3.7c8.8,4,23.1,2.2,26.8-4c0,0,1.3-2.5,0.4-6.2c-0.2-1-1.7-6.9-4.5-10.3
					s-6-6.8-11.3-8.2s-10.2-0.8-14,1c-3.9,1.8-5.8,4-7.6,7.9c-1.8,3.9-1.7,10-1.3,13.3c0.4,3.3,2.8,8,2.8,8L334.8,63.1z"/>
				<path class="st11" d="M339.2,62.6c-0.8-1.1-2.3-1.8-3.5-1.3c-1.3,0.5-1.8,2.1-1.8,3.5c-0.1,2.5,0.7,5,2.3,6.9
					c0.4,0.5,0.9,1,1.5,1.3c0.6,0.3,1.4,0.3,1.9-0.1c0.5-0.4,0.7-1.1,0.8-1.8c0.2-1.6,0-3.1-0.1-4.7C340.2,65.1,340,63.7,339.2,62.6
					z"/>
				<path class="st17" d="M343.1,121.2c-0.3,0.9-0.5,1.7-0.5,2.5c-22.8,14.7-45.7,14.2-65.5-1.5c5.9-17.2,9.2-34.5,18.1-45.6
					c-1,6.3,1.1,12.2,5.1,17.8l30.9,23.5L343.1,121.2z"/>
			</g>
		</g>
	</g>
	<g>
		<path class="st2" d="M465,171.8l-42.7-24.7c-1.2-0.7-2.4-0.8-3.3-0.8s-2.1,0.1-3.3,0.8l-86.1,49.7l-27.6,16l-14.7,3.1v7.7
			c0,1.4,0.8,2.7,2.2,3.5l46.8,27c1.2,0.7,2.4,0.8,3.3,0.8c0.9,0,2.1-0.1,3.3-0.8l37.6-21.7c0,0,88.6-51.2,88.6-51.2
			c1.4-0.8,2.2-2.1,2.2-3.5V170L465,171.8z"/>
		<path class="st7" d="M329.6,189.2l-40.2,23.2c-1.4,0.8-2.2,2.1-2.2,3.5s0.8,2.7,2.2,3.5l46.8,27c1.2,0.7,2.4,0.8,3.3,0.8
			c0.9,0,2.1-0.1,3.3-0.8l37.6-21.7c0,0,88.6-51.2,88.6-51.2c1.4-0.8,2.2-2.1,2.2-3.5s-0.8-2.7-2.2-3.5l-46.8-27
			c-1.2-0.7-2.4-0.8-3.3-0.8s-2.1,0.1-3.3,0.8L329.6,189.2L329.6,189.2z"/>
		<path class="st2" d="M460.1,165.1l-39.9-23c-1.1-0.6-2.8-0.6-3.8,0L290,210.6v5.1c0,0.4,0.3,0.8,0.8,1.1l46.8,27
			c1.1,0.6,2.8,0.6,3.8,0c208.2-120.4-55.5,32,125.6-72.5c0.5-0.3,0.8-0.7,0.8-1.1v-5.1L460.1,165.1L460.1,165.1z"/>
		<g>
			<path class="st2" d="M383.1,157.1l33.3-19.2c1.1-0.6,2.8-0.6,3.8,0l39.9,23h7.7v5.1c0,0.4-0.3,0.8-0.8,1.1l-40.2,23.2
				c-1.1,0.6-2.8,0.6-3.8,0l-46.8-27c-0.5-0.3-0.8-0.7-0.8-1.1v-5.1L383.1,157.1L383.1,157.1z"/>
			<path class="st3" d="M376.2,158.2l46.8,27c1.1,0.6,2.8,0.6,3.8,0l40.2-23.2c1.1-0.6,1.1-1.6,0-2.2l-46.8-27
				c-1.1-0.6-2.8-0.6-3.8,0L376.2,156C375.1,156.6,375.1,157.6,376.2,158.2z"/>
		</g>
		<g>
			<polygon class="st18" points="425.7,189.1 378.4,216.4 328.1,187.3 375.4,160.1 			"/>
			<g>
				<polygon class="st5" points="352.7,194.4 352.2,194.7 337.1,186 337.7,185.7 				"/>
				<polygon class="st5" points="353.9,193.7 353.3,194 338.3,185.3 338.8,185 				"/>
			</g>
			<g>
				<polygon class="st5" points="415.9,189.5 415.4,189.8 400.3,181.1 400.9,180.8 				"/>
				<polygon class="st5" points="417.1,188.8 416.5,189.1 401.5,180.4 402,180.1 				"/>
			</g>
			<g>
				<polygon class="st5" points="411.3,192.2 410.7,192.5 395.7,183.8 396.2,183.5 				"/>
				<polygon class="st5" points="412.4,191.5 411.9,191.8 396.8,183.1 397.4,182.8 				"/>
			</g>
			<polygon class="st3" points="363.7,199.2 360.7,200.9 355,197.6 357.9,195.9 			"/>
			<g>
				<polygon class="st5" points="358,191.3 357.5,191.6 342.4,182.9 343,182.6 				"/>
				<polygon class="st5" points="359.2,190.6 358.6,191 343.6,182.3 344.1,182 				"/>
			</g>
			<polygon class="st2" points="369,196.1 366,197.8 360.3,194.5 363.2,192.8 			"/>
			<g>
				<polygon class="st5" points="363.3,188.3 362.8,188.6 347.7,179.9 348.3,179.6 				"/>
				<polygon class="st5" points="364.5,187.6 364,187.9 348.9,179.2 349.4,178.9 				"/>
			</g>
			<polygon class="st2" points="374.3,193.1 371.3,194.8 365.6,191.4 368.5,189.7 			"/>
			<g>
				<polygon class="st5" points="368.6,185.2 368.1,185.5 353,176.8 353.6,176.5 				"/>
				<polygon class="st5" points="369.8,184.5 369.2,184.8 354.2,176.1 354.7,175.8 				"/>
			</g>
			<polygon class="st2" points="379.6,190 376.6,191.7 370.9,188.4 373.8,186.7 			"/>
			<g>
				<polygon class="st5" points="373.9,182.1 373.4,182.5 358.3,173.8 358.9,173.4 				"/>
				<polygon class="st5" points="375.1,181.5 374.5,181.8 359.5,173.1 360,172.8 				"/>
			</g>
			<polygon class="st2" points="384.9,186.9 382,188.6 376.2,185.3 379.1,183.6 			"/>
		</g>
		<g>
			<g>
				<path class="st2" d="M297.7,206.4l33.3-19.2c1.1-0.6,2.8-0.6,3.8,0l39.9,23h7.7v5.1c0,0.4-0.3,0.8-0.8,1.1l-40.2,23.2
					c-1.1,0.6-2.8,0.6-3.8,0l-46.8-27c-0.5-0.3-0.8-0.7-0.8-1.1v-5.1H297.7z"/>
				<path class="st3" d="M290.8,207.6l46.8,27c1.1,0.6,2.8,0.6,3.8,0l40.2-23.2c1.1-0.6,1.1-1.6,0-2.2l-46.8-27
					c-1.1-0.6-2.8-0.6-3.8,0l-40.2,23.2C289.7,205.9,289.7,206.9,290.8,207.6z"/>
			</g>
		</g>
		<g>
			<g class="st19">
				<g>
					<polygon class="st20" points="366.7,189.4 368.9,188.1 371.1,190.6 368.9,191.9 					"/>
				</g>
				<g>
					<polygon class="st7" points="368.9,191.9 371.1,190.6 373.1,192.2 370.9,193.5 					"/>
				</g>
				<g>
					<polygon class="st20" points="370.9,193.5 373.1,192.2 373.5,193.1 371.2,194.4 					"/>
				</g>
				<g>
					<polygon class="st2" points="366.7,189.4 368.9,191.9 370.9,193.5 371.2,194.4 366.1,191.5 					"/>
				</g>
			</g>
		</g>
		<g>
			<g class="st19">
				<g>
					<polygon class="st8" points="372.1,186.3 374.4,185 376.6,187.4 374.3,188.8 					"/>
				</g>
				<g>
					<polygon class="st21" points="374.3,188.8 376.6,187.4 378.5,189.1 376.3,190.4 					"/>
				</g>
				<g>
					<polygon class="st22" points="376.3,190.4 378.5,189.1 378.9,190 376.6,191.3 					"/>
				</g>
				<g>
					<polygon class="st2" points="372.1,186.3 374.3,188.8 376.3,190.4 376.6,191.3 371.6,188.4 					"/>
				</g>
			</g>
		</g>
		<g>
			<g class="st19">
				<g>
					<polygon class="st20" points="377.5,183.2 379.8,181.9 382,184.3 379.8,185.6 					"/>
				</g>
				<g>
					<polygon class="st7" points="379.8,185.6 382,184.3 384,185.9 381.7,187.2 					"/>
				</g>
				<g>
					<polygon class="st20" points="381.7,187.2 384,185.9 384.3,186.8 382.1,188.1 					"/>
				</g>
				<g>
					<polygon class="st2" points="377.5,183.2 379.8,185.6 381.7,187.2 382.1,188.1 377,185.2 					"/>
				</g>
			</g>
		</g>
		<g>
			<g class="st19">
				<g>
					<polygon class="st21" points="361.2,193.9 363.5,192.6 365.5,193.2 363.2,194.6 					"/>
				</g>
				<g>
					<polygon class="st22" points="365.4,194.7 367.7,193.4 368.2,196.1 366,197.4 					"/>
				</g>
				<g>
					<polygon class="st8" points="363.2,194.6 365.5,193.2 367.7,193.4 365.4,194.7 					"/>
				</g>
				<g>
					<polygon class="st2" points="365.4,194.7 366,197.4 360.9,194.4 361.2,193.9 363.2,194.6 					"/>
				</g>
			</g>
		</g>
		<g>
			<polygon class="st2" points="359.2,189.2 355,191.6 352.9,190.4 352.9,188.9 357.1,188 359.2,188.3 			"/>
			<polygon class="st7" points="359.2,188.3 355,190.8 352.9,188.9 357.1,186.4 			"/>
			<polygon class="st18" points="353.8,188.9 357,187.1 358.3,188.2 355,190.1 			"/>
		</g>
		<g>
			<polygon class="st2" points="357.7,181.9 353.5,184.3 351.4,183.1 351.4,181.6 355.6,180.7 357.7,181 			"/>
			<polygon class="st7" points="357.7,181 353.5,183.5 351.4,181.6 355.6,179.1 			"/>
			<polygon class="st18" points="352.3,181.6 355.5,179.8 356.8,180.9 353.5,182.8 			"/>
		</g>
		<g>
			<polygon class="st2" points="367.2,181.3 363,183.8 360.9,182.6 360.9,181 365.2,180.1 367.2,180.4 			"/>
			<polygon class="st7" points="367.2,180.4 363,182.9 360.9,181 365.2,178.5 			"/>
			<polygon class="st18" points="361.9,181.1 365.1,179.2 366.3,180.3 363.1,182.2 			"/>
		</g>
		<g>
			<polygon class="st2" points="363.5,173.3 359.3,175.7 357.2,174.5 357.2,172.9 361.4,172.1 363.5,172.4 			"/>
			<polygon class="st7" points="363.5,172.4 359.3,174.9 357.2,172.9 361.4,170.5 			"/>
			<polygon class="st18" points="358.1,173.1 361.4,171.2 362.6,172.3 359.4,174.2 			"/>
		</g>
		<g>
			<polygon class="st2" points="410.5,188.7 406.2,191.2 404.1,190 404.1,188.4 408.4,187.5 410.5,187.9 			"/>
			<polygon class="st8" points="410.5,187.9 406.2,190.3 404.1,188.4 408.4,185.9 			"/>
			<polygon class="st18" points="405,188.5 408.3,186.6 409.5,187.8 406.3,189.6 			"/>
		</g>
		<g>
			<polygon class="st2" points="408.6,182.9 404.3,185.4 402.2,184.2 402.2,182.6 406.5,181.7 408.6,182.1 			"/>
			<polygon class="st7" points="408.6,182.1 404.3,184.5 402.2,182.6 406.5,180.1 			"/>
			<polygon class="st18" points="403.2,182.7 406.4,180.8 407.6,181.9 404.4,183.8 			"/>
		</g>
		<g>
			<g>
				<ellipse class="st2" cx="417.9" cy="156.3" rx="27.7" ry="16"/>
				<ellipse class="st23" cx="417.9" cy="154.6" rx="25.8" ry="14.9"/>
				<g>
					<ellipse cx="417.9" cy="153.6" rx="24.8" ry="14.3"/>
					<path class="st5" d="M423.3,150.4c3,1.7,3,4.5,0,6.2s-7.8,1.7-10.8,0s-3-4.5,0-6.2C415.5,148.7,420.3,148.7,423.3,150.4z"/>
					<path class="st24" d="M422.9,150.6c2.8,1.6,2.8,4.2,0,5.8s-7.3,1.6-10,0c-2.8-1.6-2.8-4.2,0-5.8
						C415.7,149.1,420.2,149.1,422.9,150.6z"/>
					<path class="st5" d="M418.7,153.1c0.4,0.2,0.4,0.6,0,0.9c-0.4,0.2-1.1,0.2-1.5,0s-0.4-0.6,0-0.9
						C417.6,152.9,418.3,152.9,418.7,153.1z"/>
					<path class="st25" d="M418.4,151.3c-0.2-0.2-0.6-0.2-0.9,0c-0.1,0.1-0.2,0.3-0.2,0.4v1.9c0,0.1,0.1,0.2,0.2,0.3
						c0.2,0.1,0.6,0.1,0.9,0c0.1-0.1,0.2-0.2,0.2-0.3v-1.9C418.5,151.6,418.5,151.4,418.4,151.3z"/>
				</g>
				<path class="st26" d="M425.3,151.4c0.5,0.7,0.8,1.4,0.8,2.1c0,0.7-0.2,1.4-0.7,2l14,4.4c1.8-2,2.8-4.2,2.8-6.4
					c0-2.1-0.8-4.1-2.3-5.9L425.3,151.4z"/>
				<path class="st26" d="M409.7,153.6c0-0.9,0.4-1.8,1.1-2.6l-13.9-4.4c-2.2,2.1-3.3,4.5-3.3,6.9c0,1.9,0.7,3.8,2,5.4l14.6-3.7
					C409.9,154.7,409.7,154.1,409.7,153.6z"/>
			</g>
			<path d="M447.7,159.7v1.5c0,1.1,0.7,2.1,2.1,3c2.8,1.6,7.4,1.6,10.3,0c1.4-0.8,2.1-1.9,2.1-3v-1.5H447.7z"/>
			<path class="st23" d="M460.1,156.7c2.8,1.6,2.8,4.3,0,5.9s-7.4,1.6-10.3,0s-2.8-4.3,0-5.9C452.7,155.1,457.3,155.1,460.1,156.7z"
				/>
			<g>
				<path d="M449.9,157.7v1.8c0,0.8,0.5,1.5,1.5,2.1c2,1.2,5.3,1.2,7.3,0c1-0.6,1.5-1.3,1.5-2.1v-1.8H449.9z"/>
				<path class="st27" d="M458.6,155.6c2,1.2,2,3,0,4.2s-5.3,1.2-7.3,0c-2-1.2-2-3,0-4.2C453.4,154.5,456.6,154.5,458.6,155.6z"/>
			</g>
			<g>
				<path d="M417,133v2.9c0,0.2,0.1,0.3,0.3,0.5c0.5,0.3,1.2,0.3,1.6,0c0.2-0.1,0.3-0.3,0.3-0.5V133H417z"/>
				<path class="st24" d="M419,132.5c0.5,0.3,0.5,0.7,0,0.9c-0.5,0.3-1.2,0.3-1.6,0c-0.5-0.3-0.5-0.7,0-0.9
					C417.8,132.3,418.5,132.3,419,132.5z"/>
			</g>
			<g>
				<path d="M381,156.2v1.2c0,0.5,0.4,1.1,1,1.5c1.4,0.8,3.7,0.8,5.1,0c0.7-0.4,1-0.9,1-1.5v-1.2H381z"/>
				<path class="st24" d="M387.1,154.8c1.4,0.8,1.4,2.1,0,2.9s-3.7,0.8-5.1,0c-1.4-0.8-1.4-2.1,0-2.9
					C383.4,153.9,385.7,153.9,387.1,154.8z"/>
			</g>
			<g>
				<polygon class="st5" points="426.9,181 424.8,182.2 421.6,180.4 423.7,179.2 				"/>
				<polygon class="st5" points="432.9,177.5 430.9,178.7 427.7,176.9 429.8,175.7 				"/>
				<polygon class="st5" points="435.5,176 433.5,177.2 430.3,175.4 432.3,174.2 				"/>
				<polygon class="st7" points="438.1,174.5 436.1,175.7 432.9,173.9 434.9,172.7 				"/>
				<polygon class="st8" points="430.4,179 427.3,180.8 424.1,178.9 427.2,177.2 				"/>
			</g>
			<polygon class="st28" points="414.9,162.4 414.9,161.2 433.7,159.8 450.9,156.9 451.1,158.1 433.9,161 			"/>
			<g>
				<g class="st19">
					<g>
						<polygon class="st25" points="462.9,153.4 464.3,156 459.2,156.4 457.8,153.8 						"/>
					</g>
					<g>
						<polygon class="st29" points="457.8,153.8 459.2,156.4 457.9,154.6 456.5,151.9 						"/>
					</g>
					<g>
						<polygon class="st28" points="447.5,154.2 448.9,156.8 447.9,159 446.5,156.4 						"/>
					</g>
					<g>
						<polygon class="st25" points="456.5,151.9 457.9,154.6 448.9,156.8 447.5,154.2 						"/>
					</g>
					<g>
						<path d="M457.9,154.6l1.4,1.9l5-0.4l0,1.9l-3.5,0.6l-8.4,1.4l-3.1,0.5c-0.5-0.6-0.8-0.8-1.3-1.4l0.9-2.1L457.9,154.6z"/>
					</g>
				</g>
			</g>
			<g>
				<g class="st19">
					<polygon class="st23" points="417.9,161.6 418.2,159.9 418.2,161.9 417.9,163.5 414.9,163.8 414.9,161.8 					"/>
					<g>
						<polygon class="st23" points="408.9,161.9 408.9,163.1 414.9,163.8 414.9,161.8 						"/>
					</g>
					<g>
						<polygon class="st27" points="415.3,159.4 409.1,160.3 408.9,161.9 414.9,161.8 417.9,161.6 418.2,159.9 						"/>
					</g>
				</g>
			</g>
		</g>
		<g>
			<g>
				<path class="st5" d="M387.2,188.3c-0.8,0.5-0.8,1.2,0,1.7s2.1,0.5,3,0c0.8-0.5,0.8-1.2,0-1.7
					C389.4,187.8,388.1,187.8,387.2,188.3z"/>
				<path class="st2" d="M386.9,188.8l0.7-3h2.3l0.7,3c0.1,0.3-0.1,0.7-0.5,0.9c-0.7,0.4-1.9,0.4-2.6,0
					C387,189.5,386.8,189.1,386.9,188.8z"/>
				<ellipse class="st5" cx="388.7" cy="185.9" rx="1.2" ry="0.7"/>
			</g>
			<g>
				<path class="st5" d="M381.5,191.6c-0.8,0.5-0.8,1.2,0,1.7s2.1,0.5,3,0c0.8-0.5,0.8-1.2,0-1.7
					C383.7,191.1,382.4,191.1,381.5,191.6z"/>
				<path class="st2" d="M381.2,192.1l0.7-3h2.3l0.7,3c0.1,0.3-0.1,0.7-0.5,0.9c-0.7,0.4-1.9,0.4-2.6,0
					C381.3,192.8,381.1,192.4,381.2,192.1z"/>
				<path class="st5" d="M382.2,188.7c-0.5,0.3-0.5,0.7,0,1c0.5,0.3,1.2,0.3,1.7,0s0.5-0.7,0-1C383.4,188.5,382.7,188.5,382.2,188.7
					z"/>
			</g>
			<g>
				<path class="st5" d="M375.8,194.9c-0.8,0.5-0.8,1.2,0,1.7s2.1,0.5,3,0c0.8-0.5,0.8-1.2,0-1.7C378,194.4,376.7,194.4,375.8,194.9
					z"/>
				<path class="st2" d="M375.5,195.4l0.7-3h2.3l0.7,3c0.1,0.3-0.1,0.7-0.5,0.9c-0.7,0.4-1.9,0.4-2.6,0
					C375.6,196.1,375.4,195.7,375.5,195.4z"/>
				<path class="st5" d="M376.5,192c-0.5,0.3-0.5,0.7,0,1c0.5,0.3,1.2,0.3,1.7,0s0.5-0.7,0-1C377.7,191.8,377,191.8,376.5,192z"/>
			</g>
			<g>
				<path class="st5" d="M370.1,198.2c-0.8,0.5-0.8,1.2,0,1.7s2.1,0.5,3,0c0.8-0.5,0.8-1.2,0-1.7S371,197.7,370.1,198.2z"/>
				<path class="st2" d="M369.8,198.7l0.7-3h2.3l0.7,3c0.1,0.3-0.1,0.7-0.5,0.9c-0.7,0.4-1.9,0.4-2.6,0
					C369.9,199.3,369.7,199,369.8,198.7z"/>
				<path class="st5" d="M370.8,195.3c-0.5,0.3-0.5,0.7,0,1c0.5,0.3,1.2,0.3,1.7,0s0.5-0.7,0-1S371.2,195.1,370.8,195.3z"/>
			</g>
			<g>
				<path class="st5" d="M393.7,192.1c-0.8,0.5-0.8,1.2,0,1.7s2.1,0.5,3,0c0.8-0.5,0.8-1.2,0-1.7S394.5,191.7,393.7,192.1z"/>
				<path class="st2" d="M393.4,192.7l0.7-3h2.3l0.7,3c0.1,0.3-0.1,0.7-0.5,0.9c-0.7,0.4-1.9,0.4-2.6,0
					C393.5,193.3,393.3,193,393.4,192.7z"/>
				<ellipse class="st5" cx="395.2" cy="189.8" rx="1.2" ry="0.7"/>
			</g>
			<g>
				<path class="st5" d="M388,195.4c-0.8,0.5-0.8,1.2,0,1.7s2.1,0.5,3,0c0.8-0.5,0.8-1.2,0-1.7C390.2,195,388.8,195,388,195.4z"/>
				<path class="st2" d="M387.6,196l0.7-3h2.3l0.7,3c0.1,0.3-0.1,0.7-0.5,0.9c-0.7,0.4-1.9,0.4-2.6,0
					C387.8,196.6,387.6,196.3,387.6,196z"/>
				<path class="st5" d="M388.7,192.6c-0.5,0.3-0.5,0.7,0,1c0.5,0.3,1.2,0.3,1.7,0s0.5-0.7,0-1C389.9,192.4,389.1,192.4,388.7,192.6
					z"/>
			</g>
			<g>
				<path class="st5" d="M382.3,198.7c-0.8,0.5-0.8,1.2,0,1.7s2.1,0.5,3,0c0.8-0.5,0.8-1.2,0-1.7
					C384.5,198.3,383.1,198.3,382.3,198.7z"/>
				<path class="st2" d="M381.9,199.3l0.7-3h2.3l0.7,3c0.1,0.3-0.1,0.7-0.5,0.9c-0.7,0.4-1.9,0.4-2.6,0
					C382,199.9,381.9,199.6,381.9,199.3z"/>
				<path class="st7" d="M383,195.9c-0.5,0.3-0.5,0.7,0,1c0.5,0.3,1.2,0.3,1.7,0s0.5-0.7,0-1S383.4,195.6,383,195.9z"/>
			</g>
			<g>
				<path class="st5" d="M376.6,202c-0.8,0.5-0.8,1.2,0,1.7s2.1,0.5,3,0c0.8-0.5,0.8-1.2,0-1.7C378.7,201.6,377.4,201.6,376.6,202z"
					/>
				<path class="st2" d="M376.2,202.6l0.7-3h2.3l0.7,3c0.1,0.3-0.1,0.7-0.5,0.9c-0.7,0.4-1.9,0.4-2.6,0
					C376.3,203.2,376.2,202.9,376.2,202.6z"/>
				<path class="st7" d="M377.2,199.2c-0.5,0.3-0.5,0.7,0,1c0.5,0.3,1.2,0.3,1.7,0s0.5-0.7,0-1C378.5,198.9,377.7,198.9,377.2,199.2
					z"/>
			</g>
			<g>
				<path class="st5" d="M400.2,196c-0.8,0.5-0.8,1.2,0,1.7s2.1,0.5,3,0c0.8-0.5,0.8-1.2,0-1.7S401,195.6,400.2,196z"/>
				<path class="st2" d="M399.8,196.5l0.7-3h2.3l0.7,3c0.1,0.3-0.1,0.7-0.5,0.9c-0.7,0.4-1.9,0.4-2.6,0
					C399.9,197.2,399.8,196.9,399.8,196.5z"/>
				<path class="st7" d="M400.8,193.2c-0.5,0.3-0.5,0.7,0,1c0.5,0.3,1.2,0.3,1.7,0s0.5-0.7,0-1S401.3,192.9,400.8,193.2z"/>
			</g>
			<g>
				<path class="st5" d="M394.5,199.3c-0.8,0.5-0.8,1.2,0,1.7s2.1,0.5,3,0c0.8-0.5,0.8-1.2,0-1.7
					C396.6,198.9,395.3,198.9,394.5,199.3z"/>
				<path class="st2" d="M394.1,199.8l0.7-3h2.3l0.7,3c0.1,0.3-0.1,0.7-0.5,0.9c-0.7,0.4-1.9,0.4-2.6,0
					C394.2,200.5,394,200.2,394.1,199.8z"/>
				<ellipse class="st7" cx="396" cy="197" rx="1.2" ry="0.7"/>
			</g>
			<g>
				<path class="st5" d="M388.8,202.6c-0.8,0.5-0.8,1.2,0,1.7s2.1,0.5,3,0c0.8-0.5,0.8-1.2,0-1.7
					C390.9,202.1,389.6,202.1,388.8,202.6z"/>
				<path class="st2" d="M388.4,203.1l0.7-3h2.3l0.7,3c0.1,0.3-0.1,0.7-0.5,0.9c-0.7,0.4-1.9,0.4-2.6,0
					C388.5,203.8,388.3,203.4,388.4,203.1z"/>
				<path class="st5" d="M389.4,199.8c-0.5,0.3-0.5,0.7,0,1c0.5,0.3,1.2,0.3,1.7,0s0.5-0.7,0-1S389.9,199.5,389.4,199.8z"/>
			</g>
			<g>
				<path class="st5" d="M383.1,205.9c-0.8,0.5-0.8,1.2,0,1.7s2.1,0.5,3,0c0.8-0.5,0.8-1.2,0-1.7S383.9,205.4,383.1,205.9z"/>
				<path class="st2" d="M382.7,206.4l0.7-3h2.3l0.7,3c0.1,0.3-0.1,0.7-0.5,0.9c-0.7,0.4-1.9,0.4-2.6,0
					C382.8,207.1,382.6,206.8,382.7,206.4z"/>
				<path class="st5" d="M383.7,203.1c-0.5,0.3-0.5,0.7,0,1c0.5,0.3,1.2,0.3,1.7,0s0.5-0.7,0-1C384.9,202.8,384.2,202.8,383.7,203.1
					z"/>
			</g>
		</g>
		<g>
			<g>
				<ellipse class="st2" cx="332.6" cy="205.8" rx="27.7" ry="16"/>
				<ellipse class="st23" cx="332.6" cy="204.1" rx="25.8" ry="14.9"/>
				<g>
					<ellipse cx="332.6" cy="203.1" rx="24.8" ry="14.3"/>
					<path class="st5" d="M338,199.9c3,1.7,3,4.5,0,6.2s-7.8,1.7-10.8,0s-3-4.5,0-6.2C330.2,198.2,335,198.2,338,199.9z"/>
					<path class="st24" d="M337.6,200.2c2.8,1.6,2.8,4.2,0,5.8s-7.3,1.6-10,0c-2.8-1.6-2.8-4.2,0-5.8S334.9,198.6,337.6,200.2z"/>
					<path class="st5" d="M333.4,202.6c0.4,0.2,0.4,0.6,0,0.9c-0.4,0.2-1.1,0.2-1.5,0s-0.4-0.6,0-0.9S333,202.4,333.4,202.6z"/>
					<path class="st25" d="M333.1,200.8c-0.2-0.2-0.6-0.2-0.9,0c-0.1,0.1-0.2,0.3-0.2,0.4v1.9c0,0.1,0.1,0.2,0.2,0.3
						c0.2,0.1,0.6,0.1,0.9,0c0.1-0.1,0.2-0.2,0.2-0.3v-1.9C333.3,201.1,333.2,200.9,333.1,200.8z"/>
				</g>
				<path class="st26" d="M340,200.9c0.5,0.7,0.8,1.4,0.8,2.1c0,0.7-0.2,1.4-0.7,2l14,4.4c1.8-2,2.8-4.2,2.8-6.4
					c0-2.1-0.8-4.1-2.3-5.9L340,200.9z"/>
				<path class="st26" d="M324.4,203.1c0-0.9,0.4-1.8,1.1-2.6l-13.9-4.4c-2.2,2.1-3.3,4.5-3.3,6.9c0,1.9,0.7,3.8,2,5.4l14.6-3.7
					C324.6,204.2,324.4,203.7,324.4,203.1z"/>
			</g>
			<path d="M362.4,209.2v1.5c0,1.1,0.7,2.1,2.1,3c2.8,1.6,7.4,1.6,10.3,0c1.4-0.8,2.1-1.9,2.1-3v-1.5H362.4z"/>
			<path class="st23" d="M374.8,206.2c2.8,1.6,2.8,4.3,0,5.9c-2.8,1.6-7.4,1.6-10.3,0s-2.8-4.3,0-5.9
				C367.4,204.6,372,204.6,374.8,206.2z"/>
			<g>
				<path d="M364.6,207.2v1.8c0,0.8,0.5,1.5,1.5,2.1c2,1.2,5.3,1.2,7.3,0c1-0.6,1.5-1.3,1.5-2.1v-1.8H364.6z"/>
				<path class="st27" d="M373.3,205.1c2,1.2,2,3,0,4.2s-5.3,1.2-7.3,0c-2-1.2-2-3,0-4.2C368.1,204,371.3,204,373.3,205.1z"/>
			</g>
			<g>
				<path d="M331.7,182.5v2.9c0,0.2,0.1,0.3,0.3,0.5c0.5,0.3,1.2,0.3,1.6,0c0.2-0.1,0.3-0.3,0.3-0.5v-2.9H331.7z"/>
				<path class="st24" d="M333.7,182c0.5,0.3,0.5,0.7,0,0.9c-0.5,0.3-1.2,0.3-1.6,0c-0.5-0.3-0.5-0.7,0-0.9
					C332.5,181.8,333.2,181.8,333.7,182z"/>
			</g>
			<g>
				<path d="M295.7,205.7v1.2c0,0.5,0.4,1.1,1,1.5c1.4,0.8,3.7,0.8,5.1,0c0.7-0.4,1-0.9,1-1.5v-1.2H295.7z"/>
				<path class="st24" d="M301.8,204.3c1.4,0.8,1.4,2.1,0,2.9s-3.7,0.8-5.1,0c-1.4-0.8-1.4-2.1,0-2.9
					C298.1,203.4,300.4,203.4,301.8,204.3z"/>
			</g>
			<g>
				<polygon class="st5" points="341.6,230.5 339.5,231.7 336.4,229.9 338.4,228.7 				"/>
				<polygon class="st5" points="347.7,227 345.6,228.2 342.4,226.4 344.5,225.2 				"/>
				<polygon class="st5" points="350.2,225.5 348.2,226.7 345,224.9 347.1,223.7 				"/>
				<polygon class="st7" points="352.9,224 350.8,225.2 347.6,223.4 349.7,222.2 				"/>
				<polygon class="st8" points="345.1,228.5 342,230.3 338.9,228.4 341.9,226.7 				"/>
			</g>
			<polygon class="st28" points="329.6,211.9 329.6,210.7 348.4,209.4 365.6,206.4 365.8,207.6 348.6,210.5 			"/>
			<g>
				<g class="st19">
					<g>
						<polygon class="st25" points="377.6,202.9 379,205.6 374,205.9 372.5,203.3 						"/>
					</g>
					<g>
						<polygon class="st29" points="372.5,203.3 374,205.9 372.6,204.1 371.2,201.4 						"/>
					</g>
					<g>
						<polygon class="st28" points="362.2,203.7 363.6,206.4 362.7,208.5 361.2,205.9 						"/>
					</g>
					<g>
						<polygon class="st25" points="371.2,201.4 372.6,204.1 363.6,206.4 362.2,203.7 						"/>
					</g>
					<g>
						<path d="M372.6,204.1l1.4,1.9l5-0.4l0,1.9l-3.5,0.6l-8.4,1.4l-3.1,0.5c-0.5-0.6-0.8-0.8-1.3-1.4l0.9-2.1L372.6,204.1z"/>
					</g>
				</g>
			</g>
			<g>
				<g class="st19">
					<polygon class="st23" points="332.6,211.1 332.9,209.4 332.9,211.4 332.6,213 329.6,213.3 329.6,211.3 					"/>
					<g>
						<polygon class="st23" points="323.6,211.4 323.6,212.6 329.6,213.3 329.6,211.3 						"/>
					</g>
					<g>
						<polygon class="st27" points="330,208.9 323.8,209.8 323.6,211.4 329.6,211.3 332.6,211.1 332.9,209.4 						"/>
					</g>
				</g>
			</g>
		</g>
		<g>
			<g>
				<path class="st2" d="M380.5,175.3v1.9c0,0.9,0.6,1.9,1.8,2.6c2.5,1.4,6.4,1.4,8.9,0c1.2-0.7,1.8-1.6,1.8-2.6v-1.9H380.5z"/>
				<path class="st2" d="M391.2,172.7c2.5,1.4,2.5,3.7,0,5.1c-2.5,1.4-6.4,1.4-8.9,0c-2.5-1.4-2.5-3.7,0-5.1
					C384.8,171.3,388.8,171.3,391.2,172.7z"/>
			</g>
			<path class="st24" d="M390.5,173.1c2.1,1.2,2.1,3.1,0,4.3s-5.4,1.2-7.5,0c-2.1-1.2-2.1-3.1,0-4.3
				C385.1,171.9,388.5,171.9,390.5,173.1z"/>
			<path class="st5" d="M387.3,177c0.3,0.1,0.3,0.4,0,0.6c-0.3,0.1-0.7,0.1-1,0s-0.3-0.4,0-0.6C386.6,176.8,387,176.8,387.3,177z"/>
		</g>
		<g>
			<g>
				<path class="st2" d="M368,168.2v1.9c0,0.9,0.6,1.9,1.8,2.6c2.5,1.4,6.4,1.4,8.9,0c1.2-0.7,1.8-1.6,1.8-2.6v-1.9H368z"/>
				<path class="st2" d="M378.7,165.6c2.5,1.4,2.5,3.7,0,5.1c-2.5,1.4-6.4,1.4-8.9,0c-2.5-1.4-2.5-3.7,0-5.1
					C372.3,164.2,376.2,164.2,378.7,165.6z"/>
			</g>
			<path class="st24" d="M378,166c2.1,1.2,2.1,3.1,0,4.3s-5.4,1.2-7.5,0c-2.1-1.2-2.1-3.1,0-4.3S375.9,164.8,378,166z"/>
			<path class="st5" d="M377,166c0.3,0.1,0.3,0.4,0,0.6c-0.3,0.1-0.7,0.1-1,0s-0.3-0.4,0-0.6S376.8,165.8,377,166z"/>
		</g>
	</g>
	<path class="st11" d="M406.1,129.5l0.7,1.2l-0.2,5.9l1.8,4.1l0.9,2.6l2.3,2.5c1.2,1,2.3-0.4,1.6-2.1l-1.5-2.6l0.1-2.8
		c1.6-0.8,3.1-0.6,4.7,0.4c0,0,1,3.4,1.1,3.6s0.7,3.3,0.7,3.3c0.4,2.7,2.5,2.5,2.4,0.3l-0.5-4l-0.3-3.1l2.4,3.8l1.2,3.3
		c0.8,1.9,2.5,1.7,2.3-0.1l-0.9-3l-1.1-2.9l2.4,2.8l0.7,2.5c0.2,0.7,0.8,1.5,1.5,1.5c0.7,0,1-0.8,0.7-1.4c0.5-0.3,0.4-1.2,0.1-1.7
		l-2-3.9l-6.5-6.9l-6.2-5l-1.7-2.6C410.5,122.7,404.9,126.8,406.1,129.5z"/>
	<path class="st11" d="M400.9,93.5l-6.3-6.2l-11.3,14.8c2.1,1.3,4.5,2.9,7.3,4.8c6.1,9.2,9.4,13.6,16.1,23.8
		c1.1-2.9,5.2-4.9,7.8-2.8C411,112.4,409.4,102,400.9,93.5z"/>
	<path class="st11" d="M318.1,165.5l2.7,6.5c2.6,4.5,5.8,6.5,9.2,7.9l2.6,3.9l1.1,4.9c0.9,3.1,2.4,2,2.3-0.3l-0.4-3.1l-1.5-4.9
		l1.4-0.2l2.3,1.8l2.8,3.6l0.5,1.5c0.3,0.8,1.1,1.3,1.9,1.3l0.2,0l0.3,0.3c0.5,0.5,1.2,0.6,1.8,0.2c0.6-0.4,0.9-1.2,0.8-1.9
		l-0.5-3.4l-1.9-3.7l2.2,1.4l1.4,2.2l0.6,2.1c0.8,2.1,2.2,1.1,2.2-0.7l-0.6-2.9l-2.8-4.7l-5.5-4.5l-12-4.9l-4.1-5.3
		C322.4,158.8,316.2,162.2,318.1,165.5z"/>
	<path class="st11" d="M297.4,87.3l-0.4,39.6c0.1,6.1,0.3,9.8,6.7,19.1c7.4,12.9,13,19.5,17.5,26.8c0.7-2.8,4.2-6.1,8-4.8L314,131.3
		l5.8-30.9C323.7,77.7,298.2,62.8,297.4,87.3z"/>
	<g>
		<g>
			<path d="M327.4,62.2c0.4-5.9,5-8.6,10.3-6c5.3,2.6,9.3,9.5,8.9,15.4c-0.4,5.9-5,8.6-10.3,6C331,75.1,327,68.2,327.4,62.2z"/>
			<path class="st2" d="M339.1,77.6l1.1-0.6c1.3-0.8,2.1-2.4,2.1-4.7c0-4.6-3.2-10.3-7.3-12.6c-2-1.2-3.8-1.3-5.1-0.5l-1.1,0.6
				L339.1,77.6z"/>
			<path class="st3" d="M326.8,64.5c0-4.6,3.2-6.5,7.3-4.2s7.3,7.9,7.3,12.6s-3.2,6.5-7.3,4.2C330,74.8,326.8,69.1,326.8,64.5z"/>
		</g>
		<g>
			<path class="st23" d="M355.1,48.3c0-4.6,3.2-6.5,7.3-4.2s7.3,7.9,7.3,12.6s-3.2,6.5-7.3,4.2C358.4,58.5,355.1,52.9,355.1,48.3z"
				/>
			<g>
				<path class="st2" d="M369,59.2l1.7-1c1.2-0.7,1.9-2.1,1.9-4.2c0-4.1-2.9-9.1-6.4-11.1c-1.8-1-3.4-1.1-4.5-0.5l-1.7,1L369,59.2z"
					/>
				<path class="st3" d="M370.9,55c0,4.1-2.9,5.8-6.4,3.7c-3.5-2-6.4-7-6.4-11.1c0-3.7,2.3-5.4,5.4-4.2c0.3,0.1,0.7,0.3,1,0.5
					c1.9,1.1,3.6,3,4.8,5.2C370.2,51,370.9,53.1,370.9,55z"/>
			</g>
			<path d="M351.3,48.6c0.4-5.9,5-8.6,10.3-6c5.3,2.6,9.3,9.5,8.9,15.4c-0.4,5.9-5,8.6-10.3,6C354.9,61.4,350.9,54.5,351.3,48.6z"/>
			<path d="M363,64l1.1-0.6c1.3-0.8,2.1-2.4,2.1-4.7c0-4.6-3.2-10.3-7.3-12.6c-2-1.2-3.8-1.3-5.1-0.5l-1.1,0.6L363,64z"/>
			<path class="st3" d="M358.4,46.5c0.3,0.1,0.6,0.3,0.9,0.4c3.5,2,6.4,7,6.4,11.1c0,0.3,0,0.7-0.1,1c-0.4,3.4-3.1,4.6-6.4,2.8
				c-3.5-2-6.4-7-6.4-11.1C352.8,46.8,355.2,45.2,358.4,46.5z"/>
			<path class="st30" d="M358.4,46.5c0.3,0.1,0.6,0.3,0.9,0.4c3.5,2,6.4,7,6.4,11.1c0,0.3,0,0.7-0.1,1c-0.9,1.3-2.6,1.5-4.6,0.4
				c-2.9-1.7-5.3-5.8-5.3-9.1C355.7,48,356.8,46.6,358.4,46.5z"/>
		</g>
		<g>
			<path d="M369.2,49.1c-1.2-2.2-2.9-4.1-4.8-5.2c-0.4-0.2-0.7-0.4-1-0.5c0.1-4.1-1.8-7.4-3.3-9.5c-2.4-0.2-5.1,0.4-8,2.1
				c-9,5.2-17.1,18-17.5,29.4l-0.8,0.5l-4.9-2.8c0.4-12.8,6.8-26.8,16.9-32.7c4.8-2.8,8.9-3,12-1.3l6.3,3.6
				C369.5,35.9,369.4,46.3,369.2,49.1z"/>
			<path class="st25" d="M357.8,29.1c-3.1-1.8-7.2-1.5-12,1.2c-10.2,5.9-16.5,19.9-16.9,32.7l4.8,2.8c0.4-12.8,8.2-26,18.4-31.8
				c4.8-2.8,8.9-3,12-1.2L357.8,29.1z"/>
		</g>
		<g>
			<path class="st2" d="M335.3,78.4l1.7-1c1.2-0.7,1.9-2.1,1.9-4.2c0-4.1-2.9-9.1-6.4-11.1c-1.8-1-3.4-1.1-4.5-0.5l-1.7,1
				L335.3,78.4z"/>
			<ellipse transform="matrix(0.866 -0.5 0.5 0.866 9.0394 174.8471)" class="st3" cx="330.8" cy="70.6" rx="5.2" ry="9.1"/>
		</g>
		<path class="st5" d="M325.2,68.7c0-2.8,2-4,4.4-2.6c2.4,1.4,4.4,4.8,4.4,7.7s-2,4-4.4,2.6C327.2,74.9,325.2,71.5,325.2,68.7z"/>
	</g>
	<path class="st16" d="M371.1,55.1c-0.2-1-1.7-6.9-4.5-10.3s-6-6.8-11.3-8.2c-0.7-0.2-1.3-0.3-2-0.5c-6,5.7-2.6,18.9,0,31.4
		c7.3,0.3,14.8-1.8,17.4-6.1C370.8,61.3,372.1,58.8,371.1,55.1z"/>
</g>
<g>
	<g>
		<polygon class="st2" points="179,388.2 130.4,360.1 130.4,266.8 179,294.8 		"/>
		<polygon class="st3" points="264.2,338.9 179,388.2 179,294.8 264.2,245.6 		"/>
		<polygon class="st2" points="182.7,311.7 260.5,266.8 260.5,336.8 182.7,381.7 		"/>
		<polygon class="st4" points="215.7,217.6 264.2,245.6 179,294.8 130.4,266.8 		"/>
		<g>
			<ellipse transform="matrix(0.5 -0.866 0.866 0.5 -170.0094 354.0357)" class="st5" cx="221.6" cy="324.3" rx="34.9" ry="20.2"/>
			<ellipse transform="matrix(0.5 -0.866 0.866 0.5 -170.0103 354.0362)" class="st6" cx="221.6" cy="324.3" rx="24.8" ry="14.3"/>
			<path class="st7" d="M223.2,318.8c0-3.5-2.5-5-5.6-3.2c-3.1,1.8-5.6,6.1-5.6,9.6s2.5,5,5.6,3.2
				C220.8,326.6,223.2,322.3,223.2,318.8z"/>
		</g>
		<g>
			<path class="st4" d="M257.9,280.8c0-4.6-3.3-6.5-7.3-4.2c-4,2.3-7.3,8-7.3,12.6s3.3,6.5,7.3,4.2
				C254.7,291.1,257.9,285.4,257.9,280.8z"/>
			<path class="st2" d="M255.8,282c0-3.3-2.3-4.6-5.2-3c-2.9,1.6-5.2,5.6-5.2,8.9s2.3,4.6,5.2,3C253.5,289.3,255.8,285.3,255.8,282z
				"/>
			<path class="st7" d="M251.1,283.4c0-1-0.7-1.5-1.6-1s-1.6,1.8-1.6,2.8s0.7,1.5,1.6,1C250.4,285.7,251.1,284.4,251.1,283.4z"/>
		</g>
		<g>
			<path class="st5" d="M204.9,292.5c-1.3,0.8-2.4,0.1-2.4-1.4c0-1.5,1.1-3.4,2.4-4.1c1.3-0.8,2.4-0.1,2.4,1.4
				C207.3,289.9,206.2,291.8,204.9,292.5z"/>
			<path class="st2" d="M203.9,292.6l4.7,1.4l1.9-3.2l-3.6-3.3c-0.4-0.4-1-0.4-1.7,0c-1.2,0.7-2.1,2.3-2.1,3.7
				C203.1,291.9,203.4,292.5,203.9,292.6z"/>
			<path class="st5" d="M209.4,293.9c-0.7,0.4-1.3,0.1-1.3-0.8s0.6-1.9,1.3-2.3c0.7-0.4,1.3-0.1,1.3,0.8S210.1,293.5,209.4,293.9z"
				/>
		</g>
		<g>
			<path class="st5" d="M195.8,297.8c-1.3,0.8-2.4,0.1-2.4-1.4c0-1.5,1.1-3.4,2.4-4.1c1.3-0.8,2.4-0.1,2.4,1.4
				C198.1,295.2,197.1,297,195.8,297.8z"/>
			<path class="st2" d="M194.7,297.9l4.7,1.4l1.9-3.2l-3.6-3.3c-0.4-0.4-1-0.4-1.7,0c-1.2,0.7-2.1,2.3-2.1,3.7
				C193.9,297.2,194.2,297.8,194.7,297.9z"/>
			<path class="st5" d="M200.2,299.2c-0.7,0.4-1.3,0.1-1.3-0.8s0.6-1.9,1.3-2.3c0.7-0.4,1.3-0.1,1.3,0.8S201,298.8,200.2,299.2z"/>
		</g>
		<g>
			<path class="st5" d="M186.6,303.1c-1.3,0.8-2.4,0.1-2.4-1.4c0-1.5,1.1-3.4,2.4-4.1c1.3-0.8,2.4-0.1,2.4,1.4
				C189,300.5,187.9,302.3,186.6,303.1z"/>
			<path class="st2" d="M185.6,303.2l4.7,1.4l1.9-3.2l-3.6-3.3c-0.4-0.4-1-0.4-1.7,0c-1.2,0.7-2.1,2.3-2.1,3.7
				C184.7,302.5,185.1,303,185.6,303.2z"/>
			<path class="st5" d="M191.1,304.5c-0.7,0.4-1.3,0.1-1.3-0.8s0.6-1.9,1.3-2.3c0.7-0.4,1.3-0.1,1.3,0.8S191.8,304,191.1,304.5z"/>
		</g>
		<g>
			<polygon class="st7" points="242.1,266.6 238.8,268.5 238.8,274.5 242.1,272.5 			"/>
			<polygon class="st5" points="251.8,261 248.5,262.9 248.5,268.8 251.8,266.9 			"/>
			<polygon class="st5" points="256,258.6 252.7,260.5 252.7,266.4 256,264.5 			"/>
			<polygon class="st8" points="260.2,256.2 256.9,258.1 256.9,264 260.2,262.1 			"/>
		</g>
	</g>
	<g>
		<g>
			<polygon class="st2" points="209.4,260.8 177.4,242.4 177.4,181.1 209.4,199.5 			"/>
			<polygon class="st3" points="241.3,242.4 209.4,260.8 209.4,199.5 241.3,181.1 			"/>
			<polygon class="st2" points="211.8,200.9 238.8,185.3 238.8,241 211.8,256.6 			"/>
			<polygon class="st9" points="209.4,162.6 241.3,181.1 209.4,199.5 177.4,181.1 			"/>
			<g>
				<ellipse transform="matrix(0.5 -0.866 0.866 0.5 -85.3278 310.3808)" class="st5" cx="226.1" cy="229.1" rx="15.6" ry="9"/>
				<path class="st6" d="M234,224.6c0-5-3.5-7-7.8-4.5c-4.3,2.5-7.8,8.6-7.8,13.6s3.5,7,7.8,4.5C230.5,235.6,234,229.6,234,224.6z"
					/>
				<path class="st7" d="M226.9,226.6c0-1.6-1.1-2.2-2.5-1.4c-1.4,0.8-2.5,2.7-2.5,4.3s1.1,2.2,2.5,1.4S226.9,228.2,226.9,226.6z"/>
			</g>
			<g>
				<path class="st5" d="M232.8,201.8c0-4.3-3-6-6.7-3.9c-3.7,2.1-6.7,7.3-6.7,11.6s3,6,6.7,3.9
					C229.8,211.2,232.8,206.1,232.8,201.8z"/>
				<path class="st6" d="M230.9,202.9c0-3-2.1-4.2-4.7-2.7c-2.6,1.5-4.7,5.2-4.7,8.2s2.1,4.2,4.7,2.7
					C228.8,209.6,230.9,205.9,230.9,202.9z"/>
				<path class="st7" d="M226.6,204.2c0-1-0.7-1.4-1.5-0.9c-0.8,0.5-1.5,1.6-1.5,2.6s0.7,1.4,1.5,0.9S226.6,205.1,226.6,204.2z"/>
			</g>
		</g>
		<g>
			<polygon class="st2" points="172.7,281.9 140.8,263.5 140.8,202.2 172.7,220.6 			"/>
			<polygon class="st3" points="204.7,263.5 172.7,281.9 172.7,220.6 204.7,202.2 			"/>
			<polygon class="st2" points="175.2,222 202.2,206.4 202.2,262.1 175.2,277.7 			"/>
			<polygon class="st9" points="172.7,183.7 204.7,202.2 172.7,220.6 140.8,202.2 			"/>
			<g>
				<path class="st5" d="M200.6,243.8c0-7.1-4.9-9.9-11.1-6.4c-6.1,3.5-11.1,12.1-11.1,19.1c0,7,4.9,9.9,11.1,6.4
					C195.6,259.4,200.6,250.8,200.6,243.8z"/>
				<ellipse transform="matrix(0.5 -0.866 0.866 0.5 -121.9081 289.2142)" class="st6" cx="189.5" cy="250.2" rx="11.1" ry="6.4"/>
				<path class="st7" d="M190.2,247.7c0-1.6-1.1-2.2-2.5-1.4c-1.4,0.8-2.5,2.7-2.5,4.3s1.1,2.2,2.5,1.4
					C189.1,251.2,190.2,249.3,190.2,247.7z"/>
			</g>
			<g>
				<ellipse transform="matrix(0.5 -0.866 0.866 0.5 -101.6155 277.5006)" class="st5" cx="189.5" cy="226.8" rx="9.5" ry="5.5"/>
				<path class="st6" d="M194.3,224c0-3-2.1-4.2-4.7-2.7c-2.6,1.5-4.7,5.2-4.7,8.2s2.1,4.2,4.7,2.7S194.3,227,194.3,224z"/>
				<path class="st7" d="M190,225.3c0-1-0.7-1.4-1.5-0.9c-0.8,0.5-1.5,1.6-1.5,2.6s0.7,1.4,1.5,0.9C189.3,227.4,190,226.2,190,225.3
					z"/>
			</g>
		</g>
	</g>
</g>
<linearGradient id="SVGID_00000112598403938772954640000010621234430503591061_" gradientUnits="userSpaceOnUse" x1="420.345" y1="14.512" x2="420.345" y2="15.1554" gradientTransform="matrix(1 0 0 -1 0 439.8898)">
	<stop  offset="0" style="stop-color:#FFFFFF"/>
	<stop  offset="0.3751" style="stop-color:#FDFDFE"/>
	<stop  offset="0.5102" style="stop-color:#F7F6F9"/>
	<stop  offset="0.6065" style="stop-color:#EBEBF0"/>
	<stop  offset="0.6844" style="stop-color:#DADAE3"/>
	<stop  offset="0.7512" style="stop-color:#C5C4D3"/>
	<stop  offset="0.8103" style="stop-color:#AAA8BE"/>
	<stop  offset="0.8637" style="stop-color:#8A88A6"/>
	<stop  offset="0.9129" style="stop-color:#65628A"/>
	<stop  offset="0.9566" style="stop-color:#3D396B"/>
	<stop  offset="0.996" style="stop-color:#120D4A"/>
</linearGradient>
<path style="opacity:0.5;fill:url(#SVGID_00000112598403938772954640000010621234430503591061_);enable-background:new    ;" d="
	M419.7,425.4c0,0,0.5-0.2,1.3-0.6C420.3,425,419.9,425.3,419.7,425.4z"/>
<g>
	<g>
		<g>
			<g>
				<g class="st19">
					<path class="st32" d="M766,110.8c-1.2,0-1.7-0.5-1.7-1.7v-5.6c0-1.2,0.5-1.7,1.7-1.7h12.9c0.8,0,1.2-0.6,1.2-1.4
						c0-1.1-0.4-1.5-1.2-1.6l-7.2-1c-4.5-0.7-7.4-2.6-7.4-7.9v-5c0-5.5,3.7-8.4,9.9-8.4h13.4c1.2,0,1.7,0.5,1.7,1.7v5.7
						c0,1.2-0.5,1.7-1.7,1.7h-11.2c-0.8,0-1.3,0.6-1.3,1.4s0.5,1.4,1.3,1.5l7.1,1c4.5,0.7,7.5,2.6,7.5,7.9v5c0,5.5-3.7,8.4-9.9,8.4
						H766z"/>
					<path class="st32" d="M804,110.8c-1.2,0-2-0.4-2.4-1.6l-4.7-11.7c-1.1-2.9-1.5-3.8-1.5-6.8V78.1c0-1.2,0.5-1.7,1.7-1.7h7.6
						c1.2,0,1.9,0.5,1.9,1.7v13.2c0,0.7,0.1,1.2,0.4,2l2.2,6.7c0.2,0.6,0.4,0.8,0.9,0.8h0.5c0.5,0,0.7-0.2,0.9-0.8l2.2-6.7
						c0.2-0.7,0.4-1.3,0.4-2V78.1c0-1.2,0.5-1.7,1.7-1.7h7.5c1.2,0,1.7,0.5,1.7,1.7v12.6c0,3-0.4,3.9-1.5,6.8l-4.7,11.7
						c-0.5,1.2-1.2,1.6-2.4,1.6H804z"/>
					<path class="st32" d="M842.2,110.8c-8,0-11.8-3.1-11.8-9.8V86.1c0-6.7,3.7-9.8,11.8-9.8h12c1.2,0,1.7,0.5,1.7,1.7v5.8
						c0,1.2-0.5,1.7-1.7,1.7h-10c-2,0-2.9,0.8-2.9,2.4v11.4c0,1.6,0.7,2.3,2.2,2.3h4.6v-7.5c0-1.2,0.5-1.7,1.7-1.7h7.4
						c1.2,0,1.7,0.5,1.7,1.7v14.8c0,1.2-0.5,1.7-1.7,1.7H842.2z"/>
				</g>
			</g>
		</g>
	</g>
	<g>
		<g>
			<g>
				<g class="st19">
					<path class="st33" d="M768.1,136.3c-0.7,0-1-0.3-1-1v-18.6c0-0.7,0.3-1,1-1h4.6c0.6,0,1,0.2,1.3,0.9l2.6,4.7
						c0.2,0.3,0.3,0.5,0.5,0.5h0.3c0.2,0,0.3-0.1,0.5-0.5l2.5-4.7c0.3-0.6,0.7-0.9,1.3-0.9h4.6c0.7,0,1,0.3,1,1v18.6
						c0,0.7-0.3,1-1,1H782c-0.7,0-1-0.3-1-1v-10.1l-1.7,3.1c-0.3,0.7-0.8,0.9-1.5,0.9h-1.1c-0.7,0-1.2-0.3-1.5-0.9l-1.7-3.1v10.1
						c0,0.7-0.3,1-1,1H768.1z"/>
					<path class="st33" d="M800.1,136.8c-7.1,0-8.9-2.3-8.9-5.8v-14.2c0-0.7,0.3-1,1-1h4.5c0.7,0,1,0.3,1,1v13.1
						c0,0.8,0.3,1.3,2.3,1.3c2,0,2.4-0.6,2.4-1.3v-13.1c0-0.7,0.3-1,1-1h4.4c0.7,0,1,0.3,1,1v14.2
						C809,134.4,807.2,136.8,800.1,136.8z"/>
					<path class="st33" d="M813.3,136.3c-0.7,0-1-0.3-1-1v-3.4c0-0.7,0.3-1,1-1h7.7c0.5,0,0.7-0.4,0.7-0.8c0-0.7-0.3-0.9-0.7-1
						l-4.3-0.6c-2.7-0.4-4.4-1.5-4.4-4.8v-3c0-3.3,2.2-5,5.9-5h8c0.7,0,1,0.3,1,1v3.4c0,0.7-0.3,1-1,1h-6.7c-0.5,0-0.8,0.3-0.8,0.9
						s0.3,0.9,0.8,0.9l4.3,0.6c2.7,0.4,4.5,1.5,4.5,4.8v3c0,3.3-2.2,5-5.9,5H813.3z"/>
					<path class="st33" d="M830.9,135.3v-3.4c0-0.7,0.3-1,1-1h2.8v-9.6H832c-0.7,0-1-0.3-1-1v-3.5c0-0.7,0.3-1,1-1h12.2
						c0.7,0,1,0.3,1,1v3.5c0,0.7-0.3,1-1,1h-2.8v9.6h2.8c0.7,0,1,0.3,1,1v3.4c0,0.7-0.3,1-1,1H832
						C831.3,136.3,830.9,136,830.9,135.3z"/>
					<path class="st33" d="M855.5,136.3c-4.8,0-7-1.9-7-5.8v-8.9c0-4,2.2-5.9,7-5.9h7c0.7,0,1,0.3,1,1v3.5c0,0.7-0.3,1-1,1h-5.8
						c-1.2,0-1.7,0.5-1.7,1.4v6.8c0,0.9,0.5,1.4,1.7,1.4h5.8c0.7,0,1,0.3,1,1v3.4c0,0.7-0.3,1-1,1H855.5z"/>
				</g>
				<g class="st19">
					<path class="st34" d="M867.8,136.3c-0.7,0-1-0.3-1-1v-18.6c0-0.7,0.3-1,1-1h4.6c0.6,0,1,0.2,1.3,0.9l2.6,4.7
						c0.2,0.3,0.3,0.5,0.5,0.5h0.3c0.2,0,0.3-0.1,0.5-0.5l2.5-4.7c0.3-0.6,0.7-0.9,1.3-0.9h4.6c0.7,0,1,0.3,1,1v18.6
						c0,0.7-0.3,1-1,1h-4.4c-0.7,0-1-0.3-1-1v-10.1l-1.7,3.1c-0.3,0.7-0.8,0.9-1.5,0.9h-1.1c-0.7,0-1.2-0.3-1.5-0.9l-1.7-3.1v10.1
						c0,0.7-0.3,1-1,1H867.8z"/>
					<path class="st34" d="M890.6,135.3v-3.4c0-0.7,0.3-1,1-1h2.8v-9.6h-2.8c-0.7,0-1-0.3-1-1v-3.5c0-0.7,0.3-1,1-1h12.2
						c0.7,0,1,0.3,1,1v3.5c0,0.7-0.3,1-1,1H901v9.6h2.8c0.7,0,1,0.3,1,1v3.4c0,0.7-0.3,1-1,1h-12.2
						C890.9,136.3,890.6,136,890.6,135.3z"/>
					<path class="st34" d="M913.5,136.3h-4.4c-0.7,0-1-0.3-1-1v-3.1c0-1.8,0.2-2.3,1.1-3.5l2.3-3.1l-2.3-3.1
						c-0.9-1.2-1.1-1.7-1.1-3.5v-2.2c0-0.7,0.3-1,1-1h4.4c0.7,0,1,0.3,1,1v2c0,0.4,0,0.8,0.3,1.2l1.3,1.8c0.2,0.3,0.4,0.5,0.7,0.5
						h0.3c0.3,0,0.5-0.2,0.7-0.5l1.3-1.8c0.3-0.4,0.3-0.8,0.3-1.2v-2c0-0.7,0.3-1,1-1h4.4c0.7,0,1,0.3,1,1v2.2
						c0,1.8-0.2,2.3-1.1,3.5l-2.3,3.2l2.3,3.1c0.9,1.2,1.1,1.7,1.1,3.5v3.1c0,0.7-0.3,1-1,1h-4.4c-0.7,0-1-0.3-1-1v-2.8
						c0-0.4,0-0.8-0.3-1.2l-1.3-1.8c-0.2-0.3-0.4-0.5-0.7-0.5h-0.4c-0.3,0-0.5,0.1-0.7,0.5l-1.3,1.8c-0.3,0.4-0.3,0.8-0.3,1.2v2.8
						C914.5,136,914.2,136.3,913.5,136.3z"/>
					<path class="st34" d="M930.5,136.3c-0.7,0-1-0.3-1-1v-18.6c0-0.7,0.3-1,1-1h13.3c0.7,0,1,0.3,1,1v3.4c0,0.7-0.3,1-1,1h-7.9v2.2
						h5.6c0.7,0,1,0.3,1,1v3.1c0,0.7-0.3,1-1,1h-5.6v2.5h7.9c0.7,0,1,0.3,1,1v3.4c0,0.7-0.3,1-1,1H930.5z"/>
					<path class="st34" d="M949.2,136.3c-0.7,0-1-0.3-1-1v-18.6c0-0.7,0.3-1,1-1h9.5c4.3,0,5.6,1.9,5.6,4.8v1.3
						c0,1.6-0.4,2.7-1.6,3.3c2.1,0.2,3.5,1.7,3.5,4.2v6.1c0,0.7-0.3,1-1,1h-4.4c-0.7,0-1-0.3-1-1v-4.4c0-0.9-0.3-1.2-1.1-1.2h-4v5.6
						c0,0.7-0.3,1-1,1H949.2z M954.7,124.5h2.1c1,0,1.3-0.6,1.3-1.3v-1c0-0.8-0.3-1.3-1.3-1.3h-2.1V124.5z"/>
				</g>
			</g>
		</g>
	</g>
	<g>
		
			<linearGradient id="SVGID_00000036948975308651411210000003254031302777844866_" gradientUnits="userSpaceOnUse" x1="645.5131" y1="335.6498" x2="750.2305" y2="335.6498" gradientTransform="matrix(1 0 0 -1 0 439.8898)">
			<stop  offset="0" style="stop-color:#00ADE3"/>
			<stop  offset="1" style="stop-color:#B00BE6"/>
		</linearGradient>
		<path style="fill:url(#SVGID_00000036948975308651411210000003254031302777844866_);" d="M750.2,104.6c-0.3-8.8-2-17.8-6.2-25.9
			c-2.1-4-4.9-7.8-8.3-10.9c-3.4-3.1-7.3-5.6-11.5-7.5c-8.4-3.6-17.5-4.9-26.3-4.9c-8.8,0-17.8,1.3-26.3,4.9
			c-4.2,1.9-8.1,4.4-11.5,7.5c-3.4,3.1-6.2,6.9-8.3,10.9c-4.3,8.1-6,17.1-6.2,25.9c-0.1,4.4,0.1,8.8,0.6,13.1c0.4,3.7,1,7.3,2,11
			v12.7c0,6.5,5.3,11.8,11.8,11.8s11.8-5.3,11.8-11.8v-20.3c0-6.5-5.3-11.8-11.8-11.8c-3.7,0-7,1.7-9.2,4.4
			c-0.1-2.9-0.1-5.9,0.1-8.8c0.5-8.2,2.4-16.3,6.2-23.2c0.9-1.7,2.1-3.3,3.3-4.9l1.9-2.2l2.1-2c2.9-2.6,6.3-4.6,9.9-6.3
			c7.3-3,15.4-4.3,23.6-4.3c8.2,0,16.3,1.2,23.6,4.3c3.6,1.6,7,3.7,9.9,6.3l2.1,2l1.9,2.2c1.2,1.6,2.3,3.2,3.3,4.9
			c3.8,6.9,5.7,15,6.2,23.2c0.2,2.9,0.2,5.9,0.1,8.8c-2.2-2.7-5.5-4.4-9.2-4.4c-6.5,0-11.8,5.3-11.8,11.8v20.3
			c0,6.5,5.3,11.8,11.8,11.8s11.8-5.3,11.8-11.8v-12.7c0.9-3.7,1.5-7.3,2-11C750.1,113.4,750.3,109,750.2,104.6z"/>
		
			<linearGradient id="SVGID_00000157297759883714025490000000151949439841281196_" gradientUnits="userSpaceOnUse" x1="738.2422" y1="342.2792" x2="666.3184" y2="342.2792" gradientTransform="matrix(1 0 0 -1 0 439.8898)">
			<stop  offset="0" style="stop-color:#00ADE3"/>
			<stop  offset="1" style="stop-color:#B00BE6"/>
		</linearGradient>
		<path style="fill:url(#SVGID_00000157297759883714025490000000151949439841281196_);" d="M656.9,96.6c1.8-0.2,5.3,0,7-1
			c2.2-1.2,2.2-5.5,3-7.6c1.3-3.5,4.9-5.6,8.5-3.7c2.2,1.1,2.9,3.3,3.7,5.4c1.8,4.7,3.2,9.5,5.1,14.1c1.3,3.2,2.6,0.5,3.6-1.6
			c2.6-5.3,6.5-19,14.5-15.8c3.5,1.4,4.7,6.2,6.2,9.4c2,4.1,4.5-0.1,6.3-2.3c2.9-3.4,7.2-7.3,11-2.4c0.8,0.9,1.1,2.2,1.8,3.1
			c1.8,2.4,5.7,1.8,8.5,2c0.3,0,4-0.2,3,1.1c-0.5,0.7-4.9,0.5-5.7,0.5c-3.2,0.2-5.9,0.6-8.1-2.1c-1.9-2.3-3.4-5-6-1.7
			c-2.5,3.3-4.9,8.9-9.9,8.4c-4.1-0.5-5.5-4.6-7.1-7.8c-0.7-1.3-1.6-4.5-3.4-2.8c-0.7,0.6-1.2,2.6-1.5,3.3c-1.4,3-2.8,6-4.2,9
			c-0.7,1.5-1.3,3.3-2.4,4.6c-2.3,3-6.9,3.4-9.7,0.9c-3.1-2.7-4-9.3-5.1-13c-0.7-2.2-1.2-4.5-2-6.6c-1.7-4.5-3.9,0.2-4.9,2.6
			c-1.2,2.7-2.3,5.2-5.6,5.4c-0.8,0.1-1.8-0.1-2.6-0.2c-0.9-0.1-1.8-0.2-2.7-0.3C659.2,97.8,654.7,96.9,656.9,96.6z"/>
	</g>
</g>
<image style="overflow:visible;" width="2560" height="1080" xlink:href="2725C521.jpg"  transform="matrix(1 0 0 1 -7894 -7770.1104)">
</image>
<rect x="1056.8" y="174.8" class="st37" width="305.6" height="203"/>
<text transform="matrix(1 0 0 1 1077.6846 220.3927)" class="st33" style="font-family:'Poppins-Black'; font-size:19.6217px;">HOW TO PLAY:</text>
<rect x="1078.5" y="237.4" style="fill:none;" width="257.4" height="129.7"/>
<text transform="matrix(1 0 0 1 1078.4679 246.2805)"><tspan x="0" y="0" class="st5" style="font-family:'Poppins-Regular'; font-size:12px;">Simply dray the icons on the button to the </tspan><tspan x="0" y="14.4" class="st5" style="font-family:'Poppins-Regular'; font-size:12px;">blank space center. Mix and match the </tspan><tspan x="0" y="28.8" class="st5" style="font-family:'Poppins-Regular'; font-size:12px;">beat what your want. </tspan><tspan x="0" y="43.2" class="st5" style="font-family:'Poppins-Regular'; font-size:12px;">Buttons:</tspan><tspan x="0" y="57.6" class="st5" style="font-family:'Poppins-Regular'; font-size:12px;">Reset - reset all to default</tspan><tspan x="0" y="72" class="st5" style="font-family:'Poppins-Regular'; font-size:12px;">Restart - restart songs</tspan><tspan x="0" y="86.4" class="st5" style="font-family:'Poppins-Regular'; font-size:12px;">Instructions - Toggle this Menu</tspan></text>
</svg>
