<?xml version="1.0" encoding="utf-8"?>
<!-- Generator: Adobe Illustrator 26.3.1, SVG Export Plug-In . SVG Version: 6.00 Build 0)  -->
<svg version="1.1" xmlns="http://www.w3.org/2000/svg" xmlns:xlink="http://www.w3.org/1999/xlink" x="0px" y="0px"
	 viewBox="0 0 200 200" style="enable-background:new 0 0 200 200;" xml:space="preserve">
<style type="text/css">
	.st0{fill:#FFEC00;}
	.st1{fill:url(#SVGID_1_);}
	.st2{fill:none;stroke:url(#SVGID_00000084499742713988605930000009753413609482653570_);stroke-width:3;stroke-miterlimit:10;}
	.st3{fill:url(#XMLID_00000092447378195290316990000006771144177760633256_);}
	.st4{fill:none;stroke:url(#SVGID_00000175307151612890014900000009953327533009768077_);stroke-width:3;stroke-miterlimit:10;}
	.st5{fill:#FFFFFF;}
</style>
<g id="BACKGROUND">
	<rect class="st0" width="200" height="200"/>
</g>
<g id="OBJECTS">
	<g id="XMLID_277_">
		<defs>
			
				<rect id="XMLID_40_" x="-568.73" y="-13.58" transform="matrix(0.7071 -0.7071 0.7071 0.7071 -188.9001 -329.0543)" width="154.15" height="154.15"/>
		</defs>
		<clipPath id="XMLID_00000174560214988845277080000011174134768112319665_">
			<use xlink:href="#XMLID_40_"  style="overflow:visible;"/>
		</clipPath>
	</g>
	
		<linearGradient id="SVGID_1_" gradientUnits="userSpaceOnUse" x1="533.6182" y1="330.8845" x2="-466.3818" y2="330.8845" gradientTransform="matrix(-1 0 0 -1 628.1698 -225.9757)">
		<stop  offset="0" style="stop-color:#008BD6"/>
		<stop  offset="0.0148" style="stop-color:#0184CF"/>
		<stop  offset="0.0963" style="stop-color:#0565AB"/>
		<stop  offset="0.1857" style="stop-color:#09498D"/>
		<stop  offset="0.2834" style="stop-color:#0D3374"/>
		<stop  offset="0.3927" style="stop-color:#0F2261"/>
		<stop  offset="0.5201" style="stop-color:#111654"/>
		<stop  offset="0.6821" style="stop-color:#120F4C"/>
		<stop  offset="0.996" style="stop-color:#120D4A"/>
	</linearGradient>
	<polygon class="st1" points="94.55,-776.86 1094.55,-776.86 1094.55,-336.86 94.55,-336.86 	"/>
	
		<linearGradient id="SVGID_00000160174955783972177530000013388278781793053112_" gradientUnits="userSpaceOnUse" x1="38.5938" y1="100.5867" x2="160.8925" y2="100.5867" gradientTransform="matrix(-0.9855 -0.17 0.17 -0.9855 180.94 216.6617)">
		<stop  offset="0" style="stop-color:#FF0253"/>
		<stop  offset="0.1188" style="stop-color:#D30D51"/>
		<stop  offset="0.296" style="stop-color:#971D4E"/>
		<stop  offset="0.467" style="stop-color:#662A4B"/>
		<stop  offset="0.6271" style="stop-color:#3F3449"/>
		<stop  offset="0.7739" style="stop-color:#243B48"/>
		<stop  offset="0.9029" style="stop-color:#133F47"/>
		<stop  offset="1" style="stop-color:#0D4147"/>
	</linearGradient>
	
		<rect x="40.09" y="40.94" transform="matrix(-0.9855 -0.17 0.17 -0.9855 180.94 216.6616)" style="fill:none;stroke:url(#SVGID_00000160174955783972177530000013388278781793053112_);stroke-width:3;stroke-miterlimit:10;" width="119.3" height="119.3"/>
</g>
<g id="TEXTURE">
</g>
<g id="DESIGNED_BY_FREEPIK">
	
		<radialGradient id="XMLID_00000070817609128633961310000014451674782340480427_" cx="120.1378" cy="10.7856" r="225.1126" gradientTransform="matrix(0.807 0 0 0.807 6.0298 21.816)" gradientUnits="userSpaceOnUse">
		<stop  offset="0" style="stop-color:#9E304D"/>
		<stop  offset="0.1335" style="stop-color:#983651"/>
		<stop  offset="0.3107" style="stop-color:#87465C"/>
		<stop  offset="0.5123" style="stop-color:#6C626E"/>
		<stop  offset="0.7306" style="stop-color:#468788"/>
		<stop  offset="0.7647" style="stop-color:#3F8E8C"/>
	</radialGradient>
	<polygon id="XMLID_278_" style="fill:url(#XMLID_00000070817609128633961310000014451674782340480427_);" points="99.15,13.83 
		11.19,101.79 99.15,189.75 187.12,101.79 	"/>
	
		<linearGradient id="SVGID_00000106852389293055790080000007627499444203432361_" gradientUnits="userSpaceOnUse" x1="38.5938" y1="100.5867" x2="160.8925" y2="100.5867" gradientTransform="matrix(-0.9308 0.3656 -0.3656 -0.9308 229.353 157.75)">
		<stop  offset="0" style="stop-color:#FF0253"/>
		<stop  offset="0.1188" style="stop-color:#D30D51"/>
		<stop  offset="0.296" style="stop-color:#971D4E"/>
		<stop  offset="0.467" style="stop-color:#662A4B"/>
		<stop  offset="0.6271" style="stop-color:#3F3449"/>
		<stop  offset="0.7739" style="stop-color:#243B48"/>
		<stop  offset="0.9029" style="stop-color:#133F47"/>
		<stop  offset="1" style="stop-color:#0D4147"/>
	</linearGradient>
	
		<rect x="40.09" y="40.94" transform="matrix(-0.9308 0.3656 -0.3656 -0.9308 229.3529 157.7499)" style="fill:none;stroke:url(#SVGID_00000106852389293055790080000007627499444203432361_);stroke-width:3;stroke-miterlimit:10;" width="119.3" height="119.3"/>
	<g id="XMLID_600_">
		<g>
			<g>
				<path class="st5" d="M34.56,90.14v3.17l-11.63,1.54V80.33l11.36-1.5V82l-7.3,0.97v2.45l6.44-0.85v3.07l-6.44,0.85v2.65
					L34.56,90.14z"/>
				<path class="st5" d="M38.49,78.27l4.1-0.54v11.26l6.91-0.91v3.26l-11.01,1.46V78.27z"/>
				<path class="st5" d="M64.4,86.19v3.17L52.77,90.9V76.39l11.36-1.5v3.17l-7.3,0.97v2.45l6.44-0.85v3.07l-6.44,0.85v2.65
					L64.4,86.19z"/>
				<path class="st5" d="M67.56,81.69c0-4.42,3.37-7.99,7.97-8.6c2.67-0.35,4.82,0.34,6.23,1.91l-2.61,2.71
					c-0.91-0.98-2.03-1.43-3.41-1.25c-2.38,0.31-4.04,2.19-4.04,4.68s1.66,3.93,4.04,3.61c1.39-0.18,2.5-0.93,3.41-2.15l2.61,2.02
					c-1.41,1.95-3.56,3.21-6.23,3.56C70.94,88.79,67.56,86.1,67.56,81.69z"/>
				<path class="st5" d="M88.19,74.96l-4.45,0.59v-3.26l12.98-1.72v3.26l-4.43,0.59v11.26l-4.1,0.54V74.96z"/>
				<path class="st5" d="M106.24,79.97l-2.24,0.3v3.86l-4.1,0.54V70.15l6.62-0.88c3.95-0.52,6.44,1.2,6.44,4.52
					c0,2.14-1.03,3.85-2.83,4.96l3.12,4.15l-4.39,0.58L106.24,79.97z M106.28,72.54l-2.28,0.3v4.25l2.28-0.3
					c1.7-0.22,2.54-1.12,2.54-2.45C108.83,72.99,107.98,72.32,106.28,72.54z"/>
				<path class="st5" d="M116.13,75.26c0-4.35,3.42-8,8.05-8.61c4.64-0.61,8.05,2.13,8.05,6.48s-3.41,8-8.05,8.61
					C119.55,82.36,116.13,79.62,116.13,75.26z M128.09,73.68c0-2.51-1.72-3.92-3.91-3.63s-3.91,2.16-3.91,4.67
					c0,2.51,1.72,3.92,3.91,3.63S128.09,76.19,128.09,73.68z"/>
				<path class="st5" d="M149.82,63.55v14.52l-3.37,0.45l-6.39-6.89v7.73l-4.01,0.53V65.37l3.37-0.45l6.39,6.89v-7.73L149.82,63.55z
					"/>
				<path class="st5" d="M154.37,62.95l4.1-0.54v14.52l-4.1,0.54V62.95z"/>
				<path class="st5" d="M162.3,69.15c0-4.42,3.37-7.99,7.97-8.6c2.67-0.35,4.82,0.34,6.23,1.91l-2.61,2.71
					c-0.91-0.98-2.03-1.43-3.42-1.25c-2.38,0.32-4.04,2.19-4.04,4.68s1.66,3.93,4.04,3.61c1.39-0.18,2.5-0.93,3.42-2.15l2.61,2.02
					c-1.41,1.95-3.56,3.21-6.23,3.56C165.67,76.26,162.3,73.57,162.3,69.15z"/>
			</g>
		</g>
		<g>
			<g>
				<path class="st5" d="M46.72,126.14l-0.08-13.48l-6.41,11.67l-4.39,0.58l-6.41-9.51v13.02l-9.07,1.2v-29.6l8.19-1.08l9.62,14.5
					l9.37-17.01l8.18-1.08l0.08,29.59L46.72,126.14z"/>
				<path class="st5" d="M63.73,110.57V94.29l9.96-1.32v15.98c0,4.52,1.73,5.99,4.51,5.62s4.51-2.29,4.51-6.81V91.78l9.79-1.29
					v16.28c0,8.88-5.32,14.7-14.39,15.9C69.05,123.87,63.73,119.45,63.73,110.57z"/>
				<path class="st5" d="M98.59,116.91l3.21-7.7c2.79,1.28,6.5,1.85,9.75,1.42c2.83-0.37,3.84-1.1,3.84-2.11
					c0-3.72-16.33,1.44-16.33-9.59c0-5.5,4.6-10.59,13.75-11.8c3.97-0.53,8.06-0.22,11.14,1.11l-3,7.63
					c-2.91-1.09-5.65-1.45-8.23-1.11c-2.91,0.39-3.84,1.35-3.84,2.37c0,3.55,16.33-1.57,16.33,9.34c0,5.41-4.6,10.59-13.75,11.8
					C106.52,118.91,101.54,118.34,98.59,116.91z"/>
				<path class="st5" d="M131.54,85.33l9.96-1.32v29.6l-9.96,1.32V85.33z"/>
				<path class="st5" d="M148.5,97.88c0-9.09,6.96-16.4,16.45-17.65c5.78-0.76,10.34,0.75,13.25,4.17l-6.29,6.46
					c-1.73-1.97-3.8-2.96-6.46-2.61c-4.13,0.55-6.92,3.79-6.92,8.32s2.79,7.03,6.92,6.48c2.66-0.35,4.73-1.89,6.46-4.32l6.29,4.79
					c-2.91,4.19-7.47,6.91-13.25,7.67C155.47,112.43,148.5,106.97,148.5,97.88z"/>
			</g>
		</g>
	</g>
</g>
</svg>
