<svg id="rideCymbals" xmlns="http://www.w3.org/2000/svg" xmlns:xlink="http://www.w3.org/1999/xlink" width="87" height="87" viewBox="0 0 87 87">
  <defs>
    <style>
      .cls-1 {
        fill: url(#radial-gradient);
      }

      .cls-2 {
        fill: #fff;
      }
    </style>
    <radialGradient id="radial-gradient" cx="44.26" cy="44.48" r="43.5" gradientUnits="userSpaceOnUse">
      <stop offset="0" stop-color="blue"/>
      <stop offset="1"/>
    </radialGradient>
  </defs>
  <path class="cls-1" d="M44.26,1a43.5,43.5,0,1,0,43.5,43.5A43.32,43.32,0,0,0,44.26,1Z" transform="translate(-0.76 -0.98)"/>
  <path class="cls-2" d="M67.65,30.79A77,77,0,0,0,49.09,28L49,27.88a5.56,5.56,0,0,0-3.71-2.62V9.94a1.08,1.08,0,0,0-1-1.09A1.05,1.05,0,0,0,43.21,9.9V25.26a5.56,5.56,0,0,0-3.7,2.62l-.08.13a77,77,0,0,0-18.56,2.78c-5.54,1.71-8.35,3.89-8.35,6.47,0,2.37,2.45,4.45,7.13,6.08l.08,0,.48.16.1,0L35.77,49a10.52,10.52,0,0,1,3.74,2.24,4.39,4.39,0,0,1,.67.9,5.09,5.09,0,0,0,1.23,1.41v6a1.08,1.08,0,0,0,1,1.09,1,1,0,0,0,1.08-1V54.5H45v23a.7.7,0,0,1-.7.7H44.2a.7.7,0,0,1-.7-.7V66.22a1.08,1.08,0,0,0-1-1.09,1.05,1.05,0,0,0-1.08,1.05V79.54a.7.7,0,0,0,.7.7h4.3a.7.7,0,0,0,.7-.7v-26a5.09,5.09,0,0,0,1.23-1.41,4.39,4.39,0,0,1,.67-.9A10.52,10.52,0,0,1,52.75,49l15.46-5.42.1,0,.48-.16.08,0C73.55,41.71,76,39.63,76,37.26,76,34.68,73.19,32.5,67.65,30.79ZM52.05,47h0a12.43,12.43,0,0,0-4.48,2.72,6.45,6.45,0,0,0-1,1.33,2.59,2.59,0,0,1-4.54,0,6.45,6.45,0,0,0-1-1.33A12.4,12.4,0,0,0,36.49,47h0l-2.42-.85c1.33.13,2.7.22,4.1.3h0l1.26.06.54,0,.55,0,.9,0h.35l1.07,0h2.83l1.08,0h.34l.9,0,.56,0,.53,0,1.27-.06h0c1.4-.08,2.77-.17,4.11-.3Zm16.7-5.85,0,0-1.13.39c-5.34,1.75-13.21,2.82-21.62,3h-3.4c-8.41-.13-16.28-1.2-21.63-3l-1.12-.39,0,0c-3.75-1.39-5.16-2.86-5.16-3.9s1.81-2.91,6.88-4.48A76.1,76.1,0,0,1,40,30.08a1.06,1.06,0,0,0,.81-.44c.17-.24.32-.46.45-.68a3.61,3.61,0,0,1,1.91-1.55v.29a1,1,0,1,0,2.09,0v-.29A3.59,3.59,0,0,1,47.22,29c.13.22.28.44.45.68a1.06,1.06,0,0,0,.81.44A76.1,76.1,0,0,1,67,32.78c5.07,1.57,6.88,3.34,6.88,4.48S72.5,39.77,68.75,41.16Z" transform="translate(-0.76 -0.98)"/>
  <path class="cls-2" d="M50.28,32.5a1.06,1.06,0,0,0-1.36-.58,13.93,13.93,0,0,1-9.4.38,1,1,0,1,0-.62,2,15.7,15.7,0,0,0,4.79.74,16,16,0,0,0,6-1.17A1,1,0,0,0,50.28,32.5Z" transform="translate(-0.76 -0.98)"/>
  <circle class="cls-2" cx="27.16" cy="38.8" r="1.2"/>
  <circle class="cls-2" cx="32.8" cy="37.6" r="1.2"/>
  <circle class="cls-2" cx="28.36" cy="33.74" r="1.2"/>
  <circle class="cls-2" cx="59.76" cy="33.74" r="1.2"/>
</svg>
