<svg xmlns="http://www.w3.org/2000/svg" width="471" height="1008" viewBox="0 0 471 1008">
  <defs>
    <style>
      .cls-1 {
        fill: #999;
      }

      .cls-2 {
        fill: #4d4d4d;
      }

      .cls-3 {
        fill: #1a1a1a;
      }

      .cls-4 {
        fill: #333;
      }
    </style>
  </defs>
  <g id="Button_Holder" data-name="Button Holder">
    <path class="cls-1" d="M97.33,148H246a0,0,0,0,1,0,0v859a0,0,0,0,1,0,0H64a0,0,0,0,1,0,0V181.33A33.33,33.33,0,0,1,97.33,148Z"/>
    <path class="cls-2" d="M246,148H394.67A33.33,33.33,0,0,1,428,181.33V1007a0,0,0,0,1,0,0H246a0,0,0,0,1,0,0V148A0,0,0,0,1,246,148Z"/>
    <polygon class="cls-3" points="110.59 949 83.76 949 70.35 972.23 83.76 995.46 110.59 995.46 124 972.23 110.59 949"/>
    <polygon class="cls-3" points="408.59 949 381.76 949 368.35 972.23 381.76 995.46 408.59 995.46 422 972.23 408.59 949"/>
    <polygon class="cls-3" points="110.59 160 83.76 160 70.35 183.23 83.76 206.46 110.59 206.46 124 183.23 110.59 160"/>
    <polygon class="cls-3" points="408.59 160 381.76 160 368.35 183.23 381.76 206.46 408.59 206.46 422 183.23 408.59 160"/>
    <g>
      <g>
        <path d="M292.25,287.25a43.5,43.5,0,1,0,43.5-43.5A43.32,43.32,0,0,0,292.25,287.25Z"/>
        <path class="cls-4" d="M331.75,324.75a43.42,43.42,0,0,1-33.37-15.6,43.5,43.5,0,1,0,71.24-49.3,43.5,43.5,0,0,1-37.87,64.9Z"/>
      </g>
      <g>
        <path d="M151.75,243.75a43.5,43.5,0,1,0,43.5,43.5A43.32,43.32,0,0,0,151.75,243.75Z"/>
        <path class="cls-4" d="M114.25,283.25a43.42,43.42,0,0,1,15.6-33.37,43.5,43.5,0,1,0,49.3,71.24,43.5,43.5,0,0,1-64.9-37.87Z"/>
      </g>
      <g>
        <path d="M292.25,403.25a43.5,43.5,0,1,0,43.5-43.5A43.32,43.32,0,0,0,292.25,403.25Z"/>
        <path class="cls-4" d="M331.75,440.75a43.42,43.42,0,0,1-33.37-15.6,43.5,43.5,0,1,0,71.24-49.3,43.5,43.5,0,0,1-37.87,64.9Z"/>
      </g>
      <g>
        <path d="M151.75,359.75a43.5,43.5,0,1,0,43.5,43.5A43.32,43.32,0,0,0,151.75,359.75Z"/>
        <path class="cls-4" d="M114.25,399.25a43.42,43.42,0,0,1,15.6-33.37,43.5,43.5,0,1,0,49.3,71.24,43.5,43.5,0,0,1-64.9-37.87Z"/>
      </g>
      <g>
        <path d="M292.25,519.25a43.5,43.5,0,1,0,43.5-43.5A43.32,43.32,0,0,0,292.25,519.25Z"/>
        <path class="cls-4" d="M331.75,556.75a43.42,43.42,0,0,1-33.37-15.6,43.5,43.5,0,1,0,71.24-49.3,43.5,43.5,0,0,1-37.87,64.9Z"/>
      </g>
      <g>
        <path d="M151.75,475.75a43.5,43.5,0,1,0,43.5,43.5A43.32,43.32,0,0,0,151.75,475.75Z"/>
        <path class="cls-4" d="M114.25,515.25a43.42,43.42,0,0,1,15.6-33.37,43.5,43.5,0,1,0,49.3,71.24,43.5,43.5,0,0,1-64.9-37.87Z"/>
      </g>
      <g>
        <path d="M292.25,635.25a43.5,43.5,0,1,0,43.5-43.5A43.32,43.32,0,0,0,292.25,635.25Z"/>
        <path class="cls-4" d="M331.75,672.75a43.42,43.42,0,0,1-33.37-15.6,43.5,43.5,0,1,0,71.24-49.3,43.5,43.5,0,0,1-37.87,64.9Z"/>
      </g>
      <g>
        <path d="M151.75,591.75a43.5,43.5,0,1,0,43.5,43.5A43.32,43.32,0,0,0,151.75,591.75Z"/>
        <path class="cls-4" d="M114.25,631.25a43.42,43.42,0,0,1,15.6-33.37,43.5,43.5,0,1,0,49.3,71.24,43.5,43.5,0,0,1-64.9-37.87Z"/>
      </g>
      <g>
        <path d="M292.25,751.25a43.5,43.5,0,1,0,43.5-43.5A43.32,43.32,0,0,0,292.25,751.25Z"/>
        <path class="cls-4" d="M331.75,788.75a43.42,43.42,0,0,1-33.37-15.6,43.5,43.5,0,1,0,71.24-49.3,43.5,43.5,0,0,1-37.87,64.9Z"/>
      </g>
      <g>
        <path d="M151.75,707.75a43.5,43.5,0,1,0,43.5,43.5A43.32,43.32,0,0,0,151.75,707.75Z"/>
        <path class="cls-4" d="M114.25,747.25a43.42,43.42,0,0,1,15.6-33.37,43.5,43.5,0,1,0,49.3,71.24,43.5,43.5,0,0,1-64.9-37.87Z"/>
      </g>
      <g>
        <path d="M292.25,867.25a43.5,43.5,0,1,0,43.5-43.5A43.32,43.32,0,0,0,292.25,867.25Z"/>
        <path class="cls-4" d="M331.75,904.75a43.42,43.42,0,0,1-33.37-15.6,43.5,43.5,0,1,0,71.24-49.3,43.5,43.5,0,0,1-37.87,64.9Z"/>
      </g>
      <g>
        <path d="M151.75,823.75a43.5,43.5,0,1,0,43.5,43.5A43.32,43.32,0,0,0,151.75,823.75Z"/>
        <path class="cls-4" d="M114.25,863.25a43.42,43.42,0,0,1,15.6-33.37,43.5,43.5,0,1,0,49.3,71.24,43.5,43.5,0,0,1-64.9-37.87Z"/>
      </g>
    </g>
  </g>
</svg>
