<svg id="_5-waveDrum" data-name="5-waveDrum" xmlns="http://www.w3.org/2000/svg" xmlns:xlink="http://www.w3.org/1999/xlink" width="87" height="87" viewBox="0 0 87 87">
  <defs>
    <style>
      .cls-1 {
        fill: url(#radial-gradient);
      }

      .cls-2 {
        fill: #fff;
      }
    </style>
    <radialGradient id="radial-gradient" cx="44.26" cy="44.48" r="43.5" gradientUnits="userSpaceOnUse">
      <stop offset="0" stop-color="#3fa9f5"/>
      <stop offset="1"/>
    </radialGradient>
  </defs>
  <path class="cls-1" d="M44.26,1a43.5,43.5,0,1,0,43.5,43.5A43.32,43.32,0,0,0,44.26,1Z" transform="translate(-0.76 -0.98)"/>
  <path class="cls-2" d="M62.39,10H26.12a3.41,3.41,0,0,0-3.4,3.41v2.3a65.72,65.72,0,0,0,3.46,21.58c2.14,6,5.11,10.87,8.62,14L32.09,67.3v0L30.77,75.1a1.09,1.09,0,0,0,.52,1.13c.19.12,4.76,2.77,13,2.77s12.77-2.65,13-2.77a1.08,1.08,0,0,0,.53-1.13l-1.32-7.78v0L53.72,51.24c3.51-3.12,6.48-7.94,8.62-14A65.72,65.72,0,0,0,65.8,15.67v-2.3A3.41,3.41,0,0,0,62.39,10Zm-7,64.71A27.15,27.15,0,0,1,44.26,76.8a27.28,27.28,0,0,1-11.18-2.13L34,69.19l4.2,2.23a1.1,1.1,0,0,0,1,0l5-2.67,5,2.67a1.17,1.17,0,0,0,1,0l4.2-2.22ZM26.12,12.17H62.39a1.21,1.21,0,0,1,1.21,1.2v1.2H24.92v-1.2A1.2,1.2,0,0,1,26.12,12.17Zm10.23,4.61c.07,13.76,1.45,26.28,3.59,32.93H36.4C29.59,43.79,25.15,31,24.93,16.78ZM49.8,69.2l-5-2.67a1.1,1.1,0,0,0-1,0l-5,2.67-4.32-2.29,2.53-15H51.59l2.54,15Zm2.32-19.49H48.58a77.19,77.19,0,0,0,2.74-15.32,1.11,1.11,0,0,0-2.2-.21c-.66,6.7-1.67,12.17-2.87,15.53h-4c-2.21-6.18-3.65-18.86-3.72-32.93H50c0,4.49-.18,8.88-.48,13a1.11,1.11,0,0,0,1,1.18h.08a1.1,1.1,0,0,0,1.1-1c.3-4.21.46-8.64.48-13.19H63.59C63.37,31,58.93,43.79,52.12,49.71Z" transform="translate(-0.76 -0.98)"/>
</svg>
