<svg id="_7-synthBass" data-name="7-synthBass" xmlns="http://www.w3.org/2000/svg" xmlns:xlink="http://www.w3.org/1999/xlink" width="87" height="87" viewBox="0 0 87 87">
  <defs>
    <style>
      .cls-1 {
        fill: url(#radial-gradient);
      }

      .cls-2, .cls-3 {
        fill: #fff;
      }

      .cls-2 {
        fill-rule: evenodd;
      }
    </style>
    <radialGradient id="radial-gradient" cx="44.26" cy="44.48" r="43.5" gradientUnits="userSpaceOnUse">
      <stop offset="0" stop-color="#662d91"/>
      <stop offset="1"/>
    </radialGradient>
  </defs>
  <path class="cls-1" d="M44.26,1a43.5,43.5,0,1,0,43.5,43.5A43.32,43.32,0,0,0,44.26,1Z" transform="translate(-0.76 -0.98)"/>
  <g>
    <path class="cls-2" d="M73.16,18.9H15.36a3.84,3.84,0,0,0-3.84,3.84V66.22a3.84,3.84,0,0,0,3.84,3.84h57.8A3.84,3.84,0,0,0,77,66.22V22.74A3.84,3.84,0,0,0,73.16,18.9Zm-57.8,2.56h57.8a1.28,1.28,0,0,1,1.28,1.28V36.81H14.08V22.74A1.28,1.28,0,0,1,15.36,21.46Zm9.71,17.91V53.43a1.28,1.28,0,0,0,1.28,1.28h1.28V67.5H20V39.37Zm5.12,15.34h1.28a1.28,1.28,0,0,0,1.28-1.28V39.37h2.56V53.43a1.28,1.28,0,0,0,1.28,1.28h1.27V67.5H30.19Zm10.23,0H41.7A1.28,1.28,0,0,0,43,53.43V39.37H48.1V67.5H40.42ZM50.65,39.37h5.12V53.43a1.28,1.28,0,0,0,1.28,1.28h1.28V67.5H50.65ZM60.89,54.71h1.27a1.28,1.28,0,0,0,1.28-1.28V39.37h5.12V67.5H60.89ZM14.08,66.22V39.37H17.4V67.5h-2A1.28,1.28,0,0,1,14.08,66.22Zm60.36,0a1.28,1.28,0,0,1-1.28,1.28h-2V39.37h3.32Z" transform="translate(-0.76 -0.98)"/>
    <circle class="cls-3" cx="21.12" cy="28.16" r="3.2"/>
    <circle class="cls-3" cx="65.89" cy="28.14" r="3.2"/>
    <path class="cls-2" d="M30.19,27.86a1.28,1.28,0,0,0,0-2.56h0a1.28,1.28,0,0,0,0,2.56Z" transform="translate(-0.76 -0.98)"/>
    <path class="cls-2" d="M30.19,33a1.28,1.28,0,0,0,0-2.56h0a1.28,1.28,0,0,0,0,2.56Z" transform="translate(-0.76 -0.98)"/>
    <path class="cls-2" d="M35.31,27.86a1.28,1.28,0,1,0,0-2.56h0a1.28,1.28,0,0,0,0,2.56Z" transform="translate(-0.76 -0.98)"/>
    <path class="cls-2" d="M35.31,33a1.28,1.28,0,1,0,0-2.56h0a1.28,1.28,0,0,0,0,2.56Z" transform="translate(-0.76 -0.98)"/>
    <path class="cls-2" d="M40.42,27.86a1.28,1.28,0,1,0,0-2.56h0a1.28,1.28,0,0,0-1.28,1.28A1.29,1.29,0,0,0,40.42,27.86Z" transform="translate(-0.76 -0.98)"/>
    <path class="cls-2" d="M40.42,33a1.28,1.28,0,0,0,0-2.56h0a1.28,1.28,0,0,0,0,2.56Z" transform="translate(-0.76 -0.98)"/>
    <path class="cls-2" d="M45.54,27.86a1.28,1.28,0,1,0,0-2.56h0a1.28,1.28,0,1,0,0,2.56Z" transform="translate(-0.76 -0.98)"/>
    <path class="cls-2" d="M45.54,33a1.28,1.28,0,0,0,0-2.56h0a1.28,1.28,0,0,0,0,2.56Z" transform="translate(-0.76 -0.98)"/>
    <circle class="cls-3" cx="53.11" cy="28.15" r="3.2"/>
  </g>
</svg>
