<svg id="crashCymbals" xmlns="http://www.w3.org/2000/svg" xmlns:xlink="http://www.w3.org/1999/xlink" width="87" height="87" viewBox="0 0 87 87">
  <defs>
    <style>
      .cls-1 {
        fill: url(#radial-gradient);
      }

      .cls-2 {
        fill: #fff;
      }
    </style>
    <radialGradient id="radial-gradient" cx="44.11" cy="44.56" r="43.5" gradientUnits="userSpaceOnUse">
      <stop offset="0" stop-color="#f7931e"/>
      <stop offset="1"/>
    </radialGradient>
  </defs>
  <path class="cls-1" d="M44.11,1.06a43.49,43.49,0,1,0,43.5,43.5A43.32,43.32,0,0,0,44.11,1.06Z" transform="translate(-0.61 -1.06)"/>
  <g>
    <path class="cls-2" d="M53.71,17.33a1.09,1.09,0,0,0-1.2,1,1.08,1.08,0,0,0,1,1.19A25.24,25.24,0,0,1,50.6,69.79q-1.05,0-2.1-.09A27.39,27.39,0,1,0,37.62,72a27.72,27.72,0,0,0,6.49-.78A27.77,27.77,0,0,0,50.6,72a27.4,27.4,0,0,0,3.11-54.63ZM37.62,69.79A25.24,25.24,0,1,1,62.86,44.56,25.26,25.26,0,0,1,37.62,69.79Z" transform="translate(-0.61 -1.06)"/>
    <path class="cls-2" d="M37.62,34.46a10.09,10.09,0,0,0-4.72,19,17.79,17.79,0,0,0-.69,4.42,5.41,5.41,0,0,0,10.82,0,19.6,19.6,0,0,0-.93-5.3v0a53.56,53.56,0,0,0-3.51-8.52,1.1,1.1,0,0,0-1-.58,1.08,1.08,0,0,0-.95.58,54.66,54.66,0,0,0-3.13,7.3,7.93,7.93,0,1,1,12-6.79,7.8,7.8,0,0,1-1.69,4.89,1.08,1.08,0,0,0,1.7,1.34,10,10,0,0,0,2.16-6.23A10.11,10.11,0,0,0,37.62,34.46Zm0,12.56a52.34,52.34,0,0,1,2.09,5.19,7.94,7.94,0,0,1-4.18,0A52.34,52.34,0,0,1,37.62,47Zm-2.7,7.26a10.06,10.06,0,0,0,2.7.37,10.24,10.24,0,0,0,2.71-.37,15.5,15.5,0,0,1,.54,3.61,3.25,3.25,0,1,1-6.49,0A15,15,0,0,1,34.92,54.28Z" transform="translate(-0.61 -1.06)"/>
  </g>
</svg>
