<svg id="_2-hiHat" data-name="2-hiHat" xmlns="http://www.w3.org/2000/svg" xmlns:xlink="http://www.w3.org/1999/xlink" width="87" height="87" viewBox="0 0 87 87">
  <defs>
    <style>
      .cls-1 {
        fill: url(#radial-gradient);
      }

      .cls-2 {
        fill: #fff;
      }
    </style>
    <radialGradient id="radial-gradient" cx="44.26" cy="44.48" r="43.5" gradientUnits="userSpaceOnUse">
      <stop offset="0" stop-color="#f0f"/>
      <stop offset="1"/>
    </radialGradient>
  </defs>
  <path class="cls-1" d="M44.26,1a43.5,43.5,0,1,0,43.5,43.5A43.32,43.32,0,0,0,44.26,1Z" transform="translate(-0.76 -0.98)"/>
  <g>
    <path class="cls-2" d="M69.81,26.8h0a1,1,0,0,0,.44-1.92c-5.09-2.44-10.59-4.82-17-5a9.84,9.84,0,0,0-5.67-5.24V13.14a3.29,3.29,0,0,0-6.58,0v1.52a9.86,9.86,0,0,0-5.68,5.24c-6.43.17-12.12,2.64-17,5A1,1,0,0,0,17.76,26a1,1,0,0,0,1,.79h12a1,1,0,1,0,0-2H23.46A32.8,32.8,0,0,1,36,21.92a1,1,0,0,0,1-.67,7.79,7.79,0,0,1,14.65,0,1,1,0,0,0,1,.67,32.21,32.21,0,0,1,12.58,2.86l-29.55,0h0a1,1,0,1,0,0,2h7.7v2H18.73a1,1,0,0,0-.44,1.93c5.09,2.44,10.59,4.82,17,5A9.88,9.88,0,0,0,41,40.9V59.61a5.94,5.94,0,0,0-2.67,5A5.79,5.79,0,0,0,38.84,67L31,77.47a1,1,0,0,0,.21,1.42,1,1,0,0,0,.6.2,1,1,0,0,0,.82-.4l7.4-9.9a5.93,5.93,0,0,0,3.2,1.66v7.64a1,1,0,1,0,2,0V70.45a6,6,0,0,0,3.21-1.66l7.4,9.9a1,1,0,0,0,.82.4,1,1,0,0,0,.81-1.62L49.72,67a6,6,0,0,0-2.17-7.45v-4a1,1,0,0,0-2,0v3.2a5.67,5.67,0,0,0-1.24-.13,6,6,0,0,0-1.28.13V41.39a9.07,9.07,0,0,0,1.28.09,10.19,10.19,0,0,0,1.24-.08v9.41a1,1,0,1,0,2,0v-9.9a9.83,9.83,0,0,0,5.7-5.24c6.43-.17,12.12-2.64,17-5a1,1,0,0,0-.44-1.93H45.29v-2ZM43,14.17v-1a1.26,1.26,0,1,1,2.52,0v1a10.69,10.69,0,0,0-1.27-.08A10.36,10.36,0,0,0,43,14.17Zm5.22,50.4a3.95,3.95,0,1,1-3.94-3.94A3.95,3.95,0,0,1,48.22,64.57Zm4.34-30.92a1,1,0,0,0-1,.67,7.79,7.79,0,0,1-14.64,0,1,1,0,0,0-1-.67,32.31,32.31,0,0,1-12.58-2.86l41.64,0A32.75,32.75,0,0,1,52.56,33.65Z" transform="translate(-0.76 -0.98)"/>
    <path class="cls-2" d="M72.42,20.48a57.55,57.55,0,0,0-12.64-4.7,1,1,0,1,0-.43,2,55.35,55.35,0,0,1,12.2,4.54,1,1,0,0,0,.43.1,1,1,0,0,0,.92-.58A1,1,0,0,0,72.42,20.48Z" transform="translate(-0.76 -0.98)"/>
    <path class="cls-2" d="M32.89,40.56a1,1,0,0,0,.1-2c-6.11-.59-11.26-2.86-16-5.14a1,1,0,0,0-.87,1.83c4.91,2.36,10.25,4.71,16.69,5.33Z" transform="translate(-0.76 -0.98)"/>
  </g>
</svg>
