<svg id="_11-bubblyPan" data-name="11-bubblyPan" xmlns="http://www.w3.org/2000/svg" xmlns:xlink="http://www.w3.org/1999/xlink" width="87" height="87" viewBox="0 0 87 87">
  <defs>
    <style>
      .cls-1 {
        fill: url(#radial-gradient);
      }

      .cls-2 {
        fill: #fff;
      }
    </style>
    <radialGradient id="radial-gradient" cx="44.33" cy="43.33" r="43.5" gradientUnits="userSpaceOnUse">
      <stop offset="0" stop-color="red"/>
      <stop offset="1"/>
    </radialGradient>
  </defs>
  <path class="cls-1" d="M44.33-.17a43.5,43.5,0,0,0,0,87,43.5,43.5,0,0,0,0-87Z" transform="translate(-0.83 0.17)"/>
  <path class="cls-2" d="M43.65,55a1,1,0,0,0-1,1V57a1,1,0,0,0,2,0V55.94A1,1,0,0,0,43.65,55Z" transform="translate(-0.83 0.17)"/>
  <path class="cls-2" d="M73,47a6.14,6.14,0,0,0-2-3.93,26.74,26.74,0,0,0,.48-11.58c-.84-4.31-2.79-7.15-5.49-8a6.62,6.62,0,0,0-1.46-.29,8.49,8.49,0,0,0,0-.88,8.35,8.35,0,0,0-9.76-8.21,6.24,6.24,0,0,0-11.19-1.44,6.23,6.23,0,0,0-11.18,1.44,8.3,8.3,0,0,0-9.71,9.08,7.29,7.29,0,0,0-1.46.3c-2.7.83-4.65,3.67-5.49,8A26.62,26.62,0,0,0,16.28,43a6.23,6.23,0,0,0,.86,9.77,7.29,7.29,0,0,0,4.53,10.18c0,.11,0,.23,0,.35a9.38,9.38,0,0,0,11.69,9.1,5.7,5.7,0,0,0,10.3,2,5.71,5.71,0,0,0,10.31-2,9.38,9.38,0,0,0,11.69-9.1c0-.12,0-.23,0-.35a7.3,7.3,0,0,0,4.53-10.18A6.23,6.23,0,0,0,73,47Zm-4.55,4.49A1,1,0,0,0,68,52.93a5.32,5.32,0,0,1-6.62,7.84,6,6,0,0,0,.5-1.48,1,1,0,0,0-1.92-.4,4.28,4.28,0,0,1-7.21,2.17,1,1,0,0,0-1.39,0,1,1,0,0,0,0,1.39,6.25,6.25,0,0,0,8.82,0l0-.06a7.3,7.3,0,0,0,3.4.83h0v.07a7.42,7.42,0,0,1-13,4.91,1,1,0,0,0-1.38-.09,1,1,0,0,0-.09,1.39,9.44,9.44,0,0,0,2.87,2.2,3.74,3.74,0,0,1-7.45-.53v-10a1,1,0,0,0-2,0v1.33a7.27,7.27,0,0,0-5.32-2.31h-.07V59.09a6.24,6.24,0,0,0-3.74-5.72,1,1,0,0,0-1.3.51,1,1,0,0,0,.51,1.29,4.28,4.28,0,0,1,2.57,3.92V60.5a7.27,7.27,0,0,0-4,3,1,1,0,1,0,1.64,1.08,5.32,5.32,0,0,1,9.75,2.94v3.68a3.74,3.74,0,0,1-7.45.53,9.44,9.44,0,0,0,2.87-2.2A1,1,0,0,0,38,68.11a1,1,0,0,0-1.38.09,7.42,7.42,0,0,1-13-4.91v-.07h.07a7.25,7.25,0,0,0,4-1.21,1,1,0,1,0-1.08-1.64,5.32,5.32,0,0,1-7.33-7.44.94.94,0,0,0,.13-.83,1,1,0,0,0-.56-.63,4.27,4.27,0,0,1,1.66-8.2,1,1,0,1,0,0-2,6.14,6.14,0,0,0-2.53.54,24.68,24.68,0,0,1-.27-10c.69-3.51,2.2-5.87,4.15-6.48a3.56,3.56,0,0,1,3.14.29c1.8,1.18,2.54,4,2.81,5.43a8.23,8.23,0,0,0-3.67,2.1,1,1,0,1,0,1.37,1.4,6.37,6.37,0,0,1,9.4.53A3.09,3.09,0,0,0,34.27,37v.07H31.05a1,1,0,1,0,0,2h3.22v3.29h-4.5a3.09,3.09,0,1,0,0,2h4.5V47.6H31.05a1,1,0,0,0,0,2h3.22v.07a3.08,3.08,0,0,0,3.08,3.08H50A3.08,3.08,0,0,0,53,49.64v-.07h3.22a1,1,0,0,0,0-2H53V44.32h4.5a3.09,3.09,0,1,0,0-2H53V39.06h3.22a1,1,0,0,0,0-2H53V37A3.08,3.08,0,0,0,50,34H37.35a3.08,3.08,0,0,0-.75.09A8.33,8.33,0,0,0,30,30.8h-.21c-.3-1.65-1.22-5.17-3.67-6.79a5.19,5.19,0,0,0-1.33-.62,5.05,5.05,0,0,1-.11-1.07A6.38,6.38,0,0,1,31.05,16a6.3,6.3,0,0,1,4.55,1.92A1,1,0,0,0,37,16.49a8.36,8.36,0,0,0-2.66-1.82A4.27,4.27,0,0,1,42.67,16V19.7A4.8,4.8,0,0,1,34,22.46a1,1,0,1,0-1.6,1.13,6.75,6.75,0,0,0,10.32.87v6.27a1,1,0,0,0,2,0V16A4.27,4.27,0,0,1,53,14.67a8.22,8.22,0,0,0-2.53,1.7,1,1,0,1,0,1.37,1.4,6.37,6.37,0,0,1,10.74,5.62,5.08,5.08,0,0,0-2,1.14A1,1,0,0,0,61.84,26a3.46,3.46,0,0,1,3.58-.63c2,.61,3.46,3,4.15,6.48a24.63,24.63,0,0,1-.29,10.06,6.66,6.66,0,0,0-2.75-.6,1,1,0,0,0,0,2A4.42,4.42,0,0,1,71,47.15,4.27,4.27,0,0,1,68.43,51.47ZM28,43.33a1.12,1.12,0,1,1-1.12-1.11A1.12,1.12,0,0,1,28,43.33Zm8.26,6.31V37a1.12,1.12,0,0,1,1.12-1.12H50A1.12,1.12,0,0,1,51.08,37V49.64A1.12,1.12,0,0,1,50,50.75H37.35A1.12,1.12,0,0,1,36.23,49.64Zm23.11-6.31a1.12,1.12,0,1,1,1.12,1.12A1.12,1.12,0,0,1,59.34,43.33Z" transform="translate(-0.83 0.17)"/>
  <path class="cls-2" d="M49.49,19.28a1,1,0,0,0-1.22.66,8.31,8.31,0,0,0-.35,2.38,1,1,0,1,0,2,0,6.56,6.56,0,0,1,.26-1.82A1,1,0,0,0,49.49,19.28Z" transform="translate(-0.83 0.17)"/>
  <path class="cls-2" d="M47.86,38.15H39.45a1,1,0,0,0-1,1v8.41a1,1,0,0,0,1,1h8.41a1,1,0,0,0,1-1V39.13A1,1,0,0,0,47.86,38.15Zm-1,8.4H40.44V40.11h6.43Z" transform="translate(-0.83 0.17)"/>
</svg>
