<svg xmlns="http://www.w3.org/2000/svg" xmlns:xlink="http://www.w3.org/1999/xlink" viewBox="0 0 504 659"><defs><style>.cls-1{fill:url(#linear-gradient);}.cls-2{stroke:#b5b4b4;stroke-miterlimit:10;}.cls-3{fill:url(#linear-gradient-2);}.cls-4{fill:url(#linear-gradient-3);}.cls-5{fill:url(#linear-gradient-4);}.cls-6{fill:url(#linear-gradient-5);}.cls-7{fill:url(#linear-gradient-6);}.cls-8{fill:url(#linear-gradient-7);}.cls-9{fill:url(#linear-gradient-8);}.cls-10{fill:url(#linear-gradient-9);}.cls-11{fill:url(#linear-gradient-10);}.cls-12{fill:url(#linear-gradient-11);}.cls-13{fill:url(#linear-gradient-12);}</style><linearGradient id="linear-gradient" x1="3.54" y1="84.66" x2="148.69" y2="84.66" gradientTransform="translate(-8.54 160.78) rotate(-90)" gradientUnits="userSpaceOnUse"><stop offset="0" stop-color="#fff"/><stop offset="0.05" stop-color="#fbf4e2"/><stop offset="0.14" stop-color="#f6e4b9"/><stop offset="0.23" stop-color="#f1d696"/><stop offset="0.31" stop-color="#eecc7c"/><stop offset="0.41" stop-color="#ebc569"/><stop offset="0.5" stop-color="#e9c05e"/><stop offset="0.6" stop-color="#e9bf5a"/><stop offset="0.67" stop-color="#ebc363"/><stop offset="0.78" stop-color="#f0cf7c"/><stop offset="0.93" stop-color="#f8e3a4"/><stop offset="1" stop-color="#fdeeba"/></linearGradient><linearGradient id="linear-gradient-2" x1="3.54" y1="249.66" x2="148.69" y2="249.66" gradientTransform="translate(-173.54 325.78) rotate(-90)" xlink:href="#linear-gradient"/><linearGradient id="linear-gradient-3" x1="3.54" y1="414.66" x2="148.69" y2="414.66" gradientTransform="translate(-338.54 490.79) rotate(-90)" xlink:href="#linear-gradient"/><linearGradient id="linear-gradient-4" x1="3.54" y1="579.66" x2="148.69" y2="579.66" gradientTransform="translate(-503.54 655.79) rotate(-90)" xlink:href="#linear-gradient"/><linearGradient id="linear-gradient-5" x1="178.54" y1="85.66" x2="323.69" y2="85.66" gradientTransform="translate(165.47 336.78) rotate(-90)" xlink:href="#linear-gradient"/><linearGradient id="linear-gradient-6" x1="178.54" y1="250.66" x2="323.69" y2="250.66" gradientTransform="translate(0.47 501.78) rotate(-90)" xlink:href="#linear-gradient"/><linearGradient id="linear-gradient-7" x1="178.54" y1="415.66" x2="323.69" y2="415.66" gradientTransform="translate(-164.53 666.79) rotate(-90)" xlink:href="#linear-gradient"/><linearGradient id="linear-gradient-8" x1="178.54" y1="580.66" x2="323.69" y2="580.66" gradientTransform="translate(-329.53 831.79) rotate(-90)" xlink:href="#linear-gradient"/><linearGradient id="linear-gradient-9" x1="353.54" y1="86.66" x2="498.69" y2="86.66" gradientTransform="translate(339.47 512.78) rotate(-90)" xlink:href="#linear-gradient"/><linearGradient id="linear-gradient-10" x1="353.54" y1="251.66" x2="498.69" y2="251.66" gradientTransform="translate(174.47 677.78) rotate(-90)" xlink:href="#linear-gradient"/><linearGradient id="linear-gradient-11" x1="353.54" y1="416.66" x2="498.69" y2="416.66" gradientTransform="translate(9.47 842.79) rotate(-90)" xlink:href="#linear-gradient"/><linearGradient id="linear-gradient-12" x1="353.54" y1="581.66" x2="498.69" y2="581.66" gradientTransform="translate(-155.53 1007.79) rotate(-90)" xlink:href="#linear-gradient"/></defs><title>grid</title><g id="grid"><rect class="cls-1" x="3.54" y="12.08" width="145.15" height="145.15" rx="6.51" transform="translate(160.78 8.54) rotate(90)"/><rect class="cls-2" x="9.86" y="18.32" width="132.87" height="132.87" rx="7.62" transform="translate(161.05 8.45) rotate(90)"/><rect class="cls-3" x="3.54" y="177.08" width="145.15" height="145.15" rx="6.51" transform="translate(325.78 173.55) rotate(90)"/><rect class="cls-2" x="9.86" y="183.32" width="132.87" height="132.87" rx="7.62" transform="translate(326.05 173.46) rotate(90)"/><rect class="cls-4" x="3.54" y="342.08" width="145.15" height="145.15" rx="6.51" transform="translate(490.78 338.56) rotate(90)"/><rect class="cls-2" x="9.86" y="348.32" width="132.87" height="132.87" rx="7.62" transform="translate(491.05 338.46) rotate(90)"/><rect class="cls-5" x="3.54" y="507.08" width="145.15" height="145.15" rx="6.51" transform="translate(655.78 503.56) rotate(90)"/><rect class="cls-2" x="9.86" y="513.32" width="132.87" height="132.87" rx="7.62" transform="translate(656.05 503.47) rotate(90)"/><rect class="cls-6" x="178.54" y="13.08" width="145.15" height="145.15" rx="6.51" transform="translate(336.78 -165.45) rotate(90)"/><rect class="cls-2" x="184.86" y="19.32" width="132.87" height="132.87" rx="7.62" transform="translate(337.06 -165.55) rotate(90)"/><rect class="cls-7" x="178.54" y="178.08" width="145.15" height="145.15" rx="6.51" transform="translate(501.78 -0.45) rotate(90)"/><rect class="cls-2" x="184.86" y="184.32" width="132.87" height="132.87" rx="7.62" transform="translate(502.06 -0.54) rotate(90)"/><rect class="cls-8" x="178.54" y="343.08" width="145.15" height="145.15" rx="6.51" transform="translate(666.78 164.56) rotate(90)"/><rect class="cls-2" x="184.86" y="349.32" width="132.87" height="132.87" rx="7.62" transform="translate(667.06 164.46) rotate(90)"/><rect class="cls-9" x="178.54" y="508.08" width="145.15" height="145.15" rx="6.51" transform="translate(831.78 329.56) rotate(90)"/><rect class="cls-2" x="184.86" y="514.32" width="132.87" height="132.87" rx="7.62" transform="translate(832.06 329.47) rotate(90)"/><rect class="cls-10" x="353.54" y="14.08" width="145.15" height="145.15" rx="6.51" transform="translate(512.79 -339.45) rotate(90)"/><rect class="cls-2" x="359.86" y="20.32" width="132.87" height="132.87" rx="7.62" transform="translate(513.06 -339.55) rotate(90)"/><rect class="cls-11" x="353.54" y="179.08" width="145.15" height="145.15" rx="6.51" transform="translate(677.79 -174.45) rotate(90)"/><rect class="cls-2" x="359.86" y="185.32" width="132.87" height="132.87" rx="7.62" transform="translate(678.06 -174.54) rotate(90)"/><rect class="cls-12" x="353.54" y="344.08" width="145.15" height="145.15" rx="6.51" transform="translate(842.79 -9.44) rotate(90)"/><rect class="cls-2" x="359.86" y="350.32" width="132.87" height="132.87" rx="7.62" transform="translate(843.06 -9.54) rotate(90)"/><rect class="cls-13" x="353.54" y="509.08" width="145.15" height="145.15" rx="6.51" transform="translate(1007.79 155.56) rotate(90)"/><rect class="cls-2" x="359.86" y="515.32" width="132.87" height="132.87" rx="7.62" transform="translate(1008.06 155.47) rotate(90)"/></g></svg>