<svg xmlns="http://www.w3.org/2000/svg" viewBox="0 0 273 273"><defs><style>.cls-1{fill:#eec31b;}</style></defs><title>sax</title><g id="instruments"><path class="cls-1" d="M244.74,130.75c-35.69-33.21-97.67-33.17-87.42-24.34S175.45,145,175.45,145s.15.54.38,1.43a12.32,12.32,0,0,1,3.27-1,12.73,12.73,0,1,1,1.32,25.29c.18,1.45.35,2.92.51,4.43a10.22,10.22,0,0,1,2.75,20.26,9.67,9.67,0,0,1-1.93.09c0,1.31-.11,2.62-.2,3.92a8.3,8.3,0,1,1-2.68,16.08C172.35,237,160,212.82,160,212.82s-5.25-20.19-12.25-47.24c3.82-.81,6.51-3.57,6.08-6.41s-4.16-4.91-8.3-4.29L145,155q-.93-3.57-1.88-7.25c3.8-.81,6.48-3.57,6.05-6.4-.44-3-4.16-4.92-8.3-4.3l-.48.11-1.87-7.26c3.78-.82,6.44-3.56,6-6.39-.45-3-4.17-4.91-8.31-4.29-.15,0-.29.07-.43.1q-.94-3.65-1.87-7.26c3.76-.84,6.39-3.57,6-6.38-.45-3-4.17-4.92-8.3-4.3a3.54,3.54,0,0,0-.38.09c-8.91-34.76-16.8-65.94-18.27-73C109.31,10.71,96.37,6.18,96.37,6.18L52.45,9,37.86,21.39S62,16,80.28,16.85s16.59,7.63,19.81,26,9.77,60.49,22.64,129.72,29.62,83,29.62,83c40.69,31.95,56.84-12.86,60.88-21.52s7.55-40,10.06-65,14.52-25.65,14.52-25.65C267.78,152.61,244.74,130.75,244.74,130.75Z"/><path class="cls-1" d="M168.4,159.88a12.72,12.72,0,0,0,12,10.81,208.27,208.27,0,0,0-4.59-24.28A12.68,12.68,0,0,0,168.4,159.88Z"/><path class="cls-1" d="M180.64,175.13a10.23,10.23,0,0,0,1.11,20.34,149.17,149.17,0,0,0-.82-20.35Z"/><path class="cls-1" d="M179.93,211.34a85.74,85.74,0,0,0,1.62-12,10.12,10.12,0,0,0-1.1.05,8.3,8.3,0,0,0-1.58,16C179.24,214.24,179.6,212.88,179.93,211.34Z"/></g></svg>