<svg id="_10-bongos" data-name="10-bongos" xmlns="http://www.w3.org/2000/svg" xmlns:xlink="http://www.w3.org/1999/xlink" width="87" height="87" viewBox="0 0 87 87">
  <defs>
    <style>
      .cls-1 {
        fill: url(#radial-gradient);
      }

      .cls-2 {
        fill: #fff;
      }
    </style>
    <radialGradient id="radial-gradient" cx="44.33" cy="43.33" r="43.5" gradientUnits="userSpaceOnUse">
      <stop offset="0" stop-color="#bdccd4"/>
      <stop offset="1"/>
    </radialGradient>
  </defs>
  <path class="cls-1" d="M44.33-.17a43.5,43.5,0,0,0,0,87,43.5,43.5,0,0,0,0-87Z" transform="translate(-0.83 0.17)"/>
  <path class="cls-2" d="M77.77,32.35h-.52v-.93a3.76,3.76,0,0,0-3.76-3.75H51.65a3.75,3.75,0,0,0-3.75,3.75v.93h-.53a1.57,1.57,0,0,0-1.57,1.57v2.13a1.58,1.58,0,0,0,1.57,1.58h.34a35.69,35.69,0,0,0-.42,4.49H41.37A35.68,35.68,0,0,0,41,37.63h.33a1.58,1.58,0,0,0,1.58-1.58V33.92a1.57,1.57,0,0,0-1.58-1.57h-.52v-.93A3.76,3.76,0,0,0,37,27.67H26.83a1,1,0,0,0,0,2H37a1.7,1.7,0,0,1,1.7,1.7v.93H13.48v-.93a1.7,1.7,0,0,1,1.69-1.7h7.55a1,1,0,1,0,0-2H15.17a3.75,3.75,0,0,0-3.75,3.75v.93H10.9a1.57,1.57,0,0,0-1.58,1.57v2.13a1.58,1.58,0,0,0,1.58,1.58h.33a36.09,36.09,0,0,0,2.11,18.9l.39,1A2.3,2.3,0,0,0,15.88,59H36.31a2.29,2.29,0,0,0,2.14-1.46l.4-1a34.68,34.68,0,0,0,1.42-4.4h8.12a36.41,36.41,0,0,0,1.43,4.4l.39,1A2.3,2.3,0,0,0,52.36,59H72.79a2.29,2.29,0,0,0,2.14-1.46l.4-1a36.21,36.21,0,0,0,2.11-18.9h.33a1.58,1.58,0,0,0,1.58-1.58V33.92a1.57,1.57,0,0,0-1.58-1.57Zm-29.91,2H58.78a1,1,0,1,0,0-2H50v-.93a1.7,1.7,0,0,1,1.69-1.7H73.49a1.7,1.7,0,0,1,1.7,1.7v.93H62.9a1,1,0,1,0,0,2H77.29v1.17H47.86ZM67.1,56.94H58.72l-1.4-3.62a28.28,28.28,0,0,1-1.9-10.19v-.94a2.3,2.3,0,0,0,1.14-1.27l1.18-3.29H68.08l1.18,3.29a2.3,2.3,0,0,0,1.14,1.27v.94a28.28,28.28,0,0,1-1.9,10.19ZM54.62,40.23a.25.25,0,0,1-.23.13c-.06,0-.2,0-.24-.13l-.93-2.6h2.33Zm17.05,0c0,.11-.18.13-.24.13a.25.25,0,0,1-.23-.13l-.93-2.6H72.6ZM11.38,34.4H40.81v1.17H11.38ZM30.63,56.94H22.24l-1.4-3.62a28.28,28.28,0,0,1-1.9-10.19v-.94a2.3,2.3,0,0,0,1.14-1.27l1.18-3.29H31.6l1.18,3.29a2.3,2.3,0,0,0,1.14,1.27v.94A28.28,28.28,0,0,1,32,53.32ZM18.14,40.23a.25.25,0,0,1-.23.13c-.06,0-.2,0-.24-.13l-.93-2.6h2.33Zm17,0c0,.11-.18.13-.24.13a.25.25,0,0,1-.23-.13l-.93-2.6h2.33ZM15.65,56.78l-.4-1a34.2,34.2,0,0,1-1.94-18.15h1.25l1.18,3.29a2.23,2.23,0,0,0,1.14,1.27v.94a30.35,30.35,0,0,0,2,10.93L20,56.94H15.88a.25.25,0,0,1-.23-.16Zm21.29-1-.4,1a.25.25,0,0,1-.23.16H32.83l1.11-2.88a30.14,30.14,0,0,0,2-10.93v-.94a2.23,2.23,0,0,0,1.14-1.27l1.18-3.29h.57a34.1,34.1,0,0,1-1.93,18.15Zm3.79-5.71a35.28,35.28,0,0,0,.65-5.89h5.91a36.35,36.35,0,0,0,.64,5.89Zm11.4,6.71-.4-1a34.2,34.2,0,0,1-1.94-18.15H51l1.18,3.29a2.23,2.23,0,0,0,1.14,1.27v.94a30.14,30.14,0,0,0,2,10.93l1.11,2.88H52.36a.24.24,0,0,1-.23-.16Zm21.29-1-.4,1a.25.25,0,0,1-.23.16H69.31l1.11-2.88a30.35,30.35,0,0,0,2-10.93v-.94a2.23,2.23,0,0,0,1.14-1.27l1.18-3.29h.57a34.1,34.1,0,0,1-1.93,18.15Z" transform="translate(-0.83 0.17)"/>
</svg>
