<svg id="_6-vinyl" data-name="6-vinyl" xmlns="http://www.w3.org/2000/svg" xmlns:xlink="http://www.w3.org/1999/xlink" width="87" height="87" viewBox="0 0 87 87">
  <defs>
    <style>
      .cls-1 {
        fill: url(#radial-gradient);
      }

      .cls-2 {
        fill: #fff;
      }
    </style>
    <radialGradient id="radial-gradient" cx="44.26" cy="44.48" r="43.5" gradientUnits="userSpaceOnUse">
      <stop offset="0" stop-color="#736357"/>
      <stop offset="1"/>
    </radialGradient>
  </defs>
  <path class="cls-1" d="M44.26,1a43.5,43.5,0,1,0,43.5,43.5A43.32,43.32,0,0,0,44.26,1Z" transform="translate(-0.76 -0.98)"/>
  <g>
    <path class="cls-2" d="M73.1,19H15.42a3.83,3.83,0,0,0-3.82,3.83V66.17A3.83,3.83,0,0,0,15.42,70H73.1a3.83,3.83,0,0,0,3.82-3.83V22.79A3.83,3.83,0,0,0,73.1,19Zm1.27,47.21a1.27,1.27,0,0,1-1.27,1.28H15.42a1.27,1.27,0,0,1-1.27-1.28V22.79a1.28,1.28,0,0,1,1.27-1.28H73.1a1.28,1.28,0,0,1,1.27,1.28Z" transform="translate(-0.76 -0.98)"/>
    <path class="cls-2" d="M37.11,24.07A20.42,20.42,0,1,0,57.53,44.48,20.43,20.43,0,0,0,37.11,24.07Zm0,38.27A17.86,17.86,0,1,1,55,44.48,17.88,17.88,0,0,1,37.11,62.34Z" transform="translate(-0.76 -0.98)"/>
    <path class="cls-2" d="M37.11,57.24a1.28,1.28,0,0,0,0,2.55A15.33,15.33,0,0,0,52.43,44.48a1.28,1.28,0,0,0-2.56,0A12.77,12.77,0,0,1,37.11,57.24Z" transform="translate(-0.76 -0.98)"/>
    <path class="cls-2" d="M65.44,24.07A6.38,6.38,0,0,0,64.16,36.7V55.18l-5,5a1.27,1.27,0,0,0,.91,2.17A1.27,1.27,0,0,0,61,62l5.36-5.36a1.29,1.29,0,0,0,.38-.9v-19a6.38,6.38,0,0,0-1.28-12.63Zm1.28,10v-3.6a1.28,1.28,0,0,0-2.56,0v3.6a3.83,3.83,0,1,1,2.56,0Z" transform="translate(-0.76 -0.98)"/>
    <path class="cls-2" d="M46.05,44.48a8.94,8.94,0,1,0-8.94,8.93A8.93,8.93,0,0,0,46.05,44.48Zm-12.76,0a3.83,3.83,0,1,1,3.82,3.83A3.83,3.83,0,0,1,33.29,44.48Z" transform="translate(-0.76 -0.98)"/>
    <path class="cls-2" d="M38.39,30.45a1.28,1.28,0,0,0-1.28-1.28A15.33,15.33,0,0,0,21.8,44.48a1.28,1.28,0,0,0,2.56,0A12.77,12.77,0,0,1,37.11,31.72,1.27,1.27,0,0,0,38.39,30.45Z" transform="translate(-0.76 -0.98)"/>
  </g>
</svg>
