<svg id="Kick" xmlns="http://www.w3.org/2000/svg" xmlns:xlink="http://www.w3.org/1999/xlink" width="87" height="86.98" viewBox="0 0 87 86.98">
  <defs>
    <style>
      .cls-1 {
        fill: url(#radial-gradient);
      }

      .cls-2 {
        fill: #fff;
      }
    </style>
    <radialGradient id="radial-gradient" cx="44.33" cy="43.33" r="43.5" gradientTransform="translate(43.63 -18.66) rotate(45)" gradientUnits="userSpaceOnUse">
      <stop offset="0" stop-color="lime"/>
      <stop offset="1"/>
    </radialGradient>
  </defs>
  <path class="cls-1" d="M75.09,12.57a43.5,43.5,0,1,0,0,61.52A43.3,43.3,0,0,0,75.09,12.57Z" transform="translate(-0.83 0.16)"/>
  <path class="cls-2" d="M45.91,78.47V75.86a.81.81,0,0,0-1.61,0v2.61a.8.8,0,0,1-1.59,0V57.15H44.3v15a.81.81,0,1,0,1.61,0v-1.8A27.29,27.29,0,0,0,64,61.2a28.71,28.71,0,0,0,2.3-3A27.61,27.61,0,0,0,68.68,32,27.55,27.55,0,0,0,66,27.32l-.19-.27a27.74,27.74,0,0,0-4.28-4.71,27.22,27.22,0,0,0-18.06-6.79h0a27.63,27.63,0,0,0-7.17.95,27.13,27.13,0,0,0-6.58,2.75,28.18,28.18,0,0,0-5.61,4.33A27.24,27.24,0,0,0,16.1,42c0,.42,0,.84,0,1.26A27.46,27.46,0,0,0,17.28,51l0,.08a27.27,27.27,0,0,0,3,6.51,29.72,29.72,0,0,0,1.91,2.65c.35.43.71.84,1.08,1.25s.92,1,1.4,1.41A27.59,27.59,0,0,0,30.6,67.2a27.23,27.23,0,0,0,6.68,2.51,27.58,27.58,0,0,0,3.82.6v8.16a2.41,2.41,0,0,0,4.11,1.7,2.42,2.42,0,0,0,.7-1.7Zm.37-22.93H40.74a1.27,1.27,0,0,1-1.28-1.27V47.38a1.26,1.26,0,0,1,1.28-1.27h5.54a1.26,1.26,0,0,1,.9.37,1.23,1.23,0,0,1,.38.9v6.89a1.23,1.23,0,0,1-.38.9,1.26,1.26,0,0,1-.9.37Zm2.89-8.16a2.89,2.89,0,0,0-2.89-2.88H40.74a2.87,2.87,0,0,0-2.89,2.88v.42a7.44,7.44,0,1,1,11.32,0ZM45.91,68.69V65.37a21.83,21.83,0,0,0,2.65-.43l.85,3.19A26.87,26.87,0,0,1,45.91,68.69Zm14.76-6.41A26.06,26.06,0,0,1,51,67.71l-.85-3.18a22,22,0,0,0,3.39-1.35,22.47,22.47,0,0,0,4.33-2.81l1-.89,2.33,2.32s-.49.45-.52.48Zm1.66-1.62L60,58.34a22.47,22.47,0,0,0,5-8.75l3.19.85a25.71,25.71,0,0,1-5.91,10.22Zm6.32-11.78L65.47,48a22.66,22.66,0,0,0,0-10.1l3.18-.85A26.12,26.12,0,0,1,68.65,48.88ZM62.33,25.3a25.78,25.78,0,0,1,5.91,10.22l-3.19.86a22.33,22.33,0,0,0-5-8.75Zm-8.6-6a24.29,24.29,0,0,1,2.65,1.33,26.15,26.15,0,0,1,4.81,3.56l-2.33,2.33s-.28-.26-.32-.3a23.45,23.45,0,0,0-3-2.26c-.57-.36-1.16-.69-1.76-1a36.7,36.7,0,0,0-3.67-1.5L51,18.26C51,18.21,53.5,19.17,53.73,19.27ZM25.9,24.1l.45-.41.07-.06a25.74,25.74,0,0,1,9.63-5.37l.85,3.17a22.87,22.87,0,0,0-8.75,5.06l-2.32-2.33.07-.06Zm-1.21,1.2L27,27.63a22.3,22.3,0,0,0-5,8.75l-3.19-.86A25.66,25.66,0,0,1,24.69,25.3ZM18.37,48.88a25.84,25.84,0,0,1,0-11.8l3.17.85a22.66,22.66,0,0,0,0,10.1Zm6.32,11.78a25.59,25.59,0,0,1-5.91-10.22L22,49.59a22.44,22.44,0,0,0,5,8.75l-2.32,2.32ZM25.13,53a20.91,20.91,0,0,1,3.58-24.8,23.54,23.54,0,0,1,2.8-2.35,21,21,0,0,1,10.08-3.7.8.8,0,1,0-.14-1.6,21.41,21.41,0,0,0-3,.48l-.86-3.18a26,26,0,0,1,11.81,0L48.56,21a22.63,22.63,0,0,0-3.18-.5.81.81,0,0,0-.87.74.81.81,0,0,0,.73.87,20.92,20.92,0,0,1,10.15,3.63c.44.3.87.62,1.27.95l.55.46a21.3,21.3,0,0,1,3.56,4,20.87,20.87,0,0,1,2.13,4,21.22,21.22,0,0,1,1.51,8.66,21.53,21.53,0,0,1-.63,4.37,21.1,21.1,0,0,1-4,8,21.46,21.46,0,0,1-2.38,2.48,21,21,0,0,1-4.31,3c-.34.17-.68.34-1,.49a21.13,21.13,0,0,1-6.14,1.68V57.15h.37a2.89,2.89,0,0,0,2.89-2.88V50c.25-.21.5-.43.74-.66a9.05,9.05,0,1,0-12.8,0c.24.23.48.45.74.66v4.23a2.87,2.87,0,0,0,2.88,2.88h.37v6.61l-.62-.08a21.12,21.12,0,0,1-9.81-4.17c-.52-.41-1-.85-1.52-1.31a20.81,20.81,0,0,1-4-5.21Zm7.24,13.29c-.53-.25-1.06-.53-1.58-.82a25.19,25.19,0,0,1-4.37-3.09c-.2-.18-.4-.37-.59-.57l.56-.56,1.76-1.76.13.11a24.19,24.19,0,0,0,2.51,2,23.1,23.1,0,0,0,3.74,2.07c.2.08,2.36.91,2.37.87l-.85,3.18c0,.09-3.38-1.29-3.68-1.43Zm5.23,1.85.86-3.19a23.83,23.83,0,0,0,2.64.44v3.31a27.43,27.43,0,0,1-3.5-.56Z" transform="translate(-0.83 0.16)"/>
</svg>
