<svg id="snareDrum" xmlns="http://www.w3.org/2000/svg" xmlns:xlink="http://www.w3.org/1999/xlink" width="87" height="87" viewBox="0 0 87 87">
  <defs>
    <style>
      .cls-1 {
        fill: url(#radial-gradient);
      }

      .cls-2 {
        fill: #fff;
        fill-rule: evenodd;
      }
    </style>
    <radialGradient id="radial-gradient" cx="44.26" cy="44.48" r="43.5" gradientUnits="userSpaceOnUse">
      <stop offset="0" stop-color="#7ac943"/>
      <stop offset="1"/>
    </radialGradient>
  </defs>
  <path class="cls-1" d="M44.26,1a43.5,43.5,0,1,0,43.5,43.5A43.32,43.32,0,0,0,44.26,1Z" transform="translate(-0.76 -0.98)"/>
  <path class="cls-2" d="M70.71,65.46,49.61,45.05,66.94,27.14a6.26,6.26,0,0,0,3.21-1.76c2.11-2.11,2.46-5.21.77-6.9a4,4,0,0,0-3.45-1,6.51,6.51,0,0,0-5.21,5l-18,17.41-18-17.41a6.51,6.51,0,0,0-5.21-5,4,4,0,0,0-3.44,1c-1.69,1.69-1.35,4.79.76,6.9a6.26,6.26,0,0,0,3.21,1.76L38.91,45.05,17.81,65.46a4.24,4.24,0,0,0-1.29,3,4.35,4.35,0,0,0,4.36,4.39h0a4.24,4.24,0,0,0,3-1.29l20.32-21,20.33,21a4.2,4.2,0,0,0,3,1.29h0A4.35,4.35,0,0,0,72,68.49a4.24,4.24,0,0,0-1.29-3ZM64,23.76a1,1,0,0,0,.32-.66,4.09,4.09,0,0,1,1.2-2.32,4.15,4.15,0,0,1,2.23-1.19,1.89,1.89,0,0,1,1.6.43c.83.83.48,2.58-.76,3.83A4,4,0,0,1,66.3,25a1.1,1.1,0,0,0-.66.33L48.06,43.54l-2.24-2.16ZM22.22,25a4,4,0,0,1-2.32-1.19c-1.24-1.25-1.59-3-.76-3.83a1.69,1.69,0,0,1,1.22-.45l.38,0A4.15,4.15,0,0,1,23,20.78a4.09,4.09,0,0,1,1.2,2.32,1,1,0,0,0,.32.66L46,44.6l-2.3,2.31L22.88,25.37A1.1,1.1,0,0,0,22.22,25Zm.16,45.05a2.08,2.08,0,0,1-1.48.62h0a2.19,2.19,0,0,1-2.19-2.21A2.08,2.08,0,0,1,19.31,67l7.17-6.93,2.83,2.83Zm46.81,0a2.18,2.18,0,0,1-1.55.64h0a2.1,2.1,0,0,1-1.49-.62l-6.93-7.17L62,60.09,69.21,67a2,2,0,0,1,.62,1.48A2.18,2.18,0,0,1,69.19,70.07Z" transform="translate(-0.76 -0.98)"/>
</svg>
