<svg id="_9electroTones" data-name="9electroTones" xmlns="http://www.w3.org/2000/svg" xmlns:xlink="http://www.w3.org/1999/xlink" width="87" height="87" viewBox="0 0 87 87">
  <defs>
    <style>
      .cls-1 {
        fill: url(#radial-gradient);
      }

      .cls-2 {
        fill: #fff;
      }
    </style>
    <radialGradient id="radial-gradient" cx="44.26" cy="44.48" r="43.5" gradientUnits="userSpaceOnUse">
      <stop offset="0" stop-color="aqua"/>
      <stop offset="1"/>
    </radialGradient>
  </defs>
  <path class="cls-1" d="M44.26,1a43.5,43.5,0,1,0,43.5,43.5A43.32,43.32,0,0,0,44.26,1Z" transform="translate(-0.76 -0.98)"/>
  <g>
    <path class="cls-2" d="M71.53,33.87H70.09v-.59a3.1,3.1,0,0,0-3.1-3.1H63.31a3,3,0,0,0-1.08.2V28.71a18,18,0,0,0-35.94,0v1.67a3,3,0,0,0-1.08-.2H21.53a3.1,3.1,0,0,0-3.1,3.1v.59H17a6.47,6.47,0,0,0-6.47,6.47v7.83a6.92,6.92,0,0,0,6.92,6.92h1v.59a3.1,3.1,0,0,0,3.1,3.1h.9a10.51,10.51,0,0,0,5.13,8,18,18,0,0,0,16.7,11.4,17.77,17.77,0,0,0,8.13-1.94A1,1,0,0,0,52.82,75a1,1,0,0,0-1.33-.43,15.94,15.94,0,0,1-21.22-6.58,10.2,10.2,0,0,0,2.61.33h5a3.63,3.63,0,0,0,3.49,2.64h5.8a3.63,3.63,0,0,0,0-7.25h-5.8a3.62,3.62,0,0,0-3.49,2.63h-5a8.47,8.47,0,0,1-3.72-.85,15.88,15.88,0,0,1-.85-5.14V39A16,16,0,0,1,53,25.65a1,1,0,0,0,1.36-.28A1,1,0,0,0,54.06,24a17.93,17.93,0,0,0-25.79,6.92V28.71a16,16,0,0,1,32,0V30.9a18.15,18.15,0,0,0-2.86-4.09,1,1,0,1,0-1.45,1.35A15.89,15.89,0,0,1,60.21,39V60.3a15.94,15.94,0,0,1-5.44,12A1,1,0,0,0,55.42,74a1,1,0,0,0,.66-.24,17.94,17.94,0,0,0,6.1-13.48V58.57a3,3,0,0,0,1.13.21H67a3.1,3.1,0,0,0,3.1-3.1v-.59h1A6.92,6.92,0,0,0,78,48.17V40.34a6.47,6.47,0,0,0-6.47-6.47ZM19.08,38.92h1.59a1.12,1.12,0,1,1,0,2.24H19.08a1.12,1.12,0,1,1,0-2.24Zm-.65,14.19h-1a4.94,4.94,0,0,1-4.94-4.94V40.34A4.49,4.49,0,0,1,17,35.85h1.44V37a3.1,3.1,0,0,0,0,6V45a3.1,3.1,0,0,0,0,6.06Zm.65-4a1.12,1.12,0,1,1,0-2.24h1.59a1.12,1.12,0,1,1,0,2.24Zm4.29,7.62-.21,0H21.53a1.13,1.13,0,0,1-1.13-1.12V51.14h.27a3.1,3.1,0,0,0,0-6.2H20.4v-1.8h.27a3.1,3.1,0,0,0,0-6.2H20.4V33.28a1.13,1.13,0,0,1,1.13-1.12h3.68a1.12,1.12,0,0,1,1.12,1.12v22.4a1.12,1.12,0,0,1-1.12,1.12H23.57l-.2,0Zm1.05,2h.79a2.94,2.94,0,0,0,1.12-.21V60.3a18.47,18.47,0,0,0,.3,3.26A8.53,8.53,0,0,1,24.42,58.78Zm16.94,6.86h5.8a1.65,1.65,0,1,1,0,3.29h-5.8a1.65,1.65,0,1,1,0-3.29ZM69.43,38.92a1.12,1.12,0,1,1,0,2.24H67.85a1.12,1.12,0,1,1,0-2.24ZM68.12,55.68A1.13,1.13,0,0,1,67,56.8H63.31a1.13,1.13,0,0,1-1.13-1.12V33.28a1.13,1.13,0,0,1,1.13-1.12H67a1.13,1.13,0,0,1,1.13,1.12v3.66h-.27a3.1,3.1,0,0,0,0,6.2h.27v1.8h-.27a3.1,3.1,0,0,0,0,6.2h.27Zm1.31-6.52H67.85a1.12,1.12,0,1,1,0-2.24h1.58a1.12,1.12,0,1,1,0,2.24Zm6.59-1a4.94,4.94,0,0,1-4.94,4.94h-1v-2a3.1,3.1,0,0,0,0-6.06V43.07a3.1,3.1,0,0,0,0-6V35.85h1.44A4.49,4.49,0,0,1,76,40.34Z" transform="translate(-0.76 -0.98)"/>
    <path class="cls-2" d="M53,49.16H41.15a1,1,0,0,0,0,2H53a5.54,5.54,0,0,0,0-11.08H35.35a5.54,5.54,0,0,0,0,11.08h1.51a1,1,0,1,0,0-2H35.35a3.56,3.56,0,0,1,0-7.12H53a3.56,3.56,0,1,1,0,7.12Z" transform="translate(-0.76 -0.98)"/>
  </g>
</svg>
