<svg id="_8-heavenlyGate" data-name="8-heavenlyGate" xmlns="http://www.w3.org/2000/svg" xmlns:xlink="http://www.w3.org/1999/xlink" width="87" height="87" viewBox="0 0 87 87">
  <defs>
    <style>
      .cls-1 {
        fill: url(#radial-gradient);
      }

      .cls-2 {
        fill: #fff;
      }
    </style>
    <radialGradient id="radial-gradient" cx="44.26" cy="44.48" r="43.5" gradientUnits="userSpaceOnUse">
      <stop offset="0" stop-color="#ff7bac"/>
      <stop offset="1"/>
    </radialGradient>
  </defs>
  <path class="cls-1" d="M44.26,1a43.5,43.5,0,1,0,43.5,43.5A43.32,43.32,0,0,0,44.26,1Z" transform="translate(-0.76 -0.98)"/>
  <g>
    <path class="cls-2" d="M71.4,16.86H17.12a3.61,3.61,0,0,0-3.6,3.61v48a3.6,3.6,0,0,0,3.6,3.6H71.4A3.61,3.61,0,0,0,75,68.5v-48A3.61,3.61,0,0,0,71.4,16.86ZM15.92,20.47a1.21,1.21,0,0,1,1.2-1.21H71.4a1.21,1.21,0,0,1,1.2,1.21v18H15.92Zm56.68,48a1.2,1.2,0,0,1-1.2,1.2H17.12a1.2,1.2,0,0,1-1.2-1.2V40.88H72.6Z" transform="translate(-0.76 -0.98)"/>
    <path class="cls-2" d="M21.44,55.29h.27V66.1a1.2,1.2,0,0,0,2.4,0V55.29h.27a2.41,2.41,0,0,0,2.4-2.4V48.08a2.41,2.41,0,0,0-2.4-2.4h-.27v-1.2a1.2,1.2,0,0,0-2.4,0v1.2h-.27a2.41,2.41,0,0,0-2.4,2.4v4.81A2.41,2.41,0,0,0,21.44,55.29Zm2.94-7.21v4.81H21.44V48.08Z" transform="translate(-0.76 -0.98)"/>
    <path class="cls-2" d="M32.12,60.09h.26v6a1.21,1.21,0,0,0,2.41,0v-6h.26a2.4,2.4,0,0,0,2.4-2.4v-4.8a2.39,2.39,0,0,0-2.4-2.4h-.26v-6a1.21,1.21,0,0,0-2.41,0v6h-.26a2.39,2.39,0,0,0-2.4,2.4v4.8A2.4,2.4,0,0,0,32.12,60.09Zm2.93-7.2v4.8H32.12v-4.8Z" transform="translate(-0.76 -0.98)"/>
    <path class="cls-2" d="M42.79,55.29h.27V66.1a1.2,1.2,0,0,0,2.4,0V55.29h.27a2.41,2.41,0,0,0,2.4-2.4V48.08a2.41,2.41,0,0,0-2.4-2.4h-.27v-1.2a1.2,1.2,0,0,0-2.4,0v1.2h-.27a2.41,2.41,0,0,0-2.4,2.4v4.81A2.41,2.41,0,0,0,42.79,55.29Zm2.94-7.21v4.81H42.79V48.08Z" transform="translate(-0.76 -0.98)"/>
    <path class="cls-2" d="M53.47,64.9h.26v1.2a1.2,1.2,0,0,0,2.4,0V64.9h.27a2.4,2.4,0,0,0,2.4-2.41v-4.8a2.4,2.4,0,0,0-2.4-2.4h-.27V44.48a1.2,1.2,0,0,0-2.4,0V55.29h-.26a2.41,2.41,0,0,0-2.41,2.4v4.8A2.41,2.41,0,0,0,53.47,64.9Zm0-7.21H56.4v4.8H53.47v-4.8Z" transform="translate(-0.76 -0.98)"/>
    <path class="cls-2" d="M64.14,60.09h.27v6a1.2,1.2,0,0,0,2.4,0v-6h.26a2.41,2.41,0,0,0,2.41-2.4v-4.8a2.4,2.4,0,0,0-2.41-2.4h-.26v-6a1.2,1.2,0,0,0-2.4,0v6h-.27a2.4,2.4,0,0,0-2.4,2.4v4.8A2.41,2.41,0,0,0,64.14,60.09Zm2.93-7.2v4.8H64.14v-4.8Z" transform="translate(-0.76 -0.98)"/>
    <path class="cls-2" d="M65.87,21.67H46.66a3.6,3.6,0,0,0-3.6,3.6v7.2a3.61,3.61,0,0,0,3.6,3.61H65.87a3.61,3.61,0,0,0,3.61-3.61v-7.2A3.61,3.61,0,0,0,65.87,21.67Zm1.2,10.8a1.19,1.19,0,0,1-1.2,1.2H46.66a1.2,1.2,0,0,1-1.2-1.2v-7.2a1.2,1.2,0,0,1,1.2-1.2H65.87a1.2,1.2,0,0,1,1.2,1.2Z" transform="translate(-0.76 -0.98)"/>
    <path class="cls-2" d="M28.32,25.57a2.71,2.71,0,1,0-2.71,2.7A2.71,2.71,0,0,0,28.32,25.57Z" transform="translate(-0.76 -0.98)"/>
    <path class="cls-2" d="M38.52,25.57a2.7,2.7,0,1,0-2.7,2.7A2.7,2.7,0,0,0,38.52,25.57Z" transform="translate(-0.76 -0.98)"/>
    <path class="cls-2" d="M23.51,32.47h0a1.2,1.2,0,1,0,0,2.4,1.2,1.2,0,0,0,0-2.4Z" transform="translate(-0.76 -0.98)"/>
    <path class="cls-2" d="M28.32,32.47h0a1.2,1.2,0,1,0,1.21,1.2,1.2,1.2,0,0,0-1.21-1.2Z" transform="translate(-0.76 -0.98)"/>
    <path class="cls-2" d="M33.12,32.47h0a1.2,1.2,0,1,0,1.2,1.2A1.2,1.2,0,0,0,33.12,32.47Z" transform="translate(-0.76 -0.98)"/>
    <path class="cls-2" d="M37.92,32.47h0a1.2,1.2,0,0,0,0,2.4,1.2,1.2,0,0,0,0-2.4Z" transform="translate(-0.76 -0.98)"/>
  </g>
</svg>
