<?xml version="1.0" encoding="utf-8"?>
<!-- Generator: Adobe Illustrator 26.3.1, SVG Export Plug-In . SVG Version: 6.00 Build 0)  -->
<svg version="1.1" id="Layer_1" xmlns="http://www.w3.org/2000/svg" xmlns:xlink="http://www.w3.org/1999/xlink" x="0px" y="0px"
	 viewBox="0 0 500 150" style="enable-background:new 0 0 500 150;" xml:space="preserve">
<style type="text/css">
	.st0{fill:#211436;}
	.st1{fill:none;stroke:#FFFFFF;stroke-miterlimit:10;}
	.st2{fill:none;stroke:#FFFFFF;stroke-miterlimit:10;stroke-dasharray:3.8215,3.8215;}
	.st3{fill:none;stroke:#FFFFFF;stroke-miterlimit:10;stroke-dasharray:4.0634,4.0634;}
	.st4{fill:#FFFFFF;}
</style>
<rect class="st0" width="500" height="150"/>
<g>
	<g>
		<g>
			<polyline class="st1" points="141.62,115.85 141.62,117.85 139.62,117.85 			"/>
			<line class="st2" x1="135.8" y1="117.85" x2="68.93" y2="117.85"/>
			<polyline class="st1" points="67.02,117.85 65.02,117.85 65.02,115.85 			"/>
			<line class="st3" x1="65.02" y1="111.79" x2="65.02" y2="40.68"/>
			<polyline class="st1" points="65.02,38.65 65.02,36.65 67.02,36.65 			"/>
			<line class="st2" x1="70.84" y1="36.65" x2="137.71" y2="36.65"/>
			<polyline class="st1" points="139.62,36.65 141.62,36.65 141.62,38.65 			"/>
			<line class="st3" x1="141.62" y1="42.71" x2="141.62" y2="113.82"/>
		</g>
	</g>
</g>
<g>
	<g>
		<g>
			<polyline class="st1" points="238.46,115.85 238.46,117.85 236.46,117.85 			"/>
			<line class="st2" x1="232.63" y1="117.85" x2="165.76" y2="117.85"/>
			<polyline class="st1" points="163.85,117.85 161.85,117.85 161.85,115.85 			"/>
			<line class="st3" x1="161.85" y1="111.79" x2="161.85" y2="40.68"/>
			<polyline class="st1" points="161.85,38.65 161.85,36.65 163.85,36.65 			"/>
			<line class="st2" x1="167.67" y1="36.65" x2="234.55" y2="36.65"/>
			<polyline class="st1" points="236.46,36.65 238.46,36.65 238.46,38.65 			"/>
			<line class="st3" x1="238.46" y1="42.71" x2="238.46" y2="113.82"/>
		</g>
	</g>
</g>
<g>
	<g>
		<g>
			<polyline class="st1" points="335.29,115.85 335.29,117.85 333.29,117.85 			"/>
			<line class="st2" x1="329.47" y1="117.85" x2="262.59" y2="117.85"/>
			<polyline class="st1" points="260.68,117.85 258.68,117.85 258.68,115.85 			"/>
			<line class="st3" x1="258.68" y1="111.79" x2="258.68" y2="40.68"/>
			<polyline class="st1" points="258.68,38.65 258.68,36.65 260.68,36.65 			"/>
			<line class="st2" x1="264.5" y1="36.65" x2="331.38" y2="36.65"/>
			<polyline class="st1" points="333.29,36.65 335.29,36.65 335.29,38.65 			"/>
			<line class="st3" x1="335.29" y1="42.71" x2="335.29" y2="113.82"/>
		</g>
	</g>
</g>
<g>
	<g>
		<g>
			<polyline class="st1" points="432.12,115.85 432.12,117.85 430.12,117.85 			"/>
			<line class="st2" x1="426.3" y1="117.85" x2="359.42" y2="117.85"/>
			<polyline class="st1" points="357.51,117.85 355.51,117.85 355.51,115.85 			"/>
			<line class="st3" x1="355.51" y1="111.79" x2="355.51" y2="40.68"/>
			<polyline class="st1" points="355.51,38.65 355.51,36.65 357.51,36.65 			"/>
			<line class="st2" x1="361.33" y1="36.65" x2="428.21" y2="36.65"/>
			<polyline class="st1" points="430.12,36.65 432.12,36.65 432.12,38.65 			"/>
			<line class="st3" x1="432.12" y1="42.71" x2="432.12" y2="113.82"/>
		</g>
	</g>
</g>
<g>
	<path class="st4" d="M222.07,18.16c0,1.85-0.5,3.26-1.5,4.24c-1,0.98-2.44,1.47-4.33,1.47h-3.1V12.68h3.43
		c1.74,0,3.09,0.48,4.06,1.45S222.07,16.43,222.07,18.16z M220.69,18.21c0-1.46-0.37-2.56-1.1-3.3s-1.82-1.11-3.26-1.11h-1.89v8.94
		h1.58c1.55,0,2.72-0.38,3.5-1.14C220.3,20.83,220.69,19.7,220.69,18.21z"/>
	<path class="st4" d="M225.87,19.21v4.65h-1.3V12.68h3.07c1.37,0,2.39,0.26,3.04,0.79c0.66,0.53,0.98,1.32,0.98,2.37
		c0,1.48-0.75,2.48-2.25,3l3.04,5.03h-1.54l-2.71-4.65H225.87z M225.87,18.09h1.78c0.92,0,1.59-0.18,2.02-0.55s0.64-0.91,0.64-1.64
		c0-0.74-0.22-1.27-0.65-1.6c-0.44-0.33-1.14-0.49-2.1-0.49h-1.69V18.09z"/>
	<path class="st4" d="M243.96,18.25c0,1.79-0.45,3.2-1.36,4.22c-0.91,1.03-2.16,1.54-3.78,1.54c-1.65,0-2.92-0.5-3.81-1.51
		c-0.9-1.01-1.34-2.43-1.34-4.27c0-1.82,0.45-3.23,1.35-4.24s2.17-1.5,3.83-1.5c1.61,0,2.86,0.51,3.77,1.53
		C243.51,15.05,243.96,16.46,243.96,18.25z M235.05,18.25c0,1.52,0.32,2.66,0.97,3.45c0.65,0.78,1.58,1.17,2.81,1.17
		c1.24,0,2.18-0.39,2.81-1.17c0.63-0.78,0.95-1.93,0.95-3.45c0-1.5-0.32-2.65-0.95-3.42c-0.63-0.78-1.56-1.17-2.8-1.17
		c-1.24,0-2.18,0.39-2.83,1.17C235.37,15.62,235.05,16.76,235.05,18.25z"/>
	<path class="st4" d="M253.55,15.94c0,1.13-0.39,2-1.16,2.61c-0.77,0.61-1.88,0.91-3.32,0.91h-1.32v4.4h-1.3V12.68h2.9
		C252.16,12.68,253.55,13.76,253.55,15.94z M247.76,18.35h1.17c1.15,0,1.99-0.19,2.5-0.56c0.52-0.37,0.77-0.97,0.77-1.79
		c0-0.74-0.24-1.29-0.73-1.65c-0.48-0.36-1.24-0.54-2.27-0.54h-1.45V18.35z"/>
	<path class="st4" d="M268.46,23.86h-1.3V18.6h-5.89v5.27h-1.3V12.68h1.3v4.76h5.89v-4.76h1.3V23.86z"/>
	<path class="st4" d="M277.77,23.86h-6.24V12.68h6.24v1.16h-4.94v3.6h4.64v1.15h-4.64v4.12h4.94V23.86z"/>
	<path class="st4" d="M281.55,19.21v4.65h-1.3V12.68h3.07c1.37,0,2.39,0.26,3.04,0.79c0.66,0.53,0.98,1.32,0.98,2.37
		c0,1.48-0.75,2.48-2.25,3l3.04,5.03h-1.54l-2.71-4.65H281.55z M281.55,18.09h1.78c0.92,0,1.59-0.18,2.02-0.55s0.64-0.91,0.64-1.64
		c0-0.74-0.22-1.27-0.65-1.6s-1.14-0.49-2.1-0.49h-1.69V18.09z"/>
	<path class="st4" d="M296.17,23.86h-6.24V12.68h6.24v1.16h-4.94v3.6h4.64v1.15h-4.64v4.12h4.94V23.86z"/>
</g>
</svg>
