<?xml version="1.0" encoding="utf-8"?>
<!-- Generator: Adobe Illustrator 26.4.1, SVG Export Plug-In . SVG Version: 6.00 Build 0)  -->
<svg version="1.1" id="Layer_1" xmlns="http://www.w3.org/2000/svg" xmlns:xlink="http://www.w3.org/1999/xlink" x="0px" y="0px"
	 viewBox="0 0 76.6 81.2" style="enable-background:new 0 0 76.6 81.2;" xml:space="preserve">
<style type="text/css">
	.st0{fill:#B2E63F;}
</style>
<g>
	<g>
		<rect x="0" class="st0" width="76.6" height="81.2"/>
	</g>
	<g>
		<path d="M31.5,23l-7.2-2.4l-4.2,4.9c2.9,4.4,7.9,6.7,12.5,5.7l15.6,36.9c0.4,1,1.5,1.4,2.5,1c1-0.4,1.4-1.5,1-2.5L36,29.7
			c3.8-2.5,5.6-7.4,4.7-12.4L35.4,16L31.5,23z"/>
		<path d="M24.3,6.8c-5.8,2.4-8.2,9.8-5.5,16.3c0.1,0.3,0.3,0.7,0.5,1l4.5-5.2l7,2.3l3.8-6.9l5.7,1.4c-0.1-0.5-0.3-0.9-0.5-1.4
			C37,7.7,30.1,4.3,24.3,6.8z"/>
	</g>
	<g>
		<path d="M51.6,34.1l-2.3-7.3l-6.4-0.5c-1.9,4.9-0.8,10.3,2.7,13.4L24.7,74c-0.5,0.9-0.3,2,0.6,2.6c0.9,0.5,2,0.3,2.6-0.6
			l20.9-34.2c4.3,1.6,9.3,0.2,12.8-3.5l-2-5.1L51.6,34.1z"/>
		<path d="M60.6,18.8c-5.4-3.3-12.7-1-16.5,5.1c-0.2,0.3-0.4,0.6-0.5,0.9l6.9,0.6l2.2,7l7.9-0.9l2.2,5.4c0.3-0.4,0.6-0.8,0.8-1.2
			C67.3,29.7,65.9,22.1,60.6,18.8z"/>
	</g>
</g>
</svg>
