<?xml version="1.0" encoding="utf-8"?>
<!-- Generator: Adobe Illustrator 26.3.1, SVG Export Plug-In . SVG Version: 6.00 Build 0)  -->
<svg version="1.1" id="Layer_1" xmlns="http://www.w3.org/2000/svg" xmlns:xlink="http://www.w3.org/1999/xlink" x="0px" y="0px"
	 viewBox="0 0 1004.17 280.24" style="enable-background:new 0 0 1004.17 280.24;" xml:space="preserve">
<style type="text/css">
	.st0{fill:#6CC9C7;}
	.st1{fill:#E0FDF4;}
	.st2{fill:url(#SVGID_1_);}
	.st3{fill:url(#SVGID_00000165232319128830959690000011383579669748304770_);}
	.st4{fill:#2C00D4;}
	.st5{fill:url(#SVGID_00000013887685806062579040000006446793405158784416_);}
	.st6{fill:url(#SVGID_00000062895152525602440150000000921175844973741207_);}
	.st7{fill:url(#SVGID_00000073001894705463422780000001481810064637209228_);}
	.st8{fill:url(#SVGID_00000016073843206586156260000012896546963325230764_);}
	.st9{fill:url(#SVGID_00000109719391943043850950000012942392727316812456_);}
	.st10{fill:url(#SVGID_00000048482958569471608840000016996544516197974945_);}
	.st11{fill:url(#SVGID_00000076581035232881654290000005052558003900432545_);}
	.st12{fill:url(#SVGID_00000042725394701287405610000011647945618572556710_);}
	.st13{fill:url(#SVGID_00000011736886580348864740000014085408645151519109_);}
	.st14{fill:url(#SVGID_00000076604210198723649140000002119755130848910238_);}
	.st15{fill:url(#SVGID_00000142877410925585391740000017546946749054431117_);}
	.st16{fill:url(#SVGID_00000052103556830363721410000001644222896904595088_);}
	.st17{opacity:0.5;fill:url(#SVGID_00000169533253766919721960000003910128284290192030_);}
	.st18{fill:#040119;}
	.st19{opacity:0.5;fill:url(#SVGID_00000176763100198824947690000011475538131551671722_);}
	.st20{fill:url(#SVGID_00000010281884398119702070000018145514273781333404_);}
	.st21{fill:url(#SVGID_00000149378875606870023370000002463770125346955430_);}
	.st22{fill:url(#SVGID_00000153688965797554254460000014936134419787659700_);}
	.st23{opacity:0.5;fill:url(#SVGID_00000042703751231837832740000006413516588989564317_);}
	.st24{fill:url(#SVGID_00000080171405102300829690000002030345001168138624_);}
	.st25{fill:url(#SVGID_00000160888464946514610740000015829787301829720242_);}
	.st26{fill:url(#SVGID_00000029047830550527913970000008018048884336329868_);}
	.st27{fill:url(#SVGID_00000025430760233144568280000015035534715317698227_);}
	.st28{fill:url(#SVGID_00000157287882359155161260000014892156146606101136_);}
	.st29{fill:url(#SVGID_00000028307047463909158670000014604978991619408537_);}
	.st30{fill:url(#SVGID_00000151545895266062040880000015516674585414294146_);}
	.st31{fill:#408BFD;}
	.st32{fill:url(#SVGID_00000165915813216140366970000018378164969993314701_);}
	.st33{fill:url(#SVGID_00000126315402309892480410000002983246506420903077_);}
	.st34{fill:url(#SVGID_00000147909620255192450520000000494000901086433932_);}
	.st35{fill:url(#SVGID_00000054230073229027098060000003191141274688550824_);}
	.st36{fill:url(#SVGID_00000067938382054120797160000010575387100375149219_);}
	.st37{fill:url(#SVGID_00000160900974699223638900000001055871229575444897_);}
	.st38{opacity:0.5;fill:url(#SVGID_00000086686851763934111710000017833752726351442858_);}
	.st39{opacity:0.5;fill:url(#SVGID_00000077314632139312817810000005761072199477143197_);}
	.st40{opacity:0.5;fill:url(#SVGID_00000142886498737684536750000002241151725428846728_);}
	.st41{opacity:0.5;fill:url(#SVGID_00000091702254296895796100000015440655364527961235_);}
	.st42{fill:url(#SVGID_00000021832655831347665050000009353706395703497863_);}
	.st43{fill:url(#SVGID_00000085228924663696334250000002947996430373446584_);}
	.st44{fill:url(#SVGID_00000033365551405744423820000015097357344852603833_);}
	.st45{fill:url(#SVGID_00000004529520376382009150000004142067148771280800_);}
	.st46{fill:url(#SVGID_00000018950073506419727400000005128803077967424910_);}
	.st47{fill:url(#SVGID_00000101078192688228104180000002742876598870689937_);}
	.st48{fill:url(#SVGID_00000143576675455206117150000018174424419667652488_);}
	.st49{fill:url(#SVGID_00000059292108225574795870000000187273070454154414_);}
	.st50{fill:url(#SVGID_00000057827461749336989060000014326178018559865243_);}
	.st51{fill:url(#SVGID_00000158747971529556904330000003205986645149768576_);}
	.st52{fill:url(#SVGID_00000066474803617526742640000016298922337633079738_);}
	.st53{fill:url(#SVGID_00000022535021615877545570000014411286247062508171_);}
	.st54{fill:url(#SVGID_00000096756165466758070870000014299800375266240703_);}
	.st55{opacity:0.5;fill:url(#SVGID_00000140711485788425588970000000085633061019569285_);}
</style>
<path class="st0" d="M96.76,8.67C96.76,8.67,96.76,8.66,96.76,8.67C96.76,8.66,96.76,8.67,96.76,8.67z"/>
<path class="st1" d="M96.35,9.8c0.12-0.38,0.26-0.76,0.41-1.14C96.61,9.04,96.47,9.42,96.35,9.8z"/>
<path class="st1" d="M96.76,8.66c0.05-0.13,0.11-0.26,0.16-0.39C96.87,8.4,96.82,8.53,96.76,8.66z"/>
<radialGradient id="SVGID_1_" cx="484.7982" cy="334.1544" r="439.7515" gradientTransform="matrix(0.9849 0 0 2.8495 27.1278 -943.0995)" gradientUnits="userSpaceOnUse">
	<stop  offset="0" style="stop-color:#3D2082"/>
	<stop  offset="1" style="stop-color:#040945"/>
</radialGradient>
<rect class="st2" width="1004.17" height="279.64"/>
<radialGradient id="SVGID_00000027574609613870034720000013191059683728487064_" cx="592.4771" cy="246226.8594" r="507.3318" gradientTransform="matrix(0.9784 0 0 0.0389 -77.0561 -9444.4424)" gradientUnits="userSpaceOnUse">
	<stop  offset="0" style="stop-color:#0DC1FD"/>
	<stop  offset="1" style="stop-color:#6BFFFF"/>
</radialGradient>
<polygon style="fill:url(#SVGID_00000027574609613870034720000013191059683728487064_);" points="1002.64,121.96 2.62,126.29 
	5.07,142.93 1002.64,142.93 "/>
<polygon class="st4" points="1002.64,143.09 2.62,143.53 5.07,145.24 1002.64,145.24 "/>
<radialGradient id="SVGID_00000023274419029967734740000001049488566210705319_" cx="513.9677" cy="17494.7969" r="174.6576" gradientTransform="matrix(1.2042 0 0 0.3885 -144.6519 -6630.0254)" gradientUnits="userSpaceOnUse">
	<stop  offset="0" style="stop-color:#8077FD"/>
	<stop  offset="1" style="stop-color:#3B29A9"/>
</radialGradient>
<polygon style="fill:url(#SVGID_00000023274419029967734740000001049488566210705319_);" points="235.66,152.89 176.19,166.7 
	769.35,166.7 704.14,152.89 "/>
<radialGradient id="SVGID_00000029764007956773765030000005476744411604435622_" cx="513.9677" cy="191.3997" r="209.9899" gradientTransform="matrix(1.2042 0 0 1.2042 -144.6519 -62.7303)" gradientUnits="userSpaceOnUse">
	<stop  offset="0" style="stop-color:#3D2082"/>
	<stop  offset="1" style="stop-color:#040945"/>
</radialGradient>
<polygon style="fill:url(#SVGID_00000029764007956773765030000005476744411604435622_);" points="176.19,166.7 181.43,198.93 
	761.34,198.93 769.35,166.7 "/>
<radialGradient id="SVGID_00000053521497874835576840000011425209158342689938_" cx="510.9835" cy="17613.3164" r="174.6528" gradientTransform="matrix(1.4676 0 0 0.3885 -275.3637 -6630.0254)" gradientUnits="userSpaceOnUse">
	<stop  offset="0" style="stop-color:#8077FD"/>
	<stop  offset="1" style="stop-color:#3B29A9"/>
</radialGradient>
<polygon style="fill:url(#SVGID_00000053521497874835576840000011425209158342689938_);" points="183.79,198.93 111.31,212.74 
	834.23,212.74 754.76,198.93 "/>
<radialGradient id="SVGID_00000049183973029814635240000005258603565099915446_" cx="513.6182" cy="17784.7852" r="207.7047" gradientTransform="matrix(1.4676 0 0 0.3885 -275.3637 -6630.0254)" gradientUnits="userSpaceOnUse">
	<stop  offset="0" style="stop-color:#8077FD"/>
	<stop  offset="1" style="stop-color:#3B29A9"/>
</radialGradient>
<polygon style="fill:url(#SVGID_00000049183973029814635240000005258603565099915446_);" points="116.38,247.44 46.46,280.21 
	906.13,280.21 824.1,247.44 "/>
<radialGradient id="SVGID_00000023266763432248506650000015407623881878089627_" cx="510.9835" cy="229.6344" r="209.9842" gradientTransform="matrix(1.4676 0 0 1.2042 -275.3637 -62.7303)" gradientUnits="userSpaceOnUse">
	<stop  offset="0" style="stop-color:#3D2082"/>
	<stop  offset="1" style="stop-color:#040945"/>
</radialGradient>
<polygon style="fill:url(#SVGID_00000023266763432248506650000015407623881878089627_);" points="111.31,212.74 117.7,244.97 
	824.47,244.97 834.23,212.74 "/>
<radialGradient id="SVGID_00000043434839677348552320000004443861825376170672_" cx="512.5505" cy="247535.6719" r="243.8365" gradientTransform="matrix(1.2042 0 0 0.0389 -144.6519 -9444.4424)" gradientUnits="userSpaceOnUse">
	<stop  offset="0" style="stop-color:#0DC1FD"/>
	<stop  offset="1" style="stop-color:#6BFFFF"/>
</radialGradient>
<polygon style="fill:url(#SVGID_00000043434839677348552320000004443861825376170672_);" points="177.04,171.91 180.76,194.79 
	762.48,194.33 768.05,171.91 "/>
<radialGradient id="SVGID_00000090982088367776003520000000097254655361087877_" cx="512.3809" cy="248830.5781" r="296.5223" gradientTransform="matrix(1.2042 0 0 0.0389 -144.6519 -9444.4424)" gradientUnits="userSpaceOnUse">
	<stop  offset="0" style="stop-color:#0DC1FD"/>
	<stop  offset="1" style="stop-color:#6BFFFF"/>
</radialGradient>
<polygon style="fill:url(#SVGID_00000090982088367776003520000000097254655361087877_);" points="112.93,220.92 831.75,220.92 
	828.09,246.5 115.99,246.5 "/>
<g>
	
		<linearGradient id="SVGID_00000159453215562169022820000001747779099279498393_" gradientUnits="userSpaceOnUse" x1="567.7992" y1="279.8638" x2="567.7992" y2="94.5314">
		<stop  offset="0" style="stop-color:#04092E"/>
		<stop  offset="1" style="stop-color:#14204D"/>
	</linearGradient>
	<path style="fill:url(#SVGID_00000159453215562169022820000001747779099279498393_);" d="M629.55,212.75
		c0.46-0.15,1.68-0.67,1.58-1.47c-0.1-0.98-4.68-0.33-8.16,1.52l-3.47,1.64c0,0-0.01,0-0.02-0.01c-0.02,0-0.04,0-0.08-0.01
		c-0.76-0.2-5.63-1.42-8.94-0.31c-3.6,1.19-6.1,5.11-6.1,5.11s-1.84,1.85-13.5,3.48c-11.15,1.56-20.09,3.42-20.85,3.59l-0.05,0.01
		c0,0-2.84-5.56-4.03-11.11c0,0,0.01,0,0.03-0.01l2.91-2.17c0,0,0.05,0.07,0.16,0.24c0.91,1.29,5.43,7.65,7.67,8.32l0.2,0.05
		c2.4,0.33,26.46-20.24,30.38-24.29c0,0,12.2-1.51,15.46-2.49c3.27-0.98,8.38-3.59,8.71-4.57c0.33-0.98-2.06-0.98-2.06-0.98
		s4.04-2.19,3.48-3.06c-0.55-0.87-2.5-0.65-2.5-0.65s0.98-0.87,0.87-1.74c-0.05-0.41-1.06-0.55-2.5-0.37
		c-0.01,0.01-0.01,0.01-0.02,0.01h-0.01c-0.52,0.07-1.1,0.19-1.72,0.36c-0.01,0-0.03,0.01-0.05,0.02c-1.33,0.37-2.81,0.96-4.19,1.83
		l-2.83,1.5c0,0-2.17,0.5-4.97,0.27h-0.01c-0.63-0.04-1.3-0.13-1.98-0.27l0.53-1.06l3.71-0.88c0,0,1.08,0.55,3.05-1.08
		c1.96-1.64,1.96-3.49,1.21-4.03c-0.18-0.13-0.5-0.05-0.92,0.16c-1.36,0.67-3.71,2.76-5.29,3.43c-2.07,0.86-6,0.76-8.28,1.84
		c-2.29,1.09-3.6,5.45-4.03,7.74c0,0,0,0-0.01,0.01c-0.19,0.25-2.03,2.44-8.58,5.21c-3.65,1.53-7.53,2.78-10.74,4.07
		c-0.06,0.02-0.1,0.03-0.1,0.03c-2.9,1.16-5.24,2.36-6.37,3.84c0,0-0.43-0.85-1.1-2.18l-0.01-0.02c-1.05-2.08-2.7-5.35-4.22-8.46
		c-2.28-4.66-4.65-16.16-5.96-19.84c-0.14-0.37-0.26-0.65-0.36-0.85c-0.63-1.15-1.39-2.77-1.96-4.03c-0.01-0.03-0.02-0.06-0.03-0.09
		c-0.5-1.07-0.84-1.86-0.84-1.86s1.09-5.13,3.27-6.64c2.17-1.52,4.68-1.21,4.68-1.21s4.24,2.19,7.61,2.51c3.38,0.33,6-4.25,6-4.25
		s1.24-0.11,1.41-0.87c0.16-0.72-2.66-2.8-3.48-4.4c-0.07-0.17-0.11-0.28-0.11-0.28s3.6,0.33,6.04-0.44c0,0,0.5-2.67,1.21-3.55
		c0,0,3.48-1.13,3.91-2.72c0,0-4.84-6.68-4.95-8.82c-0.11-2.12,2.98-6.19,2.83-9.78c-0.11-2.28-0.82-4.97-1.33-6.63l-0.01-0.02
		c-0.29-0.96-0.51-1.58-0.51-1.58s5.88-2.39,5.88-3.37c0-0.94-5.57,1.55-5.87,1.68c0.2-0.29,3.78-5.48,2.92-8.53
		c-0.26-0.91-0.94-1.51-1.92-1.92c-2.42-1.02-6.67-0.87-10.71-1.34c-5.66-0.65-6.86-2.84-9.68-3.17c-2.09-0.25-5.43,0.71-7.03,1.22
		c-0.57,0.18-0.93,0.32-0.93,0.32s0.65-3.38-1.74-3.17c0,0,0-0.01-0.01-0.02c-0.22-0.47-4.01-8.23-10.55-7.59
		c-6.75,0.65-10.45,9.57-10.57,10.88s2.07,12.42,1.85,21.88c-0.13,6.19-2.15,11.09-3.52,13.73c-0.02,0.05-0.04,0.07-0.05,0.08
		c0,0.01,0,0.01,0,0.01c-0.64,1.22-1.13,1.94-1.22,2.06l3.8-2.27c0,0,1.86,10.88,6.75,17.51c0,0,2.26-6.3,2.11-12.19
		c1.62,1.7,3.81,3.05,6.6,4.03c0,0,0.77,2.07-0.98,4.57c0.08-0.01,0.15-0.02,0.22-0.03c0.05-0.02,0.1-0.02,0.15-0.04
		c0.67-0.18,2.13-0.71,2.78-2.09c0,0,0.04,0.31,0.02,0.89c-0.13,1.62-0.97,5.41-5.47,10.87h-1.96c0,0-0.01,0.01-0.02,0.03
		c-0.01,0.02-0.03,0.04-0.07,0.07c0,0,0,0,0,0.01c-0.32,0.32-1.33,1.37-2.65,2.89c-0.19,0.24-0.41,0.48-0.62,0.74
		c-0.39,0.47-0.79,0.96-1.21,1.48c-0.46,0.58-0.93,1.2-1.41,1.84c-0.15,0.21-0.32,0.43-0.47,0.65c-0.16,0.22-0.32,0.45-0.47,0.67
		c-0.31,0.45-0.62,0.91-0.93,1.38c-0.26,0.4-0.51,0.8-0.76,1.21c-0.04,0.07-0.09,0.14-0.13,0.22c-0.26,0.43-0.5,0.86-0.74,1.29
		c-0.31,0.56-0.59,1.12-0.86,1.69c-0.12,0.25-0.23,0.49-0.34,0.75c-0.16,0.36-0.31,0.71-0.44,1.05c-0.11,0.28-0.2,0.55-0.3,0.82
		c-0.06,0.18-0.12,0.38-0.18,0.56c-0.06,0.19-0.11,0.38-0.16,0.56c-2.29,8.42-1.63,32.71-5.66,42.06
		c-2.72,6.33-9.76,13.94-15.67,21.34c-2.82,3.56-5.4,7.07-7.09,10.35c-5.22,10.12-7.29,23.74-7.29,23.74h60.1
		c0,0-2.84-11.21-5.01-21.34c-2.18-10.13-3.16-22.33-2.83-24.07c0.2-1.07,0.98-2.89,1.54-4.13c0.02-0.03,0.03-0.05,0.03-0.05
		c0.35-0.75,0.6-1.27,0.6-1.27l0.01,0.02c0.18,0.58,3.15,9.71,6.73,10.87c0,0,15.25-4.04,26.34-8.61
		c11.11-4.57,16.55-7.72,16.55-7.72s12.74-0.98,15.13-1.53c2.39-0.54,5.77-2.5,6.2-3.48c0.43-0.98-1.21-1.63-1.21-1.63
		s5.89-2.72,6-3.91C632.97,211.98,630.24,212.59,629.55,212.75z M549.5,120.28c0.59-4.87,0.57-10.09,0.19-12.54
		c-0.54-3.6,4.25-1.41,4.25-1.41s-2.51,3.26,0.65,4.46C554.6,110.79,551.99,115.03,549.5,120.28z"/>
	
		<linearGradient id="SVGID_00000018925714129483319040000012274868388272009126_" gradientUnits="userSpaceOnUse" x1="673.7088" y1="279.8639" x2="673.7088" y2="112.8586">
		<stop  offset="0" style="stop-color:#04092E"/>
		<stop  offset="1" style="stop-color:#14204D"/>
	</linearGradient>
	<path style="fill:url(#SVGID_00000018925714129483319040000012274868388272009126_);" d="M690.82,216.85
		c0.33,0.35,5.6,6,7.82,10.43c2.28,4.57,8.06,10.67,11.54,10.01c3.48-0.65,12.63-31.58,14.81-40.94c2.18-9.36,3.37-13.6,3.15-14.7
		c-0.2-1.08-13.92-14.69-16.86-15.35c-2.27-0.51-8.93,1.97-11.87,3.6c-0.03-0.5-0.09-1.01-0.21-1.52c0,0-7.51-0.77-9.03-9.15
		c-1.53-8.38-0.11-14.27-3.82-25.26c-3.69-10.99-15.23-21.23-21.33-21.11c0,0,0,0-0.01,0.01c-0.17,0.06-1.93,0.68-4.52,1.44
		c-0.4,0.11-0.81,0.24-1.25,0.36c-2.15,0.6-4.7,1.25-7.36,1.75c-0.28,0.05-0.55,0.1-0.83,0.15c-0.07,0.01-0.14,0.02-0.21,0.04
		c-0.24,0.04-0.47,0.07-0.72,0.11c-0.28,0.05-0.55,0.09-0.82,0.12c-0.53,0.08-1.06,0.15-1.58,0.21c-0.56,0.06-1.11,0.11-1.66,0.15
		c-8.72,0.65-14.59-0.44-17.64,1.74c0,0,0,0-0.01,0.01c-0.76,0.54-1.72,1.19-2.71,1.95c-0.5,0.39-1.01,0.81-1.51,1.27
		c-0.49,0.45-0.97,0.93-1.43,1.45c-0.13,0.15-0.28,0.32-0.41,0.48c-0.09,0.1-0.17,0.21-0.27,0.33c-0.19,0.26-0.39,0.52-0.57,0.8
		c-0.15,0.22-0.31,0.47-0.45,0.72c-0.05,0.08-0.09,0.16-0.14,0.25c-0.08,0.14-0.16,0.31-0.25,0.47c-0.42,0.82-0.76,1.7-1,2.67
		c-0.03,0.13-0.07,0.29-0.09,0.43c-0.02,0.08-0.04,0.17-0.06,0.27c-0.03,0.15-0.05,0.31-0.08,0.46c-0.01,0.06-0.02,0.12-0.02,0.18
		c-0.03,0.18-0.05,0.38-0.07,0.57c-0.02,0.22-0.04,0.46-0.05,0.69c-0.01,0.25-0.02,0.48-0.02,0.73s0,0.49,0.01,0.72
		c0.01,0.18,0.02,0.35,0.03,0.52c0.01,0.18,0.02,0.37,0.04,0.55c0.01,0.18,0.03,0.36,0.06,0.52c0.02,0.16,0.04,0.32,0.07,0.47
		c0.05,0.3,0.11,0.58,0.18,0.84c0.04,0.12,0.07,0.26,0.11,0.37c0,0.01,0,0.01,0,0.01c0.06,0.18,0.13,0.36,0.19,0.52
		c0.06,0.14,0.12,0.27,0.19,0.38c0.08,0.16,0.17,0.31,0.27,0.44c0.08,0.12,0.16,0.22,0.25,0.31c0.08,0.08,0.17,0.16,0.26,0.24
		c0,0.01,0,0.01,0,0.01c0.13,0.11,0.27,0.2,0.41,0.28c0.08,0.05,0.17,0.08,0.26,0.12c0.09,0.03,0.17,0.06,0.27,0.08
		c0.04,0.01,0.08,0.02,0.12,0.03c0.36,0.07,0.67,0.05,0.89,0.01c0.04-0.01,0.07-0.02,0.11-0.02c0.06-0.02,0.11-0.03,0.15-0.04
		c0.03-0.01,0.05-0.02,0.05-0.02s3.48,10.13,8.27,11.11c4.79,0.97,4.89-2.62,4.89-2.62s0.13,0.22,0.35,0.62
		c0.26,0.53,0.63,1.39,0.98,2.51c0,0,0.03,0.13,0.1,0.37c0.03,0.1,0.06,0.21,0.09,0.34c0.03,0.06,0.05,0.13,0.06,0.2
		c0.28,1.05,0.5,2.29,0.6,3.67c0.3,4.27,1.69,8.81,5.3,11.3c0.36,0.26,0.73,0.48,1.12,0.68c0,0-0.67,0.36-1.38,1.2
		c0,0,0,0.01-0.01,0.02c-0.83,1-1.69,2.68-1.45,5.21c0.03,0.24,0.05,0.46,0.12,0.66c0.99,4.05,7.29,4.45,7.29,4.45
		s-6.64,6.17-10.24,8.47c-1.75,1.12-3.1,1.78-4.12,2.33c0,0,0,0,0,0.01c-1.05,0.57-1.78,1.03-2.25,1.82
		c-0.92,1.53-1.8,18.72-1.36,27.98c0,0-2.61,11.86-3.38,19.81c-0.52,5.52,0.31,11.19,1.02,14.73c0.01,0.07,0.02,0.14,0.04,0.21
		c0.23,1.15,0.45,2.05,0.59,2.64c-0.01,0.02,0,0.03,0.01,0.05c0.02,0.11,0.06,0.21,0.09,0.33c0.43,1.76,13.92,11.33,29.16,13.4
		l0.59-1.3c-0.07,0.32-0.14,0.63-0.21,0.92c-0.2,0.87-0.4,1.66-0.59,2.34c-1.74,6.2-2.18,7.41-2.18,7.41l59.88,0
		c0,0-3.63-6.46-7.99-12.62c-1.5-2.13-3.1-4.21-4.65-6c-6.08-6.97-12.62-13.5-14.14-17.54c-1.53-4.03,0.98-26.89,0.98-26.89
		S690.81,216.83,690.82,216.85z M691.9,182.19c0.4-0.29,6.24-4.46,7.34-10.07c0,0,0,0,0-0.01c0.02-0.14,0.05-0.28,0.06-0.41
		c1.61,0.27,4.37,0.06,6.19-1.04c0,0-0.88,1.96-0.98,2.94c-0.1,0.98,0.1,1.51,0.98,2.17s6.2,2.07,6.2,2.07s0.6-3.77-2.39-2.73
		l2.99-1.04c0,0-0.05,1.49,1.36,5.29c1.41,3.81,7.84,4.24,7.84,4.24s-1.31,8.06-3.48,12.74c-2.18,4.69-10.56,12.41-11.31,16.11
		c0,0-3.6-3.06-6.33-10.34c-2.72-7.3-5.11-15.79-8.49-19.93L691.9,182.19z M660.59,264.17c-1.74-0.91-5.15-2.92-8.01-5.87
		c-4.03-4.14-12.63-10.23-12.63-10.23s0.22-18.95,4.57-26.78c0.04,0.07,0.08,0.13,0.13,0.21c0.05,0.09,0.1,0.18,0.17,0.27
		c1.42,2.23,7.42,11.7,12.66,20.1C661.52,248.34,661.54,257.19,660.59,264.17z"/>
	
		<linearGradient id="SVGID_00000105398007180117137150000007727673230934499499_" gradientUnits="userSpaceOnUse" x1="571.4897" y1="221.6189" x2="571.4897" y2="175.9723">
		<stop  offset="0" style="stop-color:#04092E"/>
		<stop  offset="1" style="stop-color:#A0AABF"/>
	</linearGradient>
	<path style="fill:url(#SVGID_00000105398007180117137150000007727673230934499499_);" d="M576.91,221.62l-0.21-0.05
		c-2.25-0.67-6.77-7.03-7.67-8.32c0,0,4.72-5.03,4.29-7.2c-0.43-2.17-5.47-8.49-5.47-8.49l-2-21.58c1.31,3.68,3.67,15.18,5.96,19.84
		c2.5,5.11,5.33,10.66,5.33,10.66C574.69,211.6,576.91,221.62,576.91,221.62z"/>
	
		<linearGradient id="SVGID_00000083806278594521586100000012154487655645450661_" gradientUnits="userSpaceOnUse" x1="565.6042" y1="158.4662" x2="565.6042" y2="94.5322">
		<stop  offset="0" style="stop-color:#040418"/>
		<stop  offset="1" style="stop-color:#14204D"/>
	</linearGradient>
	<path style="fill:url(#SVGID_00000083806278594521586100000012154487655645450661_);" d="M589.22,118.79c0,0,3.81-5.4,2.94-8.54
		c-0.88-3.16-6.96-2.61-12.63-3.27c-5.66-0.65-6.86-2.83-9.68-3.16c-2.83-0.33-7.96,1.53-7.96,1.53s0.65-3.38-1.74-3.16
		c0,0-3.81-8.27-10.56-7.62c-6.75,0.65-10.45,9.58-10.57,10.88c-0.1,1.31,2.08,12.41,1.85,21.88c-0.21,9.11-4.44,15.39-4.77,15.87
		c0.04-0.03,0.2-0.1,0.43-0.26l3.36-2c0,0,1.86,10.88,6.75,17.52c0,0,2.26-6.31,2.1-12.19c1.62,1.7,3.81,3.04,6.6,4.02
		c0,0,0.77,2.08-0.98,4.57c0.08-0.01,0.16-0.03,0.22-0.04c0.05-0.01,0.1-0.01,0.16-0.04c1.1-0.21,2.01-0.64,2.8-1.2
		c3.95-2.89,4.23-9.17,4.23-9.17c-4.87-2.52-2.93-10.58,0.8-12.91c0.44-0.29,0.9-0.48,1.38-0.59c6.31-1.31,6.09,7.41,6.09,7.41
		s7.19-9.14,7.84-11.24c0.61-1.99-2.47-1.4-2.8-1.35l-0.03,0.01c0.97-1.12,2.06-2,3.2-2.69c5.02-3.1,10.95-2.6,10.95-2.6
		s5.88-2.39,5.88-3.37C595.1,116.13,589.22,118.79,589.22,118.79z M552.98,113.56c-0.12,0.21-0.25,0.44-0.38,0.67
		c-0.01,0.01-0.03,0.03-0.03,0.04c-0.9,1.63-2,3.72-3.07,6.01c0.59-4.87,0.57-10.09,0.2-12.54c-0.55-3.59,4.25-1.41,4.25-1.41
		s0,0-0.01,0.01v0.01c-0.04,0.04-0.09,0.1-0.13,0.18c-0.27,0.41-0.8,1.32-0.8,2.25c0,0.05,0,0.12,0.01,0.18
		c0.05,0.71,0.44,1.4,1.58,1.82C554.6,110.78,553.88,111.98,552.98,113.56z"/>
	
		<linearGradient id="SVGID_00000136375180928065504990000004675413307736507266_" gradientUnits="userSpaceOnUse" x1="538.0046" y1="279.8593" x2="538.0046" y2="164.4627">
		<stop  offset="0" style="stop-color:#03184F"/>
		<stop  offset="1" style="stop-color:#15346F"/>
	</linearGradient>
	<path style="fill:url(#SVGID_00000136375180928065504990000004675413307736507266_);" d="M573.32,206.05
		c-0.42,2.99-2.1,5.55-4.29,7.2c-1.52,1.14-2.9,1.84-3.08,1.93c-0.01,0.01-0.03,0.01-0.03,0.01l-3.49-16.98c0,0,0-20.25-4.79-23.52
		c-4.78-3.27-12.41,0.33-15.46,7.68c-3.04,7.34-3.49,25.2,0,31.29c3.49,6.1,10.65,0,10.65,0l4.27,15.35c0,0-1.85,3.71-2.18,5.45
		c-0.33,1.74,0.65,13.94,2.83,24.06c2.17,10.12,5,21.33,5,21.33l-60.1,0c0,0,2.06-13.61,7.29-23.74
		c5.23-10.12,18.73-22.31,22.76-31.68c4.02-9.35,3.37-33.64,5.66-42.07c2.29-8.44,11.76-17.91,11.76-17.91s9.26,6.09,11.43,12.62
		c2.18,6.53,4.04,13.95,4.04,13.95c1.41,1.95,1.41,1.95,1.41,1.95s-2.33-19.76-4.35-23.84c0,0,2.15,4.17,2.82,5.98
		c0.68,1.82,2.51,16.55,3.32,20.47C569.62,199.51,573.69,203.44,573.32,206.05z"/>
	
		<linearGradient id="SVGID_00000028301900654669826050000000078416553270133906_" gradientUnits="userSpaceOnUse" x1="563.3257" y1="165.2009" x2="563.3257" y2="153.132">
		<stop  offset="0" style="stop-color:#04092E"/>
		<stop  offset="1" style="stop-color:#A0AABF"/>
	</linearGradient>
	<path style="opacity:0.5;fill:url(#SVGID_00000028301900654669826050000000078416553270133906_);" d="M570.6,161.3
		c0,0-8.15-4.87-12.49-8.17l-2.06,5.33l7.91,6.73C563.96,165.2,565.95,159.43,570.6,161.3z"/>
	<path class="st18" d="M562.76,279.86l-60.1,0c0,0,2.06-13.61,7.29-23.74c1.7-3.28,4.27-6.79,7.09-10.35
		c7.26,1.11,19.07,1.95,25.14-2.82c9.15-7.19,5.23-30.05,5.23-30.05l-1.15-18.77l3.24,2.22c0,0,4.76,25.98,7.6,32.66
		c0,0-1.85,3.71-2.18,5.45c-0.33,1.74,0.65,13.94,2.83,24.06C559.93,268.65,562.76,279.86,562.76,279.86z"/>
	
		<linearGradient id="SVGID_00000087387492172142741270000001804033909252329114_" gradientUnits="userSpaceOnUse" x1="567.8506" y1="215.1912" x2="567.8506" y2="195.5949">
		<stop  offset="0" style="stop-color:#04092E"/>
		<stop  offset="1" style="stop-color:#A0AABF"/>
	</linearGradient>
	<path style="opacity:0.5;fill:url(#SVGID_00000087387492172142741270000001804033909252329114_);" d="M562.38,195.59
		c0,0,4.53,12.1,10.94,10.45c0,0,0.01,5.88-7.39,9.14C565.92,215.19,562.52,198.52,562.38,195.59z"/>
	
		<linearGradient id="SVGID_00000055671457250787872630000004069411445274829976_" gradientUnits="userSpaceOnUse" x1="659.2665" y1="217.8057" x2="659.2665" y2="112.8586">
		<stop  offset="0" style="stop-color:#040418"/>
		<stop  offset="1" style="stop-color:#14204D"/>
	</linearGradient>
	<path style="fill:url(#SVGID_00000055671457250787872630000004069411445274829976_);" d="M699.27,169.96c0,0.52,0,1.11-0.02,1.74
		c0,0.14-0.01,0.28-0.01,0.42c0,0.01,0,0.01,0,0.01c-1.09,5.61-6.94,9.78-7.34,10.07l-0.02,0.01l-2.94-0.65
		c-1.19,7.08-6.74,10.88-8.27,13.17c-1.53,2.29,3.7,6,4.03,11c0.33,5.01-9.36,8.16-9.36,8.16c2.72,0.65,1.31,3.92,1.31,3.92
		c-0.44-1.86-7.18-0.76-6.65-3.7c0.55-2.94,5.77-2.18,5.77-4.79c0-2.62-6.86,0.33-7.51-3.92c-0.65-4.24,3.92-5.88,2.94-9.03
		c-0.98-3.16-17.96-0.11-21.66-5.33c-3.71-5.22,0-12.3,0-12.3s-6.29-0.4-7.29-4.45c0.29-0.49,0.59-0.99,0.92-1.51c0,0,0,0,0-0.01
		c1.07-1.72,2.28-3.58,3.1-5.47c0.16-0.36,0.31-0.73,0.44-1.08c1.96-5.55,0.98-10.79-1.15-13.07c-2.12-2.28-6.53-3.59-9.15-7.18
		c0,0,0.16,0.94,0.3,2.16c-0.21-0.4-0.35-0.62-0.35-0.62s-0.1,3.59-4.89,2.62c-4.78-0.98-8.27-11.11-8.27-11.11
		s-0.02,0.01-0.05,0.02c-0.04,0.01-0.09,0.02-0.15,0.04c-0.04,0-0.07,0.01-0.11,0.02c-0.21,0.04-0.53,0.06-0.89-0.01
		c-0.04-0.01-0.08-0.02-0.12-0.03c-0.09-0.02-0.17-0.05-0.27-0.08c-0.08-0.04-0.17-0.07-0.26-0.12c-0.14-0.07-0.28-0.16-0.41-0.28
		c0,0,0,0,0-0.01c-0.08-0.07-0.17-0.15-0.26-0.24c-0.08-0.08-0.16-0.18-0.25-0.31c-0.09-0.13-0.18-0.28-0.27-0.44
		c-0.07-0.11-0.13-0.24-0.19-0.38c-0.06-0.16-0.13-0.34-0.19-0.52c0,0,0,0,0-0.01c-0.04-0.11-0.07-0.25-0.11-0.37
		c-0.07-0.26-0.13-0.54-0.18-0.84c-0.03-0.15-0.05-0.31-0.07-0.47c-0.03-0.16-0.05-0.34-0.06-0.52c-0.02-0.18-0.03-0.37-0.04-0.55
		c-0.01-0.17-0.02-0.34-0.03-0.52c-0.01-0.22-0.01-0.47-0.01-0.72s0.01-0.48,0.02-0.73c0.01-0.24,0.03-0.47,0.05-0.69
		c0.02-0.19,0.04-0.39,0.07-0.57c0-0.06,0.01-0.12,0.02-0.18c0.03-0.15,0.05-0.31,0.08-0.46c0.02-0.09,0.04-0.18,0.06-0.27
		c0.02-0.14,0.06-0.3,0.09-0.43c0.25-0.97,0.58-1.85,1-2.67c0.08-0.16,0.16-0.33,0.25-0.47c0.05-0.08,0.09-0.16,0.14-0.25
		c0.14-0.25,0.3-0.49,0.45-0.72c0.18-0.28,0.38-0.54,0.57-0.8c0.09-0.11,0.17-0.22,0.27-0.33c0.13-0.16,0.28-0.33,0.41-0.48
		c0.46-0.52,0.94-1,1.43-1.45c0.5-0.46,1.01-0.88,1.51-1.27c0.99-0.77,1.95-1.41,2.71-1.95c0.01-0.01,0.01-0.01,0.01-0.01
		c3.05-2.18,8.92-1.08,17.64-1.74c0.54-0.04,1.09-0.09,1.66-0.15c0.52-0.06,1.05-0.13,1.58-0.21c0.27-0.03,0.54-0.07,0.82-0.12
		c0.25-0.04,0.48-0.07,0.72-0.11c0.07-0.02,0.14-0.03,0.21-0.04c0.28-0.05,0.55-0.1,0.83-0.15c2.66-0.5,5.21-1.14,7.36-1.75
		c0.43-0.11,0.85-0.24,1.25-0.36c2.59-0.76,4.34-1.38,4.52-1.44c0.01-0.01,0.01-0.01,0.01-0.01c6.1-0.12,17.64,10.13,21.33,21.11
		c3.71,11,2.29,16.88,3.82,25.26c1.52,8.38,9.03,9.15,9.03,9.15C699.24,168.74,699.27,169.29,699.27,169.96z"/>
	
		<linearGradient id="SVGID_00000142897787841328980270000007477005420868441528_" gradientUnits="userSpaceOnUse" x1="671.895" y1="270.4921" x2="671.895" y2="181.5508">
		<stop  offset="0" style="stop-color:#040418"/>
		<stop  offset="1" style="stop-color:#000C3E"/>
	</linearGradient>
	<path style="fill:url(#SVGID_00000142897787841328980270000007477005420868441528_);" d="M708.61,267.24
		c-33.13-10.01-46.77,0.69-49.12,2.87c-0.26,0.25-0.38,0.38-0.38,0.38l1.48-6.32c0.95-6.98,0.93-15.83-3.11-22.3
		c-5.24-8.4-11.24-17.87-12.66-20.09c-0.07-0.09-0.12-0.18-0.17-0.27c-0.05-0.08-0.09-0.14-0.13-0.21
		c-2.56-4.05-9.34-31.76-9.34-31.76v-0.01c0.68-3.55,4.12-2.33,4.12-2.33c0.86,12.93,7.19,31.04,14.16,34.1
		c6.96,3.06,22.64,5.66,28.74-6.1c6.09-11.76,6.74-33.64,6.74-33.64l2.94,0.65c-2.73,12.96-1.08,34.62-1.08,34.62
		s-2.51,22.86-0.98,26.89c1.53,4.04,8.06,10.57,14.15,17.53C705.52,263.03,707.11,265.12,708.61,267.24z"/>
	
		<linearGradient id="SVGID_00000147924577700054671160000012012667013617225867_" gradientUnits="userSpaceOnUse" x1="686.6575" y1="279.8593" x2="686.6575" y2="262.324">
		<stop  offset="0" style="stop-color:#15346F"/>
		<stop  offset="1" style="stop-color:#03184F"/>
	</linearGradient>
	<path style="fill:url(#SVGID_00000147924577700054671160000012012667013617225867_);" d="M716.59,279.86h-59.87
		c0,0,0.6-4,1.61-7.33c0.39-1.32,0.86-2.52,1.37-3.33c1.8-2.83,12.48-6.75,22.38-6.87c9.92-0.1,23.54,2.52,26.53,4.91
		c0.88,0.69,1.74,1.67,2.55,2.78C714.18,274.08,716.59,279.86,716.59,279.86z"/>
	
		<linearGradient id="SVGID_00000095304623365712366280000006111227969033081254_" gradientUnits="userSpaceOnUse" x1="556.1" y1="106.3268" x2="556.1" y2="102.1855">
		<stop  offset="0" style="stop-color:#04092E"/>
		<stop  offset="1" style="stop-color:#A0AABF"/>
	</linearGradient>
	<path style="opacity:0.5;fill:url(#SVGID_00000095304623365712366280000006111227969033081254_);" d="M560.15,102.19
		c0,0-5.75,2.39-8.1,3.49l1.89,0.66C553.94,106.33,557.21,103.74,560.15,102.19z"/>
	<path class="st18" d="M578.27,123.08l-3.17,2.68l-0.03,0.01c-8.01-1.52-14.5-8.27-14.91-8.69c2.3,5.59,9.01,11.04,9.43,11.38
		c-7.33-3.03-12.96-14.36-12.96-14.36s-0.24,7.36,3.51,13.97c0.68,1.2,1.52,2.35,2.43,3.45c-3.72,2.33-5.67,10.39-0.8,12.91
		c0,0-0.29,6.28-4.23,9.17c-0.78,0.56-1.7,0.99-2.8,1.2c-0.05,0.03-0.1,0.03-0.16,0.04c-0.07,0.01-0.14,0.03-0.22,0.04
		c1.75-2.5,0.98-4.57,0.98-4.57c-2.78-0.98-4.98-2.33-6.6-4.02c0.16,5.88-2.1,12.19-2.1,12.19c-4.9-6.64-6.75-17.52-6.75-17.52
		l-3.36,2c1.2-0.81,4.52-3.38,5.64-8.1c1.38-5.8,0.98-21.87,0.98-21.87c1.55,6.79,1.71,21.87,1.71,21.87
		c3.27-6.61,4.62-14.57,4.62-14.57c0.42-1.24,1.83-3.84,3.07-6.01c0-0.01,0.01-0.03,0.03-0.04c0.13-0.22,0.26-0.46,0.38-0.67
		c0.9-1.58,1.62-2.78,1.62-2.78c-1.06-0.51-1.48-1.16-1.58-1.82c-0.01-0.07-0.01-0.13-0.01-0.18c-0.07-0.94,0.5-1.86,0.8-2.25
		c0.04-0.08,0.09-0.14,0.13-0.18c-0.08,0.29-0.74,2.97,1.4,3.27c2.26,0.31,6.56-4.27,6.56-4.27s-1.57,4.83,3,10.23
		C569.46,120.97,578.27,123.08,578.27,123.08z"/>
	<path class="st18" d="M699.27,169.96c0,0.52,0,1.11-0.03,1.74c0,0.14-0.01,0.27-0.01,0.42c0,0.01,0,0.01,0,0.01
		c-1.08,5.6-6.94,9.77-7.33,10.06l-0.03,0.01l-2.94-0.65c-1.19,7.08-6.74,10.88-8.27,13.17c-1.53,2.29,3.7,6,4.02,11
		c0.33,5-9.35,8.17-9.35,8.17c2.72,0.65,1.31,3.92,1.31,3.92c-0.44-1.86-7.19-0.76-6.65-3.7c0.55-2.94,5.77-2.18,5.77-4.79
		c0-2.61-6.86,0.33-7.51-3.92c-0.65-4.25,3.92-5.88,2.94-9.04c-0.98-3.15-17.96-0.1-21.66-5.33c-3.71-5.23,0-12.31,0-12.31
		s-6.3-0.39-7.29-4.44c1.4-2.42,3.46-5.25,4.45-8.07c1.96-5.55,0.98-10.79-1.15-13.06c-2.12-2.29-6.53-3.59-9.14-7.19
		c0,0,0.16,0.94,0.29,2.16c-0.21-0.4-0.34-0.63-0.34-0.63s-0.1,3.59-4.9,2.61c-4.78-0.98-8.27-11.1-8.27-11.1s-3.92,1.52-3.92-6.32
		c0-7.83,6.09-11.52,9.13-13.7c-0.38,0.43-7.75,8.71-4.56,14.19l4.57-6.05c0,0-2.72,13.61,2.61,17c5.33,3.38,8.92-4.35,8.92-4.35
		s5.76,13.56,19.32,13.97c0,0-8.19,3.88-8.74,13.09c-0.56,9.2,13.48,1.75,13.48,1.75s5.17,19.83,17.64,15.82
		c12.46-4.01,17.53-15.99,17.53-15.99C699.23,168.73,699.27,169.28,699.27,169.96z"/>
	
		<linearGradient id="SVGID_00000061452726238073166440000006336984830980353188_" gradientUnits="userSpaceOnUse" x1="642.2327" y1="231.4417" x2="642.2327" y2="207.7296">
		<stop  offset="0" style="stop-color:#04092E"/>
		<stop  offset="1" style="stop-color:#A0AABF"/>
	</linearGradient>
	<path style="fill:url(#SVGID_00000061452726238073166440000006336984830980353188_);" d="M639.95,207.73l1.5,23.71
		c0,0,0.67-6.66,3.07-10.15C644.52,221.29,641.47,213.28,639.95,207.73z"/>
	<path class="st18" d="M711.16,270.02l-0.33,0.47c-29.29-13.93-51.94,1.96-51.94,1.96l-0.56,0.08c0.39-1.32,0.86-2.52,1.37-3.33
		c1.8-2.83,12.48-6.75,22.38-6.87c9.92-0.1,23.54,2.52,26.53,4.91C709.49,267.93,710.35,268.91,711.16,270.02z"/>
	
		<linearGradient id="SVGID_00000104691420033142092470000003774152604959217819_" gradientUnits="userSpaceOnUse" x1="709.1187" y1="222.1611" x2="709.1187" y2="207.7296">
		<stop  offset="0" style="stop-color:#04092E"/>
		<stop  offset="1" style="stop-color:#A0AABF"/>
	</linearGradient>
	<path style="fill:url(#SVGID_00000104691420033142092470000003774152604959217819_);" d="M706.69,212.47c0,0,1.36,1.37,4.47,9.69
		c0,0,1.6-9.92-1.71-14.43C709.45,207.73,707.68,209.32,706.69,212.47z"/>
	<g>
		
			<linearGradient id="SVGID_00000143590257803368583740000006672814394581275268_" gradientUnits="userSpaceOnUse" x1="353.301" y1="279.8599" x2="353.301" y2="77.3025">
			<stop  offset="0" style="stop-color:#04092E"/>
			<stop  offset="1" style="stop-color:#14204D"/>
		</linearGradient>
		<path style="fill:url(#SVGID_00000143590257803368583740000006672814394581275268_);" d="M406.53,279.86h-19.76
			c0,0-5.4-12.74-5.88-15.68c-0.49-2.94-0.49-9.23-0.57-14.78c-0.08-5.56-7.44-26.3-7.44-26.3l-1.62,2.21c0,0-5.47,17.89-4.73,26.13
			c0.73,8.25,6.36,28.42,6.36,28.42l-55.76,0c-0.82-6.04-1.54-26.28-1.54-26.28c-5.64-6.13-9.88-13.89-9.88-13.89
			c-5.22-19.77-3.26-53.74-3.26-53.74s-3.84-7.75-1.73-9.71c2.13-1.95,5.55-1.47,5.55-1.47c10.55-5.88,19.69-13.64,19.69-13.64
			l1.79-5.7c1.39-1.56,4.32-2.22,4.32-2.22v-6.86c-6.2-4.4-9.06-10.13-9.06-10.13s-0.41,3.52-4.08,1.48
			c-3.67-2.05-7.34-10.05-5.26-11.93c2.07-1.88,4.61-1.14,4.61-1.14s-0.81-2.06-1.74-4.81c-0.01-0.04-0.04-0.08-0.05-0.12
			c-1.42-4.18-3.12-9.86-2.78-12.21c0.57-3.92,4-6.37,4-6.37s-1.13-4.17,0-6.38c0.53-1.03,3.51-6.97,15.28-12.01
			c12.65-5.4,21.55-6.27,22.12-4.8c0.56,1.46-4.32,5.22-4.32,5.22c6.11-0.73,9.05,2.04,9.63,4.4c0.58,2.37-4.17,2.46-4.17,2.46
			c8.57,7.75,7.61,20.41,7.27,18.77c-0.31-1.63-1.71-4.16-1.71-4.16c0.28,1.62,0.29,5.03,0.22,8.14c-0.07,3.33-0.22,6.3-0.22,6.3
			s0.38-0.18,0.93-0.34c0.95-0.28,2.37-0.46,3.16,0.57c1.23,1.65,0.08,10.14-1.96,11.68c-2.03,1.55-2.86,0-2.86,0
			c-0.98,5.8-6.94,11.68-6.94,11.68l-0.81,10.85c0,0,0.15,0.12,0.39,0.3c0.51,0.39,1.36,1.1,1.66,1.67c0.4,0.83,0.81,4.32,0.81,4.32
			s1.14,2.71,7.27,7.36c6.12,4.65,12.98,5.63,14.13,6.46c0.2,0.14,0.33,0.32,0.4,0.5c0.34,0.86-0.49,2.01-0.49,2.01
			s9.31,11.44,10.04,15.37c0.74,3.91,6.13,46.93,7.35,51.03c1.23,4.08,4.41,10.12,6.77,16.98
			C404,266.39,406.53,279.86,406.53,279.86z"/>
		
			<linearGradient id="SVGID_00000104687437568344964510000007646913326143918983_" gradientUnits="userSpaceOnUse" x1="353.3004" y1="279.8599" x2="353.3004" y2="152.4133">
			<stop  offset="0" style="stop-color:#03184F"/>
			<stop  offset="1" style="stop-color:#15346F"/>
		</linearGradient>
		<path style="fill:url(#SVGID_00000104687437568344964510000007646913326143918983_);" d="M406.53,279.86h-19.76
			c0,0-5.4-12.74-5.88-15.68c-0.49-2.94-0.49-9.23-0.57-14.78c-0.08-5.56-7.44-26.3-7.44-26.3l-1.62,2.21c0,0-0.01,0.03-0.03,0.1
			c-0.01,0.04-0.03,0.1-0.05,0.16c-0.67,2.26-5.33,18.22-4.65,25.86c0.71,7.99,6.01,27.17,6.34,28.36c0.01,0.04,0.02,0.06,0.02,0.06
			l-55.76,0c-0.82-6.04-1.54-26.28-1.54-26.28c-5.64-6.13-9.88-13.89-9.88-13.89c-5.22-19.77-3.26-53.74-3.26-53.74
			c-0.02-0.01-0.02-0.04-0.03-0.05c-0.34-0.69-3.71-7.79-1.7-9.66c2.13-1.95,5.55-1.47,5.55-1.47
			c10.55-5.88,19.69-13.64,19.69-13.64v-6.92c0,0,2.45-0.56,6.11-1.06c5.8-0.79,14.66-1.4,21.63,0.68c0.51,0.39,1.36,1.1,1.66,1.67
			c0.4,0.83,0.81,4.32,0.81,4.32s1.14,2.71,7.27,7.36c6.12,4.65,12.98,5.63,14.13,6.46c1.07,0.76,0.05,2.32-0.08,2.5
			c-0.01,0.01-0.01,0.01-0.01,0.01s0.68,0.85,1.71,2.15c0,0.01,0,0.02,0.02,0.03c2.72,3.52,7.79,10.34,8.32,13.19
			c0.74,3.91,6.13,46.93,7.35,51.03c0.42,1.38,1.06,3.01,1.84,4.81c1.46,3.47,3.38,7.64,4.94,12.17
			C404,266.39,406.53,279.86,406.53,279.86z"/>
		
			<linearGradient id="SVGID_00000003090478851572155550000008246282342691227555_" gradientUnits="userSpaceOnUse" x1="338.6792" y1="148.2327" x2="338.6792" y2="77.3025">
			<stop  offset="0" style="stop-color:#040418"/>
			<stop  offset="1" style="stop-color:#14204D"/>
		</linearGradient>
		<path style="fill:url(#SVGID_00000003090478851572155550000008246282342691227555_);" d="M363.49,108.8
			c-0.29-1.53-1.54-3.84-1.7-4.13c0.27,1.63,0.28,5.02,0.21,8.11c0,0,0.85,1.61,0.71,5.97c-0.08,2.58-0.51,6.13-1.67,10.87
			c-3.1,12.73-16.81,18.61-16.81,18.61c-4.74-0.16-16.07-5.58-20.25-12.58c-1.94-3.26-4.88-9.78-7.46-15.83
			c-0.01-0.04-0.04-0.08-0.05-0.12c-1.42-4.18-3.12-9.86-2.78-12.21c0.57-3.92,4-6.37,4-6.37s0-0.01-0.01-0.02
			c0-0.03-0.02-0.08-0.04-0.16c-0.01-0.01-0.01-0.01-0.01-0.02c-0.02-0.11-0.05-0.27-0.09-0.45c0-0.01,0-0.02-0.01-0.03
			c-0.27-1.28-0.68-4.04,0.16-5.69c0.53-1.03,3.51-6.97,15.28-12.01c12.65-5.4,21.55-6.27,22.12-4.8c0.56,1.46-4.32,5.22-4.32,5.22
			c6.11-0.73,9.05,2.04,9.63,4.4c0.58,2.37-4.17,2.46-4.17,2.46C364.8,97.77,363.84,110.43,363.49,108.8z"/>
		<path class="st18" d="M406.53,279.86h-19.75c0,0-5.4-12.74-5.88-15.68c-0.5-2.94-0.5-9.22-0.57-14.78
			c-0.08-5.55-7.43-26.3-7.43-26.3l-1.63,2.21c0,0-5.46,17.88-4.73,26.13c0.73,8.24,6.36,28.41,6.36,28.41l-55.77,0
			c-0.81-6.04-1.54-26.29-1.54-26.29c-5.64-6.13-9.88-13.89-9.88-13.89c-5.23-19.77-3.27-53.73-3.27-53.73
			c0.97,2.19,6.91,9.64,6.91,9.64s8.92,24.49,16.6,27c12.73,4.15,28.27-7.83,28.27-7.83c-8.13,2.65-21.52,4.53-23.15,4.76
			c14.12-2.46,32.63-13.25,32.63-13.25c-0.72-26.13,13.85-32.63,13.85-32.63c2.42,0.88,0.12,2.39-0.08,2.51
			c-0.01,0.01-0.01,0.01-0.01,0.01c-8.09,3.2-11.29,23.14-11.29,23.14s14.37,35.5,21.56,42.46c2.65,2.57,5.91,4.38,8.96,5.62
			c1.46,3.48,3.38,7.64,4.94,12.16C403.99,266.39,406.53,279.86,406.53,279.86z"/>
		
			<linearGradient id="SVGID_00000116232692495016880280000013166724590717218214_" gradientUnits="userSpaceOnUse" x1="308.9169" y1="253.5739" x2="308.9169" y2="185.9533">
			<stop  offset="0" style="stop-color:#04092E"/>
			<stop  offset="1" style="stop-color:#14204D"/>
		</linearGradient>
		<path style="fill:url(#SVGID_00000116232692495016880280000013166724590717218214_);" d="M315.57,253.57
			c-5.64-6.13-9.88-13.89-9.88-13.89c-5.23-19.77-3.27-53.73-3.27-53.73s7.58,11.95,10.93,21.95
			C316.72,217.88,315.57,253.57,315.57,253.57z"/>
		
			<linearGradient id="SVGID_00000132055586497753216450000014496598911382111393_" gradientUnits="userSpaceOnUse" x1="341.5375" y1="161.1287" x2="341.5375" y2="152.42">
			<stop  offset="0" style="stop-color:#272C68"/>
			<stop  offset="1" style="stop-color:#112C62"/>
		</linearGradient>
		<path style="fill:url(#SVGID_00000132055586497753216450000014496598911382111393_);" d="M356.15,159.82c0,0-0.29-0.1-0.81-0.27
			c-3.26-1-15.9-4.2-29.4,1.57v-6.92c0,0,2.45-0.56,6.11-1.06c2.33-0.32,5.15-0.6,8.14-0.69c0.34-0.02,0.67-0.03,1.01-0.02
			c3.49-0.07,7.17,0.15,10.55,0.91c0.04,0.01,0.06,0.01,0.06,0.01c0.63,0.13,1.26,0.3,1.87,0.48c1.59,0.38,3.08,0.38,3.36,0.94
			C357.45,155.59,356.15,159.82,356.15,159.82z"/>
		<path class="st18" d="M362.71,118.75c-0.08,2.57-0.51,6.13-1.66,10.87c-3.1,12.74-16.81,18.62-16.81,18.62
			c-4.74-0.17-16.07-5.58-20.25-12.58c-1.95-3.27-4.89-9.79-7.46-15.83c-0.01-0.04-0.04-0.08-0.05-0.12
			c-1.42-4.18-3.12-9.86-2.78-12.22c0,0,3.61,14.93,12.25,22.89l-3.31-13.09c0.3,0.77,2.85,7.2,9.99,14.95c0,0,10.45,0.88,15.9-6.96
			c0,0-0.22,2.39-5.45,7.84c0,0,11.09-4.72,14.04-12.82c2.94-8.09,4.65-15.65,4.65-15.65c0.27,1.62,0.29,5.03,0.22,8.14
			C362,112.78,362.85,114.4,362.71,118.75z"/>
		<path class="st18" d="M317.69,101.13c0,0,7.11-4.25,12.66-7.8C330.35,93.33,316.46,88.96,317.69,101.13z"/>
		<path class="st31" d="M355.09,77.94c-2.63-0.99-18.06,3.51-29.6,11.52c-8.28,5.74-8.19,9.3-7.97,10.99
			c-0.27-1.28-0.68-4.04,0.16-5.69c0.53-1.03,3.51-6.97,15.28-12.01C345.62,77.35,354.52,76.47,355.09,77.94z"/>
		<path class="st31" d="M350.77,83.16l-3.09,1.39c0,0,8.09-0.52,12.72,3.02C360.4,87.57,359.82,82.29,350.77,83.16z"/>
		<path class="st31" d="M356.23,90.02c0,0,5.16,7.22,7.26,18.77C363.49,108.8,366.24,99.41,356.23,90.02z"/>
		<path class="st31" d="M362.71,118.75c0,0,1.36-0.31,2.38,3.1c1.02,3.41-1.18,9.16-1.18,9.16s3.16-3.22,2.34-10.62
			C365.85,116.74,362.71,118.75,362.71,118.75z"/>
		<path class="st31" d="M377.95,174.14c-1.65-0.12-7.27-0.81-13.41-4.77c-7.31-4.72-9.2-9.81-9.2-9.81l0-4.06
			c-2.06-2.3-11.42-2.89-15.14-3.05c-0.94-0.03-1.52-0.04-1.52-0.04c0.88-0.01,1.73,0,2.53,0.02c5.87,0.11,10.01,0.82,10.55,0.91
			c0.04,0.01,0.06,0.01,0.06,0.01l2.29-10.67l-0.81,10.85c0,0,0.15,0.12,0.39,0.3c1.59,0.38,3.08,0.38,3.36,0.94
			c0.4,0.82-0.9,5.05-0.9,5.05s1.14,2.71,7.27,7.36c6.12,4.65,12.98,5.63,14.13,6.46C377.76,173.78,377.88,173.95,377.95,174.14z"/>
		<path class="st31" d="M406.53,279.86l-1.46,0.38c-0.02-0.12-0.05-0.25-0.07-0.38c-1.57-7.63-9.99-27.5-11.38-33.93
			c-1.4-6.54-5.74-43.18-6.97-50.68c-1.02-6.24-5.89-14.39-7.46-16.92c2.72,3.52,7.79,10.34,8.32,13.19
			c0.74,3.91,6.13,46.93,7.35,51.03c0.42,1.38,1.06,3.01,1.84,4.81c1.46,3.47,3.38,7.64,4.94,12.17
			C404,266.39,406.53,279.86,406.53,279.86z"/>
		<path class="st31" d="M372.86,279.8c-0.49-1.3-9.34-24.71-9.16-28.68c0.18-3.92,6.97-24.09,7.52-25.7
			c-0.44,1.45-5.41,18.15-4.7,26.03C367.23,259.43,372.53,278.61,372.86,279.8z"/>
	</g>
	<g>
		
			<linearGradient id="SVGID_00000116945522407786742560000011610495316617905319_" gradientUnits="userSpaceOnUse" x1="221.3348" y1="279.8638" x2="221.3348" y2="28.5552">
			<stop  offset="0" style="stop-color:#04092E"/>
			<stop  offset="1" style="stop-color:#14204D"/>
		</linearGradient>
		<path style="fill:url(#SVGID_00000116945522407786742560000011610495316617905319_);" d="M298.17,279.86l-21.4,0
			c0,0-2.23-15.27-5.43-24.44c-0.04-0.13-0.09-0.27-0.13-0.39l-3.59-0.32l-0.06-0.2c-0.1-0.44-0.43-1.62-1.01-3.34l-0.03-0.06
			c-0.6-1.71-1.47-3.89-2.67-6.37c0,0-2.75,20.88-2.03,33.92c0.03,0.41,0.05,0.81,0.08,1.21h-58.79c0,0-9.31-46.71-11.91-74.96
			c0,0-0.03-0.07-0.09-0.18c-0.04-0.07-0.08-0.16-0.13-0.28c-0.18-0.36-0.45-0.92-0.78-1.6c-0.09-0.19-0.19-0.41-0.3-0.63
			c-0.19-0.42-0.39-0.86-0.6-1.34c-0.07-0.17-0.14-0.33-0.22-0.5c-0.15-0.34-0.31-0.67-0.45-1.04c-0.16-0.36-0.32-0.74-0.47-1.11
			c-0.41-0.96-0.82-1.99-1.21-3.06c-0.1-0.29-0.2-0.57-0.32-0.88c-0.14-0.39-0.29-0.78-0.42-1.19c-0.12-0.39-0.26-0.8-0.39-1.19
			v-0.03c-0.11-0.37-0.22-0.72-0.33-1.07c-0.13-0.42-0.24-0.84-0.34-1.24l0-7.03c0,0-0.05-0.09-0.15-0.28
			c-1.5-2.71-13.65-24.76-17.33-37.77c-1-3.56-1.99-6.37-2.97-8.78c-0.01-0.03-0.01-0.04-0.03-0.06
			c-2.83-7.01-5.42-10.56-7.11-18.43c-1.53-7.08-3.21-21.4-4.19-30.87c-0.49-4.73-0.82-8.25-0.87-9.04
			c-0.03-0.42-0.29-1.19-0.71-2.2c-1.96-4.76-7.31-14.85-7.31-17.83c0-3.58,2.29-3.58,3.1-4.88c0.83-1.31,1.8-2.13,3.27-3.43
			c0,0-3.27-16-2.62-17.81c0.39-1.06,1.25-1.73,2.03-1.88c0.55-0.11,1.07,0.02,1.4,0.42c0.83,0.98,2.94,5.39,2.94,10.45l1.64,7.84
			l3.26-0.81c0,0-0.82-7.68-0.48-10.63c0.32-2.94,0.81-5.49,2.62-7.32c1.79-1.83,3.1,0.46,3.26,2.75c0.16,2.28-0.82,4.24-0.99,4.89
			c-0.15,0.65,0,8.49,0.34,11.43c0.32,2.93,0.49,4.09,0.49,4.09s6.2-1.15,6.94,0.48c0.73,1.63,1.88,2.44,2.03,4.58
			c0.03,0.33-0.03,0.76-0.13,1.28c-0.61,2.77-3.05,7.74-4.43,9.66c-1.62,2.3-5.89,3.91-5.89,3.91s2.75,13.21,5.17,20.73
			c0.02,0.05,0.04,0.12,0.06,0.17c2.45,7.52,9.64,19.11,10.94,23.69c0.36,1.25,0.57,2.56,0.68,3.83v0.03
			c0.32,3.35-0.03,6.26-0.03,6.26l0.01,0.02c0,0.01,0.01,0.04,0.02,0.08c0.46,1.32,5.5,15.63,11.81,25.3l1.22,1.79
			c0,0,1.31-1.22,2.62,0c0.15,0.16,0.29,0.32,0.41,0.49c0.1,0.16,0.18,0.35,0.25,0.52c0.37,1.07,0,2.17,0,2.17l9.02,9.37l3.88,4.02
			l4.4,0l-0.06-0.15c-0.03-0.05-0.04-0.11-0.07-0.19c-0.02-0.05-0.04-0.1-0.05-0.17c-0.11-0.37-0.27-0.87-0.35-1.42
			c-0.04-0.18-0.07-0.37-0.08-0.54c-0.01-0.08-0.01-0.17-0.01-0.27c-0.06-0.97,0.14-1.91,0.95-2.32c0.49-0.24,1-0.34,1.5-0.35
			c1.52-0.05,2.91,0.69,2.91,0.69s0.2,0.06-0.44-2.72c0,0-6.43-4.06-9.36-7.58c-2.95-3.53-3.71-6.58-3.71-6.58s-4.63-0.76-7.56-6.15
			c-2.94-5.4-0.17-8.01,2.13-8.16l-0.01-0.02c-0.21-0.42-3.89-7.47-3.42-12.07c0.48-4.74,4.74-7.02,4.74-7.02s-3.11-0.99-3.27-3.11
			s3.92,1.15,3.92,1.15s-0.99-3.44,0-6.22c0.97-2.77,9.63-9.15,22.21-10.61c12.57-1.46,21.39,10.45,20.57,12.74
			c-0.76,2.14-3.1-1.74-3.4-2.24c0.21,0.61,2.58,7.38,4.11,14.83c0.02,0.1,0.04,0.2,0.06,0.33c0.03,0.11,0.05,0.27,0.08,0.42
			c0.16,0.84,0.33,1.67,0.46,2.5c0,0,0.93-1.35,2.31-1.13c0.53,0.08,1.13,0.4,1.78,1.13c1.7,1.94,1.32,9.82-0.12,13.42v0.01
			c-0.5,1.24-1.13,1.97-1.85,1.76c0,0,1.65,12.08-7.06,19.94c0,0-0.22,1.93,1.11,7.67c0.16,0.71,0.35,1.46,0.56,2.28
			c0,0,5.07,2.27,7.36,5.54c2.28,3.27,2.28,4.58,2.28,4.58s10.45,8.98,18.62,12.41c0,0,9.32,7.36,13.07,17.64
			c0,0,3.75,14.72,2.78,29.56c0,0,1.62,7.36,3.42,12.24l-1.15,1.65C288.68,254.23,295.56,273.82,298.17,279.86z"/>
		
			<linearGradient id="SVGID_00000034080041918302648300000017088343302505855934_" gradientUnits="userSpaceOnUse" x1="221.7894" y1="163.9139" x2="221.7894" y2="96.8356">
			<stop  offset="0" style="stop-color:#040418"/>
			<stop  offset="1" style="stop-color:#14204D"/>
		</linearGradient>
		<path style="fill:url(#SVGID_00000034080041918302648300000017088343302505855934_);" d="M245.99,148.24
			c-4.36,12.08-16.75,15.68-16.75,15.68c-0.29,0-10.2-0.05-18.77-7.15c-8.71-7.2-10.93-21.92-10.93-21.92l-0.01-0.01
			c-0.21-0.42-3.89-7.47-3.42-12.07c0.48-4.74,4.74-7.02,4.74-7.02s-2.46-0.78-3.11-2.44c-0.09-0.21-0.14-0.43-0.16-0.67
			c-0.09-1.07,0.91-0.76,1.93-0.21c0.99,0.56,1.99,1.36,1.99,1.36s-0.26-0.9-0.38-2.14c-0.12-1.19-0.1-2.72,0.38-4.08
			c0.97-2.77,9.63-9.14,22.21-10.61c12.57-1.46,21.39,10.45,20.56,12.74c-0.76,2.14-3.1-1.74-3.4-2.23
			c0.21,0.61,2.57,7.38,4.1,14.83c0.03,0.1,0.04,0.21,0.07,0.33c0.03,0.12,0.05,0.26,0.08,0.42c0.13,0.73,0.39,1.82,0.71,3.15
			C247.02,131.31,248.87,140.24,245.99,148.24z"/>
		
			<linearGradient id="SVGID_00000098218776941507742130000001589243209264320156_" gradientUnits="userSpaceOnUse" x1="237.472" y1="279.8637" x2="237.472" y2="153.6639">
			<stop  offset="0" style="stop-color:#040418"/>
			<stop  offset="1" style="stop-color:#000C3E"/>
		</linearGradient>
		<path style="fill:url(#SVGID_00000098218776941507742130000001589243209264320156_);" d="M289.84,252.58l-1.15,1.65l-17.46,0.81
			l-3.59-0.32l-0.06-0.2c-0.1-0.44-0.43-1.62-1.01-3.34l-0.03-0.06c-0.6-1.71-1.47-3.89-2.67-6.37c0,0-2.75,20.88-2.03,33.92
			l-0.69,1.21h-58.01c0,0-9.31-46.71-11.91-74.96c0,0-0.03-0.07-0.09-0.18c-0.04-0.07-0.08-0.16-0.13-0.28
			c-0.18-0.36-0.45-0.92-0.78-1.6c-0.09-0.19-0.19-0.41-0.3-0.63c-0.19-0.42-0.39-0.86-0.6-1.34c-0.07-0.17-0.14-0.33-0.22-0.5
			c-0.15-0.34-0.31-0.67-0.45-1.04c-0.16-0.36-0.32-0.74-0.47-1.11c-0.41-0.96-0.82-1.99-1.21-3.06c-0.1-0.29-0.2-0.57-0.32-0.88
			c-0.14-0.39-0.29-0.78-0.42-1.19c-0.12-0.39-0.26-0.8-0.39-1.19v-0.03c-0.11-0.37-0.22-0.72-0.33-1.07
			c-0.05-3.16-0.14-6.06-0.34-8.27c-0.84-9.79,7.73-27.78,7.98-28.32l0.01-0.01c0,0,1.31-1.22,2.62,0c0.15,0.16,0.29,0.32,0.41,0.49
			c0.1,0.16,0.18,0.35,0.25,0.52c0.37,1.07,0,2.17,0,2.17l9.02,9.37l3.88,4.02l4.4,0l-0.06-0.15c-0.03-0.05-0.04-0.11-0.07-0.19
			c-0.02-0.05-0.04-0.1-0.05-0.17c-0.11-0.37-0.27-0.87-0.35-1.42c-0.04-0.18-0.07-0.37-0.08-0.54c-0.01-0.08-0.01-0.17-0.01-0.27
			c-0.06-0.97,0.14-1.91,0.95-2.32c0.49-0.24,1-0.34,1.5-0.35c0.99,0.37,1.98,0.62,2.91,0.69c3,0.22,12.95,2.26,19,3.54
			c0,0,0,0,0.01,0l0.01,0.01c0.02,0.01,0.04,0.01,0.07,0.02c2.8,0.58,4.74,1,4.74,1s5.07,2.27,7.36,5.54
			c2.28,3.27,2.28,4.58,2.28,4.58s10.45,8.98,18.62,12.41c0,0,9.32,7.36,13.07,17.64c0,0,3.75,14.72,2.78,29.56
			C286.41,240.34,288.04,247.7,289.84,252.58z"/>
		
			<linearGradient id="SVGID_00000017509804726039944430000006564496779451769766_" gradientUnits="userSpaceOnUse" x1="278.1823" y1="255.4925" x2="278.1823" y2="250.138">
			<stop  offset="0" style="stop-color:#272C68"/>
			<stop  offset="1" style="stop-color:#112C62"/>
		</linearGradient>
		<path style="fill:url(#SVGID_00000017509804726039944430000006564496779451769766_);" d="M289.84,252.58l-1.15,1.65
			c0,0-10.78,1.63-17.34,1.19c-1.54-0.1-2.85-0.33-3.72-0.71l-0.05-0.2l-1.02-3.34l-0.03-0.07c0,0,15.36,1.65,22.22-0.97
			L289.84,252.58z"/>
		
			<linearGradient id="SVGID_00000025422413753425293460000009255908679314877578_" gradientUnits="userSpaceOnUse" x1="190.7668" y1="191.8714" x2="190.7668" y2="153.6672">
			<stop  offset="0" style="stop-color:#272C68"/>
			<stop  offset="1" style="stop-color:#112C62"/>
		</linearGradient>
		<path style="fill:url(#SVGID_00000025422413753425293460000009255908679314877578_);" d="M196.43,155.21v2.17
			c-5.16,6.28-10.45,33.76-10.6,34.49c-0.12-0.37-0.22-0.72-0.33-1.07c-0.05-3.16-0.14-6.06-0.34-8.27c-0.85-9.93,8-28.32,8-28.32
			s1.31-1.21,2.61,0C196.1,154.51,196.3,154.86,196.43,155.21z"/>
		
			<linearGradient id="SVGID_00000096780620042118502620000016984828866883084721_" gradientUnits="userSpaceOnUse" x1="232.5238" y1="180.7276" x2="232.5238" y2="165.3509">
			<stop  offset="0" style="stop-color:#272C68"/>
			<stop  offset="1" style="stop-color:#112C62"/>
		</linearGradient>
		<path style="fill:url(#SVGID_00000096780620042118502620000016984828866883084721_);" d="M251.95,180.73
			c-16.96-11.65-38.21-9.95-38.21-9.95l-0.07-0.16c-0.27-0.76-1.33-4.04,0.39-4.91c0.5-0.24,1.01-0.34,1.5-0.35
			c0.99,0.37,1.99,0.63,2.91,0.69c4.42,0.34,23.83,4.57,23.83,4.57s5.07,2.27,7.36,5.54C251.95,179.42,251.95,180.73,251.95,180.73z
			"/>
		<path class="st18" d="M298.17,279.86h-21.4c0,0-2.22-15.26-5.42-24.44c-1.54-0.1-2.85-0.33-3.72-0.71l-0.05-0.2l-1.02-3.34
			l-0.03-0.07c-0.6-1.7-1.48-3.89-2.67-6.36c0,0-2.76,20.88-2.04,33.91c0.03,0.41,0.05,0.81,0.08,1.2h-58.79
			c0,0-9.3-46.7-11.91-74.96c0,0-0.03-0.07-0.09-0.18c-0.04-0.07-0.08-0.16-0.13-0.27c-0.18-0.35-0.44-0.91-0.77-1.61
			c-0.09-0.2-0.2-0.4-0.3-0.63c-0.2-0.42-0.39-0.86-0.6-1.35c-0.08-0.17-0.14-0.33-0.22-0.5c-0.16-0.34-0.31-0.68-0.46-1.05
			c-0.16-0.35-0.31-0.73-0.47-1.11c-0.4-0.97-0.81-2-1.2-3.06c-0.1-0.29-0.21-0.57-0.31-0.88c-0.14-0.39-0.29-0.78-0.42-1.19
			c-0.13-0.39-0.26-0.8-0.39-1.19v-0.03c8.85-20.88,19.62-25.12,19.62-25.12l3.88,4.02c-9.14,4.73-10.29,36.15-10.29,36.15
			c13.65,17.08,41.78,26.69,42.65,26.98c-14.58-8.79-32.5-28.74-33.07-29.37c15.47,14.58,44.85,23.95,50.08,16.32
			c4.49-6.55,10.02-22.3,11.5-26.61c-1.84,5.68,1.79,17.39,7.98,25.53c6.95,9.14,8.23,20.58,8.23,20.58s1.62,7.36,3.42,12.24
			l-1.15,1.65C288.69,254.23,295.56,273.82,298.17,279.86z"/>
		
			<linearGradient id="SVGID_00000135660204363104604430000017701853242158488999_" gradientUnits="userSpaceOnUse" x1="168.214" y1="57.1137" x2="168.214" y2="51.9914">
			<stop  offset="0" style="stop-color:#04092E"/>
			<stop  offset="1" style="stop-color:#A0AABF"/>
		</linearGradient>
		<path style="opacity:0.5;fill:url(#SVGID_00000135660204363104604430000017701853242158488999_);" d="M171.68,52.87l-6.94,4.25
			v-4.73C164.75,52.38,170.95,51.23,171.68,52.87z"/>
		<path class="st18" d="M163.27,72.29c0,0,2.74,13.21,5.17,20.73l-0.08,0.3c0,0-9.79-16.49-12.89-13.87
			c-1.08,0.9-1.72,3.67-2.09,6.88c-0.5-4.73-0.82-8.24-0.88-9.04c-0.03-0.42-0.29-1.19-0.71-2.19c1.19-0.47,8.91-3.53,12.82-5.77
			c4.25-2.46,8.87-10.67,8.87-10.67l0.1,0.07c-0.61,2.77-3.04,7.73-4.44,9.65C167.53,70.67,163.27,72.29,163.27,72.29z"/>
		
			<linearGradient id="SVGID_00000106839056504522695500000010828704376774268589_" gradientUnits="userSpaceOnUse" x1="178.9332" y1="182.2561" x2="178.9332" y2="135.7081">
			<stop  offset="0" style="stop-color:#04092E"/>
			<stop  offset="1" style="stop-color:#A0AABF"/>
		</linearGradient>
		<path style="opacity:0.5;fill:url(#SVGID_00000106839056504522695500000010828704376774268589_);" d="M185.01,182.26
			c-1.5-2.7-13.65-24.76-17.32-37.77c-1.01-3.55-2-6.36-2.98-8.78c3.32,6.78,7.83,15.31,10.97,18.5c5.57,5.62,16.27-1.79,16.27-1.79
			l1.21,1.79C193.16,154.21,184.33,171.54,185.01,182.26z"/>
		
			<linearGradient id="SVGID_00000125560715551628732210000005242205084074757311_" gradientUnits="userSpaceOnUse" x1="206.551" y1="115.746" x2="206.551" y2="108.9105">
			<stop  offset="0" style="stop-color:#04092E"/>
			<stop  offset="1" style="stop-color:#A0AABF"/>
		</linearGradient>
		<path style="opacity:0.5;fill:url(#SVGID_00000125560715551628732210000005242205084074757311_);" d="M200.84,115.75
			c0,0-2.46-0.78-3.11-2.44l1.78-0.88l1.61-0.78c0,0,8.7-4.08,14.25-2.27C215.37,109.37,201.87,112.73,200.84,115.75z"/>
		
			<linearGradient id="SVGID_00000059276788487480784990000011371879430116548776_" gradientUnits="userSpaceOnUse" x1="221.7894" y1="163.9139" x2="221.7894" y2="115.746">
			<stop  offset="0" style="stop-color:#04092E"/>
			<stop  offset="1" style="stop-color:#A0AABF"/>
		</linearGradient>
		<path style="opacity:0.5;fill:url(#SVGID_00000059276788487480784990000011371879430116548776_);" d="M245.99,148.24
			c-4.36,12.08-16.75,15.68-16.75,15.68c-0.29,0-10.2-0.05-18.77-7.15c-8.71-7.2-10.93-21.92-10.93-21.92l-0.01-0.01
			c-0.21-0.42-3.89-7.47-3.42-12.07c0.48-4.74,4.74-7.02,4.74-7.02s-3.1,4.94,0,14.63c3.1,9.69,12.25,19.82,12.25,19.82
			s-2.95-8.07-3.93-14.49c0,0,5.55,8.94,15.02,12.53c0,0,3.92-13.87,3.27-21.79c0,0,2.61,10.36,1.14,18.53c0,0,4.26-6.7,5.23-10.62
			c0,0,0.82,5.68,0.01,10.1c0.35-0.86,5.89-14.74,6.52-22.17c0,0,0,12.24-1.62,19.75c0,0,5.77-7.21,7.09-15.85
			C247.02,131.31,248.87,140.24,245.99,148.24z"/>
		<path class="st31" d="M162.69,28.59c0,0,1.53,3.39,0.63,7.73c-0.9,4.34,1.42,16.07,1.42,16.07s-0.68-13.51,0-15.56
			C164.75,36.83,166.35,28.59,162.69,28.59z"/>
		<path class="st31" d="M156.26,47.97l-2.21-4.47c0,0-0.68-2.08-1.13-6.17c-0.45-4.09-2.65-8.06-2.65-8.06l0.01-0.01
			c0.55-0.11,1.07,0.02,1.4,0.42c0.83,0.98,2.94,5.39,2.94,10.45L156.26,47.97z"/>
		<path class="st31" d="M244.27,109.7c0,0-3.66-7.86-15.29-10.29c-11.63-2.43-27.49,8.15-27.49,8.15
			c0.97-2.77,9.63-9.15,22.21-10.61C236.27,95.5,245.09,107.41,244.27,109.7z"/>
		<path class="st31" d="M241.32,108.8c0,0,5.93,23.63,6.2,29.58C247.52,138.38,245.65,117.2,241.32,108.8z"/>
		<path class="st31" d="M249.54,138.96c-0.02-1.32-0.01-3.22,0.05-5.81c0.13-6.01-2.07-8.54-2.07-8.54l0.37-0.19
			c0.53,0.08,1.13,0.4,1.78,1.13C251.36,127.48,250.98,135.36,249.54,138.96z"/>
		<path class="st31" d="M180.13,120.72c-0.19-3-7.9-14.27-10.92-22.37c-3.03-8.12-5.94-26.06-5.94-26.06s2.75,13.21,5.17,20.73
			c0.02,0.05,0.04,0.12,0.06,0.17c2.45,7.52,9.64,19.11,10.94,23.69C179.8,118.13,180.02,119.45,180.13,120.72z"/>
		<path class="st31" d="M191.94,152.42l1.22,1.79l-0.01,0.01l-0.61,1.28c-5.02-6.47-11.93-26.65-12.41-28.38
			C180.59,128.43,185.63,142.75,191.94,152.42z"/>
		<path class="st31" d="M209.33,170.77l-13.98-11.78c-0.42-4.1-2.2-4.78-2.2-4.78s1.31-1.22,2.62,0c0.15,0.16,0.29,0.32,0.41,0.49
			c0.1,0.16,0.18,0.35,0.25,0.52c0.37,1.07,0,2.17,0,2.17l9.02,9.37L209.33,170.77z"/>
		<path class="st31" d="M284.5,240.01c0,0,1.2-19.89-2.72-28.91c-3.92-9.03-12.2-15.07-12.2-15.07
			c-13.34-6.37-21.06-17.44-21.06-17.44c-2.2-6.1-10.5-8.83-11.03-8.99l-0.01-0.01l4.26-1.25c0.16,0.71,0.35,1.46,0.56,2.28
			c0,0,5.07,2.27,7.36,5.54c2.28,3.27,2.28,4.58,2.28,4.58s10.45,8.98,18.62,12.41c0,0,9.32,7.36,13.07,17.64
			c0,0,3.75,14.72,2.78,29.56c0,0,1.62,7.36,3.42,12.24L284.5,240.01z"/>
		<path class="st31" d="M263.56,246.52c0,0-5.52,24.09-1.65,33.34C261.9,279.86,261.82,264.94,263.56,246.52z"/>
		<path class="st31" d="M288.69,254.23c0,0,4.45,21.38,6.77,25.57l2.71,0.06C298.17,279.86,292.85,265.89,288.69,254.23z"/>
	</g>
	<g>
		
			<linearGradient id="SVGID_00000063626625583837963630000017867795214103315368_" gradientUnits="userSpaceOnUse" x1="761.6948" y1="279.8639" x2="761.6948" y2="79.8172">
			<stop  offset="0" style="stop-color:#04092E"/>
			<stop  offset="1" style="stop-color:#000C36"/>
		</linearGradient>
		<path style="fill:url(#SVGID_00000063626625583837963630000017867795214103315368_);" d="M810.3,179.82c0,0,0.02-0.03,0.06-0.08
			c6.53-8.58,19.93-26.55,21.29-30.85c0.77-2.42-1.89-9.69-5.37-17.8c-0.03-0.08-0.05-0.13-0.05-0.13
			c-4.71-10.95-10.9-23.42-12.21-27.62c0,0-0.15-10.27-2.29-14.45c0,0-1.31-1.15-3.19-0.75c0,0-1.96-0.82-4.08-0.09
			c0,0-1.62-0.39-2.93,0.57c0,0-2.04-2.61-3.44-3.82c-1.38-1.23-4.07-4.91-5.38-4.98c-1.31-0.09-1.48,0.96-0.09,3.42
			c1.4,2.45,4.26,5.3,4.26,5.3s1.61,1.64,2.92,4c1.31,2.38,1.47,4.99,1.47,4.99s-1.95-0.07-4.16-2.21c-2.2-2.13-1.54-2.53-3.35-3.26
			c-1.8-0.74-3.67,0.16-3.59,1.05c0.07,0.9,1.71,1.15,4.09,4c2.36,2.86,3.34,5.23,4.32,5.98c0.98,0.73,7.75,0.4,8.82,2.03
			c0,0,0,0.01,0.01,0.02c0.14,0.21,0.3,0.6,0.45,1.11c0.01,0.04,0.02,0.07,0.04,0.11c1.04,3.42,2.41,12.2,3.25,18.75
			c0.03,0.21,0.05,0.42,0.08,0.64c0.03,0.29,0.06,0.56,0.1,0.83c0.02,0.12,0.04,0.27,0.05,0.4v0.03c0.55,4.12,1.25,8.59,2.49,12.3
			c0,0.01,0.01,0.02,0.01,0.03c0.96,2.84,2.26,5.22,4.06,6.62c0.02,0.01,0.04,0.03,0.05,0.04l0.01,0.01
			c-0.08,0.1-0.15,0.22-0.23,0.34c-1.11,1.74-6.27,9.67-10.76,14.32c-0.07,0.09-0.11,0.13-0.11,0.13c0.02-0.22,0.03-0.44,0.04-0.67
			c0.18-3.46,0.94-19.05,0.21-23.91c0,0,3.26-1.88,2.93-5.63c-0.33-3.75-9.6-15.97-19.7-19.7c0,0,2.83-4.69,1.52-8.49
			c-1.31-3.81-4.13-3.91-4.13-3.91s0,0-0.01-0.01c-0.24-0.4-5.18-8.27-12.08-3.81c-4.28,2.77-4.3,7.85-3.64,11.42
			c0.42,2.34,1.13,4.04,1.13,4.04s-7.51,1.09-13.07,7.3c-5.55,6.21-5.22,13.07-2.83,15.46c0,0-4.65,22.13-4.23,27.64v0.03
			c0.02,0.25,0.05,0.47,0.1,0.63c0.11,0.49,0.3,0.96,0.52,1.4l0.03,0.05c0.07,0.15,0.15,0.3,0.23,0.44v0.01
			c0.09,0.16,0.19,0.33,0.31,0.48v0.01c-0.07-0.04-0.14-0.09-0.22-0.15l-0.11-0.08v-0.01c-0.99-0.69-1.92-1.4-2.72-2.04
			c-4.47-3.59-10.34-13.06-10.78-14.14c-0.44-1.09-3.38-7.31-6.43-10.24c-3.05-2.94-15.12-12.62-18.61-16.54
			c-0.66-0.74-1.22-1.36-1.7-1.89c-0.03-0.04-0.06-0.08-0.1-0.12c-0.04-0.05-0.07-0.08-0.08-0.1l-0.01-0.01l-0.21-0.27
			c-0.19-0.22-0.38-0.43-0.54-0.62c-0.16-0.18-0.3-0.36-0.43-0.51c-0.19-0.22-0.34-0.41-0.47-0.56l-0.22-0.28l-0.26-0.33
			c0,0,0.9-0.99,1.75-2.33c0.02-0.04,0.04-0.08,0.07-0.13c0.96-1.54,1.8-3.51,1.11-4.94c-1.3-2.73-3.06-4.89-3.81-7.73
			c-0.26-0.97-0.32-2.04-0.32-3.06c0-1.97,0.2-3.73-0.44-4.19c-0.98-0.71-3.16,1.03-2.83,3.6c0.32,2.56,1.08,3.15,1.74,4.95
			c0.64,1.8-0.11,3.65-0.11,3.65l-0.02-0.02c-0.36-0.36-6.12-6.19-7.54-8.09c-1.47-1.96-5.4-7.51-6.63-8.04
			c-0.83-0.37-1.54-0.53-2.05-0.41c-0.27,0.05-0.47,0.18-0.62,0.41c-0.44,0.65,3.64,6.36,4.52,7.72c0.88,1.36,2.73,4.58,2.73,4.58
			s-1.52,1.57-1.52,3.38c0,0-1.15,1.19-1.21,2.62c-0.05,1.41-0.1,2.39-0.1,2.39s-1.21,0.27-1.08,2.55c0.1,2.29,4.95,6.81,11.36,7.89
			c0,0,11.81,22.54,16.55,28.75c1.48,1.96,2.81,3.38,3.99,4.5c0.17,0.18,0.36,0.34,0.53,0.49c0.08,0.07,0.15,0.13,0.22,0.21
			c2.18,1.93,3.86,2.9,5.38,4.6c0.63,0.72,2.32,2.5,4.5,4.89c0,0,0.02,0.01,0.03,0.04c1.99,2.19,4.4,4.86,6.83,7.66
			c0.03,0.03,0.04,0.04,0.07,0.07c5.2,6.04,10.45,12.68,11.77,16.39c0,0,0,0.05-0.02,0.14l-0.01,0.06v0.05l-0.01,0.03
			c-0.13,0.84-0.51,3.48-0.85,6.67l-0.01,0.12c-0.46,4.4-0.85,9.81-0.41,13c0.82,6.05,5.55,8.34,6.2,10.3
			c0.65,1.96,2.94,12.91,2.94,25.97c0,13.07-8.49,35.44-8.49,35.44h68.91c0,0-0.01-0.02-0.02-0.05c-0.24-0.49-2.17-4.56-5.69-9.93
			l-0.08-0.09c-2.39-3.65-5.54-7.88-9.39-11.99c-9.54-10.16-18.19-24.5-19.77-28.57c-0.11-0.31-0.16-0.48-0.16-0.48
			c-0.2-0.73-0.35-1.55-0.43-2.39c-0.09-0.93-0.1-1.87-0.09-2.72c0.03-1.81,0.21-3.22,0.21-3.22s1.85,3.08,4.85,6.97
			c1.37,1.77,2.98,3.71,4.77,5.59l-0.65-4.23c0,0,2.23,2.82,4.83,5.66c2.31,2.52,4.89,5.07,6.44,5.6c0,0-3.76-29.24-4.26-39.19
			c0,0,2.79,15.02,4.1,18.13c0,0-0.65-24.08-2.29-34.58l3.47-4.53C810.3,179.84,810.3,179.84,810.3,179.82z M762.67,169.16
			l-0.6-0.38l-0.38-0.24c-1.01-0.65-2.27-1.44-3.6-2.33c-0.04-0.06-0.08-0.11-0.1-0.17l-0.01-0.02c0,0,0,0-0.01-0.01
			c-0.88-1.55-1.99-3.63-2.42-5.04c-0.76-2.51,3.16-16.88,3.16-16.88s3.92,18.08,5.33,25.91L762.67,169.16z"/>
		
			<linearGradient id="SVGID_00000164511365493975675770000007227946176258525631_" gradientUnits="userSpaceOnUse" x1="789.5836" y1="279.8594" x2="789.5836" y2="172.7716">
			<stop  offset="0" style="stop-color:#03184F"/>
			<stop  offset="1" style="stop-color:#15346F"/>
		</linearGradient>
		<path style="fill:url(#SVGID_00000164511365493975675770000007227946176258525631_);" d="M755.55,279.86
			c0,0,8.49-22.37,8.49-35.43c0-13.06-2.29-24.01-2.94-25.97c-0.65-1.96-5.38-4.25-6.21-10.29c-0.77-5.68,1.06-18.45,1.29-19.94
			c-0.07,1.37-0.46,15.64,3.55,17.17c3.97,1.5,7.6-21.66,7.88-30.67c0.04-0.76,0.04-1.41,0.01-1.95l23.84,14.55l4.9,35.98l6.47,11.1
			c-2.6-2.83-4.83-5.66-4.83-5.66l0.65,4.23c-1.79-1.88-3.4-3.83-4.77-5.59c-3-3.89-4.86-6.98-4.86-6.98s-0.18,1.41-0.21,3.23
			c-0.01,0.85,0,1.79,0.09,2.72c0.08,0.84,0.22,1.66,0.43,2.39c0.99,3.27,9.97,18.45,19.94,29.05c3.85,4.1,7,8.34,9.39,11.98
			l0.08,0.09c3.76,5.74,5.71,9.98,5.71,9.98L755.55,279.86z"/>
		
			<linearGradient id="SVGID_00000149362504437028375580000010544590452400950176_" gradientUnits="userSpaceOnUse" x1="781.5696" y1="240.0134" x2="781.5696" y2="93.3094">
			<stop  offset="0" style="stop-color:#040418"/>
			<stop  offset="1" style="stop-color:#14204D"/>
		</linearGradient>
		<path style="fill:url(#SVGID_00000149362504437028375580000010544590452400950176_);" d="M805.02,200.82
			c0.5,9.95,4.26,39.19,4.26,39.19c-3.27-1.15-11.27-11.26-11.27-11.26l0.65,4.23c-5.71-6.04-9.63-12.57-9.63-12.57
			s-0.18,1.41-0.21,3.23l-15.64-25.76l0,6.21c-6.86-16.98-9.14-34.07-9.14-34.07c-1.41-7.84-5.33-25.92-5.33-25.92
			s-3.92,14.37-3.16,16.88c0.43,1.41,1.54,3.5,2.43,5.06l-3.72-2.46l-0.22-0.14l-0.12-0.08v-0.01l-0.21-0.69l-0.03-0.05l-0.63-2.04
			v-0.03c-0.42-5.51,4.23-27.64,4.23-27.64c-2.39-2.39-2.72-9.25,2.83-15.46c5.55-6.21,13.06-7.3,13.06-7.3s-4.57-10.88,2.51-15.45
			c7.07-4.57,12.08,3.81,12.08,3.81s2.82,0.1,4.13,3.92c1.31,3.8-1.52,8.49-1.52,8.49c10.1,3.72,19.37,15.95,19.7,19.7
			c0.33,3.75-2.94,5.63-2.94,5.63c0.73,4.86-0.03,20.45-0.21,23.91c-0.01,0.24-0.03,0.46-0.04,0.68
			c-0.29,6.39-0.08,23.55-0.08,23.55c1.63,10.5,2.29,34.58,2.29,34.58C807.8,215.84,805.02,200.82,805.02,200.82z"/>
		
			<linearGradient id="SVGID_00000126321011807628129800000018057258621309206202_" gradientUnits="userSpaceOnUse" x1="710.9199" y1="153.7109" x2="710.9199" y2="112.5846">
			<stop  offset="0" style="stop-color:#04092E"/>
			<stop  offset="1" style="stop-color:#A0AABF"/>
		</linearGradient>
		<path style="fill:url(#SVGID_00000126321011807628129800000018057258621309206202_);" d="M726.87,153.71
			c-1.18-1.11-2.5-2.53-3.98-4.49c-4.74-6.21-16.55-28.74-16.55-28.74c-6.41-1.08-11.26-5.6-11.37-7.89c0,0,5.71,6.26,10.11,5.6
			c4.42-0.65,6.27-2.51,6.27-2.51l0.26,0.33l1.66,1.97l0.22,0.26c0,0-2.04,3.21-1.71,6.48C712.1,127.88,721.21,148.08,726.87,153.71
			z"/>
		<path class="st18" d="M755.55,279.86c0,0,8.49-22.37,8.49-35.43c0-13.06-2.29-24.01-2.94-25.97c-0.65-1.96-5.38-4.25-6.21-10.29
			c-0.77-5.68,1.06-18.45,1.29-19.94c0.01-0.09,0.01-0.14,0.01-0.14c-1.32-3.71-6.57-10.36-11.77-16.4
			c3.46,3.48,7.6,7.05,11.03,8.15c7.28,2.36,6.23-11.29,6.23-11.29l0.38,0.24l0.6,0.38l1.37,0.85l3.58,4.7l4.59,6.01l0.98,17.15
			l8.39,6.86l10.23,15.02l2.09,7.63c0,0-2.06-0.68-4.98-1.03c-3.04-0.38-7-0.4-10.5,1.03c-6.86,2.82-8.17,16.15-7.19,28.1
			c0.98,11.95,36.78,17.92,47.45,14.29l0.08,0.09c3.76,5.74,5.71,9.98,5.71,9.98L755.55,279.86z"/>
		
			<linearGradient id="SVGID_00000029008747426955618190000015371159595276882560_" gradientUnits="userSpaceOnUse" x1="809.3199" y1="125.7665" x2="809.3199" y2="105.125">
			<stop  offset="0" style="stop-color:#04092E"/>
			<stop  offset="1" style="stop-color:#A0AABF"/>
		</linearGradient>
		<path style="fill:url(#SVGID_00000029008747426955618190000015371159595276882560_);" d="M811.24,106.26c0,0-0.81,12.4-0.01,19.5
			c-0.03-0.22-0.05-0.43-0.08-0.64c-0.98-7.67-2.69-18.37-3.75-20L811.24,106.26z"/>
		
			<linearGradient id="SVGID_00000179630769666945424800000000840327525554296977_" gradientUnits="userSpaceOnUse" x1="811.3711" y1="127.0991" x2="811.3711" y2="126.5896">
			<stop  offset="0" style="stop-color:#04092E"/>
			<stop  offset="1" style="stop-color:#A0AABF"/>
		</linearGradient>
		<path style="fill:url(#SVGID_00000179630769666945424800000000840327525554296977_);" d="M811.38,127.02v-0.03
			c-0.01-0.13-0.03-0.27-0.05-0.4c0.03,0.17,0.05,0.34,0.08,0.51L811.38,127.02z"/>
		
			<linearGradient id="SVGID_00000112594593883394847040000018121226840564977793_" gradientUnits="userSpaceOnUse" x1="815.643" y1="184.3727" x2="815.643" y2="146.0292">
			<stop  offset="0" style="stop-color:#04092E"/>
			<stop  offset="1" style="stop-color:#A0AABF"/>
		</linearGradient>
		<path style="fill:url(#SVGID_00000112594593883394847040000018121226840564977793_);" d="M808.71,160.97
			c-3.12,4.34,1.41,18.33,1.59,18.85c0,0.01,0,0.01,0,0.01l-3.48,4.53l0.08-23.55c0,0,0.04-0.04,0.1-0.13
			c4.49-4.65,9.65-12.58,10.76-14.32c0.08-0.12,0.16-0.24,0.24-0.34c0,0,3.84,1.23,6.45,1.23
			C824.46,147.26,811.89,156.56,808.71,160.97z"/>
		<path class="st18" d="M761.18,116.33c0,0-4.98,6.76-2.53,13.13c0,0,6.04,1.8,12.9-1.14c6.86-2.94,8.17-11.99,8.17-11.99
			s-1.96,11.01-8.98,17.05c0,0,12.74-4.25,14.21-12.25c0,0,0.93,7.82-3.37,14.53c0,0,11.37-0.97,12.84-6.85
			c1.47-5.88-7.84-17.8-7.84-17.8s10.29,9.97,11.1,16.09c0.82,6.12-3.1,8.56-3.1,8.56s6.37,0.82,9.8-2.28
			c3.43-3.1-0.99-13.2-0.99-13.2s7.19,7.55,6.7,10.42c-0.49,2.87-0.98,4.4-2.94,5.63l-4.41,20.82c0,0-1.14-14.21-1.96-16.82
			c-0.82-2.61,4.24,60.59,4.24,60.59s-4.4-53.07-9.63-61.89c0,0-7.19,14.86-4.25,39.36c2.94,24.5,6.86,50.47,6.86,50.47
			s-8.82-49.98-11.27-66.14c-2.45-16.17-9.8-24.82-9.8-24.82s-0.82,11.43,0.49,17.47c0,0-4.74-8.17-6.37-16
			c0,0-9.26,5.08-9.33,19.11l-3.02-14.27c0,0,1.31-8.43,1.04-10.07l-2.46-1.14C757.29,132.89,751.79,125.57,761.18,116.33z"/>
		
			<linearGradient id="SVGID_00000162348091898975416320000017465020610511062716_" gradientUnits="userSpaceOnUse" x1="781.8157" y1="113.22" x2="781.8157" y2="96.8469">
			<stop  offset="0" style="stop-color:#04092E"/>
			<stop  offset="1" style="stop-color:#A0AABF"/>
		</linearGradient>
		<path style="fill:url(#SVGID_00000162348091898975416320000017465020610511062716_);" d="M773.42,96.85c0,0-0.89,8.66,4.34,12.06
			c5.23,3.4,10.02-10.42,10.02-10.42s-0.88,5-1.04,8.76c-0.16,3.76,5.18-0.15,5.18-0.15l-1.53,3.8c0,0-13.61,5.7-17.21-0.77
			C773.18,110.13,769.73,102.12,773.42,96.85z"/>
		<path class="st31" d="M787.77,98.48c-0.28-0.22-5.76-4.72-11.07-1.98c-5.43,2.82-4.25,9.86-4.25,9.86l-0.4-0.27
			c-0.66-3.58-0.64-8.66,3.64-11.42C782.59,90.22,787.53,98.08,787.77,98.48z"/>
		<path class="st31" d="M708.49,105.48l-5.58-3.77c0,0-2.93-3.44-6.38-8.4c-3.21-4.6-4.68-4.08-4.87-3.98l0.6-0.4
			c0.51-0.12,1.23,0.04,2.05,0.41c1.24,0.53,5.16,6.08,6.63,8.04C702.37,99.29,708.13,105.12,708.49,105.48z"/>
		<path class="st31" d="M713.17,113.22c1.56-2.79-0.42-4.73-2.25-9.07c-1.84-4.34-0.77-6.64-0.77-6.64c0,1.01,0.06,2.08,0.32,3.06
			c0.76,2.83,2.51,5,3.81,7.73C714.97,109.71,714.13,111.67,713.17,113.22z"/>
		<path class="st31" d="M753.95,163.09c1.1,1.01,2.09,1.74,2.82,2.22c-2.68-1.61-8.99-5.59-10.76-8.26
			c-2.27-3.42-7.62-13.98-12.68-17.23c-4.83-3.1-18.48-19.9-19.74-21.47c0.5,0.55,1.08,1.22,1.8,2.01
			c3.48,3.92,15.56,13.6,18.61,16.54c3.05,2.93,5.99,9.15,6.43,10.24c0.44,1.08,6.32,10.56,10.78,14.14
			c0.8,0.64,1.73,1.35,2.72,2.04v0.01l0.11,0.08c0.08,0.06,0.15,0.11,0.22,0.15v-0.01C754.14,163.42,754.04,163.26,753.95,163.09z"
			/>
		<path class="st31" d="M757.11,165.53c0.36,0.2,0.62,0.36,0.76,0.44C757.73,165.89,757.47,165.75,757.11,165.53z"/>
		<path class="st31" d="M818,146.02c-0.01-0.01-0.03-0.03-0.05-0.04c-0.35-0.33-2.3-1.05-4.06-6.62c0-0.01-0.01-0.02-0.01-0.03
			c-1.25-3.71-1.94-8.19-2.49-12.3v-0.03c-0.01-0.13-0.03-0.28-0.05-0.4c-0.04-0.27-0.07-0.54-0.1-0.83
			c-0.03-0.22-0.05-0.43-0.08-0.64c-0.84-6.55-2.21-15.33-3.25-18.75c1.03,2.7,3.43,9.42,4.62,16.8
			C814.05,132.75,815.64,144.1,818,146.02z"/>
		<path class="st31" d="M807.15,136.23c0,0-1.85,7.23-1.21,15.85c0.64,8.62,1.07,8.6,1.07,8.6S807.54,143.54,807.15,136.23z"/>
		<path class="st31" d="M758.71,144.1c0,0,7.44,16.3,5.33,25.92C764.04,170.02,758.55,145.16,758.71,144.1z"/>
		<path class="st31" d="M757.98,166.03c0,0-1.97-2.57-3.27-6.83c-1.3-4.26,4-15.1,4-15.1S754.52,157.06,757.98,166.03z"/>
		<path class="st31" d="M765.12,248.99c-0.11,10.51-6.54,28.95-7.22,30.87c-0.03,0.11-0.05,0.16-0.05,0.16l-2.3-0.16
			c0,0,8.49-22.37,8.49-35.44c0-13.06-2.29-24-2.94-25.97c-0.65-1.96-5.39-4.25-6.2-10.3c-0.44-3.19-0.05-8.59,0.41-13l0.01-0.12
			l0.85-6.67l0.01-0.03c-0.13,1.38-1.43,15.08,0.43,20.92c1.97,6.16,5.09,8.32,5.09,8.32S765.25,237.89,765.12,248.99z"/>
		<path class="st31" d="M805.02,200.82c0,0-1.4,26.51,4.26,39.19C809.28,240.01,805.67,209.06,805.02,200.82z"/>
		<path class="st31" d="M824.46,279.86l-3.01,0.16c0,0-0.03-0.06-0.09-0.16c-0.92-1.62-8.55-14.98-17.66-25.64
			c-8.65-10.13-13.28-22.42-14.19-24.99c1.58,4.07,10.23,18.41,19.77,28.57c3.85,4.11,7,8.34,9.39,11.99l0.08,0.09
			c3.53,5.38,5.46,9.44,5.69,9.93C824.45,279.84,824.46,279.86,824.46,279.86z"/>
		<path class="st31" d="M831.65,148.89c-1.36,4.3-14.76,22.27-21.29,30.85c1.15-1.62,18.72-26.08,19.65-31.28
			c0.84-4.7-3.22-15.92-3.74-17.37C829.76,139.2,832.41,146.47,831.65,148.89z"/>
	</g>
	<g>
		
			<linearGradient id="SVGID_00000018941929758802914390000011833527438210355881_" gradientUnits="userSpaceOnUse" x1="460.6265" y1="279.8638" x2="460.6265" y2="84.8706">
			<stop  offset="0" style="stop-color:#04092E"/>
			<stop  offset="1" style="stop-color:#14204D"/>
		</linearGradient>
		<path style="fill:url(#SVGID_00000018941929758802914390000011833527438210355881_);" d="M523.73,260.26
			c-6.19,8.34-31.01,10.45-31.01,10.45l0,9.15l-66.96,0l0.16-7.03c-18.9-7.91-25.01-16.28-26.85-19.89v-0.01
			c-0.59-1.15-0.75-1.82-0.75-1.82c-3.27-16.66,4.74-60.1,4.74-60.1c3.75-4.89,9.32-7.35,9.32-7.35c8.85-3.01,16.64-7.09,17.11-7.34
			l0.03-0.01l-1.64-9.32c3.75-4.9,8.23-7.33,11.53-8.49c0.06-0.03,0.09-0.05,0.09-0.05c2.68-0.95,4.55-1.08,4.55-1.08l0.02-0.05
			l1.93-4.84c-4.57-5.23-5.82-14.53-5.82-14.53s-0.37,1.31-2.32,0l-0.01-0.01c-1.96-1.34-4.9-12.9-2.78-15.36
			c0.93-1.06,1.83-1.21,2.54-1.01c0.37,0.09,0.68,0.28,0.94,0.46l0.01,0.01c0.28,0.2,0.47,0.41,0.55,0.51l0.04,0.03
			c0,0-0.05-0.54-0.14-1.47c0-0.01,0-0.01,0-0.01c-0.35-4.02-1.19-14.99,0.14-17.77c1.39-2.94,5.43-4.57,6.55-4.96
			c0.18-0.09,0.3-0.11,0.3-0.11s1.1-3.99,4.38-6.9c0.22-0.19,0.45-0.39,0.69-0.57l0.03-0.03c0.44-0.33,0.91-0.64,1.42-0.92
			c0.37-0.21,0.75-0.4,1.15-0.57c5.88-2.44,9.8,1.96,14.21,1.15c4.4-0.81,6.37-5.56,6.37-5.56c0.98,3.1,0.33,7.36,0.33,7.36
			c6.86-2.45,10.94,0.49,13.06,8.98c2.12,8.49,8.82,8.49,8.82,8.49c-1.13,4.57-3.75,4.39-3.75,4.39c0.65,4.58-4.09,18.63-4.09,18.63
			s0.28-0.01,0.66,0.03c1.41,0.09,4.41,0.79,2.77,4.86c-1.86,4.57-6.84,7.02-8.05,7.56l-0.26,0.1l-0.02,0.01
			c-4.25,7.35-11.61,11.92-11.61,11.92l0.17,3.12c0.24,0.12,0.47,0.26,0.69,0.4c1.32,0.77,2.58,1.52,3.77,2.26l0.01,0.01
			c8.76,5.45,13.98,10.07,13.98,10.07l-2.45,6.79c16.18,6.44,24.67,15.75,24.67,15.75C520.47,215.34,523.73,260.26,523.73,260.26z"
			/>
		
			<linearGradient id="SVGID_00000072251436675107558180000016325040655384164778_" gradientUnits="userSpaceOnUse" x1="467.4425" y1="158.5837" x2="467.4425" y2="84.8753">
			<stop  offset="0" style="stop-color:#040418"/>
			<stop  offset="1" style="stop-color:#14204D"/>
		</linearGradient>
		<path style="fill:url(#SVGID_00000072251436675107558180000016325040655384164778_);" d="M492.71,114.1
			c0.65,4.57-4.09,18.63-4.09,18.63s0.27-0.01,0.67,0.03c-0.81,1.24-1.69,2.64-2.63,4.19c-0.08,0.12-0.18,0.27-0.29,0.44
			c-0.89,1.48-1.86,3.1-2.87,4.86c-8.7,15.02-22.86,16.33-22.86,16.33c-4.15-1.96-8.49-6.98-8.49-6.98h-2.39
			c-5.81-7.43-9.01-20.21-10.75-30.49c0-0.01,0-0.01,0-0.01c-0.35-4.01-1.19-14.98,0.14-17.77c1.62-3.44,6.85-5.07,6.85-5.07
			s1.8-6.53,7.68-8.99c5.88-2.44,9.8,1.96,14.21,1.15c4.4-0.81,6.36-5.55,6.36-5.55c0.98,3.1,0.33,7.36,0.33,7.36
			c6.86-2.46,10.95,0.48,13.06,8.98s8.82,8.49,8.82,8.49C495.33,114.27,492.71,114.1,492.71,114.1z"/>
		
			<linearGradient id="SVGID_00000005985070240735491350000015924209792109107612_" gradientUnits="userSpaceOnUse" x1="460.6282" y1="279.8593" x2="460.6282" y2="156.7792">
			<stop  offset="0" style="stop-color:#040418"/>
			<stop  offset="1" style="stop-color:#000C3E"/>
		</linearGradient>
		<path style="fill:url(#SVGID_00000005985070240735491350000015924209792109107612_);" d="M523.73,260.26
			c-6.19,8.34-31.01,10.45-31.01,10.45v9.12l-0.05,0.03l-66.92,0l0.17-7.03c-21.83-9.13-26.59-18.88-27.45-21.19l-0.16-0.52
			c-3.27-16.66,4.74-60.1,4.74-60.1c3.75-4.9,9.31-7.34,9.31-7.34c8.86-3.02,16.64-7.09,17.11-7.34l0.03-0.01l-1.63-9.31
			c6.86-8.98,16.16-9.63,16.16-9.63l0.03-0.05c7.85-1.14,17.64-0.74,28.92,3.4c11.03,6.38,17.77,12.33,17.77,12.33l-2.46,6.78
			c16.17,6.44,24.67,15.76,24.67,15.76C520.46,215.35,523.73,260.26,523.73,260.26z"/>
		
			<linearGradient id="SVGID_00000181803706906679775750000009721610603644522139_" gradientUnits="userSpaceOnUse" x1="508.2208" y1="270.7143" x2="508.2208" y2="195.5948">
			<stop  offset="0" style="stop-color:#04092E"/>
			<stop  offset="1" style="stop-color:#14204D"/>
		</linearGradient>
		<path style="fill:url(#SVGID_00000181803706906679775750000009721610603644522139_);" d="M523.73,260.26
			c-6.19,8.34-31.01,10.45-31.01,10.45l3.75-41.96c0,0,2.07-23.58,16.5-33.16C520.46,215.35,523.73,260.26,523.73,260.26z"/>
		
			<linearGradient id="SVGID_00000180366396298975076090000007109184211465179779_" gradientUnits="userSpaceOnUse" x1="411.7221" y1="272.8307" x2="411.7221" y2="191.0223">
			<stop  offset="0" style="stop-color:#04092E"/>
			<stop  offset="1" style="stop-color:#14204D"/>
		</linearGradient>
		<path style="fill:url(#SVGID_00000180366396298975076090000007109184211465179779_);" d="M425.92,272.83
			c-24.99-10.45-27.6-21.71-27.6-21.71c-3.27-16.66,4.74-60.1,4.74-60.1s8.67,8.27,15.35,25.69L425.92,272.83z"/>
		
			<linearGradient id="SVGID_00000103951111166761121580000015285625364885362309_" gradientUnits="userSpaceOnUse" x1="458.0868" y1="179.8393" x2="458.0868" y2="166.7955">
			<stop  offset="0" style="stop-color:#04092E"/>
			<stop  offset="1" style="stop-color:#A0AABF"/>
		</linearGradient>
		<path style="opacity:0.5;fill:url(#SVGID_00000103951111166761121580000015285625364885362309_);" d="M427.88,167.01
			c0,0,35.76-2.93,60.42,12.83c0,0-38.59-6.43-58.82-3.5L427.88,167.01z"/>
		<path class="st18" d="M523.73,260.26c-6.19,8.34-31.01,10.45-31.01,10.45v9.12l-0.05,0.03l-66.92,0l0.17-7.03
			c-21.83-9.13-26.59-18.88-27.45-21.19l-0.16-0.52c0,0,10.62,7.12,20.75,4.38l-3.92-5.36l8.1,2.68l-4.83-36.1
			c0,0-11.74-18.81-15.34-25.68c0.46,0.55,15.22,18.32,48.98,20.56c33.21,2.21,59.23-14.87,60.84-15.95
			c-1.1,0.86-14.31,11.56-16.11,30.66l1.97,19.58l7.19,4.25l-9.47,0C496.46,250.14,513.5,260.47,523.73,260.26z"/>
		<path class="st18" d="M486.38,137.39c-0.89,1.48-1.86,3.1-2.87,4.86c-8.7,15.02-22.86,16.33-22.86,16.33
			c-4.15-1.96-8.49-6.98-8.49-6.98h-2.39c-5.81-7.43-9.01-20.21-10.75-30.49c0-0.01,0-0.01,0-0.01c-0.35-4.01-1.19-14.98,0.14-17.77
			c0,0,2.44,20.18,5.49,26.06c2.98,5.74,10.92,10.02,11.31,10.23c-0.12-0.31-2.1-5.36-3.58-9.68c-1.53-4.47-0.55-8.22-0.55-8.22
			s0.44,3.75,2.51,8.11c2.06,4.35,6.3,7.19,6.3,7.19s4.48-3.06,7.53-8.61c0,0-0.43,10.24-2.29,14.7c0,0,8.94-6.74,12.96-12.95
			c3.78-5.81,5.07-9.05,5.21-9.43c-0.18,0.71-2.89,10.69-4.56,15.09c-1.69,4.43-6.02,9.85-6.3,10.19
			C473.48,145.9,483.5,141.97,486.38,137.39z"/>
		<path class="st31" d="M450.38,91.37c0.22-0.19,0.45-0.39,0.69-0.57C450.79,91.1,450.57,91.29,450.38,91.37z"/>
		<path class="st31" d="M474.26,84.87c0,0-0.84,6.33-6.82,7.18c-5.19,0.74-11.3-3.45-14.92-2.21c0.37-0.21,0.75-0.4,1.15-0.57
			c5.88-2.44,9.8,1.96,14.21,1.15C472.3,89.62,474.26,84.87,474.26,84.87z"/>
		<path class="st31" d="M496.46,109.7c0,0-4.17,1.08-6.72-1.47c-2.55-2.55-2.4-8.16-6.13-12.44c-3.72-4.26-11.61-1.27-11.61-1.27
			l2.59-2.3c6.86-2.45,10.94,0.49,13.06,8.98C489.76,109.7,496.46,109.7,496.46,109.7z"/>
		<path class="st31" d="M445.7,98.38c-0.84,0.38-3.23,1.95-5.01,7.95c-2.18,7.38-0.94,18.83-0.94,18.83l-1.04-2.71l-0.07-0.2
			l-0.08-0.2c0.28,0.2,0.47,0.41,0.55,0.51l0.04,0.03c0,0-0.05-0.54-0.14-1.47c0-0.01,0-0.01,0-0.01
			c-0.35-4.02-1.19-14.99,0.14-17.77C440.54,100.39,444.57,98.77,445.7,98.38z"/>
		<path class="st31" d="M492.06,137.62c-1.86,4.57-6.84,7.02-8.05,7.56l-0.26,0.1c0.34-0.24,5.88-4.12,6.85-7.93
			c0.99-3.93-1.97-4.63-1.97-4.63s0.28-0.01,0.66,0.03C490.7,132.85,493.7,133.54,492.06,137.62z"/>
		<path class="st31" d="M439.03,122.52c-0.07-0.03-0.18-0.07-0.33-0.06c-0.52,0.02-1.45,0.65-2.27,4.14
			c-1.22,5.14,1.28,11.06,1.4,11.35c-1.96-1.34-4.9-12.9-2.78-15.36c0.93-1.06,1.83-1.21,2.54-1.01l1.03,0.67L439.03,122.52z"/>
		<path class="st31" d="M523.73,260.26c-2.26-14.26-12.54-63.14-12.54-63.14c-6.14-7.57-24.81-16.53-24.81-16.53l1.92-7.82
			c-0.08-2.05-11.58-9.8-11.58-9.8l0.04,0.01l0.01,0.01c8.76,5.45,13.98,10.07,13.98,10.07l-2.45,6.79
			c16.18,6.44,24.67,15.75,24.67,15.75C520.47,215.34,523.73,260.26,523.73,260.26z"/>
		<path class="st31" d="M430.45,166.88l2.21,9.09c0,0-25.21,10.13-27.84,15.06c0,0-7.2,51.96-5.76,61.9
			c-0.59-1.15-0.75-1.82-0.75-1.82c-3.27-16.66,4.74-60.1,4.74-60.1c3.75-4.89,9.32-7.35,9.32-7.35c8.85-3.01,16.64-7.09,17.11-7.34
			l0.03-0.01l-1.64-9.32c3.75-4.9,8.23-7.33,11.53-8.49C438.51,159.05,431.39,163.42,430.45,166.88z"/>
	</g>
	<path class="st31" d="M539.03,105.45c0,0,2.67,13.54,3.1,20.41c0.41,6.46-4.2,14.3-4.76,15.21c1.37-2.65,3.38-7.54,3.52-13.73
		C541.1,117.87,538.92,106.76,539.03,105.45z"/>
	<path class="st31" d="M560.14,102.16c-0.35-0.38-6.93-7.58-12.56-5c-5.79,2.65-8.55,8.29-8.55,8.29
		c0.11-1.31,3.81-10.23,10.57-10.88C556.13,93.93,559.92,101.69,560.14,102.16z"/>
	<path class="st31" d="M590.23,108.32c-11.75,0.17-14.55-1.2-18.48-2.66c-3.91-1.45-8.94-0.63-8.94-0.63
		c1.6-0.51,4.94-1.46,7.03-1.22c2.82,0.33,4.02,2.51,9.68,3.17C583.56,107.45,587.81,107.3,590.23,108.32z"/>
	<path class="st31" d="M593.19,147.31c-1.05-0.43-5.93-7.22-5.85-8.76c0.09-1.53,1.88-3.34,2.39-7.84c0.52-4.5,0-8.66,0-8.66
		l0.01,0.02c0.51,1.67,1.22,4.35,1.33,6.63c0.15,3.59-2.94,7.66-2.83,9.78C588.34,140.62,593.19,147.31,593.19,147.31z"/>
	<path class="st31" d="M550.11,164.49c-0.49,0.59-8.31,10.29-10.62,18.25c-2.38,8.21-3.66,37.89-5.45,43.34
		c-1.79,5.46-18.49,21.89-21.71,30.15c-3.24,8.27-5.79,23.64-5.79,23.64h-3.86c0,0,2.06-13.62,7.29-23.74
		c1.7-3.28,4.27-6.8,7.09-10.35c5.91-7.4,12.95-15.01,15.67-21.34c4.03-9.35,3.37-33.64,5.66-42.06
		C540.6,174.17,549.6,165,550.11,164.49z"/>
	<path class="st31" d="M562.77,279.86h-1.75c-0.27-1.36-8.06-40.86-7.75-42.87c0.31-1.91,2.87-6.14,3.2-6.66
		c-0.56,1.24-1.34,3.06-1.54,4.13c-0.33,1.74,0.65,13.94,2.83,24.07C559.93,268.65,562.77,279.86,562.77,279.86z"/>
	<path class="st31" d="M619.39,214.41c-0.52-0.09-3-0.44-6.41,0.17c-3.85,0.71-8.01,5.62-8.01,5.62l-37.11,8.27
		c0.85-1.2,2.09-2.18,2.09-2.18l0.05-0.01c0.76-0.16,9.7-2.02,20.85-3.59c11.66-1.64,13.5-3.48,13.5-3.48s2.5-3.92,6.1-5.11
		C613.76,212.99,618.63,214.21,619.39,214.41z"/>
	<path class="st31" d="M620.53,180.3c0,0-1,2.7-3.3,3.55c-2.3,0.85-7.57,0.96-10.38,3.35c-2.82,2.38-3.16,7.46-3.16,7.46
		c-3.65,3.33-18.69,7.55-20.09,7.94c3.21-1.29,7.09-2.53,10.74-4.07c6.55-2.77,8.39-4.97,8.58-5.21c0.01-0.01,0.01-0.01,0.01-0.01
		c0.43-2.29,1.74-6.64,4.03-7.74c2.28-1.08,6.2-0.98,8.28-1.84C616.82,183.06,619.17,180.98,620.53,180.3z"/>
	<path class="st31" d="M570.6,195.59c-1.38-3.05-3.55-11.62-3.68-12.15c0.46,3.04,1.92,11.96,2.05,12.84
		c-0.2-0.65-1.86-6.1-2.49-11.84c-0.57-5.09-2.37-11.36-2.96-13.35c0.57,1.26,1.33,2.87,1.96,4.03c0.1,0.19,0.21,0.48,0.36,0.85
		c1.31,3.69,3.68,15.18,5.96,19.84c1.52,3.11,3.17,6.38,4.22,8.46C575.78,203.95,571.97,198.65,570.6,195.59z"/>
	<path class="st31" d="M622.75,185.69c1.38-0.87,2.86-1.46,4.19-1.83c-2.58,1.13-5.85,4.33-6.41,4.33c-0.71,0-5.61-0.73-5.61-0.73
		l0.02-0.01h0.01c2.8,0.24,4.97-0.27,4.97-0.27L622.75,185.69z"/>
	<path class="st31" d="M628.74,183.47v0.01c-0.01,0-0.01,0-0.02,0C628.73,183.48,628.73,183.48,628.74,183.47z"/>
	<path class="st31" d="M585.63,158.69c0,0-1.26-0.47-2.13-1.75c-0.65-0.96-1.15-2.13-1.36-2.66
		C582.97,155.89,585.79,157.98,585.63,158.69z"/>
	<path class="st31" d="M664.98,112.87c-0.22,0.16-3.85,2.9-10.62,4.38c-6.99,1.53-19.93,1.02-27.43,6
		c-7.36,4.89-6.06,14.91-6.01,15.29c-0.08-0.06-0.17-0.14-0.26-0.24c-0.08-0.08-0.16-0.18-0.25-0.31c-0.09-0.13-0.18-0.28-0.27-0.44
		c-0.07-0.11-0.13-0.24-0.19-0.38c-0.06-0.16-0.13-0.34-0.19-0.52c0,0,0,0,0-0.01c-0.04-0.11-0.07-0.25-0.11-0.37
		c-0.07-0.26-0.13-0.54-0.18-0.84c-0.03-0.15-0.05-0.31-0.07-0.47c-0.03-0.16-0.05-0.34-0.06-0.52c-0.02-0.18-0.03-0.37-0.04-0.55
		c-0.01-0.17-0.02-0.34-0.03-0.52c-0.01-0.22-0.01-0.47-0.01-0.72s0.01-0.48,0.02-0.73c0.01-0.24,0.03-0.47,0.05-0.69
		c0.02-0.19,0.04-0.39,0.07-0.57c0-0.06,0.01-0.12,0.02-0.18c0.03-0.15,0.05-0.31,0.08-0.46c0.02-0.09,0.04-0.18,0.06-0.27
		c0.02-0.14,0.06-0.3,0.09-0.43c0.25-0.97,0.58-1.85,1-2.67c0.08-0.16,0.16-0.33,0.25-0.47c0.05-0.08,0.09-0.16,0.14-0.25
		c0.14-0.25,0.3-0.49,0.45-0.72c0.18-0.28,0.38-0.54,0.57-0.8c0.09-0.11,0.17-0.22,0.27-0.33c0.13-0.16,0.28-0.33,0.41-0.48
		c0.46-0.52,0.94-1,1.43-1.45c0.5-0.46,1.01-0.88,1.51-1.27c0.99-0.77,1.95-1.41,2.71-1.95c0.01-0.01,0.01-0.01,0.01-0.01
		c3.05-2.18,8.92-1.08,17.64-1.74c0.54-0.04,1.09-0.09,1.66-0.15c0.52-0.06,1.05-0.13,1.58-0.21c0.27-0.03,0.54-0.07,0.82-0.12
		c0.25-0.04,0.48-0.07,0.72-0.11c0.07-0.02,0.14-0.03,0.21-0.04c0.28-0.05,0.55-0.1,0.83-0.15c2.66-0.5,5.21-1.14,7.36-1.75
		c0.44-0.12,0.85-0.25,1.25-0.36C663.05,113.55,664.81,112.93,664.98,112.87z"/>
	<path class="st31" d="M623.18,138.99c0,0,4.95,10.78,9.74,11.27C632.93,150.26,626.92,153.74,623.18,138.99z"/>
	<path class="st31" d="M646.09,167.22l-2.25-0.73c-3.62-2.49-5.01-7.03-5.3-11.3c-0.1-1.38-0.33-2.62-0.6-3.67
		c0.6,1.98,2.18,6.85,4.3,10.69C644.39,166.14,645.65,167.03,646.09,167.22z"/>
	<path class="st31" d="M646.26,167.28c0,0-0.04,0-0.14-0.04L646.26,167.28z"/>
	<path class="st31" d="M649.53,178.72c0,0-6.29-0.4-7.29-4.45c-0.07-0.2-0.09-0.43-0.12-0.66c-0.24-2.53,0.62-4.21,1.45-5.21
		c-0.07,0.18-0.77,2.15-0.41,4.35c0,0.01,0,0.01,0,0.01C643.52,175.05,645.03,177.61,649.53,178.72z"/>
	<path class="st31" d="M634.09,196.36c0.35,4.02-1.16,23.23-1.16,23.23s-5.73,21.43-3.72,34.28c-0.72-3.54-1.54-9.21-1.02-14.73
		c0.78-7.95,3.38-19.81,3.38-19.81c-0.44-9.26,0.44-26.45,1.36-27.98c0.47-0.79,1.2-1.25,2.25-1.82
		C635.06,189.76,633.77,192.51,634.09,196.36z"/>
	<path class="st31" d="M644.52,221.29c0,0,13.96,15.86,16.58,24.72c2.63,8.86-0.52,18.16-0.52,18.16s0.55-11.43-0.87-16.47
		C658.3,242.67,644.52,221.29,644.52,221.29z"/>
	<path class="st31" d="M710.17,237.29c-3.47,0.65-9.26-5.45-11.54-10.01c-2.22-4.43-7.49-10.09-7.82-10.43
		c0.44,0.36,7.53,6.18,10.21,11.63C703.79,234.09,710.17,237.29,710.17,237.29z"/>
	<path class="st31" d="M718.74,198.8c-4.77,4.56-12.05,13.67-12.05,13.67c0.76-3.71,9.14-11.42,11.31-16.11
		c2.18-4.68,3.48-12.74,3.48-12.74S723.51,194.24,718.74,198.8z"/>
</g>
</svg>
