<svg width="710" height="710" viewBox="0 0 710 710" fill="none" xmlns="http://www.w3.org/2000/svg">
<path d="M346.336 341.311C343.171 337.751 333.149 300.961 328.93 283.555C328.397 280.89 326.956 277.039 324.649 272.478C292.108 288.618 261.462 326.635 250.207 343.626C270.754 354.504 292.034 359.746 305.59 362.673C310.177 363.663 315.078 365.843 319.436 368.211C319.176 366.378 326.022 358.053 334.072 350.805C338.288 347.009 342.775 343.684 346.336 341.311Z" fill="#FFD4AC"/>
<path d="M250.207 343.626C261.462 326.635 292.108 288.618 324.649 272.478C318.054 259.44 304.383 240.599 284.624 227.082C249.179 241.402 217.173 283.883 205.601 303.334C216.805 321.843 233.257 334.653 250.207 343.626Z" fill="#FFD4AC"/>
<path d="M252.976 212.744C216.265 203.883 192.105 229.947 190.818 245.375C188.79 269.698 196.301 287.97 205.601 303.334C217.173 283.883 249.179 241.402 284.624 227.082C275.375 220.756 264.792 215.596 252.976 212.744Z" fill="#FFD4AC"/>
<path d="M389.455 390.364C351.083 361.486 348.709 343.981 346.336 341.311C342.775 343.684 338.288 347.009 334.072 350.805C326.022 358.053 319.176 366.378 319.436 368.211C337.252 377.894 352.207 396.568 360.577 407.375C381.147 436.253 451.563 502.316 460.661 498.36C467.94 495.196 471.606 487.811 472.529 484.515C457.629 462.757 420.153 413.467 389.455 390.364Z" fill="#FFD4AC"/>
<path d="M346.336 341.311C343.171 337.751 333.149 300.961 328.93 283.555C328.397 280.89 326.956 277.039 324.649 272.478M346.336 341.311C348.709 343.981 351.083 361.486 389.455 390.364C420.153 413.467 457.629 462.757 472.529 484.515C471.606 487.811 467.94 495.196 460.661 498.36C451.563 502.316 381.147 436.253 360.577 407.375C352.207 396.568 337.252 377.894 319.436 368.211M346.336 341.311C342.775 343.684 338.288 347.009 334.072 350.805C326.022 358.053 319.176 366.378 319.436 368.211M319.436 368.211C315.078 365.843 310.177 363.663 305.59 362.673C292.034 359.746 270.754 354.504 250.207 343.626M250.207 343.626C261.462 326.635 292.108 288.618 324.649 272.478M250.207 343.626C233.257 334.653 216.805 321.843 205.601 303.334M324.649 272.478C318.054 259.44 304.383 240.599 284.624 227.082M205.601 303.334C196.301 287.97 188.79 269.698 190.818 245.375C192.105 229.947 216.265 203.883 252.976 212.744C264.792 215.596 275.375 220.756 284.624 227.082M205.601 303.334C217.173 283.883 249.179 241.402 284.624 227.082" stroke="black"/>
<path d="M252.976 212.744C216.265 203.883 192.105 229.947 190.818 245.375C188.79 269.698 196.301 287.97 205.601 303.334C217.173 283.883 249.179 241.402 284.624 227.082C275.375 220.756 264.792 215.596 252.976 212.744Z" fill="#FF7675"/>
<path d="M346.336 341.311C343.171 337.751 333.149 300.961 328.93 283.555C328.397 280.89 326.956 277.039 324.649 272.478M346.336 341.311C348.709 343.981 351.083 361.486 389.455 390.364C420.153 413.467 457.629 462.757 472.529 484.515C471.606 487.811 467.94 495.196 460.661 498.36C451.563 502.316 381.147 436.253 360.577 407.375C352.207 396.568 337.252 377.894 319.436 368.211M346.336 341.311C342.775 343.684 338.288 347.009 334.072 350.805C326.022 358.053 319.176 366.378 319.436 368.211M319.436 368.211C315.078 365.843 310.177 363.663 305.59 362.673C292.034 359.746 270.754 354.504 250.207 343.626M250.207 343.626C261.462 326.635 292.108 288.618 324.649 272.478M250.207 343.626C233.257 334.653 216.805 321.843 205.601 303.334M324.649 272.478C318.054 259.44 304.383 240.599 284.624 227.082M205.601 303.334C196.301 287.97 188.79 269.698 190.818 245.375C192.105 229.947 216.265 203.883 252.976 212.744C264.792 215.596 275.375 220.756 284.624 227.082M205.601 303.334C217.173 283.883 249.179 241.402 284.624 227.082" stroke="black"/>
<path d="M346.336 341.311C343.171 337.751 333.149 300.961 328.93 283.555C328.397 280.89 326.956 277.039 324.649 272.478C292.108 288.618 261.462 326.635 250.207 343.626C270.754 354.504 292.034 359.746 305.59 362.673C310.177 363.663 315.078 365.843 319.436 368.211C319.176 366.378 326.022 358.053 334.072 350.805C338.288 347.009 342.775 343.684 346.336 341.311Z" fill="#81ECEC"/>
<path d="M346.336 341.311C343.171 337.751 333.149 300.961 328.93 283.555C328.397 280.89 326.956 277.039 324.649 272.478M346.336 341.311C348.709 343.981 351.083 361.486 389.455 390.364C420.153 413.467 457.629 462.757 472.529 484.515C471.606 487.811 467.94 495.196 460.661 498.36C451.563 502.316 381.147 436.253 360.577 407.375C352.207 396.568 337.252 377.894 319.436 368.211M346.336 341.311C342.775 343.684 338.288 347.009 334.072 350.805C326.022 358.053 319.176 366.378 319.436 368.211M319.436 368.211C315.078 365.843 310.177 363.663 305.59 362.673C292.034 359.746 270.754 354.504 250.207 343.626M250.207 343.626C261.462 326.635 292.108 288.618 324.649 272.478M250.207 343.626C233.257 334.653 216.805 321.843 205.601 303.334M324.649 272.478C318.054 259.44 304.383 240.599 284.624 227.082M205.601 303.334C196.301 287.97 188.79 269.698 190.818 245.375C192.105 229.947 216.265 203.883 252.976 212.744C264.792 215.596 275.375 220.756 284.624 227.082M205.601 303.334C217.173 283.883 249.179 241.402 284.624 227.082" stroke="black"/>
<path d="M364.149 341.311C367.314 337.751 377.336 300.961 381.555 283.555C382.088 280.89 383.529 277.039 385.836 272.478C418.377 288.618 449.023 326.635 460.278 343.626C439.731 354.504 418.451 359.746 404.895 362.673C400.308 363.663 395.407 365.843 391.049 368.211C391.309 366.378 384.463 358.053 376.413 350.805C372.197 347.009 367.71 343.684 364.149 341.311Z" fill="#FFD4AC"/>
<path d="M460.278 343.626C449.023 326.635 418.377 288.618 385.836 272.478C392.431 259.44 406.102 240.599 425.861 227.082C461.306 241.402 493.312 283.883 504.884 303.334C493.68 321.843 477.228 334.653 460.278 343.626Z" fill="#FFD4AC"/>
<path d="M457.509 212.744C494.22 203.883 518.38 229.947 519.667 245.375C521.695 269.698 514.184 287.97 504.884 303.334C493.312 283.883 461.306 241.402 425.861 227.082C435.11 220.756 445.693 215.596 457.509 212.744Z" fill="#FFD4AC"/>
<path d="M321.03 390.364C359.402 361.486 361.776 343.981 364.149 341.311C367.71 343.684 372.197 347.009 376.413 350.805C384.463 358.053 391.309 366.378 391.049 368.211C373.233 377.894 358.278 396.568 349.908 407.375C329.338 436.253 258.922 502.316 249.824 498.36C242.545 495.196 238.879 487.811 237.956 484.515C252.856 462.757 290.332 413.467 321.03 390.364Z" fill="#FFD4AC"/>
<path d="M364.149 341.311C367.314 337.751 377.336 300.961 381.555 283.555C382.088 280.89 383.529 277.039 385.836 272.478M364.149 341.311C361.776 343.981 359.402 361.486 321.03 390.364C290.332 413.467 252.856 462.757 237.956 484.515C238.879 487.811 242.545 495.196 249.824 498.36C258.922 502.316 329.338 436.253 349.908 407.375C358.278 396.568 373.233 377.894 391.049 368.211M364.149 341.311C367.71 343.684 372.197 347.009 376.413 350.805C384.463 358.053 391.309 366.378 391.049 368.211M391.049 368.211C395.407 365.843 400.308 363.663 404.895 362.673C418.451 359.746 439.731 354.504 460.278 343.626M460.278 343.626C449.023 326.635 418.377 288.618 385.836 272.478M460.278 343.626C477.228 334.653 493.68 321.843 504.884 303.334M385.836 272.478C392.431 259.44 406.102 240.599 425.861 227.082M504.884 303.334C514.184 287.97 521.695 269.698 519.667 245.375C518.38 229.947 494.22 203.883 457.509 212.744C445.693 215.596 435.11 220.756 425.861 227.082M504.884 303.334C493.312 283.883 461.306 241.402 425.861 227.082" stroke="black"/>
<path d="M457.509 212.744C494.22 203.883 518.38 229.947 519.667 245.375C521.695 269.698 514.184 287.97 504.884 303.334C493.312 283.883 461.306 241.402 425.861 227.082C435.11 220.756 445.693 215.596 457.509 212.744Z" fill="#FF7675"/>
<path d="M364.149 341.311C367.314 337.751 377.336 300.961 381.555 283.555C382.088 280.89 383.529 277.039 385.836 272.478M364.149 341.311C361.776 343.981 359.402 361.486 321.03 390.364C290.332 413.467 252.856 462.757 237.956 484.515C238.879 487.811 242.545 495.196 249.824 498.36C258.922 502.316 329.338 436.253 349.908 407.375C358.278 396.568 373.233 377.894 391.049 368.211M364.149 341.311C367.71 343.684 372.197 347.009 376.413 350.805C384.463 358.053 391.309 366.378 391.049 368.211M391.049 368.211C395.407 365.843 400.308 363.663 404.895 362.673C418.451 359.746 439.731 354.504 460.278 343.626M460.278 343.626C449.023 326.635 418.377 288.618 385.836 272.478M460.278 343.626C477.228 334.653 493.68 321.843 504.884 303.334M385.836 272.478C392.431 259.44 406.102 240.599 425.861 227.082M504.884 303.334C514.184 287.97 521.695 269.698 519.667 245.375C518.38 229.947 494.22 203.883 457.509 212.744C445.693 215.596 435.11 220.756 425.861 227.082M504.884 303.334C493.312 283.883 461.306 241.402 425.861 227.082" stroke="black"/>
<path d="M364.149 341.311C367.314 337.751 377.336 300.961 381.555 283.555C382.088 280.89 383.529 277.039 385.836 272.478C418.377 288.618 449.023 326.635 460.278 343.626C439.731 354.504 418.451 359.746 404.895 362.673C400.308 363.663 395.407 365.843 391.049 368.211C391.309 366.378 384.463 358.053 376.413 350.805C372.197 347.009 367.71 343.684 364.149 341.311Z" fill="#81ECEC"/>
<path d="M364.149 341.311C367.314 337.751 377.336 300.961 381.555 283.555C382.088 280.89 383.529 277.039 385.836 272.478M364.149 341.311C361.776 343.981 359.402 361.486 321.03 390.364C290.332 413.467 252.856 462.757 237.956 484.515C238.879 487.811 242.545 495.196 249.824 498.36C258.922 502.316 329.338 436.253 349.908 407.375C358.278 396.568 373.233 377.894 391.049 368.211M364.149 341.311C367.71 343.684 372.197 347.009 376.413 350.805C384.463 358.053 391.309 366.378 391.049 368.211M391.049 368.211C395.407 365.843 400.308 363.663 404.895 362.673C418.451 359.746 439.731 354.504 460.278 343.626M460.278 343.626C449.023 326.635 418.377 288.618 385.836 272.478M460.278 343.626C477.228 334.653 493.68 321.843 504.884 303.334M385.836 272.478C392.431 259.44 406.102 240.599 425.861 227.082M504.884 303.334C514.184 287.97 521.695 269.698 519.667 245.375C518.38 229.947 494.22 203.883 457.509 212.744C445.693 215.596 435.11 220.756 425.861 227.082M504.884 303.334C493.312 283.883 461.306 241.402 425.861 227.082" stroke="black"/>
<circle cx="355" cy="355" r="350" stroke="white" stroke-width="10"/>
</svg>
