<svg width="710" height="710" viewBox="0 0 710 710" fill="none" xmlns="http://www.w3.org/2000/svg">
<circle cx="355" cy="355" r="350" stroke="white" stroke-width="10"/>
<path fill-rule="evenodd" clip-rule="evenodd" d="M417.479 468.742C414.701 461.798 417.479 457.891 419.215 456.806L416.177 452.9C392.305 465.487 392.196 417.852 394.584 408.194C396.493 400.469 405.073 399.912 409.124 400.599L409.992 396.91C407.279 395.39 405.869 388.446 407.062 385.299C408.017 382.782 411.222 366.527 412.705 358.715C413.573 325.728 381.092 312.996 364.744 310.754L368.65 413.294L337.617 413.837L340.655 312.273C301.375 319 299.096 338.206 295.624 345.477C291.737 353.615 300.615 386.493 301.158 387.469C301.7 388.446 302.568 393.763 300.29 396.693C298.467 399.036 299.53 399.839 300.29 399.948C321.774 396.693 316.349 433.368 310.164 446.823C305.216 457.588 295.371 455.866 291.067 453.66L289.656 456.915C295.472 460.127 291.428 472.649 288.679 478.508C277.937 502.163 289.113 520.067 288.679 520.284C297.143 515.763 317.304 508.413 330.238 515.184C343.172 521.955 344.16 530.267 345.104 534.39C345.51 536.163 346.442 537.955 347.799 539.598C348.89 531.894 349.878 514.815 345.104 508.131C340.763 501.62 339.751 490.806 339.787 486.212C352.982 489.771 363.876 487.695 367.674 486.212C368.361 488.78 368.455 496.585 363.333 507.263C356.931 520.609 359.969 537.211 361.163 541.117C362.118 544.242 360.765 545.859 359.969 546.277C363.666 546.845 367.809 546.472 372.122 544.698C374.835 542.311 381.454 543.331 381.454 548.713C387.748 548.387 409.015 541.66 420.517 523.647C432.019 505.635 420.951 477.423 417.479 468.742ZM334.795 455.504L338.81 447.909L339.136 447.366H347.599V448.343L359.535 447.909V447.041L368.216 446.715C368.831 448.704 370.148 452.965 370.495 454.094C370.842 455.222 369.41 455.504 368.65 455.504C347.903 458.542 337.436 456.77 334.795 455.504ZM335.772 431.198C334.296 430.33 335.157 427.943 335.772 426.858C335.772 425.664 335.013 423.755 331.974 425.664C328.936 427.574 328.683 438.034 328.936 443.026C329.587 451.2 328.849 468.113 320.689 470.37C312.53 472.627 309.911 466.681 309.622 463.425C309.911 461.617 311.249 458.434 314.287 460.17C317.326 461.906 315.553 465.161 314.287 466.572C313.94 468.829 316.675 469.878 319.062 468.2C324.487 464.385 323.836 448.994 324.487 436.407C325.008 426.337 329.696 423.458 331.974 423.277C333.674 423.024 337.421 423.386 338.81 426.858C340.546 431.198 337.617 432.283 335.772 431.198Z" fill="#FF7675"/>
<path d="M344.778 214.181L344.887 214.941C347.961 214.326 355.586 213.487 361.489 215.049C361.749 214.963 362.103 213.711 362.248 213.096H363.442V208.864H363.116H361.923V204.09C365.178 203.981 371.775 203.764 372.122 203.764C372.556 203.764 372.665 204.741 373.099 204.199C373.533 203.656 373.642 205.284 374.401 204.307C375.009 203.526 375.667 203.837 375.92 204.09C375.703 205.826 376.137 209.515 381.671 208.647C386.098 207.953 387.784 204.741 388.073 203.222C389.158 196.277 385.575 194.974 383.95 194.107C382.322 193.239 377.982 194.216 376.897 194.541C376.029 194.802 375.739 197.471 375.703 198.773L374.51 198.665C374.249 198.144 373.678 198.52 373.425 198.773L372.231 198.882L361.706 199.207L361.163 189.984C364.201 189.803 370.365 189.55 370.712 189.984C371.059 190.418 371.508 190.165 371.688 189.984L374.293 190.092C374.293 191.481 375.016 191.539 375.378 191.395C377.222 190.78 381.389 189.658 383.299 190.092C385.686 190.635 386.12 188.682 386.337 188.356C386.554 188.031 386.12 182.388 384.167 183.473C382.214 184.558 376.029 183.039 375.161 182.931C374.466 182.844 374.148 183.112 374.076 183.256V184.775H372.99C372.81 184.45 372.383 183.929 372.122 184.45C371.862 184.971 371.652 184.812 371.58 184.667C371.146 183.712 370.82 184.631 370.712 185.21H360.838L359.818 180.11L359.644 179.242L353.784 179.35C351.65 179.242 347.296 179.09 346.948 179.35C349.119 179.003 349.082 180.616 348.685 181.737L345.755 191.286C344.706 191.286 342.456 191.329 341.849 191.503C341.089 191.72 337.834 191.503 337.508 191.612C337.183 191.72 336.423 190.418 336.098 191.069C335.772 191.72 335.447 190.309 334.904 191.177C334.47 191.872 333.783 191.539 333.493 191.286C333.059 189.637 332.372 189.731 332.083 189.984C330.672 191.395 324.27 191.177 323.077 191.286C321.883 191.395 321.557 193.348 321.34 195.084C321.167 196.473 322.932 197.76 323.836 198.231H331.757C333.059 198.231 333.313 197.724 333.276 197.471V196.603H334.578C335.186 197.558 335.772 197.001 335.989 196.603C336.77 197.558 337.11 196.856 337.183 196.386H338.702C339.917 195.605 343.766 195.988 345.538 196.277C345.393 200.111 345.06 207.996 344.887 208.864C344.67 209.949 342.608 209.081 341.957 209.515C341.306 209.949 336.423 209.841 336.098 209.407C335.772 208.973 335.121 209.515 335.121 209.298C335.121 209.081 334.47 209.081 334.253 209.407C334.079 209.667 333.313 209.515 332.951 209.407C333.038 207.671 332.444 207.526 332.083 207.562C329.587 207.707 324.292 207.801 323.077 207.888C321.557 207.996 320.689 210.926 320.364 213.205C320.103 215.028 322.064 216.641 323.077 217.22C324.74 217.4 328.589 217.762 330.672 217.762C332.756 217.762 333.349 215.809 333.385 214.832H334.253C335.013 215.592 335.013 214.724 335.447 214.941C335.881 215.158 335.881 214.507 338.268 213.856C340.178 213.335 342.608 213.856 343.585 214.181H344.778Z" fill="#FF7675"/>
<path d="M356.172 153.2C354.87 154.827 353.893 152.223 352.808 153.417C352.772 161.699 352.916 178.482 353.784 179.35L359.644 179.242C359.21 179.205 358.646 179.155 359.861 179.242C361.076 179.328 361.742 178.12 361.923 177.505C359.579 177.939 357.112 161.482 356.172 153.2Z" fill="#FF7675"/>
<path d="M346.948 175.552V179.35C347.296 179.09 351.65 179.242 353.784 179.35C352.916 178.482 352.772 161.699 352.808 153.417C351.723 154.61 350.529 152.983 349.661 153.634C348.967 154.154 348.214 158.625 347.925 160.795L346.956 175.435C346.955 175.476 346.953 175.515 346.948 175.552Z" fill="#FF7675"/>
<path d="M358.233 160.144C357.98 157.287 357.213 151.897 356.172 153.2C357.112 161.482 359.579 177.939 361.923 177.505V172.948H366.48C364.831 171.993 363.189 166.908 362.574 164.484C361.792 160.578 360.874 159.963 360.512 160.144H358.233Z" fill="#FF7675"/>
<path d="M367.457 164.484H362.574C363.189 166.908 364.831 171.993 366.48 172.948C367.023 172.948 366.805 171.646 367.023 171.754C367.196 171.841 367.384 171.429 367.457 171.212V164.484Z" fill="#FF7675"/>
<path d="M341.415 173.708C341.595 173.744 342.478 173.794 344.561 173.708C346.525 173.626 346.972 174.759 346.956 175.435L347.925 160.795H346.08C345.56 160.795 344.489 163.544 344.019 164.918C343.786 166.727 342.728 170.8 340.36 172.623C340.676 173.225 341.131 173.577 341.415 173.708Z" fill="#FF7675"/>
<path d="M340.004 165.895V171.103C340.004 171.723 340.152 172.227 340.36 172.623C342.728 170.8 343.786 166.727 344.019 164.918H341.415C340.199 164.918 339.968 165.569 340.004 165.895Z" fill="#FF7675"/>
<path d="M381.454 548.713C387.748 548.387 409.015 541.66 420.517 523.647C432.019 505.635 420.951 477.423 417.479 468.742C414.701 461.798 417.479 457.891 419.215 456.806L416.177 452.9C392.305 465.487 392.196 417.852 394.584 408.194C396.493 400.469 405.073 399.912 409.124 400.599L409.992 396.91C407.279 395.39 405.869 388.446 407.062 385.299C408.017 382.782 411.222 366.527 412.705 358.715C413.573 325.728 381.092 312.996 364.744 310.754M381.454 548.713C381.635 550.811 379.566 555.093 369.844 555.44C357.691 555.875 299.205 561.842 287.486 521.911C287.739 521.441 288.332 520.457 288.679 520.284M381.454 548.713C381.454 543.331 374.835 542.311 372.122 544.698C367.809 546.472 363.666 546.845 359.969 546.277M288.679 520.284C289.113 520.067 277.937 502.163 288.679 478.508C291.428 472.649 295.472 460.127 289.656 456.915L291.067 453.66C295.371 455.866 305.216 457.588 310.164 446.823C316.349 433.368 321.774 396.693 300.29 399.948C299.53 399.839 298.467 399.036 300.29 396.693C302.568 393.763 301.7 388.446 301.158 387.469C300.615 386.493 291.737 353.615 295.624 345.477C299.096 338.206 301.375 319 340.655 312.273M288.679 520.284C297.143 515.763 317.304 508.413 330.238 515.184C343.172 521.955 344.16 530.267 345.104 534.39C345.51 536.163 346.442 537.955 347.799 539.598M340.655 312.273L344.887 214.941M340.655 312.273L337.617 413.837L368.65 413.294L364.744 310.754M344.887 214.941L344.778 214.181H343.585C342.608 213.856 340.178 213.335 338.268 213.856C335.881 214.507 335.881 215.158 335.447 214.941C335.013 214.724 335.013 215.592 334.253 214.832H333.385C333.349 215.809 332.756 217.762 330.672 217.762C328.589 217.762 324.74 217.4 323.077 217.22C322.064 216.641 320.103 215.028 320.364 213.205C320.689 210.926 321.557 207.996 323.077 207.888C324.292 207.801 329.587 207.707 332.083 207.562C332.444 207.526 333.038 207.671 332.951 209.407C333.313 209.515 334.079 209.667 334.253 209.407C334.47 209.081 335.121 209.081 335.121 209.298C335.121 209.515 335.772 208.973 336.098 209.407C336.423 209.841 341.306 209.949 341.957 209.515C342.608 209.081 344.67 209.949 344.887 208.864C345.06 207.996 345.393 200.111 345.538 196.277C343.766 195.988 339.917 195.605 338.702 196.386H337.183C337.11 196.856 336.77 197.558 335.989 196.603C335.772 197.001 335.186 197.558 334.578 196.603H333.276V197.471C333.313 197.724 333.059 198.231 331.757 198.231M344.887 214.941C347.961 214.326 355.586 213.487 361.489 215.049M331.757 198.231C330.455 198.231 325.934 198.231 323.836 198.231M331.757 198.231H323.836M323.836 198.231C322.932 197.76 321.167 196.473 321.34 195.084C321.557 193.348 321.883 191.395 323.077 191.286C324.27 191.177 330.672 191.395 332.083 189.984C332.372 189.731 333.059 189.637 333.493 191.286C333.783 191.539 334.47 191.872 334.904 191.177C335.447 190.309 335.772 191.72 336.098 191.069C336.423 190.418 337.183 191.72 337.508 191.612C337.834 191.503 341.089 191.72 341.849 191.503C342.456 191.329 344.706 191.286 345.755 191.286L348.685 181.737C349.082 180.616 349.119 179.003 346.948 179.35M346.948 179.35V175.552M346.948 179.35C347.296 179.09 351.65 179.242 353.784 179.35M346.948 175.552C346.953 175.515 346.955 175.476 346.956 175.435M346.948 175.552L346.956 175.435M340.004 171.103C340.004 169.541 340.004 166.98 340.004 165.895M340.004 171.103C340.004 171.723 340.152 172.227 340.36 172.623M340.004 171.103V165.895M340.004 165.895C339.968 165.569 340.199 164.918 341.415 164.918M341.415 164.918C342.63 164.918 343.657 164.918 344.019 164.918M341.415 164.918H344.019M344.019 164.918C344.489 163.544 345.56 160.795 346.08 160.795M344.019 164.918C343.786 166.727 342.728 170.8 340.36 172.623M346.08 160.795C346.601 160.795 347.527 160.795 347.925 160.795M346.08 160.795H347.925M347.925 160.795C348.214 158.625 348.967 154.154 349.661 153.634C350.529 152.983 351.723 154.61 352.808 153.417M347.925 160.795L346.956 175.435M352.808 153.417C353.893 152.223 354.87 154.827 356.172 153.2M352.808 153.417C352.772 161.699 352.916 178.482 353.784 179.35M356.172 153.2C357.213 151.897 357.98 157.287 358.233 160.144H360.512C360.874 159.963 361.792 160.578 362.574 164.484M356.172 153.2C357.112 161.482 359.579 177.939 361.923 177.505M362.574 164.484H367.457V171.212C367.384 171.429 367.196 171.841 367.023 171.754C366.805 171.646 367.023 172.948 366.48 172.948M362.574 164.484C363.189 166.908 364.831 171.993 366.48 172.948M366.48 172.948C366.046 172.948 363.261 172.948 361.923 172.948M366.48 172.948H361.923M361.923 172.948V177.505M361.923 177.505C361.742 178.12 361.076 179.328 359.861 179.242C358.646 179.155 359.21 179.205 359.644 179.242M359.644 179.242L359.818 180.11L360.838 185.21H370.712C370.82 184.631 371.146 183.712 371.58 184.667C371.652 184.812 371.862 184.971 372.122 184.45C372.383 183.929 372.81 184.45 372.99 184.775H374.076V183.256C374.148 183.112 374.466 182.844 375.161 182.931C376.029 183.039 382.214 184.558 384.167 183.473C386.12 182.388 386.554 188.031 386.337 188.356C386.12 188.682 385.686 190.635 383.299 190.092C381.389 189.658 377.222 190.78 375.378 191.395C375.016 191.539 374.293 191.481 374.293 190.092L371.688 189.984C371.508 190.165 371.059 190.418 370.712 189.984C370.365 189.55 364.201 189.803 361.163 189.984L361.706 199.207L372.231 198.882L373.425 198.773C373.678 198.52 374.249 198.144 374.51 198.665L375.703 198.773C375.739 197.471 376.029 194.802 376.897 194.541C377.982 194.216 382.322 193.239 383.95 194.107C385.575 194.974 389.158 196.277 388.073 203.222C387.784 204.741 386.098 207.953 381.671 208.647C376.137 209.515 375.703 205.826 375.92 204.09C375.667 203.837 375.009 203.526 374.401 204.307C373.642 205.284 373.533 203.656 373.099 204.199C372.665 204.741 372.556 203.764 372.122 203.764C371.775 203.764 365.178 203.981 361.923 204.09V208.864H363.116H363.442V213.096H362.248C362.103 213.711 361.749 214.963 361.489 215.049M359.644 179.242L353.784 179.35M361.489 215.049C361.228 215.136 363.55 278.889 364.744 310.754M359.969 546.277C360.765 545.859 362.118 544.242 361.163 541.117C359.969 537.211 356.931 520.609 363.333 507.263C368.455 496.585 368.361 488.78 367.674 486.212C363.876 487.695 352.982 489.771 339.787 486.212C339.751 490.806 340.763 501.62 345.104 508.131C349.878 514.815 348.89 531.894 347.799 539.598M359.969 546.277C354.778 545.48 350.467 542.828 347.799 539.598M340.36 172.623C340.676 173.225 341.131 173.577 341.415 173.708C341.595 173.744 342.478 173.794 344.561 173.708C346.525 173.626 346.972 174.759 346.956 175.435M338.81 447.909L334.795 455.504C337.436 456.77 347.903 458.542 368.65 455.504C369.41 455.504 370.842 455.222 370.495 454.094C370.148 452.965 368.831 448.704 368.216 446.715L359.535 447.041V447.909L347.599 448.343V447.366H339.136L338.81 447.909ZM335.772 426.858C335.157 427.943 334.296 430.33 335.772 431.198C337.617 432.283 340.546 431.198 338.81 426.858C337.421 423.386 333.674 423.024 331.974 423.277C329.696 423.458 325.008 426.337 324.487 436.407C323.836 448.994 324.487 464.385 319.062 468.2C316.675 469.878 313.94 468.829 314.287 466.572C315.553 465.161 317.326 461.906 314.287 460.17C311.249 458.434 309.911 461.617 309.622 463.425C309.911 466.681 312.53 472.627 320.689 470.37C328.849 468.113 329.587 451.2 328.936 443.026C328.683 438.034 328.936 427.574 331.974 425.664C335.013 423.755 335.772 425.664 335.772 426.858Z" stroke="black" stroke-width="2"/>
<path d="M344.887 214.941L340.655 312.273L337.617 413.837L368.65 413.294L364.744 310.754C363.55 278.889 361.228 215.136 361.489 215.049C355.586 213.487 347.961 214.326 344.887 214.941Z" fill="#81ECEC"/>
<path d="M335.772 426.858C335.157 427.943 334.296 430.33 335.772 431.198C337.617 432.283 340.546 431.198 338.81 426.858C337.421 423.386 333.674 423.024 331.974 423.277C329.696 423.458 325.008 426.337 324.487 436.407C323.836 448.994 324.487 464.385 319.062 468.2C316.675 469.878 313.94 468.829 314.287 466.572C315.553 465.161 317.326 461.906 314.287 460.17C311.249 458.434 309.911 461.617 309.622 463.425C309.911 466.681 312.53 472.627 320.689 470.37C328.849 468.113 329.587 451.2 328.936 443.026C328.683 438.034 328.936 427.574 331.974 425.664C335.013 423.755 335.772 425.664 335.772 426.858Z" fill="#81ECEC"/>
<path d="M338.81 447.909L334.795 455.504C337.436 456.77 347.903 458.542 368.65 455.504C369.41 455.504 370.842 455.222 370.495 454.094C370.148 452.965 368.831 448.704 368.216 446.715L359.535 447.041V447.909L347.599 448.343V447.366H339.136L338.81 447.909Z" fill="#81ECEC"/>
<path d="M359.969 546.277C360.765 545.859 362.118 544.242 361.163 541.117C359.969 537.211 356.931 520.609 363.333 507.263C368.455 496.585 368.361 488.78 367.674 486.212C363.876 487.695 352.982 489.771 339.787 486.212C339.751 490.806 340.763 501.62 345.104 508.131C349.878 514.815 348.89 531.894 347.799 539.598C350.467 542.828 354.778 545.48 359.969 546.277Z" fill="#81ECEC"/>
<path d="M369.844 555.44C379.566 555.093 381.635 550.811 381.454 548.713C381.454 543.331 374.835 542.311 372.122 544.698C367.809 546.472 363.666 546.845 359.969 546.277C354.778 545.48 350.467 542.828 347.799 539.598C346.442 537.955 345.51 536.163 345.104 534.39C344.16 530.267 343.172 521.955 330.238 515.184C317.304 508.413 297.143 515.763 288.679 520.284C288.332 520.457 287.739 521.441 287.486 521.911C299.205 561.842 357.691 555.875 369.844 555.44Z" fill="#81ECEC"/>
<path d="M381.454 548.713C387.748 548.387 409.015 541.66 420.517 523.647C432.019 505.635 420.951 477.423 417.479 468.742C414.701 461.798 417.479 457.891 419.215 456.806L416.177 452.9C392.305 465.487 392.196 417.852 394.584 408.194C396.493 400.469 405.073 399.912 409.124 400.599L409.992 396.91C407.279 395.39 405.869 388.446 407.062 385.299C408.017 382.782 411.222 366.527 412.705 358.715C413.573 325.728 381.092 312.996 364.744 310.754M381.454 548.713C381.635 550.811 379.566 555.093 369.844 555.44C357.691 555.875 299.205 561.842 287.486 521.911C287.739 521.441 288.332 520.457 288.679 520.284M381.454 548.713C381.454 543.331 374.835 542.311 372.122 544.698C367.809 546.472 363.666 546.845 359.969 546.277M288.679 520.284C289.113 520.067 277.937 502.163 288.679 478.508C291.428 472.649 295.472 460.127 289.656 456.915L291.067 453.66C295.371 455.866 305.216 457.588 310.164 446.823C316.349 433.368 321.774 396.693 300.29 399.948C299.53 399.839 298.467 399.036 300.29 396.693C302.568 393.763 301.7 388.446 301.158 387.469C300.615 386.493 291.737 353.615 295.624 345.477C299.096 338.206 301.375 319 340.655 312.273M288.679 520.284C297.143 515.763 317.304 508.413 330.238 515.184C343.172 521.955 344.16 530.267 345.104 534.39C345.51 536.163 346.442 537.955 347.799 539.598M340.655 312.273L344.887 214.941M340.655 312.273L337.617 413.837L368.65 413.294L364.744 310.754M344.887 214.941L344.778 214.181H343.585C342.608 213.856 340.178 213.335 338.268 213.856C335.881 214.507 335.881 215.158 335.447 214.941C335.013 214.724 335.013 215.592 334.253 214.832H333.385C333.349 215.809 332.756 217.762 330.672 217.762C328.589 217.762 324.74 217.4 323.077 217.22C322.064 216.641 320.103 215.028 320.364 213.205C320.689 210.926 321.557 207.996 323.077 207.888C324.292 207.801 329.587 207.707 332.083 207.562C332.444 207.526 333.038 207.671 332.951 209.407C333.313 209.515 334.079 209.667 334.253 209.407C334.47 209.081 335.121 209.081 335.121 209.298C335.121 209.515 335.772 208.973 336.098 209.407C336.423 209.841 341.306 209.949 341.957 209.515C342.608 209.081 344.67 209.949 344.887 208.864C345.06 207.996 345.393 200.111 345.538 196.277C343.766 195.988 339.917 195.605 338.702 196.386H337.183C337.11 196.856 336.77 197.558 335.989 196.603C335.772 197.001 335.186 197.558 334.578 196.603H333.276V197.471C333.313 197.724 333.059 198.231 331.757 198.231M344.887 214.941C347.961 214.326 355.586 213.487 361.489 215.049M331.757 198.231C330.455 198.231 325.934 198.231 323.836 198.231M331.757 198.231H323.836M323.836 198.231C322.932 197.76 321.167 196.473 321.34 195.084C321.557 193.348 321.883 191.395 323.077 191.286C324.27 191.177 330.672 191.395 332.083 189.984C332.372 189.731 333.059 189.637 333.493 191.286C333.783 191.539 334.47 191.872 334.904 191.177C335.447 190.309 335.772 191.72 336.098 191.069C336.423 190.418 337.183 191.72 337.508 191.612C337.834 191.503 341.089 191.72 341.849 191.503C342.456 191.329 344.706 191.286 345.755 191.286L348.685 181.737C349.082 180.616 349.119 179.003 346.948 179.35M346.948 179.35V175.552M346.948 179.35C347.296 179.09 351.65 179.242 353.784 179.35M346.948 175.552C346.953 175.515 346.955 175.476 346.956 175.435M346.948 175.552L346.956 175.435M340.004 171.103C340.004 169.541 340.004 166.98 340.004 165.895M340.004 171.103C340.004 171.723 340.152 172.227 340.36 172.623M340.004 171.103V165.895M340.004 165.895C339.968 165.569 340.199 164.918 341.415 164.918M341.415 164.918C342.63 164.918 343.657 164.918 344.019 164.918M341.415 164.918H344.019M344.019 164.918C344.489 163.544 345.56 160.795 346.08 160.795M344.019 164.918C343.786 166.727 342.728 170.8 340.36 172.623M346.08 160.795C346.601 160.795 347.527 160.795 347.925 160.795M346.08 160.795H347.925M347.925 160.795C348.214 158.625 348.967 154.154 349.661 153.634C350.529 152.983 351.723 154.61 352.808 153.417M347.925 160.795L346.956 175.435M352.808 153.417C353.893 152.223 354.87 154.827 356.172 153.2M352.808 153.417C352.772 161.699 352.916 178.482 353.784 179.35M356.172 153.2C357.213 151.897 357.98 157.287 358.233 160.144H360.512C360.874 159.963 361.792 160.578 362.574 164.484M356.172 153.2C357.112 161.482 359.579 177.939 361.923 177.505M362.574 164.484H367.457V171.212C367.384 171.429 367.196 171.841 367.023 171.754C366.805 171.646 367.023 172.948 366.48 172.948M362.574 164.484C363.189 166.908 364.831 171.993 366.48 172.948M366.48 172.948C366.046 172.948 363.261 172.948 361.923 172.948M366.48 172.948H361.923M361.923 172.948V177.505M361.923 177.505C361.742 178.12 361.076 179.328 359.861 179.242C358.646 179.155 359.21 179.205 359.644 179.242M359.644 179.242L359.818 180.11L360.838 185.21H370.712C370.82 184.631 371.146 183.712 371.58 184.667C371.652 184.812 371.862 184.971 372.122 184.45C372.383 183.929 372.81 184.45 372.99 184.775H374.076V183.256C374.148 183.112 374.466 182.844 375.161 182.931C376.029 183.039 382.214 184.558 384.167 183.473C386.12 182.388 386.554 188.031 386.337 188.356C386.12 188.682 385.686 190.635 383.299 190.092C381.389 189.658 377.222 190.78 375.378 191.395C375.016 191.539 374.293 191.481 374.293 190.092L371.688 189.984C371.508 190.165 371.059 190.418 370.712 189.984C370.365 189.55 364.201 189.803 361.163 189.984L361.706 199.207L372.231 198.882L373.425 198.773C373.678 198.52 374.249 198.144 374.51 198.665L375.703 198.773C375.739 197.471 376.029 194.802 376.897 194.541C377.982 194.216 382.322 193.239 383.95 194.107C385.575 194.974 389.158 196.277 388.073 203.222C387.784 204.741 386.098 207.953 381.671 208.647C376.137 209.515 375.703 205.826 375.92 204.09C375.667 203.837 375.009 203.526 374.401 204.307C373.642 205.284 373.533 203.656 373.099 204.199C372.665 204.741 372.556 203.764 372.122 203.764C371.775 203.764 365.178 203.981 361.923 204.09V208.864H363.116H363.442V213.096H362.248C362.103 213.711 361.749 214.963 361.489 215.049M359.644 179.242L353.784 179.35M361.489 215.049C361.228 215.136 363.55 278.889 364.744 310.754M359.969 546.277C360.765 545.859 362.118 544.242 361.163 541.117C359.969 537.211 356.931 520.609 363.333 507.263C368.455 496.585 368.361 488.78 367.674 486.212C363.876 487.695 352.982 489.771 339.787 486.212C339.751 490.806 340.763 501.62 345.104 508.131C349.878 514.815 348.89 531.894 347.799 539.598M359.969 546.277C354.778 545.48 350.467 542.828 347.799 539.598M340.36 172.623C340.676 173.225 341.131 173.577 341.415 173.708C341.595 173.744 342.478 173.794 344.561 173.708C346.525 173.626 346.972 174.759 346.956 175.435M338.81 447.909L334.795 455.504C337.436 456.77 347.903 458.542 368.65 455.504C369.41 455.504 370.842 455.222 370.495 454.094C370.148 452.965 368.831 448.704 368.216 446.715L359.535 447.041V447.909L347.599 448.343V447.366H339.136L338.81 447.909ZM335.772 426.858C335.157 427.943 334.296 430.33 335.772 431.198C337.617 432.283 340.546 431.198 338.81 426.858C337.421 423.386 333.674 423.024 331.974 423.277C329.696 423.458 325.008 426.337 324.487 436.407C323.836 448.994 324.487 464.385 319.062 468.2C316.675 469.878 313.94 468.829 314.287 466.572C315.553 465.161 317.326 461.906 314.287 460.17C311.249 458.434 309.911 461.617 309.622 463.425C309.911 466.681 312.53 472.627 320.689 470.37C328.849 468.113 329.587 451.2 328.936 443.026C328.683 438.034 328.936 427.574 331.974 425.664C335.013 423.755 335.772 425.664 335.772 426.858Z" stroke="black" stroke-width="2"/>
<path d="M344.887 214.941L340.655 312.273L337.617 413.837L368.65 413.294L364.744 310.754C363.55 278.889 361.228 215.136 361.489 215.049C355.586 213.487 347.961 214.326 344.887 214.941Z" fill="#FFD4AC"/>
<path d="M381.454 548.713C387.748 548.387 409.015 541.66 420.517 523.647C432.019 505.635 420.951 477.423 417.479 468.742C414.701 461.798 417.479 457.891 419.215 456.806L416.177 452.9C392.305 465.487 392.196 417.852 394.584 408.194C396.493 400.469 405.073 399.912 409.124 400.599L409.992 396.91C407.279 395.39 405.869 388.446 407.062 385.299C408.017 382.782 411.222 366.527 412.705 358.715C413.573 325.728 381.092 312.996 364.744 310.754M381.454 548.713C381.635 550.811 379.566 555.093 369.844 555.44C357.691 555.875 299.205 561.842 287.486 521.911C287.739 521.441 288.332 520.457 288.679 520.284M381.454 548.713C381.454 543.331 374.835 542.311 372.122 544.698C367.809 546.472 363.666 546.845 359.969 546.277M288.679 520.284C289.113 520.067 277.937 502.163 288.679 478.508C291.428 472.649 295.472 460.127 289.656 456.915L291.067 453.66C295.371 455.866 305.216 457.588 310.164 446.823C316.349 433.368 321.774 396.693 300.29 399.948C299.53 399.839 298.467 399.036 300.29 396.693C302.568 393.763 301.7 388.446 301.158 387.469C300.615 386.493 291.737 353.615 295.624 345.477C299.096 338.206 301.375 319 340.655 312.273M288.679 520.284C297.143 515.763 317.304 508.413 330.238 515.184C343.172 521.955 344.16 530.267 345.104 534.39C345.51 536.163 346.442 537.955 347.799 539.598M340.655 312.273L344.887 214.941M340.655 312.273L337.617 413.837L368.65 413.294L364.744 310.754M344.887 214.941L344.778 214.181H343.585C342.608 213.856 340.178 213.335 338.268 213.856C335.881 214.507 335.881 215.158 335.447 214.941C335.013 214.724 335.013 215.592 334.253 214.832H333.385C333.349 215.809 332.756 217.762 330.672 217.762C328.589 217.762 324.74 217.4 323.077 217.22C322.064 216.641 320.103 215.028 320.364 213.205C320.689 210.926 321.557 207.996 323.077 207.888C324.292 207.801 329.587 207.707 332.083 207.562C332.444 207.526 333.038 207.671 332.951 209.407C333.313 209.515 334.079 209.667 334.253 209.407C334.47 209.081 335.121 209.081 335.121 209.298C335.121 209.515 335.772 208.973 336.098 209.407C336.423 209.841 341.306 209.949 341.957 209.515C342.608 209.081 344.67 209.949 344.887 208.864C345.06 207.996 345.393 200.111 345.538 196.277C343.766 195.988 339.917 195.605 338.702 196.386H337.183C337.11 196.856 336.77 197.558 335.989 196.603C335.772 197.001 335.186 197.558 334.578 196.603H333.276V197.471C333.313 197.724 333.059 198.231 331.757 198.231M344.887 214.941C347.961 214.326 355.586 213.487 361.489 215.049M331.757 198.231C330.455 198.231 325.934 198.231 323.836 198.231M331.757 198.231H323.836M323.836 198.231C322.932 197.76 321.167 196.473 321.34 195.084C321.557 193.348 321.883 191.395 323.077 191.286C324.27 191.177 330.672 191.395 332.083 189.984C332.372 189.731 333.059 189.637 333.493 191.286C333.783 191.539 334.47 191.872 334.904 191.177C335.447 190.309 335.772 191.72 336.098 191.069C336.423 190.418 337.183 191.72 337.508 191.612C337.834 191.503 341.089 191.72 341.849 191.503C342.456 191.329 344.706 191.286 345.755 191.286L348.685 181.737C349.082 180.616 349.119 179.003 346.948 179.35M346.948 179.35V175.552M346.948 179.35C347.296 179.09 351.65 179.242 353.784 179.35M346.948 175.552C346.953 175.515 346.955 175.476 346.956 175.435M346.948 175.552L346.956 175.435M340.004 171.103C340.004 169.541 340.004 166.98 340.004 165.895M340.004 171.103C340.004 171.723 340.152 172.227 340.36 172.623M340.004 171.103V165.895M340.004 165.895C339.968 165.569 340.199 164.918 341.415 164.918M341.415 164.918C342.63 164.918 343.657 164.918 344.019 164.918M341.415 164.918H344.019M344.019 164.918C344.489 163.544 345.56 160.795 346.08 160.795M344.019 164.918C343.786 166.727 342.728 170.8 340.36 172.623M346.08 160.795C346.601 160.795 347.527 160.795 347.925 160.795M346.08 160.795H347.925M347.925 160.795C348.214 158.625 348.967 154.154 349.661 153.634C350.529 152.983 351.723 154.61 352.808 153.417M347.925 160.795L346.956 175.435M352.808 153.417C353.893 152.223 354.87 154.827 356.172 153.2M352.808 153.417C352.772 161.699 352.916 178.482 353.784 179.35M356.172 153.2C357.213 151.897 357.98 157.287 358.233 160.144H360.512C360.874 159.963 361.792 160.578 362.574 164.484M356.172 153.2C357.112 161.482 359.579 177.939 361.923 177.505M362.574 164.484H367.457V171.212C367.384 171.429 367.196 171.841 367.023 171.754C366.805 171.646 367.023 172.948 366.48 172.948M362.574 164.484C363.189 166.908 364.831 171.993 366.48 172.948M366.48 172.948C366.046 172.948 363.261 172.948 361.923 172.948M366.48 172.948H361.923M361.923 172.948V177.505M361.923 177.505C361.742 178.12 361.076 179.328 359.861 179.242C358.646 179.155 359.21 179.205 359.644 179.242M359.644 179.242L359.818 180.11L360.838 185.21H370.712C370.82 184.631 371.146 183.712 371.58 184.667C371.652 184.812 371.862 184.971 372.122 184.45C372.383 183.929 372.81 184.45 372.99 184.775H374.076V183.256C374.148 183.112 374.466 182.844 375.161 182.931C376.029 183.039 382.214 184.558 384.167 183.473C386.12 182.388 386.554 188.031 386.337 188.356C386.12 188.682 385.686 190.635 383.299 190.092C381.389 189.658 377.222 190.78 375.378 191.395C375.016 191.539 374.293 191.481 374.293 190.092L371.688 189.984C371.508 190.165 371.059 190.418 370.712 189.984C370.365 189.55 364.201 189.803 361.163 189.984L361.706 199.207L372.231 198.882L373.425 198.773C373.678 198.52 374.249 198.144 374.51 198.665L375.703 198.773C375.739 197.471 376.029 194.802 376.897 194.541C377.982 194.216 382.322 193.239 383.95 194.107C385.575 194.974 389.158 196.277 388.073 203.222C387.784 204.741 386.098 207.953 381.671 208.647C376.137 209.515 375.703 205.826 375.92 204.09C375.667 203.837 375.009 203.526 374.401 204.307C373.642 205.284 373.533 203.656 373.099 204.199C372.665 204.741 372.556 203.764 372.122 203.764C371.775 203.764 365.178 203.981 361.923 204.09V208.864H363.116H363.442V213.096H362.248C362.103 213.711 361.749 214.963 361.489 215.049M359.644 179.242L353.784 179.35M361.489 215.049C361.228 215.136 363.55 278.889 364.744 310.754M359.969 546.277C360.765 545.859 362.118 544.242 361.163 541.117C359.969 537.211 356.931 520.609 363.333 507.263C368.455 496.585 368.361 488.78 367.674 486.212C363.876 487.695 352.982 489.771 339.787 486.212C339.751 490.806 340.763 501.62 345.104 508.131C349.878 514.815 348.89 531.894 347.799 539.598M359.969 546.277C354.778 545.48 350.467 542.828 347.799 539.598M340.36 172.623C340.676 173.225 341.131 173.577 341.415 173.708C341.595 173.744 342.478 173.794 344.561 173.708C346.525 173.626 346.972 174.759 346.956 175.435M338.81 447.909L334.795 455.504C337.436 456.77 347.903 458.542 368.65 455.504C369.41 455.504 370.842 455.222 370.495 454.094C370.148 452.965 368.831 448.704 368.216 446.715L359.535 447.041V447.909L347.599 448.343V447.366H339.136L338.81 447.909ZM335.772 426.858C335.157 427.943 334.296 430.33 335.772 431.198C337.617 432.283 340.546 431.198 338.81 426.858C337.421 423.386 333.674 423.024 331.974 423.277C329.696 423.458 325.008 426.337 324.487 436.407C323.836 448.994 324.487 464.385 319.062 468.2C316.675 469.878 313.94 468.829 314.287 466.572C315.553 465.161 317.326 461.906 314.287 460.17C311.249 458.434 309.911 461.617 309.622 463.425C309.911 466.681 312.53 472.627 320.689 470.37C328.849 468.113 329.587 451.2 328.936 443.026C328.683 438.034 328.936 427.574 331.974 425.664C335.013 423.755 335.772 425.664 335.772 426.858Z" stroke="black" stroke-width="2"/>
<path d="M369.831 426.424C368.095 430.764 371.025 431.849 372.869 430.764C374.161 430.07 373.408 427.581 372.869 426.424C372.869 425.23 373.629 423.321 376.667 425.23C379.705 427.14 379.959 437.6 379.705 442.592C379.054 450.766 379.792 467.679 387.952 469.936C396.112 472.193 398.731 466.247 399.02 462.991C398.731 461.183 397.392 458 394.354 459.736C391.316 461.472 393.088 464.727 394.354 466.138C394.701 468.395 391.967 469.444 389.58 467.766C384.154 463.951 384.805 448.56 384.154 435.973C383.633 425.903 378.946 423.024 376.667 422.843C374.967 422.59 371.22 422.952 369.831 426.424Z" fill="#81ECEC" stroke="black" stroke-width="2"/>
<path d="M358.342 214.29H347.925C347.925 192.154 351.072 182.171 351.397 182.497C351.658 182.757 355.267 182.605 357.04 182.497L358.342 214.29Z" fill="#81ECEC" stroke="black"/>
<path d="M344.561 492.831L339.57 456.264L347.382 214.507M350.204 492.831L348.576 456.264L351.18 214.507M356.389 492.831L357.582 456.264L354.761 214.507M363.116 492.831L366.48 456.264L357.908 214.507" stroke="black"/>
</svg>
