<svg width="710" height="710" viewBox="0 0 710 710" fill="none" xmlns="http://www.w3.org/2000/svg">
<circle cx="355" cy="355" r="350" stroke="white" stroke-width="10"/>
<path d="M230.959 518.557C207.16 508.729 194.107 488.217 190.555 479.189C242.65 421.321 347.226 305.646 348.766 305.882C350.305 306.119 350.887 304.205 350.986 303.218L376.145 273.915L386.653 263.555C388.192 264.147 387.689 263.012 387.245 262.371C387.739 261.582 388.844 259.825 389.317 259.115C389.791 258.404 389.811 253.984 389.761 251.863L391.685 249.347C393.106 236.323 405.597 219.057 411.665 212.051L410.481 210.571L417.289 204.207L418.178 205.078L489.956 275.395L505.088 292.59L506.236 293.895L501.648 298.631L499.28 300.999L497.948 299.519C486.582 312.424 466.819 316.242 458.433 316.39L459.469 317.87C457.811 319.765 455.719 319.942 454.881 319.794C448.813 318.166 447.777 322.606 446.593 321.718C445.645 321.008 445.211 322.014 445.113 322.606L435.049 333.262L405.301 358.126C403.762 357.534 403.278 359.162 403.229 360.05L402.193 361.234L230.959 518.557Z" fill="#FF7675"/>
<path d="M190.555 479.189C194.107 488.217 207.16 508.729 230.959 518.557L402.193 361.234L403.229 360.05C385.232 345.96 359.421 318.068 348.766 305.882C347.226 305.646 242.65 421.321 190.555 479.189Z" fill="#FF7675"/>
<path d="M520 252.307C520 218.141 492.303 190.443 458.137 190.443C442.904 190.443 428.958 195.949 418.178 205.078L489.956 275.395L505.088 292.59C514.383 281.767 520 267.693 520 252.307Z" fill="#FF7675"/>
<path d="M190.555 479.189L190.183 478.854L189.976 479.084L190.09 479.372L190.555 479.189ZM230.959 518.557L230.768 519.019L231.062 519.14L231.297 518.925L230.959 518.557ZM402.193 361.234L402.531 361.602L402.551 361.584L402.569 361.563L402.193 361.234ZM403.229 360.05L403.605 360.379L403.719 360.25L403.728 360.078L403.229 360.05ZM405.301 358.126L405.122 358.593L405.396 358.698L405.622 358.51L405.301 358.126ZM435.049 333.262L435.369 333.646L435.392 333.627L435.412 333.606L435.049 333.262ZM445.113 322.606L445.476 322.95L445.581 322.839L445.606 322.689L445.113 322.606ZM446.593 321.718L446.893 321.318L446.893 321.318L446.593 321.718ZM454.881 319.794L454.751 320.277L454.772 320.283L454.794 320.287L454.881 319.794ZM459.469 317.87L459.845 318.2L460.103 317.905L459.878 317.584L459.469 317.87ZM497.948 299.519L498.32 299.184L498.312 299.176L498.304 299.167L497.948 299.519ZM499.28 300.999L498.909 301.333L499.261 301.725L499.634 301.352L499.28 300.999ZM501.648 298.631L502.002 298.984L502.007 298.978L501.648 298.631ZM506.236 293.895L506.595 294.242L506.917 293.911L506.612 293.564L506.236 293.895ZM489.956 275.395L490.332 275.064L490.319 275.051L490.306 275.038L489.956 275.395ZM417.289 204.207L417.639 203.85L417.297 203.515L416.948 203.842L417.289 204.207ZM410.481 210.571L410.14 210.206L409.801 210.522L410.091 210.884L410.481 210.571ZM389.761 251.863L389.364 251.559L389.257 251.699L389.261 251.875L389.761 251.863ZM387.245 262.371L386.821 262.106L386.647 262.385L386.834 262.655L387.245 262.371ZM386.653 263.555L386.833 263.088L386.532 262.972L386.302 263.199L386.653 263.555ZM376.145 273.915L375.794 273.559L375.779 273.573L375.766 273.589L376.145 273.915ZM350.986 303.218L350.606 302.893L350.504 303.012L350.488 303.169L350.986 303.218ZM418.178 205.078L417.828 205.435L417.828 205.435L418.178 205.078ZM190.09 479.372C193.678 488.492 206.813 509.127 230.768 519.019L231.149 518.094C207.507 508.332 194.536 487.942 191.02 479.006L190.09 479.372ZM231.297 518.925L402.531 361.602L401.855 360.866L230.62 518.188L231.297 518.925ZM402.569 361.563L403.605 360.379L402.853 359.721L401.817 360.905L402.569 361.563ZM403.728 360.078C403.75 359.681 403.871 359.16 404.112 358.825C404.226 358.666 404.351 358.571 404.486 358.529C404.618 358.487 404.819 358.476 405.122 358.593L405.481 357.659C405.014 357.48 404.577 357.451 404.184 357.575C403.794 357.699 403.506 357.955 403.3 358.241C402.903 358.794 402.757 359.531 402.73 360.022L403.728 360.078ZM405.622 358.51L435.369 333.646L434.728 332.879L404.98 357.742L405.622 358.51ZM435.412 333.606L445.476 322.95L444.749 322.263L434.685 332.919L435.412 333.606ZM445.606 322.689C445.649 322.431 445.758 322.157 445.886 322.029C445.937 321.979 445.967 321.974 445.986 321.974C446.015 321.973 446.112 321.983 446.293 322.118L446.893 321.318C446.6 321.098 446.288 320.967 445.965 320.974C445.634 320.981 445.372 321.132 445.183 321.319C444.833 321.665 444.675 322.189 444.62 322.524L445.606 322.689ZM446.293 322.118C446.553 322.314 446.846 322.377 447.146 322.313C447.408 322.256 447.64 322.107 447.832 321.965C448.026 321.821 448.243 321.632 448.456 321.454C448.677 321.27 448.916 321.077 449.187 320.892C450.237 320.175 451.864 319.503 454.751 320.277L455.01 319.311C451.829 318.458 449.904 319.192 448.623 320.066C448.312 320.278 448.044 320.495 447.815 320.687C447.577 320.886 447.4 321.04 447.236 321.162C447.069 321.286 446.979 321.325 446.934 321.335C446.927 321.337 446.928 321.345 446.893 321.318L446.293 322.118ZM454.794 320.287C455.778 320.461 458.056 320.245 459.845 318.2L459.092 317.541C457.566 319.285 455.66 319.424 454.968 319.302L454.794 320.287ZM459.878 317.584L458.842 316.104L458.023 316.677L459.059 318.157L459.878 317.584ZM458.441 316.89C462.689 316.815 469.779 315.814 477.238 313.211C484.696 310.607 492.564 306.388 498.323 299.849L497.573 299.188C491.966 305.554 484.27 309.697 476.908 312.266C469.547 314.836 462.562 315.817 458.424 315.89L458.441 316.89ZM497.577 299.853L498.909 301.333L499.652 300.664L498.32 299.184L497.577 299.853ZM499.634 301.352L502.002 298.984L501.295 298.277L498.927 300.645L499.634 301.352ZM502.007 298.978L506.595 294.242L505.877 293.547L501.289 298.283L502.007 298.978ZM416.948 203.842L410.14 210.206L410.822 210.937L417.63 204.573L416.948 203.842ZM410.091 210.884L411.275 212.364L412.055 211.739L410.871 210.259L410.091 210.884ZM411.287 211.724C408.236 215.246 403.578 221.338 399.503 228.186C395.435 235.022 391.911 242.671 391.188 249.293L392.182 249.401C392.881 242.999 396.312 235.503 400.362 228.698C404.404 221.906 409.026 215.861 412.043 212.379L411.287 211.724ZM391.288 249.043L389.364 251.559L390.158 252.167L392.082 249.651L391.288 249.043ZM389.261 251.875C389.286 252.928 389.293 254.553 389.236 255.998C389.207 256.722 389.162 257.392 389.097 257.919C389.064 258.183 389.028 258.403 388.988 258.571C388.968 258.655 388.949 258.72 388.931 258.769C388.912 258.82 388.901 258.839 388.901 258.838L389.733 259.392C389.845 259.225 389.913 259.005 389.961 258.802C390.012 258.584 390.055 258.325 390.09 258.042C390.16 257.474 390.206 256.773 390.235 256.038C390.293 254.565 390.286 252.919 390.261 251.851L389.261 251.875ZM388.901 258.838C388.423 259.555 387.313 261.318 386.821 262.106L387.669 262.636C388.164 261.845 389.265 260.095 389.733 259.392L388.901 258.838ZM386.834 262.655C386.933 262.798 387.031 262.963 387.102 263.117C387.137 263.194 387.162 263.261 387.177 263.316C387.184 263.344 387.189 263.365 387.191 263.381C387.192 263.389 387.193 263.396 387.193 263.4C387.193 263.404 387.193 263.406 387.193 263.406C387.193 263.406 387.193 263.404 387.194 263.399C387.195 263.394 387.196 263.387 387.199 263.377C387.205 263.358 387.217 263.331 387.239 263.303C387.288 263.24 387.345 263.222 387.357 263.22C387.361 263.219 387.325 263.226 387.229 263.208C387.136 263.191 387.006 263.155 386.833 263.088L386.474 264.022C386.873 264.175 387.246 264.263 387.558 264.2C387.732 264.164 387.905 264.077 388.029 263.916C388.149 263.761 388.187 263.587 388.193 263.444C388.203 263.179 388.105 262.907 388.011 262.702C387.911 262.481 387.78 262.264 387.656 262.086L386.834 262.655ZM386.302 263.199L375.794 273.559L376.496 274.271L387.004 263.911L386.302 263.199ZM375.766 273.589L350.606 302.893L351.365 303.544L376.525 274.24L375.766 273.589ZM350.488 303.169C350.443 303.616 350.288 304.261 349.989 304.748C349.699 305.222 349.339 305.465 348.842 305.388L348.69 306.377C349.732 306.537 350.432 305.941 350.842 305.27C351.244 304.613 351.429 303.808 351.483 303.268L350.488 303.169ZM348.842 305.388C348.736 305.372 348.649 305.392 348.606 305.404C348.557 305.418 348.517 305.436 348.488 305.451C348.43 305.479 348.376 305.515 348.33 305.548C348.235 305.614 348.122 305.707 347.995 305.818C347.739 306.042 347.391 306.371 346.957 306.797C346.088 307.651 344.856 308.915 343.301 310.542C340.189 313.799 335.772 318.526 330.355 324.385C319.519 336.102 304.673 352.349 288.249 370.41C255.4 406.534 216.231 449.92 190.183 478.854L190.927 479.523C216.974 450.59 256.141 407.205 288.989 371.083C305.413 353.022 320.256 336.777 331.089 325.064C336.506 319.206 340.918 314.484 344.024 311.233C345.577 309.607 346.8 308.353 347.658 307.511C348.088 307.088 348.42 306.775 348.653 306.571C348.771 306.468 348.854 306.401 348.907 306.364C348.935 306.344 348.942 306.341 348.934 306.346C348.929 306.348 348.91 306.357 348.88 306.366C348.855 306.373 348.784 306.391 348.69 306.377L348.842 305.388ZM458.137 190.943C492.027 190.943 519.5 218.417 519.5 252.307H520.5C520.5 217.865 492.579 189.943 458.137 189.943V190.943ZM418.501 205.46C429.194 196.404 443.027 190.943 458.137 190.943V189.943C442.781 189.943 428.721 195.494 417.855 204.697L418.501 205.46ZM490.306 275.038L418.528 204.721L417.828 205.435L489.606 275.752L490.306 275.038ZM418.528 204.721L417.639 203.85L416.939 204.565L417.828 205.435L418.528 204.721ZM519.5 252.307C519.5 267.569 513.929 281.528 504.709 292.265L505.468 292.916C514.838 282.005 520.5 267.817 520.5 252.307H519.5ZM506.612 293.564L505.464 292.26L504.713 292.921L505.861 294.225L506.612 293.564ZM505.464 292.26L490.332 275.064L489.581 275.725L504.713 292.921L505.464 292.26ZM391.331 249.7L458.078 316.743L458.787 316.038L392.04 248.994L391.331 249.7ZM411.309 212.402L497.592 299.87L498.304 299.167L412.021 211.7L411.309 212.402ZM348.389 306.212C359.045 318.397 384.883 346.322 402.921 360.444L403.537 359.656C385.581 345.599 359.797 317.738 349.142 305.553L348.389 306.212ZM350.59 303.525C357.222 312.087 377.364 335.042 404.977 358.507L405.625 357.745C378.064 334.324 357.97 311.419 351.381 302.912L350.59 303.525Z" fill="black"/>
<path fill-rule="evenodd" clip-rule="evenodd" d="M350.986 303.218C350.887 304.205 350.305 306.119 348.766 305.882C359.421 318.068 385.232 345.96 403.229 360.05C403.278 359.162 403.762 357.534 405.301 358.126C377.714 334.683 357.596 311.753 350.986 303.218ZM411.665 212.051L497.948 299.519L499.28 300.999L501.648 298.631L506.236 293.895L505.088 292.59L489.956 275.395L418.178 205.078L417.289 204.207L410.481 210.571L411.665 212.051Z" fill="#FFD4AC"/>
<path d="M190.555 479.189L190.183 478.854L189.976 479.084L190.09 479.372L190.555 479.189ZM230.959 518.557L230.768 519.019L231.062 519.14L231.297 518.925L230.959 518.557ZM402.193 361.234L402.531 361.602L402.551 361.584L402.569 361.563L402.193 361.234ZM403.229 360.05L403.605 360.379L403.719 360.25L403.728 360.078L403.229 360.05ZM405.301 358.126L405.122 358.593L405.396 358.698L405.622 358.51L405.301 358.126ZM435.049 333.262L435.369 333.646L435.392 333.627L435.412 333.606L435.049 333.262ZM445.113 322.606L445.476 322.95L445.581 322.839L445.606 322.689L445.113 322.606ZM446.593 321.718L446.893 321.318L446.893 321.318L446.593 321.718ZM454.881 319.794L454.751 320.277L454.772 320.283L454.794 320.287L454.881 319.794ZM459.469 317.87L459.845 318.2L460.103 317.905L459.878 317.584L459.469 317.87ZM497.948 299.519L498.32 299.184L498.312 299.176L498.304 299.167L497.948 299.519ZM499.28 300.999L498.909 301.333L499.261 301.725L499.634 301.352L499.28 300.999ZM501.648 298.631L502.002 298.984L502.007 298.978L501.648 298.631ZM506.236 293.895L506.595 294.242L506.917 293.911L506.612 293.564L506.236 293.895ZM489.956 275.395L490.332 275.064L490.319 275.051L490.306 275.038L489.956 275.395ZM417.289 204.207L417.639 203.85L417.297 203.515L416.948 203.842L417.289 204.207ZM410.481 210.571L410.14 210.206L409.801 210.522L410.091 210.884L410.481 210.571ZM389.761 251.863L389.364 251.559L389.257 251.699L389.261 251.875L389.761 251.863ZM387.245 262.371L386.821 262.106L386.647 262.385L386.834 262.655L387.245 262.371ZM386.653 263.555L386.833 263.088L386.532 262.972L386.302 263.199L386.653 263.555ZM376.145 273.915L375.794 273.559L375.779 273.573L375.766 273.589L376.145 273.915ZM350.986 303.218L350.606 302.893L350.504 303.012L350.488 303.169L350.986 303.218ZM418.178 205.078L417.828 205.435L417.828 205.435L418.178 205.078ZM447.983 321.199L448.305 321.581L448.305 321.581L447.983 321.199ZM190.09 479.372C193.678 488.492 206.813 509.127 230.768 519.019L231.149 518.094C207.507 508.332 194.536 487.942 191.02 479.006L190.09 479.372ZM231.297 518.925L402.531 361.602L401.855 360.866L230.62 518.188L231.297 518.925ZM402.569 361.563L403.605 360.379L402.853 359.721L401.817 360.905L402.569 361.563ZM403.728 360.078C403.75 359.681 403.871 359.16 404.112 358.825C404.226 358.666 404.351 358.571 404.486 358.529C404.618 358.487 404.819 358.476 405.122 358.593L405.481 357.659C405.014 357.48 404.577 357.451 404.184 357.575C403.794 357.699 403.506 357.955 403.3 358.241C402.903 358.794 402.757 359.531 402.73 360.022L403.728 360.078ZM405.622 358.51L435.369 333.646L434.728 332.879L404.98 357.742L405.622 358.51ZM435.412 333.606L445.476 322.95L444.749 322.263L434.685 332.919L435.412 333.606ZM445.606 322.689C445.649 322.431 445.758 322.157 445.886 322.029C445.937 321.979 445.967 321.974 445.986 321.974C446.015 321.973 446.112 321.983 446.293 322.118L446.893 321.318C446.6 321.098 446.288 320.967 445.965 320.974C445.634 320.981 445.372 321.132 445.183 321.319C444.833 321.665 444.675 322.189 444.62 322.524L445.606 322.689ZM454.794 320.287C455.778 320.461 458.056 320.245 459.845 318.2L459.092 317.541C457.566 319.285 455.66 319.424 454.968 319.302L454.794 320.287ZM459.878 317.584L458.842 316.104L458.023 316.677L459.059 318.157L459.878 317.584ZM458.441 316.89C462.689 316.815 469.779 315.814 477.238 313.211C484.696 310.607 492.564 306.388 498.323 299.849L497.573 299.188C491.966 305.554 484.27 309.697 476.908 312.266C469.547 314.836 462.562 315.817 458.424 315.89L458.441 316.89ZM497.577 299.853L498.909 301.333L499.652 300.664L498.32 299.184L497.577 299.853ZM499.634 301.352L502.002 298.984L501.295 298.277L498.927 300.645L499.634 301.352ZM502.007 298.978L506.595 294.242L505.877 293.547L501.289 298.283L502.007 298.978ZM416.948 203.842L410.14 210.206L410.822 210.937L417.63 204.573L416.948 203.842ZM410.091 210.884L411.275 212.364L412.055 211.739L410.871 210.259L410.091 210.884ZM411.287 211.724C408.236 215.246 403.578 221.338 399.503 228.186C395.435 235.022 391.911 242.671 391.188 249.293L392.182 249.401C392.881 242.999 396.312 235.503 400.362 228.698C404.404 221.906 409.026 215.861 412.043 212.379L411.287 211.724ZM391.288 249.043L389.364 251.559L390.158 252.167L392.082 249.651L391.288 249.043ZM389.261 251.875C389.286 252.928 389.293 254.553 389.236 255.998C389.207 256.722 389.162 257.392 389.097 257.919C389.064 258.183 389.028 258.403 388.988 258.571C388.968 258.655 388.949 258.72 388.931 258.769C388.912 258.82 388.901 258.839 388.901 258.838L389.733 259.392C389.845 259.225 389.913 259.005 389.961 258.802C390.012 258.584 390.055 258.325 390.09 258.042C390.16 257.474 390.206 256.773 390.235 256.038C390.293 254.565 390.286 252.919 390.261 251.851L389.261 251.875ZM388.901 258.838C388.423 259.555 387.313 261.318 386.821 262.106L387.669 262.636C388.164 261.845 389.265 260.095 389.733 259.392L388.901 258.838ZM386.834 262.655C386.933 262.798 387.031 262.963 387.102 263.117C387.137 263.194 387.162 263.261 387.177 263.316C387.184 263.344 387.189 263.365 387.191 263.381C387.192 263.389 387.193 263.396 387.193 263.4C387.193 263.404 387.193 263.406 387.193 263.406C387.193 263.406 387.193 263.404 387.194 263.399C387.195 263.394 387.196 263.387 387.199 263.377C387.205 263.358 387.217 263.331 387.239 263.303C387.288 263.24 387.345 263.222 387.357 263.22C387.361 263.219 387.325 263.226 387.229 263.208C387.136 263.191 387.006 263.155 386.833 263.088L386.474 264.022C386.873 264.175 387.246 264.263 387.558 264.2C387.732 264.164 387.905 264.077 388.029 263.916C388.149 263.761 388.187 263.587 388.193 263.444C388.203 263.179 388.105 262.907 388.011 262.702C387.911 262.481 387.78 262.264 387.656 262.086L386.834 262.655ZM386.302 263.199L375.794 273.559L376.496 274.271L387.004 263.911L386.302 263.199ZM375.766 273.589L350.606 302.893L351.365 303.544L376.525 274.24L375.766 273.589ZM350.488 303.169C350.443 303.616 350.288 304.261 349.989 304.748C349.699 305.222 349.339 305.465 348.842 305.388L348.69 306.377C349.732 306.537 350.432 305.941 350.842 305.27C351.244 304.613 351.429 303.808 351.483 303.268L350.488 303.169ZM348.842 305.388C348.736 305.372 348.649 305.392 348.606 305.404C348.557 305.418 348.517 305.436 348.488 305.451C348.43 305.479 348.376 305.515 348.33 305.548C348.235 305.614 348.122 305.707 347.995 305.818C347.739 306.042 347.391 306.371 346.957 306.797C346.088 307.651 344.856 308.915 343.301 310.542C340.189 313.799 335.772 318.526 330.355 324.385C319.519 336.102 304.673 352.349 288.249 370.41C255.4 406.534 216.231 449.92 190.183 478.854L190.927 479.523C216.974 450.59 256.141 407.205 288.989 371.083C305.413 353.022 320.256 336.777 331.089 325.064C336.506 319.206 340.918 314.484 344.024 311.233C345.577 309.607 346.8 308.353 347.658 307.511C348.088 307.088 348.42 306.775 348.653 306.571C348.771 306.468 348.854 306.401 348.907 306.364C348.935 306.344 348.942 306.341 348.934 306.346C348.929 306.348 348.91 306.357 348.88 306.366C348.855 306.373 348.784 306.391 348.69 306.377L348.842 305.388ZM458.137 190.943C492.027 190.943 519.5 218.417 519.5 252.307H520.5C520.5 217.865 492.579 189.943 458.137 189.943V190.943ZM418.501 205.46C429.194 196.404 443.027 190.943 458.137 190.943V189.943C442.781 189.943 428.721 195.494 417.855 204.697L418.501 205.46ZM490.306 275.038L418.528 204.721L417.828 205.435L489.606 275.752L490.306 275.038ZM418.528 204.721L417.639 203.85L416.939 204.565L417.828 205.435L418.528 204.721ZM519.5 252.307C519.5 267.569 513.929 281.528 504.709 292.265L505.468 292.916C514.838 282.005 520.5 267.817 520.5 252.307H519.5ZM506.612 293.564L505.464 292.26L504.713 292.921L505.861 294.225L506.612 293.564ZM505.464 292.26L490.332 275.064L489.581 275.725L504.713 292.921L505.464 292.26ZM391.331 249.7L458.078 316.743L458.787 316.038L392.04 248.994L391.331 249.7ZM411.309 212.402L497.592 299.87L498.304 299.167L412.021 211.7L411.309 212.402ZM348.389 306.212C359.045 318.397 384.883 346.322 402.921 360.444L403.537 359.656C385.581 345.599 359.797 317.738 349.142 305.553L348.389 306.212ZM350.59 303.525C357.222 312.087 377.364 335.042 404.977 358.507L405.625 357.745C378.064 334.324 357.97 311.419 351.381 302.912L350.59 303.525ZM446.293 322.118C446.464 322.247 446.661 322.327 446.878 322.336C447.089 322.345 447.277 322.287 447.436 322.211C447.73 322.071 448.031 321.812 448.305 321.581L447.66 320.817C447.346 321.082 447.157 321.236 447.005 321.309C446.941 321.339 446.918 321.337 446.921 321.337C446.932 321.337 446.926 321.343 446.893 321.318L446.293 322.118ZM448.305 321.581C448.86 321.113 449.529 320.553 450.52 320.219C451.503 319.888 452.848 319.767 454.751 320.277L455.01 319.311C452.944 318.757 451.396 318.869 450.201 319.272C449.014 319.672 448.218 320.346 447.66 320.817L448.305 321.581Z" fill="black"/>
<path d="M520 252.307C520 218.141 492.303 190.443 458.137 190.443C442.904 190.443 428.958 195.949 418.178 205.078L489.956 275.395L505.088 292.59C514.383 281.767 520 267.693 520 252.307Z" fill="#81ECEC"/>
<path d="M458.433 316.39C466.819 316.242 486.582 312.424 497.948 299.519L411.665 212.051C405.597 219.057 393.106 236.323 391.685 249.347L458.433 316.39Z" fill="#81ECEC"/>
<path d="M190.555 479.189L190.183 478.854L189.976 479.084L190.09 479.372L190.555 479.189ZM230.959 518.557L230.768 519.019L231.062 519.14L231.297 518.925L230.959 518.557ZM402.193 361.234L402.531 361.602L402.551 361.584L402.569 361.563L402.193 361.234ZM403.229 360.05L403.605 360.379L403.719 360.25L403.728 360.078L403.229 360.05ZM405.301 358.126L405.122 358.593L405.396 358.698L405.622 358.51L405.301 358.126ZM435.049 333.262L435.369 333.646L435.392 333.627L435.412 333.606L435.049 333.262ZM445.113 322.606L445.476 322.95L445.581 322.839L445.606 322.689L445.113 322.606ZM446.593 321.718L446.893 321.318L446.893 321.318L446.593 321.718ZM454.881 319.794L454.751 320.277L454.772 320.283L454.794 320.287L454.881 319.794ZM459.469 317.87L459.845 318.2L460.103 317.905L459.878 317.584L459.469 317.87ZM497.948 299.519L498.32 299.184L498.312 299.176L498.304 299.167L497.948 299.519ZM499.28 300.999L498.909 301.333L499.261 301.725L499.634 301.352L499.28 300.999ZM501.648 298.631L502.002 298.984L502.007 298.978L501.648 298.631ZM506.236 293.895L506.595 294.242L506.917 293.911L506.612 293.564L506.236 293.895ZM489.956 275.395L490.332 275.064L490.319 275.051L490.306 275.038L489.956 275.395ZM417.289 204.207L417.639 203.85L417.297 203.515L416.948 203.842L417.289 204.207ZM410.481 210.571L410.14 210.206L409.801 210.522L410.091 210.884L410.481 210.571ZM389.761 251.863L389.364 251.559L389.257 251.699L389.261 251.875L389.761 251.863ZM387.245 262.371L386.821 262.106L386.647 262.385L386.834 262.655L387.245 262.371ZM386.653 263.555L386.833 263.088L386.532 262.972L386.302 263.199L386.653 263.555ZM376.145 273.915L375.794 273.559L375.779 273.573L375.766 273.589L376.145 273.915ZM350.986 303.218L350.606 302.893L350.504 303.012L350.488 303.169L350.986 303.218ZM418.178 205.078L417.828 205.435L417.828 205.435L418.178 205.078ZM447.983 321.199L448.305 321.581L448.305 321.581L447.983 321.199ZM190.09 479.372C193.678 488.492 206.813 509.127 230.768 519.019L231.149 518.094C207.507 508.332 194.536 487.942 191.02 479.006L190.09 479.372ZM231.297 518.925L402.531 361.602L401.855 360.866L230.62 518.188L231.297 518.925ZM402.569 361.563L403.605 360.379L402.853 359.721L401.817 360.905L402.569 361.563ZM403.728 360.078C403.75 359.681 403.871 359.16 404.112 358.825C404.226 358.666 404.351 358.571 404.486 358.529C404.618 358.487 404.819 358.476 405.122 358.593L405.481 357.659C405.014 357.48 404.577 357.451 404.184 357.575C403.794 357.699 403.506 357.955 403.3 358.241C402.903 358.794 402.757 359.531 402.73 360.022L403.728 360.078ZM405.622 358.51L435.369 333.646L434.728 332.879L404.98 357.742L405.622 358.51ZM435.412 333.606L445.476 322.95L444.749 322.263L434.685 332.919L435.412 333.606ZM445.606 322.689C445.649 322.431 445.758 322.157 445.886 322.029C445.937 321.979 445.967 321.974 445.986 321.974C446.015 321.973 446.112 321.983 446.293 322.118L446.893 321.318C446.6 321.098 446.288 320.967 445.965 320.974C445.634 320.981 445.372 321.132 445.183 321.319C444.833 321.665 444.675 322.189 444.62 322.524L445.606 322.689ZM454.794 320.287C455.778 320.461 458.056 320.245 459.845 318.2L459.092 317.541C457.566 319.285 455.66 319.424 454.968 319.302L454.794 320.287ZM459.878 317.584L458.842 316.104L458.023 316.677L459.059 318.157L459.878 317.584ZM458.441 316.89C462.689 316.815 469.779 315.814 477.238 313.211C484.696 310.607 492.564 306.388 498.323 299.849L497.573 299.188C491.966 305.554 484.27 309.697 476.908 312.266C469.547 314.836 462.562 315.817 458.424 315.89L458.441 316.89ZM497.577 299.853L498.909 301.333L499.652 300.664L498.32 299.184L497.577 299.853ZM499.634 301.352L502.002 298.984L501.295 298.277L498.927 300.645L499.634 301.352ZM502.007 298.978L506.595 294.242L505.877 293.547L501.289 298.283L502.007 298.978ZM416.948 203.842L410.14 210.206L410.822 210.937L417.63 204.573L416.948 203.842ZM410.091 210.884L411.275 212.364L412.055 211.739L410.871 210.259L410.091 210.884ZM411.287 211.724C408.236 215.246 403.578 221.338 399.503 228.186C395.435 235.022 391.911 242.671 391.188 249.293L392.182 249.401C392.881 242.999 396.312 235.503 400.362 228.698C404.404 221.906 409.026 215.861 412.043 212.379L411.287 211.724ZM391.288 249.043L389.364 251.559L390.158 252.167L392.082 249.651L391.288 249.043ZM389.261 251.875C389.286 252.928 389.293 254.553 389.236 255.998C389.207 256.722 389.162 257.392 389.097 257.919C389.064 258.183 389.028 258.403 388.988 258.571C388.968 258.655 388.949 258.72 388.931 258.769C388.912 258.82 388.901 258.839 388.901 258.838L389.733 259.392C389.845 259.225 389.913 259.005 389.961 258.802C390.012 258.584 390.055 258.325 390.09 258.042C390.16 257.474 390.206 256.773 390.235 256.038C390.293 254.565 390.286 252.919 390.261 251.851L389.261 251.875ZM388.901 258.838C388.423 259.555 387.313 261.318 386.821 262.106L387.669 262.636C388.164 261.845 389.265 260.095 389.733 259.392L388.901 258.838ZM386.834 262.655C386.933 262.798 387.031 262.963 387.102 263.117C387.137 263.194 387.162 263.261 387.177 263.316C387.184 263.344 387.189 263.365 387.191 263.381C387.192 263.389 387.193 263.396 387.193 263.4C387.193 263.404 387.193 263.406 387.193 263.406C387.193 263.406 387.193 263.404 387.194 263.399C387.195 263.394 387.196 263.387 387.199 263.377C387.205 263.358 387.217 263.331 387.239 263.303C387.288 263.24 387.345 263.222 387.357 263.22C387.361 263.219 387.325 263.226 387.229 263.208C387.136 263.191 387.006 263.155 386.833 263.088L386.474 264.022C386.873 264.175 387.246 264.263 387.558 264.2C387.732 264.164 387.905 264.077 388.029 263.916C388.149 263.761 388.187 263.587 388.193 263.444C388.203 263.179 388.105 262.907 388.011 262.702C387.911 262.481 387.78 262.264 387.656 262.086L386.834 262.655ZM386.302 263.199L375.794 273.559L376.496 274.271L387.004 263.911L386.302 263.199ZM375.766 273.589L350.606 302.893L351.365 303.544L376.525 274.24L375.766 273.589ZM350.488 303.169C350.443 303.616 350.288 304.261 349.989 304.748C349.699 305.222 349.339 305.465 348.842 305.388L348.69 306.377C349.732 306.537 350.432 305.941 350.842 305.27C351.244 304.613 351.429 303.808 351.483 303.268L350.488 303.169ZM348.842 305.388C348.736 305.372 348.649 305.392 348.606 305.404C348.557 305.418 348.517 305.436 348.488 305.451C348.43 305.479 348.376 305.515 348.33 305.548C348.235 305.614 348.122 305.707 347.995 305.818C347.739 306.042 347.391 306.371 346.957 306.797C346.088 307.651 344.856 308.915 343.301 310.542C340.189 313.799 335.772 318.526 330.355 324.385C319.519 336.102 304.673 352.349 288.249 370.41C255.4 406.534 216.231 449.92 190.183 478.854L190.927 479.523C216.974 450.59 256.141 407.205 288.989 371.083C305.413 353.022 320.256 336.777 331.089 325.064C336.506 319.206 340.918 314.484 344.024 311.233C345.577 309.607 346.8 308.353 347.658 307.511C348.088 307.088 348.42 306.775 348.653 306.571C348.771 306.468 348.854 306.401 348.907 306.364C348.935 306.344 348.942 306.341 348.934 306.346C348.929 306.348 348.91 306.357 348.88 306.366C348.855 306.373 348.784 306.391 348.69 306.377L348.842 305.388ZM458.137 190.943C492.027 190.943 519.5 218.417 519.5 252.307H520.5C520.5 217.865 492.579 189.943 458.137 189.943V190.943ZM418.501 205.46C429.194 196.404 443.027 190.943 458.137 190.943V189.943C442.781 189.943 428.721 195.494 417.855 204.697L418.501 205.46ZM490.306 275.038L418.528 204.721L417.828 205.435L489.606 275.752L490.306 275.038ZM418.528 204.721L417.639 203.85L416.939 204.565L417.828 205.435L418.528 204.721ZM519.5 252.307C519.5 267.569 513.929 281.528 504.709 292.265L505.468 292.916C514.838 282.005 520.5 267.817 520.5 252.307H519.5ZM506.612 293.564L505.464 292.26L504.713 292.921L505.861 294.225L506.612 293.564ZM505.464 292.26L490.332 275.064L489.581 275.725L504.713 292.921L505.464 292.26ZM391.331 249.7L458.078 316.743L458.787 316.038L392.04 248.994L391.331 249.7ZM411.309 212.402L497.592 299.87L498.304 299.167L412.021 211.7L411.309 212.402ZM348.389 306.212C359.045 318.397 384.883 346.322 402.921 360.444L403.537 359.656C385.581 345.599 359.797 317.738 349.142 305.553L348.389 306.212ZM350.59 303.525C357.222 312.087 377.364 335.042 404.977 358.507L405.625 357.745C378.064 334.324 357.97 311.419 351.381 302.912L350.59 303.525ZM446.293 322.118C446.464 322.247 446.661 322.327 446.878 322.336C447.089 322.345 447.277 322.287 447.436 322.211C447.73 322.071 448.031 321.812 448.305 321.581L447.66 320.817C447.346 321.082 447.157 321.236 447.005 321.309C446.941 321.339 446.918 321.337 446.921 321.337C446.932 321.337 446.926 321.343 446.893 321.318L446.293 322.118ZM448.305 321.581C448.86 321.113 449.529 320.553 450.52 320.219C451.503 319.888 452.848 319.767 454.751 320.277L455.01 319.311C452.944 318.757 451.396 318.869 450.201 319.272C449.014 319.672 448.218 320.346 447.66 320.817L448.305 321.581Z" fill="black"/>
</svg>
