<svg width="710" height="710" viewBox="0 0 710 710" fill="none" xmlns="http://www.w3.org/2000/svg">
<circle cx="355" cy="355" r="350" stroke="white" stroke-width="10"/>
<path fill-rule="evenodd" clip-rule="evenodd" d="M220.612 562.195V558.996L219.671 558.056L213.275 411.874L163.042 364.276V361.83C153.109 352.95 150.876 349.601 151.002 349.037L150.626 286.388C146.395 282.016 145.798 276.863 146.049 274.425C146.057 274.258 146.078 274.107 146.11 273.971C149.12 262.495 169.627 246.127 211.958 224.303C254.288 202.479 316.749 184.23 331.8 182.161C346.851 180.091 391.815 162.595 405.361 157.139C418.907 151.683 438.473 145.286 444.493 143.781C449.31 142.577 455.154 143.029 457.475 143.405L482.873 151.118L484.378 155.069L480.239 157.327C479.788 158.982 478.044 159.146 477.229 159.02L448.82 173.883L479.675 262.307L480.615 261.93L491.339 267.01L503.756 265.317L539.126 281.308C539.126 282.512 538.248 284.82 537.809 285.823V293.161C537.357 308.513 544.393 317.368 547.968 319.876C550.915 321.757 557.45 325.821 560.009 327.025C562.567 328.229 563.207 330.537 563.207 331.54V365.969L554.553 367.474L553.988 366.91L534.798 369.791L530.471 505.942L529.154 506.507V509.517L520.876 511.022L515.609 507.259V504.625L514.48 502.556L510.153 373.491L394.449 390.86V481.673L404.044 489.762V492.773H403.292V509.14C402.441 509.491 400.865 510.048 400.109 510.03C401.192 510.447 402.893 511.385 403.292 512.715C403.856 514.596 399.717 516.478 396.519 515.913C393.96 515.462 388.304 509.329 385.795 506.318L383.914 506.507V512.151L379.21 512.527C380.778 513.718 383.763 516.553 383.161 518.359C382.409 520.617 374.319 521.557 371.873 516.854C369.916 513.091 367.797 510.896 366.981 510.269L365.1 510.646V516.101C363.183 516.44 359.544 517.021 358.828 516.917C359.569 517.363 360.546 519.162 360.961 520.052C360.773 524.756 350.614 523.251 350.614 520.993C350.614 519.187 349.359 514.847 348.732 512.903L345.923 513.656L345.722 519.488L333.681 521.369L318.819 507.259V487.881L331.312 485.623L330.107 400.519L260.685 410.941L258.804 466.81L257.675 468.127V470.573L248.832 471.89L245.822 468.691V466.81L244.881 465.493L243.185 413.568L239.426 414.132L235.287 560.313L234.346 561.442V564.452L224.563 566.334L220.612 562.195ZM383.349 392.526L341.583 398.796L342.238 483.554L383.349 476.781V392.526ZM444.493 175.952L471.209 259.673L467.822 258.92L469.139 282.061L268.775 306.518L264.259 293.725L259.556 275.852C259.556 273.344 260.497 268.026 264.259 266.822C268.022 265.618 286.522 259.923 295.302 257.227H294.564H281.568L444.493 175.952ZM542.7 343.205V338.501L523.698 330.412L524.827 325.332L230.207 365.313L249.209 379.515V385.347L542.7 343.205Z" fill="#FF7675"/>
<path d="M224.563 566.334L220.612 562.195V558.996L219.671 558.056L213.275 411.874M224.563 566.334L234.346 564.452V561.442L235.287 560.313L239.426 414.132M224.563 566.334L220.236 418.647M239.426 414.132L243.185 413.568M239.426 414.132L230.959 416.124M554.553 367.474L553.988 366.91L534.798 369.791M554.553 367.474L563.207 365.969V331.54C563.207 330.537 562.567 328.229 560.009 327.025C557.45 325.821 550.915 321.757 547.968 319.876C544.393 317.368 537.357 308.513 537.809 293.161V285.823M554.553 367.474C554.553 362.089 554.553 352.091 554.553 344.334M537.809 285.823C538.248 284.82 539.126 282.512 539.126 281.308M537.809 285.823L529.342 286.888M539.126 281.308L503.756 265.317L491.339 267.01L480.615 261.93L479.675 262.307L448.82 173.883L477.229 159.02C478.044 159.146 479.788 158.982 480.239 157.327L484.378 155.069L482.873 151.118M539.126 281.308L202.551 322.322M482.873 151.118L457.475 143.405C455.154 143.029 449.31 142.577 444.493 143.781C438.473 145.286 418.907 151.683 405.361 157.139C391.815 162.595 346.851 180.091 331.8 182.161C316.749 184.23 254.288 202.479 211.958 224.303C169.627 246.127 149.12 262.495 146.11 273.971M482.873 151.118L175.459 302.568L164.359 293.537C149.314 284.169 145.914 277.188 146.049 274.425M146.11 273.971C146.078 274.107 146.057 274.258 146.049 274.425M146.11 273.971C146.087 274.109 146.066 274.261 146.049 274.425M213.275 411.874L163.042 364.276V361.83C153.109 352.95 150.876 349.601 151.002 349.037L150.626 286.388C146.395 282.016 145.798 276.863 146.049 274.425M213.275 411.874L220.236 418.647M467.822 258.92L471.209 259.673L444.493 175.952L281.568 257.227H294.564M467.822 258.92L467.446 251.771C466.944 249.388 464.549 244.659 458.98 244.81C457.742 244.843 454.846 244.651 450.618 244.37C431.061 243.07 383.003 239.876 338.761 248.384C306.342 254.619 296.148 256.763 294.564 257.227M467.822 258.92L469.139 282.061L268.775 306.518L264.259 293.725M295.302 257.227C286.522 259.923 268.022 265.618 264.259 266.822C260.497 268.026 259.556 273.344 259.556 275.852L264.259 293.725M295.302 257.227H294.564M295.302 257.227C294.45 257.351 294.044 257.379 294.564 257.227M510.153 373.491L514.48 502.556L515.609 504.625V507.259L520.876 511.022M510.153 373.491L518.995 372.163M510.153 373.491L394.449 390.86M520.876 511.022L529.154 509.517V506.507L530.471 505.942L534.798 369.791M520.876 511.022L518.995 372.163M534.798 369.791L518.995 372.163M220.236 418.647V384.595C220.612 381.71 219.747 375 213.275 371.237C205.185 366.534 201.234 335.115 202.551 327.966M220.236 418.647L230.959 416.124M260.685 410.941L258.804 466.81L257.675 468.127V470.573L248.832 471.89M260.685 410.941L247.704 412.889M260.685 410.941L330.107 400.519M248.832 471.89L245.822 468.691V466.81L244.881 465.493L243.185 413.568M248.832 471.89L247.704 412.889M243.185 413.568L247.704 412.889M330.107 400.519L336.127 399.615M330.107 400.519L331.312 485.623M336.127 498.04L331.424 493.525L331.312 485.623M336.127 498.04V399.615M336.127 498.04L342.336 496.159L342.238 483.554M336.127 399.615L341.583 398.796M341.583 398.796L383.349 392.526M341.583 398.796L342.238 483.554M388.993 488.257L383.349 484.118V476.781M388.993 488.257V391.679M388.993 488.257L394.449 487.317V481.673M388.993 391.679L394.449 390.86M388.993 391.679L383.349 392.526M394.449 390.86V481.673M383.349 392.526V476.781M331.312 485.623L318.819 487.881M318.819 487.881V507.259L333.681 521.369M318.819 487.881L333.681 502.179M333.681 521.369L345.722 519.488L345.923 513.656M333.681 521.369V502.179M353.436 512.151V507.259L346.098 508.576L345.923 513.656M353.436 512.151C355.192 513.593 358.704 516.553 358.704 516.854M353.436 512.151L348.732 512.903M358.704 516.854C358.704 516.884 358.747 516.905 358.828 516.917M358.704 516.854C358.744 516.87 358.785 516.891 358.828 516.917M372.437 508.012V503.496L365.1 505.19V510.646M372.437 508.012C374.256 509.14 378.458 511.473 379.21 512.527M372.437 508.012L366.981 510.269M379.21 512.527L383.914 512.151V506.507M379.21 512.527C380.778 513.718 383.763 516.553 383.161 518.359C382.409 520.617 374.319 521.557 371.873 516.854C369.916 513.091 367.797 510.896 366.981 510.269M391.251 505.19V500.298L383.914 501.615V506.507M391.251 505.19C393.948 506.569 399.416 509.441 399.717 509.893M391.251 505.19L385.795 506.318M399.717 509.893C399.834 509.93 399.966 509.975 400.109 510.03M399.717 509.893C399.778 509.984 399.917 510.026 400.109 510.03M404.044 489.762V492.773H403.292V509.14C402.441 509.491 400.865 510.048 400.109 510.03M404.044 489.762L394.449 481.673M404.044 489.762L333.681 502.179M342.238 483.554L383.349 476.781M348.732 512.903C349.359 514.847 350.614 519.187 350.614 520.993C350.614 523.251 360.773 524.756 360.961 520.052C360.546 519.162 359.569 517.363 358.828 516.917M348.732 512.903L345.923 513.656M366.981 510.269L365.1 510.646M365.1 510.646V516.101C363.183 516.44 359.544 517.021 358.828 516.917M383.914 506.507L385.795 506.318M385.795 506.318C388.304 509.329 393.96 515.462 396.519 515.913C399.717 516.478 403.856 514.596 403.292 512.715C402.893 511.385 401.192 510.447 400.109 510.03M202.551 327.966V322.322M202.551 327.966L179.034 308.998M202.551 327.966L213.275 326.618M151.002 286.388L179.034 308.998M179.034 303.696L202.551 322.322M179.034 303.696V308.998M179.034 303.696L264.259 293.725M213.275 326.618L529.342 286.888M213.275 326.618C213.195 332.231 213.524 342.088 214.948 350.166M230.959 416.124C230.959 409.489 230.959 398.829 230.959 390.427M529.342 286.888C529.234 292.186 529.84 301.006 532.167 308.588M214.948 350.166C215.754 354.737 216.911 358.739 218.542 361.078C219.867 362.976 221.254 364.73 222.601 366.346M214.948 350.166L532.167 308.588M532.167 308.588C533.871 314.14 536.498 319.027 540.442 321.381C552.107 328.342 554.553 327.966 554.553 336.244C554.553 338.204 554.553 341.071 554.553 344.334M230.959 390.427L554.553 344.334M230.959 390.427C230.959 389.587 230.959 388.77 230.959 387.981M524.827 325.332L546.463 336.808L547.404 342.076L542.7 343.205M524.827 325.332L523.698 330.412L542.7 338.501V343.205M524.827 325.332L230.207 365.313M542.7 343.205L249.209 385.347M222.601 366.346C226.993 371.614 230.959 375.418 230.959 378.01C230.959 379.011 230.959 382.896 230.959 387.981M222.601 366.346L230.207 365.313M230.207 365.313L249.209 379.515V385.347M249.209 385.347L230.959 387.981" stroke="black"/>
<path d="M467.822 258.92L467.446 251.771C466.944 249.388 464.549 244.659 458.98 244.81C457.742 244.843 454.846 244.651 450.618 244.37C431.061 243.07 384.29 239.629 338.761 248.384C306.342 254.619 296.148 256.763 294.564 257.227H295.302C286.522 259.923 268.022 265.618 264.259 266.822C260.497 268.026 259.556 273.344 259.556 275.852L264.259 293.725L268.775 306.518L469.139 282.061L467.822 258.92Z" fill="#81ECEC"/>
<path fill-rule="evenodd" clip-rule="evenodd" d="M146.11 273.971C146.087 274.109 146.066 274.261 146.049 274.425C146.057 274.258 146.078 274.107 146.11 273.971ZM399.808 509.922C399.901 509.953 400.002 509.989 400.109 510.03C401.192 510.447 402.893 511.385 403.292 512.715C403.856 514.596 399.717 516.478 396.519 515.913C393.96 515.462 388.304 509.329 385.795 506.318L383.914 506.507V501.615L391.251 500.298V505.19C393.948 506.569 399.416 509.441 399.717 509.893C399.747 509.902 399.777 509.912 399.808 509.922ZM373.897 508.891C375.916 510.092 378.621 511.702 379.21 512.527C380.778 513.718 383.763 516.553 383.161 518.359C382.409 520.617 374.319 521.557 371.873 516.854C369.916 513.091 367.797 510.896 366.981 510.269L365.1 510.646V505.19L372.437 503.496V508.012C372.832 508.256 373.338 508.558 373.897 508.891ZM358.704 516.854C358.744 516.87 358.785 516.891 358.828 516.917C359.569 517.363 360.546 519.162 360.961 520.052C360.773 524.756 350.614 523.251 350.614 520.993C350.614 519.187 349.359 514.847 348.732 512.903L345.923 513.656L346.098 508.576L353.436 507.259V512.151C355.192 513.593 358.704 516.553 358.704 516.854ZM294.564 257.227C294.044 257.379 294.45 257.351 295.302 257.227H294.564Z" fill="#81ECEC"/>
<path d="M336.127 498.04L331.424 493.525L331.312 485.623L318.819 487.881L333.681 502.179L404.044 489.762L394.449 481.673V487.317L388.993 488.257L383.349 484.118V476.781L342.238 483.554L342.336 496.159L336.127 498.04Z" fill="#81ECEC"/>
<path d="M333.681 521.369L345.722 519.488L345.923 513.656L346.098 508.576L353.436 507.259V512.151C355.192 513.593 358.704 516.553 358.704 516.854C358.744 516.87 358.785 516.891 358.828 516.917C359.544 517.021 363.183 516.44 365.1 516.101V510.646V505.19L372.437 503.496V508.012C372.832 508.256 373.338 508.558 373.897 508.891C375.916 510.092 378.621 511.702 379.21 512.527L383.914 512.151V506.507V501.615L391.251 500.298V505.19C393.948 506.569 399.416 509.441 399.717 509.893C399.747 509.902 399.777 509.912 399.808 509.922C399.901 509.953 400.002 509.989 400.109 510.03C400.865 510.048 402.441 509.491 403.292 509.14V492.773H404.044V489.762L333.681 502.179V521.369Z" fill="#81ECEC"/>
<path d="M318.819 487.881V507.259L333.681 521.369V502.179L318.819 487.881Z" fill="#81ECEC"/>
<path d="M224.563 566.334L220.612 562.195V558.996L219.671 558.056L213.275 411.874M224.563 566.334L234.346 564.452V561.442L235.287 560.313L239.426 414.132M224.563 566.334L220.236 418.647M239.426 414.132L243.185 413.568M239.426 414.132L230.959 416.124M554.553 367.474L553.988 366.91L534.798 369.791M554.553 367.474L563.207 365.969V331.54C563.207 330.537 562.567 328.229 560.009 327.025C557.45 325.821 550.915 321.757 547.968 319.876C544.393 317.368 537.357 308.513 537.809 293.161V285.823M554.553 367.474C554.553 362.089 554.553 352.091 554.553 344.334M554.553 367.474V344.334M537.809 285.823C538.248 284.82 539.126 282.512 539.126 281.308M537.809 285.823L529.342 286.888M539.126 281.308L503.756 265.317L491.339 267.01L480.615 261.93L479.675 262.307L448.82 173.883L477.229 159.02C478.044 159.146 479.788 158.982 480.239 157.327L484.378 155.069L482.873 151.118M539.126 281.308L202.551 322.322M482.873 151.118L457.475 143.405C455.154 143.029 449.31 142.577 444.493 143.781C438.473 145.286 418.907 151.683 405.361 157.139C391.815 162.595 346.851 180.091 331.8 182.161C316.749 184.23 254.288 202.479 211.958 224.303C169.627 246.127 149.12 262.495 146.11 273.971M482.873 151.118L175.459 302.568L164.359 293.537C149.314 284.169 145.914 277.188 146.049 274.425M146.11 273.971C146.078 274.107 146.057 274.258 146.049 274.425M146.11 273.971C146.087 274.109 146.066 274.261 146.049 274.425M213.275 411.874L163.042 364.276V361.83C153.109 352.95 150.876 349.601 151.002 349.037L150.626 286.388C146.395 282.016 145.798 276.863 146.049 274.425M213.275 411.874L220.236 418.647M467.822 258.92L471.209 259.673L444.493 175.952L281.568 257.227H294.564M467.822 258.92L467.446 251.771C466.944 249.388 464.549 244.659 458.98 244.81C457.742 244.843 454.846 244.651 450.618 244.37C431.061 243.07 384.29 239.629 338.761 248.384C306.342 254.619 296.148 256.763 294.564 257.227M467.822 258.92L469.139 282.061L268.775 306.518L264.259 293.725M295.302 257.227C286.522 259.923 268.022 265.618 264.259 266.822C260.497 268.026 259.556 273.344 259.556 275.852L264.259 293.725M295.302 257.227H294.564M295.302 257.227C294.45 257.351 294.044 257.379 294.564 257.227M510.153 373.491L514.48 502.556L515.609 504.625V507.259L520.876 511.022M510.153 373.491L518.995 372.163M510.153 373.491L394.449 390.86M520.876 511.022L529.154 509.517V506.507L530.471 505.942L534.798 369.791M520.876 511.022L518.995 372.163M534.798 369.791L518.995 372.163M220.236 418.647V384.595C220.612 381.71 219.747 375 213.275 371.237C205.185 366.534 201.234 335.115 202.551 327.966M220.236 418.647L230.959 416.124M260.685 410.941L258.804 466.81L257.675 468.127V470.573L248.832 471.89M260.685 410.941L247.704 412.889M260.685 410.941L330.107 400.519M248.832 471.89L245.822 468.691V466.81L244.881 465.493L243.185 413.568M248.832 471.89L247.704 412.889M243.185 413.568L247.704 412.889M330.107 400.519L336.127 399.615M330.107 400.519L331.312 485.623M336.127 498.04L331.424 493.525L331.312 485.623M336.127 498.04V399.615M336.127 498.04L342.336 496.159L342.238 483.554M336.127 399.615L341.583 398.796M341.583 398.796L383.349 392.526M341.583 398.796L342.238 483.554M388.993 488.257L383.349 484.118V476.781M388.993 488.257V391.679M388.993 488.257L394.449 487.317V481.673M388.993 391.679L394.449 390.86M388.993 391.679L383.349 392.526M394.449 390.86V481.673M383.349 392.526V476.781M331.312 485.623L318.819 487.881M318.819 487.881V507.259L333.681 521.369M318.819 487.881L333.681 502.179M333.681 521.369L345.722 519.488L345.923 513.656M333.681 521.369V502.179M353.436 512.151V507.259L346.098 508.576L345.923 513.656M353.436 512.151C355.192 513.593 358.704 516.553 358.704 516.854M353.436 512.151L348.732 512.903M358.704 516.854C358.704 516.884 358.747 516.905 358.828 516.917M358.704 516.854C358.744 516.87 358.785 516.891 358.828 516.917M372.437 508.012V503.496L365.1 505.19V510.646M372.437 508.012L366.981 510.269M372.437 508.012C372.832 508.256 373.338 508.558 373.897 508.891C375.916 510.092 378.621 511.702 379.21 512.527M379.21 512.527L383.914 512.151V506.507M379.21 512.527C380.778 513.718 383.763 516.553 383.161 518.359C382.409 520.617 374.319 521.557 371.873 516.854C369.916 513.091 367.797 510.896 366.981 510.269M391.251 505.19V500.298L383.914 501.615V506.507M391.251 505.19C393.948 506.569 399.416 509.441 399.717 509.893M391.251 505.19L385.795 506.318M399.717 509.893C399.778 509.984 399.917 510.026 400.109 510.03M399.717 509.893C399.747 509.902 399.777 509.912 399.808 509.922C399.901 509.953 400.002 509.989 400.109 510.03M404.044 489.762V492.773H403.292V509.14C402.441 509.491 400.865 510.048 400.109 510.03M404.044 489.762L394.449 481.673M404.044 489.762L333.681 502.179M342.238 483.554L383.349 476.781M348.732 512.903C349.359 514.847 350.614 519.187 350.614 520.993C350.614 523.251 360.773 524.756 360.961 520.052C360.546 519.162 359.569 517.363 358.828 516.917M348.732 512.903L345.923 513.656M366.981 510.269L365.1 510.646M365.1 510.646V516.101C363.183 516.44 359.544 517.021 358.828 516.917M383.914 506.507L385.795 506.318M385.795 506.318C388.304 509.329 393.96 515.462 396.519 515.913C399.717 516.478 403.856 514.596 403.292 512.715C402.893 511.385 401.192 510.447 400.109 510.03M202.551 327.966V322.322M202.551 327.966L179.034 308.998M202.551 327.966L213.275 326.618M151.002 286.388L179.034 308.998M179.034 303.696L202.551 322.322M179.034 303.696V308.998M179.034 303.696L264.259 293.725M213.275 326.618L529.342 286.888M213.275 326.618C213.195 332.231 213.524 342.088 214.948 350.166M230.959 378.01C230.959 379.011 230.959 382.896 230.959 387.981M230.959 378.01C230.959 376.004 228.582 373.271 225.47 369.694M230.959 378.01V387.981M230.959 416.124C230.959 409.489 230.959 398.829 230.959 390.427M230.959 416.124V390.427M529.342 286.888C529.234 292.186 529.84 301.006 532.167 308.588M554.553 336.244C554.553 338.204 554.553 341.071 554.553 344.334M554.553 336.244V344.334M554.553 336.244C554.553 329.416 552.889 328.476 545.759 324.449C544.245 323.594 542.485 322.6 540.442 321.381C536.498 319.027 533.871 314.14 532.167 308.588M214.948 350.166C215.754 354.737 216.911 358.739 218.542 361.078C219.867 362.976 221.254 364.73 222.601 366.346M214.948 350.166L532.167 308.588M230.959 390.427L554.553 344.334M230.959 390.427C230.959 389.587 230.959 388.77 230.959 387.981M230.959 390.427V387.981M524.827 325.332L546.463 336.808L547.404 342.076L542.7 343.205M524.827 325.332L523.698 330.412L542.7 338.501V343.205M524.827 325.332L230.207 365.313M542.7 343.205L249.209 385.347M222.601 366.346L230.207 365.313M222.601 366.346C223.468 367.387 224.32 368.371 225.127 369.299M230.207 365.313L249.209 379.515V385.347M249.209 385.347L230.959 387.981M225.47 369.694L225.467 369.69M225.47 369.694C225.357 369.564 225.242 369.432 225.127 369.299M225.47 369.694C225.469 369.693 225.468 369.692 225.467 369.69M225.467 369.69C225.355 369.561 225.241 369.431 225.127 369.299" stroke="black"/>
<path fill-rule="evenodd" clip-rule="evenodd" d="M146.11 273.971C146.087 274.109 146.066 274.261 146.049 274.425C146.057 274.258 146.078 274.107 146.11 273.971ZM399.808 509.922C399.901 509.953 400.002 509.989 400.109 510.03C401.192 510.447 402.893 511.385 403.292 512.715C403.856 514.596 399.717 516.478 396.519 515.913C393.96 515.462 388.304 509.329 385.795 506.318L383.914 506.507V501.615L391.251 500.298V505.19C393.948 506.569 399.416 509.441 399.717 509.893C399.747 509.902 399.777 509.912 399.808 509.922ZM373.897 508.891C375.916 510.092 378.621 511.702 379.21 512.527C380.778 513.718 383.763 516.553 383.161 518.359C382.409 520.617 374.319 521.557 371.873 516.854C369.916 513.091 367.797 510.896 366.981 510.269L365.1 510.646V505.19L372.437 503.496V508.012C372.832 508.256 373.338 508.558 373.897 508.891ZM358.704 516.854C358.744 516.87 358.785 516.891 358.828 516.917C359.569 517.363 360.546 519.162 360.961 520.052C360.773 524.756 350.614 523.251 350.614 520.993C350.614 519.187 349.359 514.847 348.732 512.903L345.923 513.656L346.098 508.576L353.436 507.259V512.151C355.192 513.593 358.704 516.553 358.704 516.854ZM294.564 257.227C294.044 257.379 294.45 257.351 295.302 257.227H294.564Z" fill="#FFD4AC"/>
<path d="M258.804 466.81L260.685 410.941L247.704 412.889L248.832 471.89L257.675 470.573V468.127L258.804 466.81Z" fill="#FFD4AC"/>
<path d="M245.822 468.691L248.832 471.89L247.704 412.889L243.185 413.568L244.881 465.493L245.822 466.81V468.691Z" fill="#FFD4AC"/>
<path d="M520.876 511.022L529.154 509.517V506.507L530.471 505.942L534.798 369.791L518.995 372.163L520.876 511.022Z" fill="#FFD4AC"/>
<path d="M510.153 373.491L514.48 502.556L515.609 504.625V507.259L520.876 511.022L518.995 372.163L510.153 373.491Z" fill="#FFD4AC"/>
<path d="M383.349 484.118L388.993 488.257V391.679L383.349 392.526V476.781V484.118Z" fill="#FFD4AC"/>
<path d="M388.993 391.679V488.257L394.449 487.317V481.673V390.86L388.993 391.679Z" fill="#FFD4AC"/>
<path d="M336.127 399.615V498.04L342.336 496.159L342.238 483.554L341.583 398.796L336.127 399.615Z" fill="#FFD4AC"/>
<path d="M331.424 493.525L336.127 498.04V399.615L330.107 400.519L331.312 485.623L331.424 493.525Z" fill="#FFD4AC"/>
<path d="M230.207 365.313L249.209 379.515V385.347L255.417 384.456V378.01L237.544 364.318L230.207 365.313Z" fill="#FFD4AC"/>
<path d="M237.544 364.318L255.417 378.01V384.456L261.626 383.564V378.01L242.436 363.654L237.544 364.318Z" fill="#FFD4AC"/>
<path d="M261.626 378.01V383.564L267.458 382.727V377.446L249.773 362.658L242.436 363.654L261.626 378.01Z" fill="#FFD4AC"/>
<path d="M267.458 377.446V382.727L273.666 381.835V376.505L254.853 361.969L249.773 362.658L267.458 377.446Z" fill="#FFD4AC"/>
<path d="M273.666 376.505V381.835L279.687 380.971V375.564L259.932 361.279L254.853 361.969L273.666 376.505Z" fill="#FFD4AC"/>
<path d="M279.687 375.564V380.971L285.707 380.106V375L265.953 360.462L259.932 361.279L279.687 375.564Z" fill="#FFD4AC"/>
<path d="M285.707 375V380.106L291.727 379.242V374.059L271.597 359.697L265.953 360.462L285.707 375Z" fill="#FFD4AC"/>
<path d="M291.727 374.059V379.242L297.559 378.405V373.118L277.053 358.956L271.597 359.697L291.727 374.059Z" fill="#FFD4AC"/>
<path d="M297.559 373.118V378.405L303.58 377.54V372.178L282.697 358.19L277.053 358.956L297.559 373.118Z" fill="#FFD4AC"/>
<path d="M303.58 372.178V377.54L309.6 376.676V371.425L288.905 357.348L282.697 358.19L303.58 372.178Z" fill="#FFD4AC"/>
<path d="M309.6 371.425V376.676L315.244 375.865V370.673L294.691 356.562L288.905 357.348L309.6 371.425Z" fill="#FFD4AC"/>
<path d="M315.244 370.673V375.865L321.272 375V369.732L300.005 355.841L294.691 356.562L315.244 370.673Z" fill="#FFD4AC"/>
<path d="M321.272 369.732V375L327.097 374.163V368.979L306.214 354.999L300.005 355.841L321.272 369.732Z" fill="#FFD4AC"/>
<path d="M327.097 368.979V374.163L333.117 373.299V368.415L312.046 354.207L306.214 354.999L327.097 368.979Z" fill="#FFD4AC"/>
<path d="M224.563 566.334L234.346 564.452V561.442L235.287 560.313L239.426 414.132L230.959 416.124L220.236 418.647L224.563 566.334Z" fill="#FFD4AC"/>
<path d="M220.612 558.996V562.195L224.563 566.334L220.236 418.647L213.275 411.874L219.671 558.056L220.612 558.996Z" fill="#FFD4AC"/>
<path d="M333.117 368.415V373.299L338.761 372.488V367.286L316.937 353.544L312.046 354.207L333.117 368.415Z" fill="#FFD4AC"/>
<path d="M344.781 366.534V371.624L350.426 370.814V365.781L328.602 351.961L323.522 352.65L344.781 366.534Z" fill="#FFD4AC"/>
<path d="M350.426 365.781V370.814L362.09 369.139V364.276L338.761 350.582L334.246 351.195L328.602 351.961L350.426 365.781Z" fill="#FFD4AC"/>
<path d="M373.378 362.771V367.518L379.587 366.626V361.83L356.446 348.182L352.119 348.769L373.378 362.771Z" fill="#FFD4AC"/>
<path d="M407.431 357.691V362.628L412.987 361.83V356.939L391.627 343.408L386.171 344.148L407.431 357.691Z" fill="#FFD4AC"/>
<path d="M500.558 344.334V349.256L505.826 348.5V343.769L488.705 330.234L482.309 331.102L500.558 344.334Z" fill="#FFD4AC"/>
<path d="M516.549 342.076V346.96L521.737 346.215V341.512L506.578 327.808L501.31 328.523L516.549 342.076Z" fill="#FFD4AC"/>
<path d="M527.085 340.947V345.447L532.167 344.717V339.818L517.302 326.353L511.846 327.094L527.085 340.947Z" fill="#FFD4AC"/>
<path d="M542.7 343.205V338.501L524.827 325.332L521.065 325.843L537.434 338.878V343.961L542.7 343.205Z" fill="#FFD4AC"/>
<path d="M532.167 339.818V344.717L537.434 343.961V338.878L521.065 325.843L517.302 326.353L532.167 339.818Z" fill="#FFD4AC"/>
<path d="M521.737 341.512V346.215L527.085 345.447V340.947L511.846 327.094L506.578 327.808L521.737 341.512Z" fill="#FFD4AC"/>
<path d="M511.093 342.64V347.743L516.549 346.96V342.076L501.31 328.523L495.29 329.34L511.093 342.64Z" fill="#FFD4AC"/>
<path d="M505.826 343.769V348.5L511.093 347.743V342.64L495.29 329.34L488.705 330.234L505.826 343.769Z" fill="#FFD4AC"/>
<path d="M489.834 346.215V350.796L495.29 350.012V345.274L477.229 331.791L471.773 332.532L489.834 346.215Z" fill="#FFD4AC"/>
<path d="M484.378 346.779V351.579L489.834 350.796V346.215L471.773 332.532L465.565 333.374L484.378 346.779Z" fill="#FFD4AC"/>
<path d="M495.29 345.274V350.012L500.558 349.256V344.334L482.309 331.102L477.229 331.791L495.29 345.274Z" fill="#FFD4AC"/>
<path d="M468.198 349.037V353.903L473.842 353.092V348.284L454.465 334.881L448.068 335.749L468.198 349.037Z" fill="#FFD4AC"/>
<path d="M473.842 348.284V353.092L479.11 352.336V347.532L459.732 334.166L454.465 334.881L473.842 348.284Z" fill="#FFD4AC"/>
<path d="M479.11 347.532V352.336L484.378 351.579V346.779L465.565 333.374L459.732 334.166L479.11 347.532Z" fill="#FFD4AC"/>
<path d="M452.207 351.295V356.199L457.535 355.434V350.542L436.404 337.331L430.948 338.072L452.207 351.295Z" fill="#FFD4AC"/>
<path d="M457.535 350.542V355.434L462.931 354.659V349.79L442.048 336.566L436.404 337.331L457.535 350.542Z" fill="#FFD4AC"/>
<path d="M462.931 349.79V354.659L468.198 353.903V349.037L448.068 335.749L442.048 336.566L462.931 349.79Z" fill="#FFD4AC"/>
<path d="M424.551 355.434V360.17L429.819 359.413V354.681L409.5 340.982L404.044 341.723L424.551 355.434Z" fill="#FFD4AC"/>
<path d="M446.563 352.235V357.009L452.207 356.199V351.295L430.948 338.072L424.551 338.94L446.563 352.235Z" fill="#FFD4AC"/>
<path d="M441.107 353.176V357.793L446.563 357.009V352.235L424.551 338.94L419.848 339.578L441.107 353.176Z" fill="#FFD4AC"/>
<path d="M429.819 354.681V359.413L441.107 357.793V353.176L419.848 339.578L414.956 340.242L409.5 340.982L429.819 354.681Z" fill="#FFD4AC"/>
<path d="M412.987 356.939V361.83L424.551 360.17V355.434L404.044 341.723L396.331 342.77L391.627 343.408L412.987 356.939Z" fill="#FFD4AC"/>
<path d="M401.975 358.444V363.412L407.431 362.628V357.691L386.171 344.148L380.904 344.863L401.975 358.444Z" fill="#FFD4AC"/>
<path d="M390.687 360.137V365.032L396.331 364.222V359.196L375.071 345.655L369.239 346.446L390.687 360.137Z" fill="#FFD4AC"/>
<path d="M385.042 360.89V365.843L390.687 365.032V360.137L369.239 346.446L363.219 347.263L385.042 360.89Z" fill="#FFD4AC"/>
<path d="M396.331 359.196V364.222L401.975 363.412V358.444L380.904 344.863L375.071 345.655L396.331 359.196Z" fill="#FFD4AC"/>
<path d="M379.587 361.83V366.626L385.042 365.843V360.89L363.219 347.263L356.446 348.182L379.587 361.83Z" fill="#FFD4AC"/>
<path d="M367.922 363.335V368.301L373.378 367.518V362.771L352.119 348.769L344.781 349.79L367.922 363.335Z" fill="#FFD4AC"/>
<path d="M362.09 364.276V369.139L367.922 368.301V363.335L344.781 349.79L338.761 350.582L362.09 364.276Z" fill="#FFD4AC"/>
<path d="M338.761 367.286V372.488L344.781 371.624V366.534L323.522 352.65L316.937 353.544L338.761 367.286Z" fill="#FFD4AC"/>
<path d="M224.563 566.334L220.612 562.195V558.996L219.671 558.056L213.275 411.874M224.563 566.334L234.346 564.452V561.442L235.287 560.313L239.426 414.132M224.563 566.334L220.236 418.647M239.426 414.132L243.185 413.568M239.426 414.132L230.959 416.124M554.553 367.474L553.988 366.91L534.798 369.791M554.553 367.474L563.207 365.969V331.54C563.207 330.537 562.567 328.229 560.009 327.025C557.45 325.821 550.915 321.757 547.968 319.876C544.393 317.368 537.357 308.513 537.809 293.161V285.823M554.553 367.474C554.553 362.089 554.553 352.091 554.553 344.334M554.553 367.474V344.334M537.809 285.823C538.248 284.82 539.126 282.512 539.126 281.308M537.809 285.823L529.342 286.888M539.126 281.308L503.756 265.317L491.339 267.01L480.615 261.93L479.675 262.307L448.82 173.883L477.229 159.02C478.044 159.146 479.788 158.982 480.239 157.327L484.378 155.069L482.873 151.118M539.126 281.308L202.551 322.322M482.873 151.118L457.475 143.405C455.154 143.029 449.31 142.577 444.493 143.781C438.473 145.286 418.907 151.683 405.361 157.139C391.815 162.595 346.851 180.091 331.8 182.161C316.749 184.23 254.288 202.479 211.958 224.303C169.627 246.127 149.12 262.495 146.11 273.971M482.873 151.118L175.459 302.568L164.359 293.537C149.314 284.169 145.914 277.188 146.049 274.425M146.11 273.971C146.078 274.107 146.057 274.258 146.049 274.425M146.11 273.971C146.087 274.109 146.066 274.261 146.049 274.425M213.275 411.874L163.042 364.276V361.83C153.109 352.95 150.876 349.601 151.002 349.037L150.626 286.388C146.395 282.016 145.798 276.863 146.049 274.425M213.275 411.874L220.236 418.647M467.822 258.92L471.209 259.673L444.493 175.952L281.568 257.227H294.564M467.822 258.92L467.446 251.771C466.944 249.388 464.549 244.659 458.98 244.81C457.742 244.843 454.846 244.651 450.618 244.37C431.061 243.07 384.29 239.629 338.761 248.384C306.342 254.619 296.148 256.763 294.564 257.227M467.822 258.92L469.139 282.061L268.775 306.518L264.259 293.725M295.302 257.227C286.522 259.923 268.022 265.618 264.259 266.822C260.497 268.026 259.556 273.344 259.556 275.852L264.259 293.725M295.302 257.227H294.564M295.302 257.227C294.45 257.351 294.044 257.379 294.564 257.227M510.153 373.491L514.48 502.556L515.609 504.625V507.259L520.876 511.022M510.153 373.491L518.995 372.163M510.153 373.491L394.449 390.86M520.876 511.022L529.154 509.517V506.507L530.471 505.942L534.798 369.791M520.876 511.022L518.995 372.163M534.798 369.791L518.995 372.163M220.236 418.647V384.595C220.612 381.71 219.747 375 213.275 371.237C205.185 366.534 201.234 335.115 202.551 327.966M220.236 418.647L230.959 416.124M260.685 410.941L258.804 466.81L257.675 468.127V470.573L248.832 471.89M260.685 410.941L247.704 412.889M260.685 410.941L330.107 400.519M248.832 471.89L245.822 468.691V466.81L244.881 465.493L243.185 413.568M248.832 471.89L247.704 412.889M243.185 413.568L247.704 412.889M330.107 400.519L336.127 399.615M330.107 400.519L331.312 485.623M336.127 498.04L331.424 493.525L331.312 485.623M336.127 498.04V399.615M336.127 498.04L342.336 496.159L342.238 483.554M336.127 399.615L341.583 398.796M341.583 398.796L383.349 392.526M341.583 398.796L342.238 483.554M388.993 488.257L383.349 484.118V476.781M388.993 488.257V391.679M388.993 488.257L394.449 487.317V481.673M388.993 391.679L394.449 390.86M388.993 391.679L383.349 392.526M394.449 390.86V481.673M383.349 392.526V476.781M331.312 485.623L318.819 487.881M318.819 487.881V507.259L333.681 521.369M318.819 487.881L333.681 502.179M333.681 521.369L345.722 519.488L345.923 513.656M333.681 521.369V502.179M353.436 512.151V507.259L346.098 508.576L345.923 513.656M353.436 512.151C355.192 513.593 358.704 516.553 358.704 516.854M353.436 512.151L348.732 512.903M358.704 516.854C358.704 516.884 358.747 516.905 358.828 516.917M358.704 516.854C358.744 516.87 358.785 516.891 358.828 516.917M372.437 508.012V503.496L365.1 505.19V510.646M372.437 508.012L366.981 510.269M372.437 508.012C372.832 508.256 373.338 508.558 373.897 508.891C375.916 510.092 378.621 511.702 379.21 512.527M379.21 512.527L383.914 512.151V506.507M379.21 512.527C380.778 513.718 383.763 516.553 383.161 518.359C382.409 520.617 374.319 521.557 371.873 516.854C369.916 513.091 367.797 510.896 366.981 510.269M391.251 505.19V500.298L383.914 501.615V506.507M391.251 505.19C393.948 506.569 399.416 509.441 399.717 509.893M391.251 505.19L385.795 506.318M399.717 509.893C399.778 509.984 399.917 510.026 400.109 510.03M399.717 509.893C399.747 509.902 399.777 509.912 399.808 509.922C399.901 509.953 400.002 509.989 400.109 510.03M404.044 489.762V492.773H403.292V509.14C402.441 509.491 400.865 510.048 400.109 510.03M404.044 489.762L394.449 481.673M404.044 489.762L333.681 502.179M342.238 483.554L383.349 476.781M348.732 512.903C349.359 514.847 350.614 519.187 350.614 520.993C350.614 523.251 360.773 524.756 360.961 520.052C360.546 519.162 359.569 517.363 358.828 516.917M348.732 512.903L345.923 513.656M366.981 510.269L365.1 510.646M365.1 510.646V516.101C363.183 516.44 359.544 517.021 358.828 516.917M383.914 506.507L385.795 506.318M385.795 506.318C388.304 509.329 393.96 515.462 396.519 515.913C399.717 516.478 403.856 514.596 403.292 512.715C402.893 511.385 401.192 510.447 400.109 510.03M202.551 327.966V322.322M202.551 327.966L179.034 308.998M202.551 327.966L213.275 326.618M151.002 286.388L179.034 308.998M179.034 303.696L202.551 322.322M179.034 303.696V308.998M179.034 303.696L264.259 293.725M213.275 326.618L529.342 286.888M213.275 326.618C213.195 332.231 213.524 342.088 214.948 350.166M230.959 378.01C230.959 379.011 230.959 382.896 230.959 387.981M230.959 378.01C230.959 376.004 228.582 373.271 225.47 369.694M230.959 378.01V387.981M230.959 416.124C230.959 409.489 230.959 398.829 230.959 390.427M230.959 416.124V390.427M529.342 286.888C529.234 292.186 529.84 301.006 532.167 308.588M554.553 336.244C554.553 338.204 554.553 341.071 554.553 344.334M554.553 336.244V344.334M554.553 336.244C554.553 329.416 552.889 328.476 545.759 324.449C544.245 323.594 542.485 322.6 540.442 321.381C536.498 319.027 533.871 314.14 532.167 308.588M214.948 350.166C215.754 354.737 216.911 358.739 218.542 361.078C219.867 362.976 221.254 364.73 222.601 366.346M214.948 350.166L532.167 308.588M230.959 390.427L554.553 344.334M230.959 390.427C230.959 389.587 230.959 388.77 230.959 387.981M230.959 390.427V387.981M524.827 325.332L546.463 336.808L547.404 342.076L542.7 343.205M524.827 325.332L521.065 325.843M524.827 325.332L542.7 338.501V343.205M542.7 343.205L537.434 343.961M222.601 366.346L230.207 365.313M222.601 366.346C223.468 367.387 224.32 368.371 225.127 369.299M230.207 365.313L249.209 379.515V385.347M230.207 365.313L237.544 364.318M249.209 385.347L230.959 387.981M249.209 385.347L255.417 384.456M225.47 369.694L225.467 369.69M225.47 369.694C225.357 369.564 225.242 369.432 225.127 369.299M225.47 369.694C225.469 369.693 225.468 369.692 225.467 369.69M225.467 369.69C225.355 369.561 225.241 369.431 225.127 369.299M237.544 364.318L255.417 378.01V384.456M237.544 364.318L242.436 363.654M255.417 384.456L261.626 383.564M261.626 383.564V378.01L242.436 363.654M261.626 383.564L267.458 382.727M242.436 363.654L249.773 362.658M267.458 382.727V377.446L249.773 362.658M267.458 382.727L273.666 381.835M249.773 362.658L254.853 361.969M273.666 381.835V376.505L254.853 361.969M273.666 381.835L279.687 380.971M254.853 361.969L259.932 361.279M279.687 380.971V375.564L259.932 361.279M279.687 380.971L285.707 380.106M259.932 361.279L265.953 360.462M285.707 380.106V375L265.953 360.462M285.707 380.106L291.727 379.242M265.953 360.462L271.597 359.697M291.727 379.242V374.059L271.597 359.697M291.727 379.242L297.559 378.405M271.597 359.697L277.053 358.956M297.559 378.405V373.118L277.053 358.956M297.559 378.405L303.58 377.54M277.053 358.956L282.697 358.19M303.58 377.54V372.178L282.697 358.19M303.58 377.54L309.6 376.676M282.697 358.19L288.905 357.348M309.6 376.676V371.425L288.905 357.348M309.6 376.676L315.244 375.865M288.905 357.348L294.691 356.562M315.244 375.865V370.673L294.691 356.562M315.244 375.865L321.272 375M294.691 356.562L300.005 355.841M321.272 375V369.732L300.005 355.841M321.272 375L327.097 374.163M300.005 355.841L306.214 354.999M327.097 374.163V368.979L306.214 354.999M327.097 374.163L333.117 373.299M306.214 354.999L312.046 354.207M333.117 373.299V368.415L312.046 354.207M333.117 373.299L338.761 372.488M312.046 354.207L316.937 353.544M338.761 372.488V367.286L316.937 353.544M338.761 372.488L344.781 371.624M316.937 353.544L323.522 352.65M344.781 371.624V366.534L323.522 352.65M344.781 371.624L350.426 370.814M323.522 352.65L328.602 351.961M350.426 370.814V365.781L328.602 351.961M350.426 370.814L362.09 369.139M328.602 351.961L334.246 351.195M356.446 369.732V364.84L334.246 351.195M334.246 351.195L338.761 350.582M362.09 369.139V364.276L338.761 350.582M362.09 369.139L367.922 368.301M338.761 350.582L344.781 349.79M367.922 368.301V363.335L344.781 349.79M367.922 368.301L373.378 367.518M344.781 349.79L352.119 348.769M373.378 367.518V362.771L352.119 348.769M373.378 367.518L379.587 366.626M352.119 348.769L356.446 348.182M379.587 366.626V361.83L356.446 348.182M379.587 366.626L385.042 365.843M356.446 348.182L363.219 347.263M385.042 365.843V360.89L363.219 347.263M385.042 365.843L390.687 365.032M363.219 347.263L369.239 346.446M390.687 365.032V360.137L369.239 346.446M390.687 365.032L396.331 364.222M369.239 346.446L375.071 345.655M396.331 364.222V359.196L375.071 345.655M396.331 364.222L401.975 363.412M375.071 345.655L380.904 344.863M401.975 363.412V358.444L380.904 344.863M401.975 363.412L407.431 362.628M380.904 344.863L386.171 344.148M407.431 362.628V357.691L386.171 344.148M407.431 362.628L412.987 361.83M386.171 344.148L391.627 343.408M412.987 361.83V356.939L391.627 343.408M412.987 361.83L424.551 360.17M391.627 343.408L396.331 342.77M418.719 360.89V356.186L396.331 342.77M396.331 342.77L404.044 341.723M424.551 360.17V355.434L404.044 341.723M424.551 360.17L429.819 359.413M404.044 341.723L409.5 340.982M429.819 359.413V354.681L409.5 340.982M429.819 359.413L441.107 357.793M409.5 340.982L414.956 340.242M435.463 358.444V353.74L414.956 340.242M414.956 340.242L419.848 339.578M441.107 357.793V353.176L419.848 339.578M441.107 357.793L446.563 357.009M419.848 339.578L424.551 338.94M446.563 357.009V352.235L424.551 338.94M446.563 357.009L452.207 356.199M424.551 338.94L430.948 338.072M452.207 356.199V351.295L430.948 338.072M452.207 356.199L457.535 355.434M430.948 338.072L436.404 337.331M457.535 355.434V350.542L436.404 337.331M457.535 355.434L462.931 354.659M436.404 337.331L442.048 336.566M462.931 354.659V349.79L442.048 336.566M462.931 354.659L468.198 353.903M442.048 336.566L448.068 335.749M468.198 353.903V349.037L448.068 335.749M468.198 353.903L473.842 353.092M448.068 335.749L454.465 334.881M473.842 353.092V348.284L454.465 334.881M473.842 353.092L479.11 352.336M454.465 334.881L459.732 334.166M479.11 352.336V347.532L459.732 334.166M479.11 352.336L484.378 351.579M459.732 334.166L465.565 333.374M484.378 351.579V346.779L465.565 333.374M484.378 351.579L489.834 350.796M465.565 333.374L471.773 332.532M489.834 350.796V346.215L471.773 332.532M489.834 350.796L495.29 350.012M471.773 332.532L477.229 331.791M495.29 350.012V345.274L477.229 331.791M495.29 350.012L500.558 349.256M477.229 331.791L482.309 331.102M500.558 349.256V344.334L482.309 331.102M500.558 349.256L505.826 348.5M482.309 331.102L488.705 330.234M505.826 348.5V343.769L488.705 330.234M505.826 348.5L511.093 347.743M488.705 330.234L495.29 329.34M511.093 347.743V342.64L495.29 329.34M511.093 347.743L516.549 346.96M495.29 329.34L501.31 328.523M516.549 346.96V342.076L501.31 328.523M516.549 346.96L521.737 346.215M501.31 328.523L506.578 327.808M521.737 346.215V341.512L506.578 327.808M521.737 346.215L527.085 345.447M506.578 327.808L511.846 327.094M527.085 345.447V340.947L511.846 327.094M527.085 345.447L532.167 344.717M511.846 327.094L517.302 326.353M532.167 344.717V339.818L517.302 326.353M532.167 344.717L537.434 343.961M517.302 326.353L521.065 325.843M537.434 343.961V338.878L521.065 325.843" stroke="black"/>
</svg>
