<svg width="710" height="710" viewBox="0 0 710 710" fill="none" xmlns="http://www.w3.org/2000/svg">
<circle cx="355" cy="355" r="350" stroke="white" stroke-width="10"/>
<path d="M304.487 367.994C276.274 385.54 219.174 420.378 216.479 419.367C218.891 420.414 222.121 422.366 225.43 425.262L243.85 413.051C248.342 413.051 257.072 415.493 256.062 425.262L235.223 437.474C237.999 442.575 240.027 448.737 240.481 456.001C267.431 436.772 321.835 398.313 323.857 398.313C324.992 398.313 326.383 397.802 327.646 397.164C330.005 375.696 314.874 366.877 307.013 365.151C306.014 366.124 305.085 367.217 304.487 367.994Z" fill="#FF7675"/>
<path d="M420.286 298.094C398.67 311.99 354.512 340.287 350.806 342.308C347.46 344.133 346.312 343.541 341.963 343.865C348.914 345.171 362.876 352.582 363.126 371.784C363.561 371.012 363.951 370.299 364.281 369.679C383.791 356.204 424.244 328.328 429.971 324.622C433.358 322.43 434.106 322.219 435.024 322.336C439.235 318.787 442.603 313.253 437.129 302.305C432.75 293.546 424.075 295.848 420.286 298.094Z" fill="#FF7675"/>
<path d="M441.761 285.882H439.656C445.27 288.128 456.247 295.82 455.236 308.621C465.904 301.322 488.502 285.63 493.555 281.25C499.871 275.776 497.345 280.408 501.134 277.46C503.661 272.828 504.924 266.933 498.608 258.933C493.555 252.532 486.396 255.143 483.449 257.248L441.761 285.882Z" fill="#FF7675"/>
<path d="M538.19 224.825C517.136 236.615 513.346 243.352 504.082 242.089C510.258 243.212 522.357 248.658 521.347 261.459C533.137 253.458 557.644 236.615 561.35 233.246C565.982 229.035 560.087 221.877 556.718 218.087C554.023 215.055 550.823 215.982 549.56 216.824L538.19 224.825Z" fill="#FF7675"/>
<path d="M209.321 421.472C207.215 426.525 190.372 432 176.897 437.474C166.117 441.853 152.474 459.791 147 468.213L165.528 493.478C169.233 493.478 186.442 492.917 194.583 492.636C206.373 489.688 227.849 461.897 233.744 462.318M209.321 421.472C210.584 420.349 213.784 418.356 216.479 419.367M209.321 421.472C218.585 423.297 236.439 434.021 233.744 462.318M216.479 419.367C219.174 420.378 276.274 385.54 304.487 367.994C305.085 367.217 306.014 366.124 307.013 365.151M216.479 419.367C218.891 420.414 222.121 422.366 225.43 425.262M420.286 298.094C398.67 311.99 354.512 340.287 350.806 342.308C347.46 344.133 346.312 343.541 341.963 343.865M420.286 298.094C421.409 293.743 426.855 285.209 439.656 285.882M420.286 298.094C424.075 295.848 432.75 293.546 437.129 302.305C442.603 313.253 439.235 318.787 435.024 322.336M439.656 285.882H441.761L483.449 257.248M439.656 285.882C445.27 288.128 456.247 295.82 455.236 308.621M483.449 257.248C484.572 255.845 487.154 252.953 488.502 252.616C490.186 252.195 494.818 240.826 504.082 242.089M483.449 257.248C486.396 255.143 493.555 252.532 498.608 258.933C504.924 266.933 503.661 272.828 501.134 277.46M504.082 242.089C513.346 243.352 517.136 236.615 538.19 224.825L549.56 216.824C550.823 215.982 554.023 215.055 556.718 218.087C560.087 221.877 565.982 229.035 561.35 233.246C557.644 236.615 533.137 253.458 521.347 261.459M504.082 242.089C510.258 243.212 522.357 248.658 521.347 261.459M521.347 261.459C520.926 264.547 518.315 271.397 511.241 274.092C502.398 277.46 504.924 274.513 501.134 277.46M501.134 277.46C497.345 280.408 499.871 275.776 493.555 281.25C488.502 285.63 465.904 301.322 455.236 308.621M455.236 308.621C454.394 312.13 450.688 319.653 442.603 321.675C437.28 323.005 436.046 322.467 435.024 322.336M331.015 394.944C331.857 394.102 350.605 387.116 353.754 384.417C356.702 381.89 360.414 376.594 363.126 371.784M331.015 394.944C330.552 395.407 329.194 396.382 327.646 397.164M331.015 394.944C336.068 375.742 319.765 365.608 310.982 362.941M240.481 456.001C267.431 436.772 321.835 398.313 323.857 398.313C324.992 398.313 326.383 397.802 327.646 397.164M240.481 456.001C240.201 458.247 238.46 462.655 233.744 462.318M240.481 456.001C240.027 448.737 237.999 442.575 235.223 437.474M307.013 365.151C308.36 363.84 309.836 362.748 310.803 362.941C310.856 362.952 310.916 362.952 310.982 362.941M307.013 365.151C314.874 366.877 330.005 375.696 327.646 397.164M310.982 362.941C313.507 362.537 324.966 346.887 335.226 344.835C338.149 344.25 340.292 343.99 341.963 343.865M341.963 343.865C348.914 345.171 362.876 352.582 363.126 371.784M363.126 371.784C363.561 371.012 363.951 370.299 364.281 369.679C383.791 356.204 424.244 328.328 429.971 324.622C433.358 322.43 434.106 322.219 435.024 322.336M225.43 425.262L243.85 413.051C248.342 413.051 257.072 415.493 256.062 425.262L235.223 437.474M225.43 425.262C228.888 428.288 232.433 432.345 235.223 437.474" stroke="black"/>
<path d="M488.502 252.616C487.154 252.953 484.572 255.845 483.449 257.248C486.396 255.143 493.555 252.532 498.608 258.933C504.924 266.933 503.661 272.828 501.134 277.46C504.924 274.513 502.398 277.46 511.241 274.092C518.315 271.397 520.926 264.547 521.347 261.459C522.357 248.658 510.258 243.212 504.082 242.089C494.818 240.826 490.186 252.195 488.502 252.616Z" fill="#FFD4AC"/>
<path d="M176.897 437.474C166.117 441.853 152.474 459.791 147 468.213L165.528 493.478C169.233 493.478 186.442 492.917 194.583 492.636C206.373 489.688 227.849 461.897 233.744 462.318C236.439 434.021 218.585 423.297 209.321 421.472C207.215 426.525 190.372 432 176.897 437.474Z" fill="#FFD4AC"/>
<path d="M331.015 394.944C331.857 394.102 350.605 387.116 353.754 384.417C356.702 381.89 360.414 376.594 363.126 371.784C362.876 352.582 348.914 345.171 341.963 343.865C340.292 343.99 338.149 344.25 335.226 344.835C324.966 346.887 313.507 362.537 310.982 362.941C319.765 365.608 336.068 375.742 331.015 394.944Z" fill="#FFD4AC"/>
<path d="M439.656 285.882C426.855 285.209 421.409 293.743 420.286 298.094C424.075 295.848 432.75 293.546 437.129 302.305C442.603 313.253 439.235 318.787 435.024 322.336C436.046 322.467 437.28 323.005 442.603 321.675C450.688 319.653 454.394 312.13 455.236 308.621C456.247 295.82 445.27 288.128 439.656 285.882Z" fill="#FFD4AC"/>
<path d="M209.321 421.472C207.215 426.525 190.372 432 176.897 437.474C166.117 441.853 152.474 459.791 147 468.213L165.528 493.478C169.233 493.478 186.442 492.917 194.583 492.636C206.373 489.688 227.849 461.897 233.744 462.318M209.321 421.472C210.584 420.349 213.784 418.356 216.479 419.367M209.321 421.472C218.585 423.297 236.439 434.021 233.744 462.318M216.479 419.367C219.174 420.378 276.274 385.54 304.487 367.994C305.085 367.217 306.014 366.124 307.013 365.151M216.479 419.367C218.891 420.414 222.121 422.366 225.43 425.262M420.286 298.094C398.67 311.99 354.512 340.287 350.806 342.308C347.46 344.133 346.312 343.541 341.963 343.865M420.286 298.094C421.409 293.743 426.855 285.209 439.656 285.882M420.286 298.094C424.075 295.848 432.75 293.546 437.129 302.305C442.603 313.253 439.235 318.787 435.024 322.336M439.656 285.882H441.761L483.449 257.248M439.656 285.882C445.27 288.128 456.247 295.82 455.236 308.621M483.449 257.248C484.572 255.845 487.154 252.953 488.502 252.616C490.186 252.195 494.818 240.826 504.082 242.089M483.449 257.248C486.396 255.143 493.555 252.532 498.608 258.933C504.924 266.933 503.661 272.828 501.134 277.46M504.082 242.089C513.346 243.352 517.136 236.615 538.19 224.825L549.56 216.824C550.823 215.982 554.023 215.055 556.718 218.087C560.087 221.877 565.982 229.035 561.35 233.246C557.644 236.615 533.137 253.458 521.347 261.459M504.082 242.089C510.258 243.212 522.357 248.658 521.347 261.459M521.347 261.459C520.926 264.547 518.315 271.397 511.241 274.092C502.398 277.46 504.924 274.513 501.134 277.46M501.134 277.46C497.345 280.408 499.871 275.776 493.555 281.25C488.502 285.63 465.904 301.322 455.236 308.621M455.236 308.621C454.394 312.13 450.688 319.653 442.603 321.675C437.28 323.005 436.046 322.467 435.024 322.336M331.015 394.944C331.857 394.102 350.605 387.116 353.754 384.417C356.702 381.89 360.414 376.594 363.126 371.784M331.015 394.944C330.552 395.407 329.194 396.382 327.646 397.164M331.015 394.944C336.068 375.742 319.765 365.608 310.982 362.941M240.481 456.001C267.431 436.772 321.835 398.313 323.857 398.313C324.992 398.313 326.383 397.802 327.646 397.164M240.481 456.001C240.201 458.247 238.46 462.655 233.744 462.318M240.481 456.001C240.027 448.737 237.999 442.575 235.223 437.474M307.013 365.151C308.36 363.84 309.836 362.748 310.803 362.941C310.856 362.952 310.916 362.952 310.982 362.941M307.013 365.151C314.874 366.877 330.005 375.696 327.646 397.164M310.982 362.941C313.507 362.537 324.966 346.887 335.226 344.835C338.149 344.25 340.292 343.99 341.963 343.865M341.963 343.865C348.914 345.171 362.876 352.582 363.126 371.784M363.126 371.784C363.561 371.012 363.951 370.299 364.281 369.679C383.791 356.204 424.244 328.328 429.971 324.622C433.358 322.43 434.106 322.219 435.024 322.336M225.43 425.262L243.85 413.051C248.342 413.051 257.072 415.493 256.062 425.262L235.223 437.474M225.43 425.262C228.888 428.288 232.433 432.345 235.223 437.474" stroke="black"/>
<path d="M216.479 419.367C213.784 418.356 210.584 420.349 209.321 421.472C218.585 423.297 236.439 434.021 233.744 462.318C238.46 462.655 240.201 458.247 240.481 456.001C240.027 448.737 237.999 442.575 235.223 437.474C232.433 432.345 228.888 428.288 225.43 425.262C222.121 422.366 218.891 420.414 216.479 419.367Z" fill="#81ECEC"/>
<path d="M243.85 413.051L225.43 425.262C228.888 428.288 232.433 432.345 235.223 437.474L256.062 425.262C257.072 415.493 248.342 413.051 243.85 413.051Z" fill="#81ECEC"/>
<path d="M310.803 362.941C309.836 362.748 308.36 363.84 307.013 365.151C314.874 366.877 330.005 375.696 327.646 397.164C329.194 396.382 330.552 395.407 331.015 394.944C336.068 375.742 319.765 365.608 310.982 362.941C310.916 362.952 310.856 362.952 310.803 362.941Z" fill="#81ECEC"/>
<path d="M209.321 421.472C207.215 426.525 190.372 432 176.897 437.474C166.117 441.853 152.474 459.791 147 468.213L165.528 493.478C169.233 493.478 186.442 492.917 194.583 492.636C206.373 489.688 227.849 461.897 233.744 462.318M209.321 421.472C210.584 420.349 213.784 418.356 216.479 419.367M209.321 421.472C218.585 423.297 236.439 434.021 233.744 462.318M216.479 419.367C219.174 420.378 276.274 385.54 304.487 367.994C305.085 367.217 306.014 366.124 307.013 365.151M216.479 419.367C218.891 420.414 222.121 422.366 225.43 425.262M420.286 298.094C398.67 311.99 354.512 340.287 350.806 342.308C347.46 344.133 346.312 343.541 341.963 343.865M420.286 298.094C421.409 293.743 426.855 285.209 439.656 285.882M420.286 298.094C424.075 295.848 432.75 293.546 437.129 302.305C442.603 313.253 439.235 318.787 435.024 322.336M439.656 285.882H441.761L483.449 257.248M439.656 285.882C445.27 288.128 456.247 295.82 455.236 308.621M483.449 257.248C484.572 255.845 487.154 252.953 488.502 252.616C490.186 252.195 494.818 240.826 504.082 242.089M483.449 257.248C486.396 255.143 493.555 252.532 498.608 258.933C504.924 266.933 503.661 272.828 501.134 277.46M504.082 242.089C513.346 243.352 517.136 236.615 538.19 224.825L549.56 216.824C550.823 215.982 554.023 215.055 556.718 218.087C560.087 221.877 565.982 229.035 561.35 233.246C557.644 236.615 533.137 253.458 521.347 261.459M504.082 242.089C510.258 243.212 522.357 248.658 521.347 261.459M521.347 261.459C520.926 264.547 518.315 271.397 511.241 274.092C502.398 277.46 504.924 274.513 501.134 277.46M501.134 277.46C497.345 280.408 499.871 275.776 493.555 281.25C488.502 285.63 465.904 301.322 455.236 308.621M455.236 308.621C454.394 312.13 450.688 319.653 442.603 321.675C437.28 323.005 436.046 322.467 435.024 322.336M331.015 394.944C331.857 394.102 350.605 387.116 353.754 384.417C356.702 381.89 360.414 376.594 363.126 371.784M331.015 394.944C330.552 395.407 329.194 396.382 327.646 397.164M331.015 394.944C336.068 375.742 319.765 365.608 310.982 362.941M240.481 456.001C267.431 436.772 321.835 398.313 323.857 398.313C324.992 398.313 326.383 397.802 327.646 397.164M240.481 456.001C240.201 458.247 238.46 462.655 233.744 462.318M240.481 456.001C240.027 448.737 237.999 442.575 235.223 437.474M307.013 365.151C308.36 363.84 309.836 362.748 310.803 362.941C310.856 362.952 310.916 362.952 310.982 362.941M307.013 365.151C314.874 366.877 330.005 375.696 327.646 397.164M310.982 362.941C313.507 362.537 324.966 346.887 335.226 344.835C338.149 344.25 340.292 343.99 341.963 343.865M341.963 343.865C348.914 345.171 362.876 352.582 363.126 371.784M363.126 371.784C363.561 371.012 363.951 370.299 364.281 369.679C383.791 356.204 424.244 328.328 429.971 324.622C433.358 322.43 434.106 322.219 435.024 322.336M225.43 425.262L243.85 413.051C248.342 413.051 257.072 415.493 256.062 425.262L235.223 437.474M225.43 425.262C228.888 428.288 232.433 432.345 235.223 437.474" stroke="black"/>
<circle cx="407.232" cy="321.675" r="2.94761" fill="black" stroke="black"/>
<circle cx="387.862" cy="334.307" r="2.94761" fill="black" stroke="black"/>
<circle cx="427.444" cy="307.358" r="2.94761" fill="black" stroke="black"/>
<circle cx="456.92" cy="287.988" r="2.94761" fill="black" stroke="black"/>
<circle cx="477.975" cy="274.513" r="2.94761" fill="black" stroke="black"/>
</svg>
